# Created by FreeCAD <https://www.freecad.org>
v -5.873019 -168.540497 -57.873020
v -5.873019 -168.540497 -54.126980
v -5.662152 -162.502045 -48.295719
v -5.000000 -143.540497 -43.000000
v -5.227113 -150.044144 -50.000000
v -5.454225 -156.547806 -42.545776
v -5.000000 -143.540497 -57.000000
v -5.331076 -153.021271 -52.850216
v 5.000000 -143.540497 -43.000000
v 0.000000 -150.044144 -42.772888
v 5.454225 -156.547806 -42.545776
v 5.662152 -162.502045 -48.295719
v 5.873019 -168.540497 -54.126980
v -5.000000 -43.540497 0.000000
v -5.000000 -43.540497 14.000000
v 5.873019 -168.540497 -57.873020
v 0.000000 -156.040497 -57.436508
v 2.609128 -149.790497 -57.218254
v 5.000000 -143.540497 -57.000000
v -2.609128 -149.790497 -57.218254
v 5.227113 -150.044144 -50.000000
v 5.331076 -153.021271 -52.850216
v 5.000000 -43.540497 14.000000
v 5.000000 -43.540497 0.000000
v -7.500000 -18.540497 0.000000
v -7.500000 -18.540497 14.000000
v -6.674532 -18.853397 14.000000
v -5.836061 -19.129568 14.000000
v -4.986218 -19.368469 14.000000
v -4.126662 -19.569635 14.000000
v -3.259066 -19.732676 14.000000
v -2.385120 -19.857271 14.000000
v -1.506528 -19.943178 14.000000
v -0.625000 -19.990232 14.000000
v 0.625000 -19.990232 14.000000
v 1.506528 -19.943178 14.000000
v -1.500000 -16.799999 14.000000
v -1.500000 -17.400000 14.000000
v -0.625000 -17.799999 14.000000
v 2.385120 -19.857271 14.000000
v 0.625000 -17.799999 14.000000
v 3.259066 -19.732676 14.000000
v 4.126662 -19.569635 14.000000
v 1.500000 -16.799999 14.000000
v 1.500000 -17.400000 14.000000
v 4.986218 -19.368469 14.000000
v 5.836061 -19.129568 14.000000
v 6.674532 -18.853397 14.000000
v 7.500000 -18.540497 14.000000
v 6.674532 -18.853397 0.000000
v 7.500000 -18.540497 0.000000
v 5.836061 -19.129568 0.000000
v 4.986218 -19.368469 0.000000
v 4.126662 -19.569635 0.000000
v 3.259066 -19.732676 0.000000
v 2.385120 -19.857271 0.000000
v 1.506528 -19.943178 0.000000
v 0.625000 -19.990232 0.000000
v -0.625000 -19.990232 0.000000
v -1.506528 -19.943178 0.000000
v 0.625000 -17.799999 0.000000
v 1.500000 -16.799999 0.000000
v 1.500000 -17.400000 0.000000
v -2.385120 -19.857271 0.000000
v -0.625000 -17.799999 0.000000
v -3.259066 -19.732676 0.000000
v -4.126662 -19.569635 0.000000
v -1.500000 -16.799999 0.000000
v -1.500000 -17.400000 0.000000
v -4.986218 -19.368469 0.000000
v -5.836061 -19.129568 0.000000
v -6.674532 -18.853397 0.000000
vn -0.999391 0.034899 0.000000
vn -0.999391 0.034899 0.000000
vn -0.999391 0.034900 0.000000
vn -0.999391 0.034899 0.000000
vn -0.999391 0.034899 -0.000000
vn -0.999391 0.034899 -0.000000
vn -0.999391 0.034899 0.000000
vn -0.999391 0.034899 0.000000
vn 0.000000 0.034899 0.999391
vn 0.000000 0.034899 0.999391
vn -0.000000 0.034899 0.999391
vn -0.000000 0.034899 0.999391
vn 0.000000 -0.694658 0.719340
vn 0.000000 -0.694658 0.719340
vn 0.000000 -0.694658 0.719340
vn 0.000000 -0.694658 0.719340
vn -1.000000 0.000000 0.000000
vn -1.000000 -0.000000 0.000000
vn 0.000000 -1.000000 -0.000000
vn 0.000000 -1.000000 0.000000
vn 0.000000 0.034900 -0.999391
vn -0.000000 0.034900 -0.999391
vn -0.000000 0.034900 -0.999391
vn 0.000000 0.034899 -0.999391
vn 0.000000 0.034900 -0.999391
vn 0.000000 0.034900 -0.999391
vn 0.000000 0.034899 -0.999391
vn 0.000000 0.034899 -0.999391
vn 0.999391 0.034899 0.000000
vn 0.999391 0.034899 0.000000
vn 0.999391 0.034900 0.000000
vn 0.999391 0.034899 0.000000
vn 0.999391 0.034899 -0.000000
vn 0.999391 0.034899 -0.000000
vn 0.999391 0.034899 0.000000
vn 0.999391 0.034899 0.000000
vn 0.000000 -0.495203 0.868777
vn 0.000000 -0.495203 0.868777
vn 0.000000 0.495203 -0.868777
vn 0.000000 0.495203 -0.868777
vn -0.995037 -0.099504 0.000000
vn -0.995037 -0.099504 0.000000
vn 1.000000 0.000000 0.000000
vn 1.000000 -0.000000 0.000000
vn 0.000000 0.000000 1.000000
vn 0.000000 0.000000 1.000000
vn 0.000000 0.000000 1.000000
vn 0.000000 0.000000 1.000000
vn 0.000000 0.000000 1.000000
vn 0.000000 0.000000 1.000000
vn 0.000000 0.000000 1.000000
vn 0.000000 0.000000 1.000000
vn 0.000000 0.000000 1.000000
vn 0.000000 0.000000 1.000000
vn 0.000000 0.000000 1.000000
vn 0.000000 0.000000 1.000000
vn 0.000000 0.000000 1.000000
vn 0.000000 0.000000 1.000000
vn 0.000000 0.000000 1.000000
vn 0.000000 0.000000 1.000000
vn 0.000000 0.000000 1.000000
vn 0.000000 0.000000 1.000000
vn 0.000000 0.000000 1.000000
vn 0.000000 0.000000 1.000000
vn 0.000000 0.000000 1.000000
vn 0.000000 0.000000 1.000000
vn 0.000000 0.000000 1.000000
vn 0.000000 0.000000 1.000000
vn 0.000000 -0.000000 -1.000000
vn 0.000000 -0.000000 -1.000000
vn 0.000000 0.000000 -1.000000
vn 0.000000 0.000000 -1.000000
vn 0.000000 0.000000 -1.000000
vn 0.000000 0.000000 -1.000000
vn 0.000000 0.000000 -1.000000
vn 0.000000 0.000000 -1.000000
vn 0.000000 -0.000000 -1.000000
vn 0.000000 0.000000 -1.000000
vn 0.000000 -0.000000 -1.000000
vn 0.000000 -0.000000 -1.000000
vn 0.000000 -0.000000 -1.000000
vn 0.000000 -0.000000 -1.000000
vn 0.000000 0.000000 -1.000000
vn 0.000000 0.000000 -1.000000
vn 0.000000 -0.000000 -1.000000
vn 0.000000 -0.000000 -1.000000
vn 0.000000 0.000000 -1.000000
vn 0.000000 0.000000 -1.000000
vn 0.000000 -0.000000 -1.000000
vn 0.000000 0.000000 -1.000000
vn 0.000000 0.000000 -1.000000
vn 0.000000 0.000000 -1.000000
vn 0.053302 0.998578 -0.000000
vn 0.053302 0.998578 0.000000
vn 0.097314 0.995254 0.000000
vn 0.141140 0.989990 0.000000
vn 0.097314 0.995254 0.000000
vn 0.184689 0.982797 0.000000
vn 0.141140 0.989990 0.000000
vn 0.227877 0.973690 0.000000
vn 0.184689 0.982797 0.000000
vn 0.270623 0.962685 0.000000
vn 0.227877 0.973690 0.000000
vn 0.312841 0.949805 0.000000
vn 0.270623 0.962685 0.000000
vn 0.312841 0.949805 0.000000
vn 0.354448 0.935076 0.000000
vn 0.354448 0.935076 -0.000000
vn 0.995037 -0.099504 0.000000
vn 0.995037 -0.099504 0.000000
vn -0.354448 0.935076 0.000000
vn -0.354448 0.935076 0.000000
vn -0.312841 0.949805 0.000000
vn -0.312841 0.949805 0.000000
vn -0.270623 0.962685 0.000000
vn -0.227877 0.973690 0.000000
vn -0.270623 0.962685 0.000000
vn -0.227877 0.973690 0.000000
vn -0.184689 0.982797 0.000000
vn -0.184689 0.982797 0.000000
vn -0.141140 0.989990 0.000000
vn -0.097314 0.995254 0.000000
vn -0.141140 0.989990 0.000000
vn -0.097314 0.995254 0.000000
vn -0.053302 0.998578 0.000000
vn -0.053302 0.998578 0.000000
vn 1.000000 0.000000 0.000000
vn 1.000000 -0.000000 0.000000
vn 0.415759 -0.909475 0.000000
vn 0.415759 -0.909475 0.000000
vn 1.000000 0.000000 0.000000
vn 1.000000 0.000000 0.000000
vn 0.000000 1.000000 0.000000
vn 0.000000 1.000000 -0.000000
vn -1.000000 0.000000 0.000000
vn -1.000000 0.000000 0.000000
vn -0.415759 -0.909475 0.000000
vn -0.415759 -0.909475 0.000000
vn -1.000000 0.000000 0.000000
vn -1.000000 0.000000 0.000000
f 1//1 2//1 3//1
f 4//2 5//2 6//2
f 7//3 5//3 4//3
f 6//4 8//4 3//4
f 1//5 8//5 7//5
f 7//6 8//6 5//6
f 3//7 8//7 1//7
f 5//8 8//8 6//8
f 9//9 10//9 11//9
f 11//10 10//10 6//10
f 6//11 10//11 4//11
f 4//12 10//12 9//12
f 11//13 6//13 3//13
f 12//14 3//14 2//14
f 12//15 11//15 3//15
f 13//16 12//16 2//16
f 7//17 4//17 14//17
f 14//18 4//18 15//18
f 13//19 1//19 16//19
f 2//20 1//20 13//20
f 1//21 17//21 16//21
f 16//22 18//22 19//22
f 17//23 18//23 16//23
f 19//24 20//24 7//24
f 7//25 20//25 1//25
f 1//26 20//26 17//26
f 18//27 20//27 19//27
f 17//28 20//28 18//28
f 13//29 16//29 12//29
f 11//30 21//30 9//30
f 9//31 21//31 19//31
f 12//32 22//32 11//32
f 19//33 22//33 16//33
f 21//34 22//34 19//34
f 16//35 22//35 12//35
f 11//36 22//36 21//36
f 4//37 9//37 15//37
f 15//38 9//38 23//38
f 19//39 7//39 24//39
f 24//40 7//40 14//40
f 25//41 15//41 26//41
f 25//42 14//42 15//42
f 23//43 9//43 24//43
f 9//44 19//44 24//44
f 27//45 26//45 15//45
f 28//46 27//46 15//46
f 29//47 28//47 15//47
f 30//48 29//48 15//48
f 31//49 30//49 15//49
f 32//50 31//50 15//50
f 33//51 32//51 15//51
f 34//52 33//52 15//52
f 35//53 15//53 23//53
f 35//54 34//54 15//54
f 36//55 35//55 23//55
f 37//56 38//56 39//56
f 40//57 36//57 23//57
f 41//58 39//58 34//58
f 41//59 34//59 35//59
f 42//60 40//60 23//60
f 43//61 42//61 23//61
f 44//62 41//62 45//62
f 44//63 39//63 41//63
f 44//64 37//64 39//64
f 46//65 43//65 23//65
f 47//66 46//66 23//66
f 48//67 47//67 23//67
f 49//68 48//68 23//68
f 50//69 51//69 24//69
f 52//70 50//70 24//70
f 53//71 52//71 24//71
f 54//72 53//72 24//72
f 55//73 54//73 24//73
f 56//74 55//74 24//74
f 57//75 56//75 24//75
f 58//76 57//76 24//76
f 59//77 24//77 14//77
f 59//78 58//78 24//78
f 60//79 59//79 14//79
f 61//80 58//80 59//80
f 62//81 63//81 61//81
f 64//82 60//82 14//82
f 65//83 62//83 61//83
f 65//84 61//84 59//84
f 66//85 64//85 14//85
f 67//86 66//86 14//86
f 68//87 65//87 69//87
f 68//88 62//88 65//88
f 70//89 67//89 14//89
f 71//90 70//90 14//90
f 72//91 71//91 14//91
f 25//92 72//92 14//92
f 59//93 60//93 34//93
f 34//94 60//94 33//94
f 33//95 60//95 32//95
f 32//96 64//96 31//96
f 60//97 64//97 32//97
f 31//98 66//98 30//98
f 64//99 66//99 31//99
f 30//100 67//100 29//100
f 66//101 67//101 30//101
f 29//102 70//102 28//102
f 67//103 70//103 29//103
f 28//104 71//104 27//104
f 70//105 71//105 28//105
f 71//106 72//106 27//106
f 27//107 25//107 26//107
f 72//108 25//108 27//108
f 24//109 49//109 23//109
f 24//110 51//110 49//110
f 51//111 50//111 49//111
f 49//112 50//112 48//112
f 48//113 50//113 47//113
f 50//114 52//114 47//114
f 47//115 53//115 46//115
f 46//116 53//116 43//116
f 52//117 53//117 47//117
f 53//118 54//118 43//118
f 43//119 55//119 42//119
f 54//120 55//120 43//120
f 42//121 56//121 40//121
f 40//122 56//122 36//122
f 55//123 56//123 42//123
f 56//124 57//124 36//124
f 36//125 58//125 35//125
f 57//126 58//126 36//126
f 58//127 61//127 35//127
f 35//128 61//128 41//128
f 61//129 63//129 41//129
f 41//130 63//130 45//130
f 63//131 62//131 44//131
f 63//132 44//132 45//132
f 62//133 68//133 37//133
f 62//134 37//134 44//134
f 69//135 38//135 37//135
f 68//136 69//136 37//136
f 69//137 65//137 38//137
f 38//138 65//138 39//138
f 65//139 59//139 34//139
f 65//140 34//140 39//140
