v 9.995487 0.0 75.000015
v 9.965417 0.7749242 75.000015
v 9.875386 1.545188 75.000015
v 9.725937 2.3061585 75.000015
v 9.517966 3.0532598 75.000015
v 9.2527275 3.7819984 75.000015
v 8.931814 4.487992 75.000015
v 8.557157 5.1669936 75.000015
v 8.131008 5.8149204 75.000015
v 7.655932 6.427876 75.000015
v 7.1347847 7.0021734 75.000015
v 6.5707016 7.534359 75.000015
v 5.9670734 8.021232 75.000015
v 5.3275323 8.459865 75.000015
v 4.655923 8.847617 75.000015
v 3.9562852 9.18216 75.000015
v 3.2328272 9.461481 75.000015
v 2.4898992 9.6839 75.000015
v 1.7319695 9.848077 75.000015
v 0.9635964 9.953028 75.000015
v 0.18940105 9.998119 75.000015
v -0.58596057 9.983082 75.000015
v -1.3578253 9.908004 75.000015
v -2.121551 9.773338 75.000015
v -2.8725445 9.579895 75.000015
v -3.6062894 9.328836 75.000015
v -4.3183727 9.021674 75.000015
v -5.0045123 8.6602545 75.000015
v -5.660581 8.24675 75.000015
v -6.282634 7.783649 75.000015
v -6.866928 7.2737365 75.000015
v -7.409952 6.7200785 75.000015
v -7.908439 6.1260056 75.000015
v -8.35939 5.4950895 75.000015
v -8.760095 4.8311257 75.000015
v -9.108142 4.1381073 75.000015
v -9.401438 3.4202013 75.000015
v -9.638221 2.6817262 75.000015
v -9.817064 1.9271226 75.000015
v -9.936895 1.1609291 75.000015
v -9.996991 0.38775367 75.000015
v -9.996991 -0.38775367 75.000015
v -9.936895 -1.1609291 75.000015
v -9.817064 -1.9271226 75.000015
v -9.638221 -2.6817262 75.000015
v -9.401438 -3.4202013 75.000015
v -9.108142 -4.1381073 75.000015
v -8.760095 -4.8311257 75.000015
v -8.35939 -5.4950895 75.000015
v -7.908439 -6.1260056 75.000015
v -7.409952 -6.7200785 75.000015
v -6.866928 -7.2737365 75.000015
v -6.282634 -7.783649 75.000015
v -5.660581 -8.24675 75.000015
v -5.0045123 -8.6602545 75.000015
v -4.3183727 -9.021674 75.000015
v -3.6062894 -9.328836 75.000015
v -2.8725445 -9.579895 75.000015
v -2.121551 -9.773338 75.000015
v -1.3578253 -9.908004 75.000015
v -0.58596057 -9.983082 75.000015
v 0.18940105 -9.998119 75.000015
v 0.9635964 -9.953028 75.000015
v 1.7319695 -9.848077 75.000015
v 2.4898992 -9.6839 75.000015
v 3.2328272 -9.461481 75.000015
v 3.9562852 -9.18216 75.000015
v 4.655923 -8.847617 75.000015
v 5.3275323 -8.459865 75.000015
v 5.9670734 -8.021232 75.000015
v 6.5707016 -7.534359 75.000015
v 7.1347847 -7.0021734 75.000015
v 7.655932 -6.427876 75.000015
v 8.131008 -5.8149204 75.000015
v 8.557157 -5.1669936 75.000015
v 8.931814 -4.487992 75.000015
v 9.2527275 -3.7819984 75.000015
v 9.517966 -3.0532598 75.000015
v 9.725937 -2.3061585 75.000015
v 9.875386 -1.545188 75.000015
v 9.965417 -0.7749242 75.000015
v 9.995487 0.0 0.0
v 9.965417 0.7749242 0.0
v 9.875386 1.545188 0.0
v 9.725937 2.3061585 0.0
v 9.517966 3.0532598 0.0
v 9.2527275 3.7819984 0.0
v 8.931814 4.487992 0.0
v 8.557157 5.1669936 0.0
v 8.131008 5.8149204 0.0
v 7.655932 6.427876 0.0
v 7.1347847 7.0021734 0.0
v 6.5707016 7.534359 0.0
v 5.9670734 8.021232 0.0
v 5.3275323 8.459865 0.0
v 4.655923 8.847617 0.0
v 3.9562852 9.18216 0.0
v 3.2328272 9.461481 0.0
v 2.4898992 9.6839 0.0
v 1.7319695 9.848077 0.0
v 0.9635964 9.953028 0.0
v 0.18940105 9.998119 0.0
v -0.58596057 9.983082 0.0
v -1.3578253 9.908004 0.0
v -2.121551 9.773338 0.0
v -2.8725445 9.579895 0.0
v -3.6062894 9.328836 0.0
v -4.3183727 9.021674 0.0
v -5.0045123 8.6602545 0.0
v -5.660581 8.24675 0.0
v -6.282634 7.783649 0.0
v -6.866928 7.2737365 0.0
v -7.409952 6.7200785 0.0
v -7.908439 6.1260056 0.0
v -8.35939 5.4950895 0.0
v -8.760095 4.8311257 0.0
v -9.108142 4.1381073 0.0
v -9.401438 3.4202013 0.0
v -9.638221 2.6817262 0.0
v -9.817064 1.9271226 0.0
v -9.936895 1.1609291 0.0
v -9.996991 0.38775367 0.0
v -9.996991 -0.38775367 0.0
v -9.936895 -1.1609291 0.0
v -9.817064 -1.9271226 0.0
v -9.638221 -2.6817262 0.0
v -9.401438 -3.4202013 0.0
v -9.108142 -4.1381073 0.0
v -8.760095 -4.8311257 0.0
v -8.35939 -5.4950895 0.0
v -7.908439 -6.1260056 0.0
v -7.409952 -6.7200785 0.0
v -6.866928 -7.2737365 0.0
v -6.282634 -7.783649 0.0
v -5.660581 -8.24675 0.0
v -5.0045123 -8.6602545 0.0
v -4.3183727 -9.021674 0.0
v -3.6062894 -9.328836 0.0
v -2.8725445 -9.579895 0.0
v -2.121551 -9.773338 0.0
v -1.3578253 -9.908004 0.0
v -0.58596057 -9.983082 0.0
v 0.18940105 -9.998119 0.0
v 0.9635964 -9.953028 0.0
v 1.7319695 -9.848077 0.0
v 2.4898992 -9.6839 0.0
v 3.2328272 -9.461481 0.0
v 3.9562852 -9.18216 0.0
v 4.655923 -8.847617 0.0
v 5.3275323 -8.459865 0.0
v 5.9670734 -8.021232 0.0
v 6.5707016 -7.534359 0.0
v 7.1347847 -7.0021734 0.0
v 7.655932 -6.427876 0.0
v 8.131008 -5.8149204 0.0
v 8.557157 -5.1669936 0.0
v 8.931814 -4.487992 0.0
v 9.2527275 -3.7819984 0.0
v 9.517966 -3.0532598 0.0
v 9.725937 -2.3061585 0.0
v 9.875386 -1.545188 0.0
v 9.965417 -0.7749242 0.0
v 11.995488 0.0 75.000015
v 11.959403 0.92990905 75.000015
v 11.851366 1.8542256 75.000015
v 11.672027 2.7673903 75.000015
v 11.4224615 3.663912 75.000015
v 11.104176 4.5383983 75.000015
v 10.71908 5.38559 75.000015
v 10.269491 6.2003927 75.000015
v 9.758113 6.9779053 75.000015
v 9.188022 7.7134514 75.000015
v 8.562644 8.402608 75.000015
v 7.885744 9.041231 75.000015
v 7.161391 9.625479 75.000015
v 6.393941 10.151837 75.000015
v 5.58801 10.617142 75.000015
v 4.748445 11.018594 75.000015
v 3.8802953 11.353778 75.000015
v 2.9887815 11.62068 75.000015
v 2.0792658 11.817693 75.000015
v 1.1572182 11.943634 75.000015
v 0.22818372 11.997744 75.000015
v -0.70225024 11.979698 75.000015
v -1.628488 11.889605 75.000015
v -2.5449586 11.728006 75.000015
v -3.4461513 11.495874 75.000015
v -4.326645 11.194605 75.000015
v -5.1811447 10.82601 75.000015
v -6.0045123 10.392304 75.000015
v -6.7917953 9.8961 75.000015
v -7.538258 9.340379 75.000015
v -8.239411 8.728484 75.000015
v -8.891041 8.064094 75.000015
v -9.489224 7.351207 75.000015
v -10.030366 6.594108 75.000015
v -10.511211 5.7973514 75.000015
v -10.928868 4.9657288 75.000015
v -11.280824 4.104242 75.000015
v -11.564962 3.2180715 75.000015
v -11.779575 2.312547 75.000015
v -11.923372 1.3931149 75.000015
v -11.995488 0.46530443 75.000015
v -11.995488 -0.46530443 75.000015
v -11.923372 -1.3931149 75.000015
v -11.779575 -2.312547 75.000015
v -11.564962 -3.2180715 75.000015
v -11.280824 -4.104242 75.000015
v -10.928868 -4.9657288 75.000015
v -10.511211 -5.7973514 75.000015
v -10.030366 -6.594108 75.000015
v -9.489224 -7.351207 75.000015
v -8.891041 -8.064094 75.000015
v -8.239411 -8.728484 75.000015
v -7.538258 -9.340379 75.000015
v -6.7917953 -9.8961 75.000015
v -6.0045123 -10.392304 75.000015
v -5.1811447 -10.82601 75.000015
v -4.326645 -11.194605 75.000015
v -3.4461513 -11.495874 75.000015
v -2.5449586 -11.728006 75.000015
v -1.628488 -11.889605 75.000015
v -0.70225024 -11.979698 75.000015
v 0.22818372 -11.997744 75.000015
v 1.1572182 -11.943634 75.000015
v 2.0792658 -11.817693 75.000015
v 2.9887815 -11.62068 75.000015
v 3.8802953 -11.353778 75.000015
v 4.748445 -11.018594 75.000015
v 5.58801 -10.617142 75.000015
v 6.393941 -10.151837 75.000015
v 7.161391 -9.625479 75.000015
v 7.885744 -9.041231 75.000015
v 8.562644 -8.402608 75.000015
v 9.188022 -7.7134514 75.000015
v 9.758113 -6.9779053 75.000015
v 10.269491 -6.2003927 75.000015
v 10.71908 -5.38559 75.000015
v 11.104176 -4.5383983 75.000015
v 11.4224615 -3.663912 75.000015
v 11.672027 -2.7673903 75.000015
v 11.851366 -1.8542256 75.000015
v 11.959403 -0.92990905 75.000015
v 11.995488 0.0 0.0
v 11.959403 0.92990905 0.0
v 11.851366 1.8542256 0.0
v 11.672027 2.7673903 0.0
v 11.4224615 3.663912 0.0
v 11.104176 4.5383983 0.0
v 10.71908 5.38559 0.0
v 10.269491 6.2003927 0.0
v 9.758113 6.9779053 0.0
v 9.188022 7.7134514 0.0
v 8.562644 8.402608 0.0
v 7.885744 9.041231 0.0
v 7.161391 9.625479 0.0
v 6.393941 10.151837 0.0
v 5.58801 10.617142 0.0
v 4.748445 11.018594 0.0
v 3.8802953 11.353778 0.0
v 2.9887815 11.62068 0.0
v 2.0792658 11.817693 0.0
v 1.1572182 11.943634 0.0
v 0.22818372 11.997744 0.0
v -0.70225024 11.979698 0.0
v -1.628488 11.889605 0.0
v -2.5449586 11.728006 0.0
v -3.4461513 11.495874 0.0
v -4.326645 11.194605 0.0
v -5.1811447 10.82601 0.0
v -6.0045123 10.392304 0.0
v -6.7917953 9.8961 0.0
v -7.538258 9.340379 0.0
v -8.239411 8.728484 0.0
v -8.891041 8.064094 0.0
v -9.489224 7.351207 0.0
v -10.030366 6.594108 0.0
v -10.511211 5.7973514 0.0
v -10.928868 4.9657288 0.0
v -11.280824 4.104242 0.0
v -11.564962 3.2180715 0.0
v -11.779575 2.312547 0.0
v -11.923372 1.3931149 0.0
v -11.995488 0.46530443 0.0
v -11.995488 -0.46530443 0.0
v -11.923372 -1.3931149 0.0
v -11.779575 -2.312547 0.0
v -11.564962 -3.2180715 0.0
v -11.280824 -4.104242 0.0
v -10.928868 -4.9657288 0.0
v -10.511211 -5.7973514 0.0
v -10.030366 -6.594108 0.0
v -9.489224 -7.351207 0.0
v -8.891041 -8.064094 0.0
v -8.239411 -8.728484 0.0
v -7.538258 -9.340379 0.0
v -6.7917953 -9.8961 0.0
v -6.0045123 -10.392304 0.0
v -5.1811447 -10.82601 0.0
v -4.326645 -11.194605 0.0
v -3.4461513 -11.495874 0.0
v -2.5449586 -11.728006 0.0
v -1.628488 -11.889605 0.0
v -0.70225024 -11.979698 0.0
v 0.22818372 -11.997744 0.0
v 1.1572182 -11.943634 0.0
v 2.0792658 -11.817693 0.0
v 2.9887815 -11.62068 0.0
v 3.8802953 -11.353778 0.0
v 4.748445 -11.018594 0.0
v 5.58801 -10.617142 0.0
v 6.393941 -10.151837 0.0
v 7.161391 -9.625479 0.0
v 7.885744 -9.041231 0.0
v 8.562644 -8.402608 0.0
v 9.188022 -7.7134514 0.0
v 9.758113 -6.9779053 0.0
v 10.269491 -6.2003927 0.0
v 10.71908 -5.38559 0.0
v 11.104176 -4.5383983 0.0
v 11.4224615 -3.663912 0.0
v 11.672027 -2.7673903 0.0
v 11.851366 -1.8542256 0.0
v 11.959403 -0.92990905 0.0
vt 0.0 0.0
vt 0.012345679 0.0
vt 0.024691358 0.0
vt 0.037037037 0.0
vt 0.049382716 0.0
vt 0.061728396 0.0
vt 0.074074075 0.0
vt 0.086419754 0.0
vt 0.09876543 0.0
vt 0.11111111 0.0
vt 0.12345679 0.0
vt 0.13580246 0.0
vt 0.14814815 0.0
vt 0.16049382 0.0
vt 0.17283951 0.0
vt 0.18518518 0.0
vt 0.19753087 0.0
vt 0.20987654 0.0
vt 0.22222222 0.0
vt 0.2345679 0.0
vt 0.24691358 0.0
vt 0.25925925 0.0
vt 0.27160493 0.0
vt 0.28395063 0.0
vt 0.2962963 0.0
vt 0.30864197 0.0
vt 0.32098764 0.0
vt 0.33333334 0.0
vt 0.34567901 0.0
vt 0.3580247 0.0
vt 0.37037036 0.0
vt 0.38271606 0.0
vt 0.39506173 0.0
vt 0.4074074 0.0
vt 0.41975307 0.0
vt 0.43209878 0.0
vt 0.44444445 0.0
vt 0.45679012 0.0
vt 0.4691358 0.0
vt 0.4814815 0.0
vt 0.49382716 0.0
vt 0.50617284 0.0
vt 0.5185185 0.0
vt 0.5308642 0.0
vt 0.54320985 0.0
vt 0.5555556 0.0
vt 0.56790125 0.0
vt 0.5802469 0.0
vt 0.5925926 0.0
vt 0.60493827 0.0
vt 0.61728394 0.0
vt 0.6296296 0.0
vt 0.6419753 0.0
vt 0.654321 0.0
vt 0.6666667 0.0
vt 0.67901236 0.0
vt 0.69135803 0.0
vt 0.7037037 0.0
vt 0.7160494 0.0
vt 0.72839504 0.0
vt 0.7407407 0.0
vt 0.75308645 0.0
vt 0.7654321 0.0
vt 0.7777778 0.0
vt 0.79012346 0.0
vt 0.80246913 0.0
vt 0.8148148 0.0
vt 0.8271605 0.0
vt 0.83950615 0.0
vt 0.8518519 0.0
vt 0.86419755 0.0
vt 0.8765432 0.0
vt 0.8888889 0.0
vt 0.90123457 0.0
vt 0.91358024 0.0
vt 0.9259259 0.0
vt 0.9382716 0.0
vt 0.9506173 0.0
vt 0.962963 0.0
vt 0.97530866 0.0
vt 0.9876543 0.0
vt 1.0 0.0
vt 0.0 1.0
vt 0.012345679 1.0
vt 0.024691358 1.0
vt 0.037037037 1.0
vt 0.049382716 1.0
vt 0.061728396 1.0
vt 0.074074075 1.0
vt 0.086419754 1.0
vt 0.09876543 1.0
vt 0.11111111 1.0
vt 0.12345679 1.0
vt 0.13580246 1.0
vt 0.14814815 1.0
vt 0.16049382 1.0
vt 0.17283951 1.0
vt 0.18518518 1.0
vt 0.19753087 1.0
vt 0.20987654 1.0
vt 0.22222222 1.0
vt 0.2345679 1.0
vt 0.24691358 1.0
vt 0.25925925 1.0
vt 0.27160493 1.0
vt 0.28395063 1.0
vt 0.2962963 1.0
vt 0.30864197 1.0
vt 0.32098764 1.0
vt 0.33333334 1.0
vt 0.34567901 1.0
vt 0.3580247 1.0
vt 0.37037036 1.0
vt 0.38271606 1.0
vt 0.39506173 1.0
vt 0.4074074 1.0
vt 0.41975307 1.0
vt 0.43209878 1.0
vt 0.44444445 1.0
vt 0.45679012 1.0
vt 0.4691358 1.0
vt 0.4814815 1.0
vt 0.49382716 1.0
vt 0.50617284 1.0
vt 0.5185185 1.0
vt 0.5308642 1.0
vt 0.54320985 1.0
vt 0.5555556 1.0
vt 0.56790125 1.0
vt 0.5802469 1.0
vt 0.5925926 1.0
vt 0.60493827 1.0
vt 0.61728394 1.0
vt 0.6296296 1.0
vt 0.6419753 1.0
vt 0.654321 1.0
vt 0.6666667 1.0
vt 0.67901236 1.0
vt 0.69135803 1.0
vt 0.7037037 1.0
vt 0.7160494 1.0
vt 0.72839504 1.0
vt 0.7407407 1.0
vt 0.75308645 1.0
vt 0.7654321 1.0
vt 0.7777778 1.0
vt 0.79012346 1.0
vt 0.80246913 1.0
vt 0.8148148 1.0
vt 0.8271605 1.0
vt 0.83950615 1.0
vt 0.8518519 1.0
vt 0.86419755 1.0
vt 0.8765432 1.0
vt 0.8888889 1.0
vt 0.90123457 1.0
vt 0.91358024 1.0
vt 0.9259259 1.0
vt 0.9382716 1.0
vt 0.9506173 1.0
vt 0.962963 1.0
vt 0.97530866 1.0
vt 0.9876543 1.0
vt 1.0 1.0
vt 0.0 1.0
vt 0.012345679 1.0
vt 0.024691358 1.0
vt 0.037037037 1.0
vt 0.049382716 1.0
vt 0.061728396 1.0
vt 0.074074075 1.0
vt 0.086419754 1.0
vt 0.09876543 1.0
vt 0.11111111 1.0
vt 0.12345679 1.0
vt 0.13580246 1.0
vt 0.14814815 1.0
vt 0.16049382 1.0
vt 0.17283951 1.0
vt 0.18518518 1.0
vt 0.19753087 1.0
vt 0.20987654 1.0
vt 0.22222222 1.0
vt 0.2345679 1.0
vt 0.24691358 1.0
vt 0.25925925 1.0
vt 0.27160493 1.0
vt 0.28395063 1.0
vt 0.2962963 1.0
vt 0.30864197 1.0
vt 0.32098764 1.0
vt 0.33333334 1.0
vt 0.34567901 1.0
vt 0.3580247 1.0
vt 0.37037036 1.0
vt 0.38271606 1.0
vt 0.39506173 1.0
vt 0.4074074 1.0
vt 0.41975307 1.0
vt 0.43209878 1.0
vt 0.44444445 1.0
vt 0.45679012 1.0
vt 0.4691358 1.0
vt 0.4814815 1.0
vt 0.49382716 1.0
vt 0.50617284 1.0
vt 0.5185185 1.0
vt 0.5308642 1.0
vt 0.54320985 1.0
vt 0.5555556 1.0
vt 0.56790125 1.0
vt 0.5802469 1.0
vt 0.5925926 1.0
vt 0.60493827 1.0
vt 0.61728394 1.0
vt 0.6296296 1.0
vt 0.6419753 1.0
vt 0.654321 1.0
vt 0.6666667 1.0
vt 0.67901236 1.0
vt 0.69135803 1.0
vt 0.7037037 1.0
vt 0.7160494 1.0
vt 0.72839504 1.0
vt 0.7407407 1.0
vt 0.75308645 1.0
vt 0.7654321 1.0
vt 0.7777778 1.0
vt 0.79012346 1.0
vt 0.80246913 1.0
vt 0.8148148 1.0
vt 0.8271605 1.0
vt 0.83950615 1.0
vt 0.8518519 1.0
vt 0.86419755 1.0
vt 0.8765432 1.0
vt 0.8888889 1.0
vt 0.90123457 1.0
vt 0.91358024 1.0
vt 0.9259259 1.0
vt 0.9382716 1.0
vt 0.9506173 1.0
vt 0.962963 1.0
vt 0.97530866 1.0
vt 0.9876543 1.0
vt 1.0 1.0
vt 0.0 0.0
vt 0.012345679 0.0
vt 0.024691358 0.0
vt 0.037037037 0.0
vt 0.049382716 0.0
vt 0.061728396 0.0
vt 0.074074075 0.0
vt 0.086419754 0.0
vt 0.09876543 0.0
vt 0.11111111 0.0
vt 0.12345679 0.0
vt 0.13580246 0.0
vt 0.14814815 0.0
vt 0.16049382 0.0
vt 0.17283951 0.0
vt 0.18518518 0.0
vt 0.19753087 0.0
vt 0.20987654 0.0
vt 0.22222222 0.0
vt 0.2345679 0.0
vt 0.24691358 0.0
vt 0.25925925 0.0
vt 0.27160493 0.0
vt 0.28395063 0.0
vt 0.2962963 0.0
vt 0.30864197 0.0
vt 0.32098764 0.0
vt 0.33333334 0.0
vt 0.34567901 0.0
vt 0.3580247 0.0
vt 0.37037036 0.0
vt 0.38271606 0.0
vt 0.39506173 0.0
vt 0.4074074 0.0
vt 0.41975307 0.0
vt 0.43209878 0.0
vt 0.44444445 0.0
vt 0.45679012 0.0
vt 0.4691358 0.0
vt 0.4814815 0.0
vt 0.49382716 0.0
vt 0.50617284 0.0
vt 0.5185185 0.0
vt 0.5308642 0.0
vt 0.54320985 0.0
vt 0.5555556 0.0
vt 0.56790125 0.0
vt 0.5802469 0.0
vt 0.5925926 0.0
vt 0.60493827 0.0
vt 0.61728394 0.0
vt 0.6296296 0.0
vt 0.6419753 0.0
vt 0.654321 0.0
vt 0.6666667 0.0
vt 0.67901236 0.0
vt 0.69135803 0.0
vt 0.7037037 0.0
vt 0.7160494 0.0
vt 0.72839504 0.0
vt 0.7407407 0.0
vt 0.75308645 0.0
vt 0.7654321 0.0
vt 0.7777778 0.0
vt 0.79012346 0.0
vt 0.80246913 0.0
vt 0.8148148 0.0
vt 0.8271605 0.0
vt 0.83950615 0.0
vt 0.8518519 0.0
vt 0.86419755 0.0
vt 0.8765432 0.0
vt 0.8888889 0.0
vt 0.90123457 0.0
vt 0.91358024 0.0
vt 0.9259259 0.0
vt 0.9382716 0.0
vt 0.9506173 0.0
vt 0.962963 0.0
vt 0.97530866 0.0
vt 0.9876543 0.0
vt 1.0 0.0
vt 0.0 0.0
vt 0.0 0.0
vt 0.0 0.0
vt 0.0 0.0
vt 0.0 0.0
vt 0.0 0.0
vt 0.0 0.0
vt 0.0 0.0
vt 0.0 0.0
vt 0.0 0.0
vt 0.0 0.0
vt 0.0 0.0
vt 0.0 0.0
vt 0.0 0.0
vt 0.0 0.0
vt 0.0 0.0
vt 0.0 0.0
vt 0.0 0.0
vt 0.0 0.0
vt 0.0 0.0
vt 0.0 0.0
vt 0.0 0.0
vt 0.0 0.0
vt 0.0 0.0
vt 0.0 0.0
vt 0.0 0.0
vt 0.0 0.0
vt 0.0 0.0
vt 0.0 0.0
vt 0.0 0.0
vt 0.0 0.0
vt 0.0 0.0
vt 0.0 0.0
vt 0.0 0.0
vt 0.0 0.0
vt 0.0 0.0
vt 0.0 0.0
vt 0.0 0.0
vt 0.0 0.0
vt 0.0 0.0
vt 0.0 0.0
vt 0.0 0.0
vt 0.0 0.0
vt 0.0 0.0
vt 0.0 0.0
vt 0.0 0.0
vt 0.0 0.0
vt 0.0 0.0
vt 0.0 0.0
vt 0.0 0.0
vt 0.0 0.0
vt 0.0 0.0
vt 0.0 0.0
vt 0.0 0.0
vt 0.0 0.0
vt 0.0 0.0
vt 0.0 0.0
vt 0.0 0.0
vt 0.0 0.0
vt 0.0 0.0
vt 0.0 0.0
vt 0.0 0.0
vt 0.0 0.0
vt 0.0 0.0
vt 0.0 0.0
vt 0.0 0.0
vt 0.0 0.0
vt 0.0 0.0
vt 0.0 0.0
vt 0.0 0.0
vt 0.0 0.0
vt 0.0 0.0
vt 0.0 0.0
vt 0.0 0.0
vt 0.0 0.0
vt 0.0 0.0
vt 0.0 0.0
vt 0.0 0.0
vt 0.0 0.0
vt 0.0 0.0
vt 0.0 0.0
vt 0.0 0.0
vt 0.0 0.0
vt 0.0 0.0
vt 0.0 0.0
vt 0.0 0.0
vt 0.0 0.0
vt 0.0 0.0
vt 0.0 0.0
vt 0.0 0.0
vt 0.0 0.0
vt 0.0 0.0
vt 0.0 0.0
vt 0.0 0.0
vt 0.0 0.0
vt 0.0 0.0
vt 0.0 0.0
vt 0.0 0.0
vt 0.0 0.0
vt 0.0 0.0
vt 0.0 0.0
vt 0.0 0.0
vt 0.0 0.0
vt 0.0 0.0
vt 0.0 0.0
vt 0.0 0.0
vt 0.0 0.0
vt 0.0 0.0
vt 0.0 0.0
vt 0.0 0.0
vt 0.0 0.0
vt 0.0 0.0
vt 0.0 0.0
vt 0.0 0.0
vt 0.0 0.0
vt 0.0 0.0
vt 0.0 0.0
vt 0.0 0.0
vt 0.0 0.0
vt 0.0 0.0
vt 0.0 0.0
vt 0.0 0.0
vt 0.0 0.0
vt 0.0 0.0
vt 0.0 0.0
vt 0.0 0.0
vt 0.0 0.0
vt 0.0 0.0
vt 0.0 0.0
vt 0.0 0.0
vt 0.0 0.0
vt 0.0 0.0
vt 0.0 0.0
vt 0.0 0.0
vt 0.0 0.0
vt 0.0 0.0
vt 0.0 0.0
vt 0.0 0.0
vt 0.0 0.0
vt 0.0 0.0
vt 0.0 0.0
vt 0.0 0.0
vt 0.0 0.0
vt 0.0 0.0
vt 0.0 0.0
vt 0.0 0.0
vt 0.0 0.0
vt 0.0 0.0
vt 0.0 0.0
vt 0.0 0.0
vt 0.0 0.0
vt 0.0 0.0
vt 0.0 0.0
vt 0.0 0.0
vt 0.0 0.0
vt 0.0 0.0
vt 0.0 0.0
vt 0.0 0.0
vt 0.0 0.0
vt 0.0 0.0
vt 0.0 0.0
vt 0.0 0.0
vt 0.0 0.0
vt 0.0 0.0
vt 0.0 0.0
vt 0.0 0.0
vt 0.0 0.0
vt 0.0 0.0
vt 0.0 0.0
vt 0.0 0.0
vt 0.0 0.0
vt 0.0 0.0
vt 0.0 0.0
vt 0.0 0.0
vt 0.0 0.0
vt 0.0 0.0
vt 0.0 0.0
vt 0.0 0.0
vt 0.0 0.0
vt 0.0 0.0
vt 0.0 0.0
vt 0.0 0.0
vt 0.0 0.0
vt 0.0 0.0
vt 0.0 0.0
vt 0.0 0.0
vt 0.0 0.0
vt 0.0 0.0
vt 0.0 0.0
vt 0.0 0.0
vt 0.0 0.0
vt 0.0 0.0
vt 0.0 0.0
vt 0.0 0.0
vt 0.0 0.0
vt 0.0 0.0
vt 0.0 0.0
vt 0.0 0.0
vt 0.0 0.0
vt 0.0 0.0
vt 0.0 0.0
vt 0.0 0.0
vt 0.0 0.0
vt 0.0 0.0
vt 0.0 0.0
vt 0.0 0.0
vt 0.0 0.0
vt 0.0 0.0
vt 0.0 0.0
vt 0.0 0.0
vt 0.0 0.0
vt 0.0 0.0
vt 0.0 0.0
vt 0.0 0.0
vt 0.0 0.0
vt 0.0 0.0
vt 0.0 0.0
vt 0.0 0.0
vt 0.0 0.0
vt 0.0 0.0
vt 0.0 0.0
vt 0.0 0.0
vt 0.0 0.0
vt 0.0 0.0
vt 0.0 0.0
vt 0.0 0.0
vt 0.0 0.0
vt 0.0 0.0
vt 0.0 0.0
vt 0.0 0.0
vt 0.0 0.0
vt 0.0 0.0
vt 0.0 0.0
vt 0.0 0.0
vt 0.0 0.0
vt 0.0 0.0
vt 0.0 0.0
vt 0.0 0.0
vt 0.0 0.0
vt 0.0 0.0
vt 0.0 0.0
vt 0.0 0.0
vt 0.0 0.0
vt 0.0 0.0
vt 0.0 0.0
vt 0.0 0.0
vt 0.0 0.0
vt 0.0 0.0
vt 0.0 0.0
vt 0.0 0.0
vt 0.0 0.0
vt 0.0 0.0
vt 0.0 0.0
vt 0.0 0.0
vt 0.0 0.0
vt 0.0 0.0
vt 0.0 0.0
vt 0.0 0.0
vt 0.0 0.0
vt 0.0 0.0
vt 0.0 0.0
vt 0.0 0.0
vt 0.0 0.0
vt 0.0 0.0
vt 0.0 0.0
vt 0.0 0.0
vt 0.0 0.0
vt 0.0 0.0
vt 0.0 0.0
vt 0.0 0.0
vt 0.0 0.0
vt 0.0 0.0
vt 0.0 0.0
vt 0.0 0.0
vt 0.0 0.0
vt 0.0 0.0
vt 0.0 0.0
vt 0.0 0.0
vt 0.0 0.0
vt 0.0 0.0
vt 0.0 0.0
vt 0.0 0.0
vt 0.0 0.0
vt 0.0 0.0
vt 0.0 0.0
vt 0.0 0.0
vt 0.0 0.0
vt 0.0 0.0
vt 0.0 0.0
vt 0.0 0.0
vt 0.0 0.0
vt 0.0 0.0
vt 0.0 0.0
vt 0.0 0.0
vt 0.0 0.0
vt 0.0 0.0
vt 0.0 0.0
vt 0.0 0.0
vt 0.0 0.0
vt 0.0 0.0
vt 0.0 0.0
vt 0.0 0.0
vt 0.0 0.0
vt 0.0 0.0
vt 0.0 0.0
vt 0.0 0.0
vt 0.0 0.0
vt 0.0 0.0
vt 0.0 0.0
vt 0.0 0.0
vt 0.0 0.0
vt 0.0 0.0
vt 0.0 0.0
vt 0.0 0.0
vt 0.0 0.0
vt 0.0 0.0
vt 0.0 0.0
vt 0.0 0.0
vt 0.0 0.0
vt 0.0 0.0
vt 0.0 0.0
vt 0.0 0.0
vt 0.0 0.0
vt 0.0 0.0
vt 0.0 0.0
vt 0.0 0.0
vt 0.0 0.0
vt 0.0 0.0
vn -1.0 0.0 0.0
vn -0.99699295 -0.07749242 0.0
vn -0.98798984 -0.1545188 0.0
vn -0.9730449 -0.23061587 0.0
vn -0.95224786 -0.30532598 0.0
vn -0.92572397 -0.37819985 0.0
vn -0.89363265 -0.4487992 0.0
vn -0.8561669 -0.5166994 0.0
vn -0.8135521 -0.58149207 0.0
vn -0.76604444 -0.64278764 0.0
vn -0.7139297 -0.70021737 0.0
vn -0.65752137 -0.7534359 0.0
vn -0.5971586 -0.8021232 0.0
vn -0.53320444 -0.8459864 0.0
vn -0.46604353 -0.8847618 0.0
vn -0.39607978 -0.9182161 0.0
vn -0.32373396 -0.94614816 0.0
vn -0.24944115 -0.96839 0.0
vn -0.1736482 -0.9848078 0.0
vn -0.09681087 -0.9953028 0.0
vn -0.019391332 -0.99981195 0.0
vn 0.05814483 -0.9983082 0.0
vn 0.13533132 -0.99080044 0.0
vn 0.21170388 -0.9773339 0.0
vn 0.28680325 -0.9579895 0.0
vn 0.36017773 -0.9328837 0.0
vn 0.43138605 -0.90216744 0.0
vn 0.5 -0.8660254 0.0
vn 0.5656069 -0.824675 0.0
vn 0.62781215 -0.7783649 0.0
vn 0.6862416 -0.72737366 0.0
vn 0.740544 -0.67200786 0.0
vn 0.7903927 -0.61260056 0.0
vn 0.8354878 -0.549509 0.0
vn 0.87555826 -0.4831126 0.0
vn 0.91036296 -0.41381073 0.0
vn 0.9396926 -0.34202015 0.0
vn 0.96337086 -0.26817262 0.0
vn 0.9812553 -0.19271226 0.0
vn 0.9932384 -0.11609292 0.0
vn 0.99924797 -0.03877537 0.0
vn 0.99924797 0.03877537 0.0
vn 0.9932384 0.11609292 0.0
vn 0.9812553 0.19271226 0.0
vn 0.96337086 0.26817262 0.0
vn 0.9396926 0.34202015 0.0
vn 0.91036296 0.41381073 0.0
vn 0.87555826 0.4831126 0.0
vn 0.8354878 0.549509 0.0
vn 0.7903927 0.61260056 0.0
vn 0.740544 0.67200786 0.0
vn 0.6862416 0.72737366 0.0
vn 0.62781215 0.7783649 0.0
vn 0.5656069 0.824675 0.0
vn 0.5 0.8660254 0.0
vn 0.43138605 0.90216744 0.0
vn 0.36017773 0.9328837 0.0
vn 0.28680325 0.9579895 0.0
vn 0.21170388 0.9773339 0.0
vn 0.13533132 0.99080044 0.0
vn 0.05814483 0.9983082 0.0
vn -0.019391332 0.99981195 0.0
vn -0.09681087 0.9953028 0.0
vn -0.1736482 0.9848078 0.0
vn -0.24944115 0.96839 0.0
vn -0.32373396 0.94614816 0.0
vn -0.39607978 0.9182161 0.0
vn -0.46604353 0.8847618 0.0
vn -0.53320444 0.8459864 0.0
vn -0.5971586 0.8021232 0.0
vn -0.65752137 0.7534359 0.0
vn -0.7139297 0.70021737 0.0
vn -0.76604444 0.64278764 0.0
vn -0.8135521 0.58149207 0.0
vn -0.8561669 0.5166994 0.0
vn -0.89363265 0.4487992 0.0
vn -0.92572397 0.37819985 0.0
vn -0.95224786 0.30532598 0.0
vn -0.9730449 0.23061587 0.0
vn -0.98798984 0.1545188 0.0
vn -0.99699295 0.07749242 0.0
vn -1.0 0.0 0.0
vn -0.99699295 -0.07749242 0.0
vn -0.98798984 -0.1545188 0.0
vn -0.9730449 -0.23061587 0.0
vn -0.95224786 -0.30532598 0.0
vn -0.92572397 -0.37819985 0.0
vn -0.89363265 -0.4487992 0.0
vn -0.8561669 -0.5166994 0.0
vn -0.8135521 -0.58149207 0.0
vn -0.76604444 -0.64278764 0.0
vn -0.7139297 -0.70021737 0.0
vn -0.65752137 -0.7534359 0.0
vn -0.5971586 -0.8021232 0.0
vn -0.53320444 -0.8459864 0.0
vn -0.46604353 -0.8847618 0.0
vn -0.39607978 -0.9182161 0.0
vn -0.32373396 -0.94614816 0.0
vn -0.24944115 -0.96839 0.0
vn -0.1736482 -0.9848078 0.0
vn -0.09681087 -0.9953028 0.0
vn -0.019391332 -0.99981195 0.0
vn 0.05814483 -0.9983082 0.0
vn 0.13533132 -0.99080044 0.0
vn 0.21170388 -0.9773339 0.0
vn 0.28680325 -0.9579895 0.0
vn 0.36017773 -0.9328837 0.0
vn 0.43138605 -0.90216744 0.0
vn 0.5 -0.8660254 0.0
vn 0.5656069 -0.824675 0.0
vn 0.62781215 -0.7783649 0.0
vn 0.6862416 -0.72737366 0.0
vn 0.740544 -0.67200786 0.0
vn 0.7903927 -0.61260056 0.0
vn 0.8354878 -0.549509 0.0
vn 0.87555826 -0.4831126 0.0
vn 0.91036296 -0.41381073 0.0
vn 0.9396926 -0.34202015 0.0
vn 0.96337086 -0.26817262 0.0
vn 0.9812553 -0.19271226 0.0
vn 0.9932384 -0.11609292 0.0
vn 0.99924797 -0.03877537 0.0
vn 0.99924797 0.03877537 0.0
vn 0.9932384 0.11609292 0.0
vn 0.9812553 0.19271226 0.0
vn 0.96337086 0.26817262 0.0
vn 0.9396926 0.34202015 0.0
vn 0.91036296 0.41381073 0.0
vn 0.87555826 0.4831126 0.0
vn 0.8354878 0.549509 0.0
vn 0.7903927 0.61260056 0.0
vn 0.740544 0.67200786 0.0
vn 0.6862416 0.72737366 0.0
vn 0.62781215 0.7783649 0.0
vn 0.5656069 0.824675 0.0
vn 0.5 0.8660254 0.0
vn 0.43138605 0.90216744 0.0
vn 0.36017773 0.9328837 0.0
vn 0.28680325 0.9579895 0.0
vn 0.21170388 0.9773339 0.0
vn 0.13533132 0.99080044 0.0
vn 0.05814483 0.9983082 0.0
vn -0.019391332 0.99981195 0.0
vn -0.09681087 0.9953028 0.0
vn -0.1736482 0.9848078 0.0
vn -0.24944115 0.96839 0.0
vn -0.32373396 0.94614816 0.0
vn -0.39607978 0.9182161 0.0
vn -0.46604353 0.8847618 0.0
vn -0.53320444 0.8459864 0.0
vn -0.5971586 0.8021232 0.0
vn -0.65752137 0.7534359 0.0
vn -0.7139297 0.70021737 0.0
vn -0.76604444 0.64278764 0.0
vn -0.8135521 0.58149207 0.0
vn -0.8561669 0.5166994 0.0
vn -0.89363265 0.4487992 0.0
vn -0.92572397 0.37819985 0.0
vn -0.95224786 0.30532598 0.0
vn -0.9730449 0.23061587 0.0
vn -0.98798984 0.1545188 0.0
vn -0.99699295 0.07749242 0.0
vn 1.0 0.0 0.0
vn 0.99699295 0.07749242 0.0
vn 0.98798984 0.1545188 0.0
vn 0.9730449 0.23061587 0.0
vn 0.95224786 0.30532598 0.0
vn 0.92572397 0.37819985 0.0
vn 0.89363265 0.4487992 0.0
vn 0.8561669 0.5166994 0.0
vn 0.8135521 0.58149207 0.0
vn 0.76604444 0.64278764 0.0
vn 0.7139297 0.70021737 0.0
vn 0.65752137 0.7534359 0.0
vn 0.5971586 0.8021232 0.0
vn 0.53320444 0.8459864 0.0
vn 0.46604353 0.8847618 0.0
vn 0.39607978 0.9182161 0.0
vn 0.32373396 0.94614816 0.0
vn 0.24944115 0.96839 0.0
vn 0.1736482 0.9848078 0.0
vn 0.09681087 0.9953028 0.0
vn 0.019391332 0.99981195 0.0
vn -0.05814483 0.9983082 0.0
vn -0.13533132 0.99080044 0.0
vn -0.21170388 0.9773339 0.0
vn -0.28680325 0.9579895 0.0
vn -0.36017773 0.9328837 0.0
vn -0.43138605 0.90216744 0.0
vn -0.5 0.8660254 0.0
vn -0.5656069 0.824675 0.0
vn -0.62781215 0.7783649 0.0
vn -0.6862416 0.72737366 0.0
vn -0.740544 0.67200786 0.0
vn -0.7903927 0.61260056 0.0
vn -0.8354878 0.549509 0.0
vn -0.87555826 0.4831126 0.0
vn -0.91036296 0.41381073 0.0
vn -0.9396926 0.34202015 0.0
vn -0.96337086 0.26817262 0.0
vn -0.9812553 0.19271226 0.0
vn -0.9932384 0.11609292 0.0
vn -0.99924797 0.03877537 0.0
vn -0.99924797 -0.03877537 0.0
vn -0.9932384 -0.11609292 0.0
vn -0.9812553 -0.19271226 0.0
vn -0.96337086 -0.26817262 0.0
vn -0.9396926 -0.34202015 0.0
vn -0.91036296 -0.41381073 0.0
vn -0.87555826 -0.4831126 0.0
vn -0.8354878 -0.549509 0.0
vn -0.7903927 -0.61260056 0.0
vn -0.740544 -0.67200786 0.0
vn -0.6862416 -0.72737366 0.0
vn -0.62781215 -0.7783649 0.0
vn -0.5656069 -0.824675 0.0
vn -0.5 -0.8660254 0.0
vn -0.43138605 -0.90216744 0.0
vn -0.36017773 -0.9328837 0.0
vn -0.28680325 -0.9579895 0.0
vn -0.21170388 -0.9773339 0.0
vn -0.13533132 -0.99080044 0.0
vn -0.05814483 -0.9983082 0.0
vn 0.019391332 -0.99981195 0.0
vn 0.09681087 -0.9953028 0.0
vn 0.1736482 -0.9848078 0.0
vn 0.24944115 -0.96839 0.0
vn 0.32373396 -0.94614816 0.0
vn 0.39607978 -0.9182161 0.0
vn 0.46604353 -0.8847618 0.0
vn 0.53320444 -0.8459864 0.0
vn 0.5971586 -0.8021232 0.0
vn 0.65752137 -0.7534359 0.0
vn 0.7139297 -0.70021737 0.0
vn 0.76604444 -0.64278764 0.0
vn 0.8135521 -0.58149207 0.0
vn 0.8561669 -0.5166994 0.0
vn 0.89363265 -0.4487992 0.0
vn 0.92572397 -0.37819985 0.0
vn 0.95224786 -0.30532598 0.0
vn 0.9730449 -0.23061587 0.0
vn 0.98798984 -0.1545188 0.0
vn 0.99699295 -0.07749242 0.0
vn 1.0 0.0 0.0
vn 0.99699295 0.07749242 0.0
vn 0.98798984 0.1545188 0.0
vn 0.9730449 0.23061587 0.0
vn 0.95224786 0.30532598 0.0
vn 0.92572397 0.37819985 0.0
vn 0.89363265 0.4487992 0.0
vn 0.8561669 0.5166994 0.0
vn 0.8135521 0.58149207 0.0
vn 0.76604444 0.64278764 0.0
vn 0.7139297 0.70021737 0.0
vn 0.65752137 0.7534359 0.0
vn 0.5971586 0.8021232 0.0
vn 0.53320444 0.8459864 0.0
vn 0.46604353 0.8847618 0.0
vn 0.39607978 0.9182161 0.0
vn 0.32373396 0.94614816 0.0
vn 0.24944115 0.96839 0.0
vn 0.1736482 0.9848078 0.0
vn 0.09681087 0.9953028 0.0
vn 0.019391332 0.99981195 0.0
vn -0.05814483 0.9983082 0.0
vn -0.13533132 0.99080044 0.0
vn -0.21170388 0.9773339 0.0
vn -0.28680325 0.9579895 0.0
vn -0.36017773 0.9328837 0.0
vn -0.43138605 0.90216744 0.0
vn -0.5 0.8660254 0.0
vn -0.5656069 0.824675 0.0
vn -0.62781215 0.7783649 0.0
vn -0.6862416 0.72737366 0.0
vn -0.740544 0.67200786 0.0
vn -0.7903927 0.61260056 0.0
vn -0.8354878 0.549509 0.0
vn -0.87555826 0.4831126 0.0
vn -0.91036296 0.41381073 0.0
vn -0.9396926 0.34202015 0.0
vn -0.96337086 0.26817262 0.0
vn -0.9812553 0.19271226 0.0
vn -0.9932384 0.11609292 0.0
vn -0.99924797 0.03877537 0.0
vn -0.99924797 -0.03877537 0.0
vn -0.9932384 -0.11609292 0.0
vn -0.9812553 -0.19271226 0.0
vn -0.96337086 -0.26817262 0.0
vn -0.9396926 -0.34202015 0.0
vn -0.91036296 -0.41381073 0.0
vn -0.87555826 -0.4831126 0.0
vn -0.8354878 -0.549509 0.0
vn -0.7903927 -0.61260056 0.0
vn -0.740544 -0.67200786 0.0
vn -0.6862416 -0.72737366 0.0
vn -0.62781215 -0.7783649 0.0
vn -0.5656069 -0.824675 0.0
vn -0.5 -0.8660254 0.0
vn -0.43138605 -0.90216744 0.0
vn -0.36017773 -0.9328837 0.0
vn -0.28680325 -0.9579895 0.0
vn -0.21170388 -0.9773339 0.0
vn -0.13533132 -0.99080044 0.0
vn -0.05814483 -0.9983082 0.0
vn 0.019391332 -0.99981195 0.0
vn 0.09681087 -0.9953028 0.0
vn 0.1736482 -0.9848078 0.0
vn 0.24944115 -0.96839 0.0
vn 0.32373396 -0.94614816 0.0
vn 0.39607978 -0.9182161 0.0
vn 0.46604353 -0.8847618 0.0
vn 0.53320444 -0.8459864 0.0
vn 0.5971586 -0.8021232 0.0
vn 0.65752137 -0.7534359 0.0
vn 0.7139297 -0.70021737 0.0
vn 0.76604444 -0.64278764 0.0
vn 0.8135521 -0.58149207 0.0
vn 0.8561669 -0.5166994 0.0
vn 0.89363265 -0.4487992 0.0
vn 0.92572397 -0.37819985 0.0
vn 0.95224786 -0.30532598 0.0
vn 0.9730449 -0.23061587 0.0
vn 0.98798984 -0.1545188 0.0
vn 0.99699295 -0.07749242 0.0
vn 0.0 0.0 1.0
vn 0.0 0.0 -1.0
g 1_Engine Block 
f 82/83/82 1/1/1 83/84/83
f 2/2/2 83/84/83 1/1/1
f 84/85/84 83/84/83 2/2/2
f 2/2/2 3/3/3 84/85/84
f 85/86/85 84/85/84 4/4/4
f 3/3/3 4/4/4 84/85/84
f 86/87/86 85/86/85 5/5/5
f 4/4/4 5/5/5 85/86/85
f 87/88/87 86/87/86 6/6/6
f 5/5/5 6/6/6 86/87/86
f 88/89/88 87/88/87 6/6/6
f 6/6/6 7/7/7 88/89/88
f 89/90/89 88/89/88 7/7/7
f 7/7/7 8/8/8 89/90/89
f 89/90/89 8/8/8 90/91/90
f 9/9/9 90/91/90 8/8/8
f 91/92/91 90/91/90 9/9/9
f 9/9/9 10/10/10 91/92/91
f 92/93/92 91/92/91 10/10/10
f 10/10/10 11/11/11 92/93/92
f 92/93/92 11/11/11 93/94/93
f 12/12/12 93/94/93 11/11/11
f 93/94/93 12/12/12 94/95/94
f 13/13/13 94/95/94 12/12/12
f 95/96/95 94/95/94 13/13/13
f 13/13/13 14/14/14 95/96/95
f 96/97/96 95/96/95 14/14/14
f 14/14/14 15/15/15 96/97/96
f 97/98/97 96/97/96 15/15/15
f 15/15/15 16/16/16 97/98/97
f 98/99/98 97/98/97 16/16/16
f 16/16/16 17/17/17 98/99/98
f 99/100/99 98/99/98 17/17/17
f 17/17/17 18/18/18 99/100/99
f 99/100/99 18/18/18 100/101/100
f 19/19/19 100/101/100 18/18/18
f 100/101/100 19/19/19 101/102/101
f 20/20/20 101/102/101 19/19/19
f 102/103/102 101/102/101 20/20/20
f 20/20/20 21/21/21 102/103/102
f 102/103/102 21/21/21 103/104/103
f 22/22/22 103/104/103 21/21/21
f 104/105/104 103/104/103 22/22/22
f 22/22/22 23/23/23 104/105/104
f 104/105/104 23/23/23 105/106/105
f 24/24/24 105/106/105 23/23/23
f 105/106/105 24/24/24 106/107/106
f 25/25/25 106/107/106 24/24/24
f 107/108/107 106/107/106 25/25/25
f 25/25/25 26/26/26 107/108/107
f 108/109/108 107/108/107 27/27/27
f 26/26/26 27/27/27 107/108/107
f 109/110/109 108/109/108 27/27/27
f 27/27/27 28/28/28 109/110/109
f 110/111/110 109/110/109 28/28/28
f 28/28/28 29/29/29 110/111/110
f 111/112/111 110/111/110 30/30/30
f 29/29/29 30/30/30 110/111/110
f 112/113/112 111/112/111 31/31/31
f 30/30/30 31/31/31 111/112/111
f 113/114/113 112/113/112 31/31/31
f 31/31/31 32/32/32 113/114/113
f 114/115/114 113/114/113 33/33/33
f 32/32/32 33/33/33 113/114/113
f 115/116/115 114/115/114 34/34/34
f 33/33/33 34/34/34 114/115/114
f 116/117/116 115/116/115 35/35/35
f 34/34/34 35/35/35 115/116/115
f 117/118/117 116/117/116 36/36/36
f 35/35/35 36/36/36 116/117/116
f 118/119/118 117/118/117 36/36/36
f 36/36/36 37/37/37 118/119/118
f 119/120/119 118/119/118 38/38/38
f 37/37/37 38/38/38 118/119/118
f 120/121/120 119/120/119 38/38/38
f 38/38/38 39/39/39 120/121/120
f 121/122/121 120/121/120 39/39/39
f 39/39/39 40/40/40 121/122/121
f 122/123/122 121/122/121 40/40/40
f 40/40/40 41/41/41 122/123/122
f 123/124/123 122/123/122 41/41/41
f 41/41/41 42/42/42 123/124/123
f 124/125/124 123/124/123 42/42/42
f 42/42/42 43/43/43 124/125/124
f 125/126/125 124/125/124 43/43/43
f 43/43/43 44/44/44 125/126/125
f 126/127/126 125/126/125 44/44/44
f 44/44/44 45/45/45 126/127/126
f 127/128/127 126/127/126 46/46/46
f 45/45/45 46/46/46 126/127/126
f 128/129/128 127/128/127 46/46/46
f 46/46/46 47/47/47 128/129/128
f 129/130/129 128/129/128 48/48/48
f 47/47/47 48/48/48 128/129/128
f 130/131/130 129/130/129 49/49/49
f 48/48/48 49/49/49 129/130/129
f 131/132/131 130/131/130 50/50/50
f 49/49/49 50/50/50 130/131/130
f 132/133/132 131/132/131 51/51/51
f 50/50/50 51/51/51 131/132/131
f 133/134/133 132/133/132 51/51/51
f 51/51/51 52/52/52 133/134/133
f 134/135/134 133/134/133 53/53/53
f 52/52/52 53/53/53 133/134/133
f 135/136/135 134/135/134 54/54/54
f 53/53/53 54/54/54 134/135/134
f 136/137/136 135/136/135 54/54/54
f 54/54/54 55/55/55 136/137/136
f 137/138/137 136/137/136 55/55/55
f 55/55/55 56/56/56 137/138/137
f 138/139/138 137/138/137 57/57/57
f 56/56/56 57/57/57 137/138/137
f 139/140/139 138/139/138 57/57/57
f 57/57/57 58/58/58 139/140/139
f 139/140/139 58/58/58 140/141/140
f 59/59/59 140/141/140 58/58/58
f 140/141/140 59/59/59 141/142/141
f 60/60/60 141/142/141 59/59/59
f 142/143/142 141/142/141 60/60/60
f 60/60/60 61/61/61 142/143/142
f 142/143/142 61/61/61 143/144/143
f 62/62/62 143/144/143 61/61/61
f 144/145/144 143/144/143 62/62/62
f 62/62/62 63/63/63 144/145/144
f 144/145/144 63/63/63 145/146/145
f 64/64/64 145/146/145 63/63/63
f 145/146/145 64/64/64 146/147/146
f 65/65/65 146/147/146 64/64/64
f 147/148/147 146/147/146 65/65/65
f 65/65/65 66/66/66 147/148/147
f 148/149/148 147/148/147 66/66/66
f 66/66/66 67/67/67 148/149/148
f 149/150/149 148/149/148 67/67/67
f 67/67/67 68/68/68 149/150/149
f 150/151/150 149/150/149 68/68/68
f 68/68/68 69/69/69 150/151/150
f 151/152/151 150/151/150 69/69/69
f 69/69/69 70/70/70 151/152/151
f 151/152/151 70/70/70 152/153/152
f 71/71/71 152/153/152 70/70/70
f 152/153/152 71/71/71 153/154/153
f 72/72/72 153/154/153 71/71/71
f 154/155/154 153/154/153 72/72/72
f 72/72/72 73/73/73 154/155/154
f 155/156/155 154/155/154 73/73/73
f 73/73/73 74/74/74 155/156/155
f 155/156/155 74/74/74 156/157/156
f 75/75/75 156/157/156 74/74/74
f 157/158/157 156/157/156 75/75/75
f 75/75/75 76/76/76 157/158/157
f 158/159/158 157/158/157 76/76/76
f 76/76/76 77/77/77 158/159/158
f 159/160/159 158/159/158 78/78/78
f 77/77/77 78/78/78 158/159/158
f 160/161/160 159/160/159 79/79/79
f 78/78/78 79/79/79 159/160/159
f 161/162/161 160/161/160 80/80/80
f 79/79/79 80/80/80 160/161/160
f 162/163/162 161/162/161 80/80/80
f 80/80/80 81/81/81 162/163/162
f 162/163/162 81/81/81 82/164/82
f 1/82/1 82/164/82 81/81/81
f 244/247/244 245/248/245 164/166/164
f 164/166/164 163/165/163 244/247/244
f 245/248/245 246/249/246 164/166/164
f 165/167/165 164/166/164 246/249/246
f 246/249/246 247/250/247 166/168/166
f 166/168/166 165/167/165 246/249/246
f 247/250/247 248/251/248 167/169/167
f 167/169/167 166/168/166 247/250/247
f 248/251/248 249/252/249 167/169/167
f 168/170/168 167/169/167 249/252/249
f 249/252/249 250/253/250 169/171/169
f 169/171/169 168/170/168 249/252/249
f 251/254/251 170/172/170 250/253/250
f 169/171/169 250/253/250 170/172/170
f 251/254/251 252/255/252 170/172/170
f 171/173/171 170/172/170 252/255/252
f 252/255/252 253/256/253 171/173/171
f 172/174/172 171/173/171 253/256/253
f 253/256/253 254/257/254 173/175/173
f 173/175/173 172/174/172 253/256/253
f 254/257/254 255/258/255 174/176/174
f 174/176/174 173/175/173 254/257/254
f 255/258/255 256/259/256 175/177/175
f 175/177/175 174/176/174 255/258/255
f 256/259/256 257/260/257 176/178/176
f 176/178/176 175/177/175 256/259/256
f 257/260/257 258/261/258 176/178/176
f 177/179/177 176/178/176 258/261/258
f 258/261/258 259/262/259 177/179/177
f 178/180/178 177/179/177 259/262/259
f 259/262/259 260/263/260 178/180/178
f 179/181/179 178/180/178 260/263/260
f 260/263/260 261/264/261 179/181/179
f 180/182/180 179/181/179 261/264/261
f 262/265/262 181/183/181 261/264/261
f 180/182/180 261/264/261 181/183/181
f 262/265/262 263/266/263 181/183/181
f 182/184/182 181/183/181 263/266/263
f 263/266/263 264/267/264 182/184/182
f 183/185/183 182/184/182 264/267/264
f 264/267/264 265/268/265 184/186/184
f 184/186/184 183/185/183 264/267/264
f 265/268/265 266/269/266 185/187/185
f 185/187/185 184/186/184 265/268/265
f 266/269/266 267/270/267 185/187/185
f 186/188/186 185/187/185 267/270/267
f 267/270/267 268/271/268 187/189/187
f 187/189/187 186/188/186 267/270/267
f 269/272/269 188/190/188 268/271/268
f 187/189/187 268/271/268 188/190/188
f 269/272/269 270/273/270 188/190/188
f 189/191/189 188/190/188 270/273/270
f 270/273/270 271/274/271 190/192/190
f 190/192/190 189/191/189 270/273/270
f 271/274/271 272/275/272 191/193/191
f 191/193/191 190/192/190 271/274/271
f 272/275/272 273/276/273 192/194/192
f 192/194/192 191/193/191 272/275/272
f 274/277/274 193/195/193 273/276/273
f 192/194/192 273/276/273 193/195/193
f 274/277/274 275/278/275 193/195/193
f 194/196/194 193/195/193 275/278/275
f 275/278/275 276/279/276 194/196/194
f 195/197/195 194/196/194 276/279/276
f 276/279/276 277/280/277 195/197/195
f 196/198/196 195/197/195 277/280/277
f 277/280/277 278/281/278 197/199/197
f 197/199/197 196/198/196 277/280/277
f 278/281/278 279/282/279 198/200/198
f 198/200/198 197/199/197 278/281/278
f 280/283/280 199/201/199 279/282/279
f 198/200/198 279/282/279 199/201/199
f 280/283/280 281/284/281 200/202/200
f 200/202/200 199/201/199 280/283/280
f 281/284/281 282/285/282 201/203/201
f 201/203/201 200/202/200 281/284/281
f 282/285/282 283/286/283 201/203/201
f 202/204/202 201/203/201 283/286/283
f 283/286/283 284/287/284 203/205/203
f 203/205/203 202/204/202 283/286/283
f 284/287/284 285/288/285 204/206/204
f 204/206/204 203/205/203 284/287/284
f 285/288/285 286/289/286 205/207/205
f 205/207/205 204/206/204 285/288/285
f 286/289/286 287/290/287 205/207/205
f 206/208/206 205/207/205 287/290/287
f 287/290/287 288/291/288 207/209/207
f 207/209/207 206/208/206 287/290/287
f 288/291/288 289/292/289 208/210/208
f 208/210/208 207/209/207 288/291/288
f 290/293/290 209/211/209 289/292/289
f 208/210/208 289/292/289 209/211/209
f 290/293/290 291/294/291 210/212/210
f 210/212/210 209/211/209 290/293/290
f 291/294/291 292/295/292 211/213/211
f 211/213/211 210/212/210 291/294/291
f 292/295/292 293/296/293 211/213/211
f 212/214/212 211/213/211 293/296/293
f 293/296/293 294/297/294 212/214/212
f 213/215/213 212/214/212 294/297/294
f 294/297/294 295/298/295 213/215/213
f 214/216/214 213/215/213 295/298/295
f 296/299/296 215/217/215 295/298/295
f 214/216/214 295/298/295 215/217/215
f 296/299/296 297/300/297 216/218/216
f 216/218/216 215/217/215 296/299/296
f 297/300/297 298/301/298 217/219/217
f 217/219/217 216/218/216 297/300/297
f 298/301/298 299/302/299 218/220/218
f 218/220/218 217/219/217 298/301/298
f 299/302/299 300/303/300 218/220/218
f 219/221/219 218/220/218 300/303/300
f 301/304/301 220/222/220 300/303/300
f 219/221/219 300/303/300 220/222/220
f 301/304/301 302/305/302 221/223/221
f 221/223/221 220/222/220 301/304/301
f 302/305/302 303/306/303 221/223/221
f 222/224/222 221/223/221 303/306/303
f 303/306/303 304/307/304 223/225/223
f 223/225/223 222/224/222 303/306/303
f 304/307/304 305/308/305 224/226/224
f 224/226/224 223/225/223 304/307/304
f 305/308/305 306/309/306 224/226/224
f 225/227/225 224/226/224 306/309/306
f 306/309/306 307/310/307 225/227/225
f 226/228/226 225/227/225 307/310/307
f 308/311/308 227/229/227 307/310/307
f 226/228/226 307/310/307 227/229/227
f 308/311/308 309/312/309 227/229/227
f 228/230/228 227/229/227 309/312/309
f 309/312/309 310/313/310 228/230/228
f 229/231/229 228/230/228 310/313/310
f 310/313/310 311/314/311 229/231/229
f 230/232/230 229/231/229 311/314/311
f 311/314/311 312/315/312 230/232/230
f 231/233/231 230/232/230 312/315/312
f 312/315/312 313/316/313 232/234/232
f 232/234/232 231/233/231 312/315/312
f 313/316/313 314/317/314 233/235/233
f 233/235/233 232/234/232 313/316/313
f 314/317/314 315/318/315 234/236/234
f 234/236/234 233/235/233 314/317/314
f 315/318/315 316/319/316 235/237/235
f 235/237/235 234/236/234 315/318/315
f 316/319/316 317/320/317 235/237/235
f 236/238/236 235/237/235 317/320/317
f 317/320/317 318/321/318 236/238/236
f 237/239/237 236/238/236 318/321/318
f 319/322/319 238/240/238 318/321/318
f 237/239/237 318/321/318 238/240/238
f 319/322/319 320/323/320 239/241/239
f 239/241/239 238/240/238 319/322/319
f 320/323/320 321/324/321 239/241/239
f 240/242/240 239/241/239 321/324/321
f 321/324/321 322/325/322 241/243/241
f 241/243/241 240/242/240 321/324/321
f 322/325/322 323/326/323 242/244/242
f 242/244/242 241/243/241 322/325/322
f 323/326/323 324/327/324 242/244/242
f 243/245/243 242/244/242 324/327/324
f 324/327/324 244/328/244 163/246/163
f 163/246/163 243/245/243 324/327/324
f 163/329/325 164/330/325 1/411/325
f 2/412/325 1/411/325 164/330/325
f 164/330/325 165/331/325 2/412/325
f 3/413/325 2/412/325 165/331/325
f 165/331/325 166/332/325 4/414/325
f 4/414/325 3/413/325 165/331/325
f 167/333/325 5/415/325 4/414/325
f 4/414/325 166/332/325 167/333/325
f 168/334/325 6/416/325 167/333/325
f 5/415/325 167/333/325 6/416/325
f 168/334/325 169/335/325 6/416/325
f 7/417/325 6/416/325 169/335/325
f 7/417/325 169/335/325 8/418/325
f 170/336/325 8/418/325 169/335/325
f 170/336/325 171/337/325 9/419/325
f 9/419/325 8/418/325 170/336/325
f 171/337/325 172/338/325 9/419/325
f 10/420/325 9/419/325 172/338/325
f 173/339/325 11/421/325 10/420/325
f 10/420/325 172/338/325 173/339/325
f 11/421/325 173/339/325 12/422/325
f 174/340/325 12/422/325 173/339/325
f 12/422/325 174/340/325 13/423/325
f 175/341/325 13/423/325 174/340/325
f 176/342/325 14/424/325 13/423/325
f 13/423/325 175/341/325 176/342/325
f 14/424/325 176/342/325 177/343/325
f 177/343/325 15/425/325 14/424/325
f 177/343/325 178/344/325 16/426/325
f 16/426/325 15/425/325 177/343/325
f 179/345/325 17/427/325 16/426/325
f 16/426/325 178/344/325 179/345/325
f 180/346/325 18/428/325 179/345/325
f 17/427/325 179/345/325 18/428/325
f 18/428/325 180/346/325 181/347/325
f 181/347/325 19/429/325 18/428/325
f 19/429/325 181/347/325 20/430/325
f 182/348/325 20/430/325 181/347/325
f 183/349/325 21/431/325 20/430/325
f 20/430/325 182/348/325 183/349/325
f 22/432/325 21/431/325 183/349/325
f 183/349/325 184/350/325 22/432/325
f 184/350/325 185/351/325 22/432/325
f 23/433/325 22/432/325 185/351/325
f 185/351/325 186/352/325 23/433/325
f 24/434/325 23/433/325 186/352/325
f 186/352/325 187/353/325 25/435/325
f 25/435/325 24/434/325 186/352/325
f 26/436/325 25/435/325 188/354/325
f 187/353/325 188/354/325 25/435/325
f 188/354/325 189/355/325 27/437/325
f 27/437/325 26/436/325 188/354/325
f 28/438/325 27/437/325 190/356/325
f 189/355/325 190/356/325 27/437/325
f 29/439/325 28/438/325 190/356/325
f 190/356/325 191/357/325 29/439/325
f 29/439/325 191/357/325 192/358/325
f 192/358/325 30/440/325 29/439/325
f 31/441/325 30/440/325 193/359/325
f 192/358/325 193/359/325 30/440/325
f 31/441/325 193/359/325 32/442/325
f 194/360/325 32/442/325 193/359/325
f 32/442/325 194/360/325 33/443/325
f 195/361/325 33/443/325 194/360/325
f 195/361/325 196/362/325 33/443/325
f 34/444/325 33/443/325 196/362/325
f 34/444/325 196/362/325 35/445/325
f 197/363/325 35/445/325 196/362/325
f 36/446/325 35/445/325 197/363/325
f 197/363/325 198/364/325 36/446/325
f 36/446/325 198/364/325 199/365/325
f 199/365/325 37/447/325 36/446/325
f 37/447/325 199/365/325 38/448/325
f 200/366/325 38/448/325 199/365/325
f 38/448/325 200/366/325 201/367/325
f 201/367/325 39/449/325 38/448/325
f 39/449/325 201/367/325 40/450/325
f 202/368/325 40/450/325 201/367/325
f 202/368/325 203/369/325 41/451/325
f 41/451/325 40/450/325 202/368/325
f 41/451/325 203/369/325 204/370/325
f 204/370/325 42/452/325 41/451/325
f 42/452/325 204/370/325 205/371/325
f 205/371/325 43/453/325 42/452/325
f 44/454/325 43/453/325 206/372/325
f 205/371/325 206/372/325 43/453/325
f 45/455/325 44/454/325 206/372/325
f 206/372/325 207/373/325 45/455/325
f 45/455/325 207/373/325 208/374/325
f 208/374/325 46/456/325 45/455/325
f 46/456/325 208/374/325 47/457/325
f 209/375/325 47/457/325 208/374/325
f 210/376/325 48/458/325 47/457/325
f 47/457/325 209/375/325 210/376/325
f 48/458/325 210/376/325 211/377/325
f 211/377/325 49/459/325 48/458/325
f 49/459/325 211/377/325 50/460/325
f 212/378/325 50/460/325 211/377/325
f 51/461/325 50/460/325 213/379/325
f 212/378/325 213/379/325 50/460/325
f 52/462/325 51/461/325 214/380/325
f 213/379/325 214/380/325 51/461/325
f 215/381/325 53/463/325 214/380/325
f 52/462/325 214/380/325 53/463/325
f 54/464/325 53/463/325 215/381/325
f 215/381/325 216/382/325 54/464/325
f 217/383/325 55/465/325 54/464/325
f 54/464/325 216/382/325 217/383/325
f 218/384/325 56/466/325 217/383/325
f 55/465/325 217/383/325 56/466/325
f 56/466/325 218/384/325 219/385/325
f 219/385/325 57/467/325 56/466/325
f 220/386/325 58/468/325 219/385/325
f 57/467/325 219/385/325 58/468/325
f 58/468/325 220/386/325 221/387/325
f 221/387/325 59/469/325 58/468/325
f 59/469/325 221/387/325 60/470/325
f 222/388/325 60/470/325 221/387/325
f 60/470/325 222/388/325 61/471/325
f 223/389/325 61/471/325 222/388/325
f 224/390/325 62/472/325 61/471/325
f 61/471/325 223/389/325 224/390/325
f 63/473/325 62/472/325 224/390/325
f 224/390/325 225/391/325 63/473/325
f 225/391/325 226/392/325 63/473/325
f 64/474/325 63/473/325 226/392/325
f 226/392/325 227/393/325 65/475/325
f 65/475/325 64/474/325 226/392/325
f 66/476/325 65/475/325 228/394/325
f 227/393/325 228/394/325 65/475/325
f 67/477/325 66/476/325 228/394/325
f 228/394/325 229/395/325 67/477/325
f 230/396/325 68/478/325 67/477/325
f 67/477/325 229/395/325 230/396/325
f 230/396/325 231/397/325 69/479/325
f 69/479/325 68/478/325 230/396/325
f 70/480/325 69/479/325 231/397/325
f 231/397/325 232/398/325 70/480/325
f 232/398/325 233/399/325 70/480/325
f 71/481/325 70/480/325 233/399/325
f 233/399/325 234/400/325 71/481/325
f 72/482/325 71/481/325 234/400/325
f 235/401/325 73/483/325 234/400/325
f 72/482/325 234/400/325 73/483/325
f 236/402/325 74/484/325 235/401/325
f 73/483/325 235/401/325 74/484/325
f 236/402/325 237/403/325 74/484/325
f 75/485/325 74/484/325 237/403/325
f 238/404/325 76/486/325 75/485/325
f 75/485/325 237/403/325 238/404/325
f 239/405/325 77/487/325 238/404/325
f 76/486/325 238/404/325 77/487/325
f 239/405/325 240/406/325 77/487/325
f 78/488/325 77/487/325 240/406/325
f 241/407/325 79/489/325 240/406/325
f 78/488/325 240/406/325 79/489/325
f 242/408/325 80/490/325 79/489/325
f 79/489/325 241/407/325 242/408/325
f 243/409/325 81/491/325 242/408/325
f 80/490/325 242/408/325 81/491/325
f 163/410/325 1/492/325 243/409/325
f 81/491/325 243/409/325 1/492/325
f 82/575/326 245/494/326 244/493/326
f 245/494/326 82/575/326 83/576/326
f 246/495/326 245/494/326 83/576/326
f 83/576/326 84/577/326 246/495/326
f 85/578/326 247/496/326 246/495/326
f 246/495/326 84/577/326 85/578/326
f 85/578/326 86/579/326 248/497/326
f 248/497/326 247/496/326 85/578/326
f 249/498/326 248/497/326 87/580/326
f 86/579/326 87/580/326 248/497/326
f 87/580/326 88/581/326 250/499/326
f 250/499/326 249/498/326 87/580/326
f 251/500/326 250/499/326 89/582/326
f 88/581/326 89/582/326 250/499/326
f 252/501/326 251/500/326 90/583/326
f 89/582/326 90/583/326 251/500/326
f 90/583/326 91/584/326 253/502/326
f 253/502/326 252/501/326 90/583/326
f 254/503/326 253/502/326 91/584/326
f 91/584/326 92/585/326 254/503/326
f 92/585/326 93/586/326 254/503/326
f 255/504/326 254/503/326 93/586/326
f 94/587/326 256/505/326 255/504/326
f 255/504/326 93/586/326 94/587/326
f 94/587/326 95/588/326 257/506/326
f 257/506/326 256/505/326 94/587/326
f 258/507/326 257/506/326 95/588/326
f 95/588/326 96/589/326 258/507/326
f 259/508/326 258/507/326 97/590/326
f 96/589/326 97/590/326 258/507/326
f 97/590/326 98/591/326 260/509/326
f 260/509/326 259/508/326 97/590/326
f 98/591/326 99/592/326 260/509/326
f 261/510/326 260/509/326 99/592/326
f 99/592/326 100/593/326 262/511/326
f 262/511/326 261/510/326 99/592/326
f 263/512/326 262/511/326 101/594/326
f 100/593/326 101/594/326 262/511/326
f 101/594/326 102/595/326 264/513/326
f 264/513/326 263/512/326 101/594/326
f 264/513/326 102/595/326 103/596/326
f 103/596/326 265/514/326 264/513/326
f 104/597/326 266/515/326 103/596/326
f 265/514/326 103/596/326 266/515/326
f 266/515/326 104/597/326 267/516/326
f 105/598/326 267/516/326 104/597/326
f 267/516/326 105/598/326 106/599/326
f 106/599/326 268/517/326 267/516/326
f 107/600/326 269/518/326 106/599/326
f 268/517/326 106/599/326 269/518/326
f 269/518/326 107/600/326 108/601/326
f 108/601/326 270/519/326 269/518/326
f 109/602/326 271/520/326 108/601/326
f 270/519/326 108/601/326 271/520/326
f 271/520/326 109/602/326 110/603/326
f 110/603/326 272/521/326 271/520/326
f 272/521/326 110/603/326 273/522/326
f 111/604/326 273/522/326 110/603/326
f 112/605/326 274/523/326 111/604/326
f 273/522/326 111/604/326 274/523/326
f 113/606/326 274/523/326 112/605/326
f 274/523/326 113/606/326 275/524/326
f 114/607/326 275/524/326 113/606/326
f 275/524/326 114/607/326 276/525/326
f 115/608/326 277/526/326 114/607/326
f 276/525/326 114/607/326 277/526/326
f 277/526/326 115/608/326 116/609/326
f 116/609/326 278/527/326 277/526/326
f 117/610/326 278/527/326 116/609/326
f 278/527/326 117/610/326 279/528/326
f 279/528/326 117/610/326 280/529/326
f 118/611/326 280/529/326 117/610/326
f 119/612/326 280/529/326 118/611/326
f 280/529/326 119/612/326 281/530/326
f 282/531/326 281/530/326 119/612/326
f 119/612/326 120/613/326 282/531/326
f 121/614/326 282/531/326 120/613/326
f 282/531/326 121/614/326 283/532/326
f 283/532/326 121/614/326 122/615/326
f 122/615/326 284/533/326 283/532/326
f 285/534/326 284/533/326 122/615/326
f 122/615/326 123/616/326 285/534/326
f 286/535/326 123/616/326 124/617/326
f 123/616/326 286/535/326 285/534/326
f 287/536/326 124/617/326 125/618/326
f 124/617/326 287/536/326 286/535/326
f 287/536/326 125/618/326 126/619/326
f 126/619/326 288/537/326 287/536/326
f 289/538/326 126/619/326 127/620/326
f 126/619/326 289/538/326 288/537/326
f 127/620/326 128/621/326 289/538/326
f 290/539/326 289/538/326 128/621/326
f 291/540/326 290/539/326 128/621/326
f 128/621/326 129/622/326 291/540/326
f 129/622/326 130/623/326 292/541/326
f 292/541/326 291/540/326 129/622/326
f 292/541/326 130/623/326 131/624/326
f 131/624/326 293/542/326 292/541/326
f 294/543/326 131/624/326 132/625/326
f 131/624/326 294/543/326 293/542/326
f 295/544/326 294/543/326 132/625/326
f 132/625/326 133/626/326 295/544/326
f 296/545/326 295/544/326 134/627/326
f 133/626/326 134/627/326 295/544/326
f 134/627/326 135/628/326 296/545/326
f 297/546/326 296/545/326 135/628/326
f 298/547/326 135/628/326 136/629/326
f 135/628/326 298/547/326 297/546/326
f 299/548/326 298/547/326 137/630/326
f 136/629/326 137/630/326 298/547/326
f 137/630/326 138/631/326 300/549/326
f 300/549/326 299/548/326 137/630/326
f 301/550/326 300/549/326 139/632/326
f 138/631/326 139/632/326 300/549/326
f 139/632/326 140/633/326 302/551/326
f 302/551/326 301/550/326 139/632/326
f 140/633/326 141/634/326 302/551/326
f 303/552/326 302/551/326 141/634/326
f 304/553/326 303/552/326 142/635/326
f 141/634/326 142/635/326 303/552/326
f 142/635/326 143/636/326 305/554/326
f 305/554/326 304/553/326 142/635/326
f 305/554/326 143/636/326 144/637/326
f 144/637/326 306/555/326 305/554/326
f 306/555/326 144/637/326 307/556/326
f 145/638/326 307/556/326 144/637/326
f 307/556/326 145/638/326 146/639/326
f 146/639/326 308/557/326 307/556/326
f 308/557/326 146/639/326 309/558/326
f 147/640/326 309/558/326 146/639/326
f 309/558/326 147/640/326 148/641/326
f 148/641/326 310/559/326 309/558/326
f 149/642/326 311/560/326 148/641/326
f 310/559/326 148/641/326 311/560/326
f 311/560/326 149/642/326 150/643/326
f 150/643/326 312/561/326 311/560/326
f 312/561/326 150/643/326 151/644/326
f 151/644/326 313/562/326 312/561/326
f 152/645/326 314/563/326 151/644/326
f 313/562/326 151/644/326 314/563/326
f 314/563/326 152/645/326 315/564/326
f 153/646/326 315/564/326 152/645/326
f 154/647/326 316/565/326 315/564/326
f 315/564/326 153/646/326 154/647/326
f 316/565/326 154/647/326 155/648/326
f 155/648/326 317/566/326 316/565/326
f 156/649/326 318/567/326 155/648/326
f 317/566/326 155/648/326 318/567/326
f 157/650/326 319/568/326 156/649/326
f 318/567/326 156/649/326 319/568/326
f 319/568/326 157/650/326 158/651/326
f 158/651/326 320/569/326 319/568/326
f 159/652/326 321/570/326 158/651/326
f 320/569/326 158/651/326 321/570/326
f 321/570/326 160/653/326 322/571/326
f 160/653/326 321/570/326 159/652/326
f 160/653/326 161/654/326 323/572/326
f 323/572/326 322/571/326 160/653/326
f 162/655/326 324/573/326 323/572/326
f 323/572/326 161/654/326 162/655/326
f 324/573/326 82/656/326 244/574/326
f 82/656/326 324/573/326 162/655/326
