%TF.GenerationSoftware,KiCad,Pcbnew,10.0.1*%
%TF.CreationDate,2026-05-06T11:43:49+05:30*%
%TF.ProjectId,ember_launch_controller,656d6265-725f-46c6-9175-6e63685f636f,rev?*%
%TF.SameCoordinates,Original*%
%TF.FileFunction,Soldermask,Bot*%
%TF.FilePolarity,Negative*%
%FSLAX46Y46*%
G04 Gerber Fmt 4.6, Leading zero omitted, Abs format (unit mm)*
G04 Created by KiCad (PCBNEW 10.0.1) date 2026-05-06 11:43:49*
%MOMM*%
%LPD*%
G01*
G04 APERTURE LIST*
G04 APERTURE END LIST*
G36*
X124614804Y-114722836D02*
G01*
X124712131Y-114787869D01*
X124777164Y-114885196D01*
X124800000Y-115000002D01*
X124800000Y-117999998D01*
X124777164Y-118114804D01*
X124712131Y-118212131D01*
X124614804Y-118277164D01*
X124499998Y-118300000D01*
X121500002Y-118300000D01*
X121385196Y-118277164D01*
X121287869Y-118212131D01*
X121222836Y-118114804D01*
X121200000Y-117999998D01*
X121200000Y-115000002D01*
X121222836Y-114885196D01*
X121287869Y-114787869D01*
X121385196Y-114722836D01*
X121500002Y-114700000D01*
X124499998Y-114700000D01*
X124614804Y-114722836D01*
G37*
G36*
X132614804Y-114722836D02*
G01*
X132712131Y-114787869D01*
X132777164Y-114885196D01*
X132800000Y-115000002D01*
X132800000Y-117999998D01*
X132777164Y-118114804D01*
X132712131Y-118212131D01*
X132614804Y-118277164D01*
X132499998Y-118300000D01*
X129500002Y-118300000D01*
X129385196Y-118277164D01*
X129287869Y-118212131D01*
X129222836Y-118114804D01*
X129200000Y-117999998D01*
X129200000Y-115000002D01*
X129222836Y-114885196D01*
X129287869Y-114787869D01*
X129385196Y-114722836D01*
X129500002Y-114700000D01*
X132499998Y-114700000D01*
X132614804Y-114722836D01*
G37*
G36*
X140614804Y-114722836D02*
G01*
X140712131Y-114787869D01*
X140777164Y-114885196D01*
X140800000Y-115000002D01*
X140800000Y-117999998D01*
X140777164Y-118114804D01*
X140712131Y-118212131D01*
X140614804Y-118277164D01*
X140499998Y-118300000D01*
X137500002Y-118300000D01*
X137385196Y-118277164D01*
X137287869Y-118212131D01*
X137222836Y-118114804D01*
X137200000Y-117999998D01*
X137200000Y-115000002D01*
X137222836Y-114885196D01*
X137287869Y-114787869D01*
X137385196Y-114722836D01*
X137500002Y-114700000D01*
X140499998Y-114700000D01*
X140614804Y-114722836D01*
G37*
G36*
X148614804Y-114722836D02*
G01*
X148712131Y-114787869D01*
X148777164Y-114885196D01*
X148800000Y-115000002D01*
X148800000Y-117999998D01*
X148777164Y-118114804D01*
X148712131Y-118212131D01*
X148614804Y-118277164D01*
X148499998Y-118300000D01*
X145500002Y-118300000D01*
X145385196Y-118277164D01*
X145287869Y-118212131D01*
X145222836Y-118114804D01*
X145200000Y-117999998D01*
X145200000Y-115000002D01*
X145222836Y-114885196D01*
X145287869Y-114787869D01*
X145385196Y-114722836D01*
X145500002Y-114700000D01*
X148499998Y-114700000D01*
X148614804Y-114722836D01*
G37*
G36*
X156614804Y-114722836D02*
G01*
X156712131Y-114787869D01*
X156777164Y-114885196D01*
X156800000Y-115000002D01*
X156800000Y-117999998D01*
X156777164Y-118114804D01*
X156712131Y-118212131D01*
X156614804Y-118277164D01*
X156499998Y-118300000D01*
X153500002Y-118300000D01*
X153385196Y-118277164D01*
X153287869Y-118212131D01*
X153222836Y-118114804D01*
X153200000Y-117999998D01*
X153200000Y-115000002D01*
X153222836Y-114885196D01*
X153287869Y-114787869D01*
X153385196Y-114722836D01*
X153500002Y-114700000D01*
X156499998Y-114700000D01*
X156614804Y-114722836D01*
G37*
G36*
X164614804Y-114722836D02*
G01*
X164712131Y-114787869D01*
X164777164Y-114885196D01*
X164800000Y-115000002D01*
X164800000Y-117999998D01*
X164777164Y-118114804D01*
X164712131Y-118212131D01*
X164614804Y-118277164D01*
X164499998Y-118300000D01*
X161500002Y-118300000D01*
X161385196Y-118277164D01*
X161287869Y-118212131D01*
X161222836Y-118114804D01*
X161200000Y-117999998D01*
X161200000Y-115000002D01*
X161222836Y-114885196D01*
X161287869Y-114787869D01*
X161385196Y-114722836D01*
X161500002Y-114700000D01*
X164499998Y-114700000D01*
X164614804Y-114722836D01*
G37*
G36*
X180164805Y-115172836D02*
G01*
X180262132Y-115237868D01*
X180327164Y-115335195D01*
X180350000Y-115450000D01*
X180350000Y-117550000D01*
X180327164Y-117664805D01*
X180262132Y-117762132D01*
X180164805Y-117827164D01*
X180050000Y-117850000D01*
X177950000Y-117850000D01*
X177835195Y-117827164D01*
X177737868Y-117762132D01*
X177672836Y-117664805D01*
X177650000Y-117550000D01*
X177650000Y-115450000D01*
X177672836Y-115335195D01*
X177737868Y-115237868D01*
X177835195Y-115172836D01*
X177950000Y-115150000D01*
X180050000Y-115150000D01*
X180164805Y-115172836D01*
G37*
G36*
X179516623Y-110252763D02*
G01*
X179821828Y-110428973D01*
X180071027Y-110678172D01*
X180247237Y-110983377D01*
X180338451Y-111323790D01*
X180338451Y-111676210D01*
X180247237Y-112016623D01*
X180071027Y-112321828D01*
X179821828Y-112571027D01*
X179516623Y-112747237D01*
X179176210Y-112838451D01*
X178823790Y-112838451D01*
X178483377Y-112747237D01*
X178178172Y-112571027D01*
X177928973Y-112321828D01*
X177752763Y-112016623D01*
X177661549Y-111676210D01*
X177661549Y-111323790D01*
X177752763Y-110983377D01*
X177928973Y-110678172D01*
X178178172Y-110428973D01*
X178483377Y-110252763D01*
X178823790Y-110161549D01*
X179176210Y-110161549D01*
X179516623Y-110252763D01*
G37*
G36*
X123688830Y-107837017D02*
G01*
X124095771Y-108071964D01*
X124428036Y-108404229D01*
X124662983Y-108811170D01*
X124784601Y-109265053D01*
X124784601Y-109734947D01*
X124662983Y-110188830D01*
X124428036Y-110595771D01*
X124095771Y-110928036D01*
X123688830Y-111162983D01*
X123234947Y-111284601D01*
X122765053Y-111284601D01*
X122311170Y-111162983D01*
X121904229Y-110928036D01*
X121571964Y-110595771D01*
X121337017Y-110188830D01*
X121215399Y-109734947D01*
X121215399Y-109265053D01*
X121337017Y-108811170D01*
X121571964Y-108404229D01*
X121904229Y-108071964D01*
X122311170Y-107837017D01*
X122765053Y-107715399D01*
X123234947Y-107715399D01*
X123688830Y-107837017D01*
G37*
G36*
X131688830Y-107837017D02*
G01*
X132095771Y-108071964D01*
X132428036Y-108404229D01*
X132662983Y-108811170D01*
X132784601Y-109265053D01*
X132784601Y-109734947D01*
X132662983Y-110188830D01*
X132428036Y-110595771D01*
X132095771Y-110928036D01*
X131688830Y-111162983D01*
X131234947Y-111284601D01*
X130765053Y-111284601D01*
X130311170Y-111162983D01*
X129904229Y-110928036D01*
X129571964Y-110595771D01*
X129337017Y-110188830D01*
X129215399Y-109734947D01*
X129215399Y-109265053D01*
X129337017Y-108811170D01*
X129571964Y-108404229D01*
X129904229Y-108071964D01*
X130311170Y-107837017D01*
X130765053Y-107715399D01*
X131234947Y-107715399D01*
X131688830Y-107837017D01*
G37*
G36*
X139688830Y-107837017D02*
G01*
X140095771Y-108071964D01*
X140428036Y-108404229D01*
X140662983Y-108811170D01*
X140784601Y-109265053D01*
X140784601Y-109734947D01*
X140662983Y-110188830D01*
X140428036Y-110595771D01*
X140095771Y-110928036D01*
X139688830Y-111162983D01*
X139234947Y-111284601D01*
X138765053Y-111284601D01*
X138311170Y-111162983D01*
X137904229Y-110928036D01*
X137571964Y-110595771D01*
X137337017Y-110188830D01*
X137215399Y-109734947D01*
X137215399Y-109265053D01*
X137337017Y-108811170D01*
X137571964Y-108404229D01*
X137904229Y-108071964D01*
X138311170Y-107837017D01*
X138765053Y-107715399D01*
X139234947Y-107715399D01*
X139688830Y-107837017D01*
G37*
G36*
X147688830Y-107837017D02*
G01*
X148095771Y-108071964D01*
X148428036Y-108404229D01*
X148662983Y-108811170D01*
X148784601Y-109265053D01*
X148784601Y-109734947D01*
X148662983Y-110188830D01*
X148428036Y-110595771D01*
X148095771Y-110928036D01*
X147688830Y-111162983D01*
X147234947Y-111284601D01*
X146765053Y-111284601D01*
X146311170Y-111162983D01*
X145904229Y-110928036D01*
X145571964Y-110595771D01*
X145337017Y-110188830D01*
X145215399Y-109734947D01*
X145215399Y-109265053D01*
X145337017Y-108811170D01*
X145571964Y-108404229D01*
X145904229Y-108071964D01*
X146311170Y-107837017D01*
X146765053Y-107715399D01*
X147234947Y-107715399D01*
X147688830Y-107837017D01*
G37*
G36*
X155688830Y-107837017D02*
G01*
X156095771Y-108071964D01*
X156428036Y-108404229D01*
X156662983Y-108811170D01*
X156784601Y-109265053D01*
X156784601Y-109734947D01*
X156662983Y-110188830D01*
X156428036Y-110595771D01*
X156095771Y-110928036D01*
X155688830Y-111162983D01*
X155234947Y-111284601D01*
X154765053Y-111284601D01*
X154311170Y-111162983D01*
X153904229Y-110928036D01*
X153571964Y-110595771D01*
X153337017Y-110188830D01*
X153215399Y-109734947D01*
X153215399Y-109265053D01*
X153337017Y-108811170D01*
X153571964Y-108404229D01*
X153904229Y-108071964D01*
X154311170Y-107837017D01*
X154765053Y-107715399D01*
X155234947Y-107715399D01*
X155688830Y-107837017D01*
G37*
G36*
X163688830Y-107837017D02*
G01*
X164095771Y-108071964D01*
X164428036Y-108404229D01*
X164662983Y-108811170D01*
X164784601Y-109265053D01*
X164784601Y-109734947D01*
X164662983Y-110188830D01*
X164428036Y-110595771D01*
X164095771Y-110928036D01*
X163688830Y-111162983D01*
X163234947Y-111284601D01*
X162765053Y-111284601D01*
X162311170Y-111162983D01*
X161904229Y-110928036D01*
X161571964Y-110595771D01*
X161337017Y-110188830D01*
X161215399Y-109734947D01*
X161215399Y-109265053D01*
X161337017Y-108811170D01*
X161571964Y-108404229D01*
X161904229Y-108071964D01*
X162311170Y-107837017D01*
X162765053Y-107715399D01*
X163234947Y-107715399D01*
X163688830Y-107837017D01*
G37*
G36*
X169950562Y-104529405D02*
G01*
X170334894Y-104751299D01*
X170648701Y-105065106D01*
X170870595Y-105449438D01*
X170985456Y-105878105D01*
X170985456Y-106321895D01*
X170870595Y-106750562D01*
X170648701Y-107134894D01*
X170334894Y-107448701D01*
X169950562Y-107670595D01*
X169521895Y-107785456D01*
X169078105Y-107785456D01*
X168649438Y-107670595D01*
X168265106Y-107448701D01*
X167951299Y-107134894D01*
X167729405Y-106750562D01*
X167614544Y-106321895D01*
X167614544Y-105878105D01*
X167729405Y-105449438D01*
X167951299Y-105065106D01*
X168265106Y-104751299D01*
X168649438Y-104529405D01*
X169078105Y-104414544D01*
X169521895Y-104414544D01*
X169950562Y-104529405D01*
G37*
G36*
X118250562Y-100829405D02*
G01*
X118634894Y-101051299D01*
X118948701Y-101365106D01*
X119170595Y-101749438D01*
X119285456Y-102178105D01*
X119285456Y-102621895D01*
X119170595Y-103050562D01*
X118948701Y-103434894D01*
X118634894Y-103748701D01*
X118250562Y-103970595D01*
X117821895Y-104085456D01*
X117378105Y-104085456D01*
X116949438Y-103970595D01*
X116565106Y-103748701D01*
X116251299Y-103434894D01*
X116029405Y-103050562D01*
X115914544Y-102621895D01*
X115914544Y-102178105D01*
X116029405Y-101749438D01*
X116251299Y-101365106D01*
X116565106Y-101051299D01*
X116949438Y-100829405D01*
X117378105Y-100714544D01*
X117821895Y-100714544D01*
X118250562Y-100829405D01*
G37*
G36*
X146950562Y-100829405D02*
G01*
X147334894Y-101051299D01*
X147648701Y-101365106D01*
X147870595Y-101749438D01*
X147985456Y-102178105D01*
X147985456Y-102621895D01*
X147870595Y-103050562D01*
X147648701Y-103434894D01*
X147334894Y-103748701D01*
X146950562Y-103970595D01*
X146521895Y-104085456D01*
X146078105Y-104085456D01*
X145649438Y-103970595D01*
X145265106Y-103748701D01*
X144951299Y-103434894D01*
X144729405Y-103050562D01*
X144614544Y-102621895D01*
X144614544Y-102178105D01*
X144729405Y-101749438D01*
X144951299Y-101365106D01*
X145265106Y-101051299D01*
X145649438Y-100829405D01*
X146078105Y-100714544D01*
X146521895Y-100714544D01*
X146950562Y-100829405D01*
G37*
G36*
X133949134Y-100913806D02*
G01*
X133965355Y-100924645D01*
X133976194Y-100940866D01*
X133980000Y-100960000D01*
X133980000Y-103060000D01*
X133976194Y-103079134D01*
X133965355Y-103095355D01*
X133949134Y-103106194D01*
X133930000Y-103110000D01*
X132530000Y-103110000D01*
X132510866Y-103106194D01*
X132494645Y-103095355D01*
X132483806Y-103079134D01*
X132480000Y-103060000D01*
X132480000Y-100960000D01*
X132483806Y-100940866D01*
X132494645Y-100924645D01*
X132510866Y-100913806D01*
X132530000Y-100910000D01*
X133930000Y-100910000D01*
X133949134Y-100913806D01*
G37*
G36*
X136273073Y-100940448D02*
G01*
X136402843Y-101027157D01*
X136489552Y-101156927D01*
X136520000Y-101310000D01*
X136520000Y-102710000D01*
X136489552Y-102863073D01*
X136402843Y-102992843D01*
X136273073Y-103079552D01*
X136120000Y-103110000D01*
X135420000Y-103110000D01*
X135266927Y-103079552D01*
X135137157Y-102992843D01*
X135050448Y-102863073D01*
X135020000Y-102710000D01*
X135020000Y-101310000D01*
X135050448Y-101156927D01*
X135137157Y-101027157D01*
X135266927Y-100940448D01*
X135420000Y-100910000D01*
X136120000Y-100910000D01*
X136273073Y-100940448D01*
G37*
G36*
X179293078Y-100556763D02*
G01*
X179654459Y-100706452D01*
X179931048Y-100983041D01*
X180080737Y-101344422D01*
X180080737Y-101735578D01*
X179931048Y-102096959D01*
X179654459Y-102373548D01*
X179293078Y-102523237D01*
X179097500Y-102542500D01*
X179093814Y-102542500D01*
X179006186Y-102542500D01*
X179002500Y-102542500D01*
X178806922Y-102523237D01*
X178445541Y-102373548D01*
X178168952Y-102096959D01*
X178019263Y-101735578D01*
X178019263Y-101344422D01*
X178168952Y-100983041D01*
X178445541Y-100706452D01*
X178806922Y-100556763D01*
X179002500Y-100537500D01*
X179097500Y-100537500D01*
X179293078Y-100556763D01*
G37*
G36*
X135003073Y-98390448D02*
G01*
X135132843Y-98477157D01*
X135219552Y-98606927D01*
X135250000Y-98760000D01*
X135250000Y-100160000D01*
X135219552Y-100313073D01*
X135132843Y-100442843D01*
X135003073Y-100529552D01*
X134850000Y-100560000D01*
X134150000Y-100560000D01*
X133996927Y-100529552D01*
X133867157Y-100442843D01*
X133780448Y-100313073D01*
X133750000Y-100160000D01*
X133750000Y-98760000D01*
X133780448Y-98606927D01*
X133867157Y-98477157D01*
X133996927Y-98390448D01*
X134150000Y-98360000D01*
X134850000Y-98360000D01*
X135003073Y-98390448D01*
G37*
G36*
X179293078Y-98016763D02*
G01*
X179654459Y-98166452D01*
X179931048Y-98443041D01*
X180080737Y-98804422D01*
X180080737Y-99195578D01*
X179931048Y-99556959D01*
X179654459Y-99833548D01*
X179293078Y-99983237D01*
X179097500Y-100002500D01*
X179093814Y-100002500D01*
X179006186Y-100002500D01*
X179002500Y-100002500D01*
X178806922Y-99983237D01*
X178445541Y-99833548D01*
X178168952Y-99556959D01*
X178019263Y-99195578D01*
X178019263Y-98804422D01*
X178168952Y-98443041D01*
X178445541Y-98166452D01*
X178806922Y-98016763D01*
X179002500Y-97997500D01*
X179097500Y-97997500D01*
X179293078Y-98016763D01*
G37*
G36*
X180069134Y-95461306D02*
G01*
X180085355Y-95472145D01*
X180096194Y-95488366D01*
X180100000Y-95507500D01*
X180100000Y-97412500D01*
X180096194Y-97431634D01*
X180085355Y-97447855D01*
X180069134Y-97458694D01*
X180050000Y-97462500D01*
X178050000Y-97462500D01*
X178030866Y-97458694D01*
X178014645Y-97447855D01*
X178003806Y-97431634D01*
X178000000Y-97412500D01*
X178000000Y-95507500D01*
X178003806Y-95488366D01*
X178014645Y-95472145D01*
X178030866Y-95461306D01*
X178050000Y-95457500D01*
X180050000Y-95457500D01*
X180069134Y-95461306D01*
G37*
G36*
X162964806Y-94952836D02*
G01*
X163062132Y-95017868D01*
X163127164Y-95115194D01*
X163149999Y-95230000D01*
X163149999Y-95237380D01*
X163150000Y-95237386D01*
X163150000Y-96922613D01*
X163150000Y-96930001D01*
X163127164Y-97044806D01*
X163062132Y-97142132D01*
X162964806Y-97207164D01*
X162850000Y-97229999D01*
X162842618Y-97229999D01*
X162842613Y-97230000D01*
X161157387Y-97230000D01*
X161157386Y-97229999D01*
X161149999Y-97230000D01*
X161035194Y-97207164D01*
X160937868Y-97142132D01*
X160872836Y-97044806D01*
X160850001Y-96930000D01*
X160850000Y-96922618D01*
X160850000Y-96922613D01*
X160850000Y-95237386D01*
X160850000Y-95237385D01*
X160850000Y-95229999D01*
X160872836Y-95115194D01*
X160937868Y-95017868D01*
X161035194Y-94952836D01*
X161150000Y-94930001D01*
X161157381Y-94930000D01*
X161157387Y-94930000D01*
X162842613Y-94930000D01*
X162850001Y-94930000D01*
X162964806Y-94952836D01*
G37*
G36*
X135472235Y-93913251D02*
G01*
X135706749Y-94147765D01*
X135833667Y-94454173D01*
X135833667Y-94785827D01*
X135706749Y-95092235D01*
X135472235Y-95326749D01*
X135165827Y-95453667D01*
X134834173Y-95453667D01*
X134527765Y-95326749D01*
X134293251Y-95092235D01*
X134166333Y-94785827D01*
X134166333Y-94454173D01*
X134293251Y-94147765D01*
X134527765Y-93913251D01*
X134834173Y-93786333D01*
X135165827Y-93786333D01*
X135472235Y-93913251D01*
G37*
G36*
X148972235Y-93913251D02*
G01*
X149206749Y-94147765D01*
X149333667Y-94454173D01*
X149333667Y-94785827D01*
X149206749Y-95092235D01*
X148972235Y-95326749D01*
X148665827Y-95453667D01*
X148334173Y-95453667D01*
X148027765Y-95326749D01*
X147793251Y-95092235D01*
X147666333Y-94785827D01*
X147666333Y-94454173D01*
X147793251Y-94147765D01*
X148027765Y-93913251D01*
X148334173Y-93786333D01*
X148665827Y-93786333D01*
X148972235Y-93913251D01*
G37*
G36*
X155722235Y-93913251D02*
G01*
X155956749Y-94147765D01*
X156083667Y-94454173D01*
X156083667Y-94785827D01*
X155956749Y-95092235D01*
X155722235Y-95326749D01*
X155415827Y-95453667D01*
X155084173Y-95453667D01*
X154777765Y-95326749D01*
X154543251Y-95092235D01*
X154416333Y-94785827D01*
X154416333Y-94454173D01*
X154543251Y-94147765D01*
X154777765Y-93913251D01*
X155084173Y-93786333D01*
X155415827Y-93786333D01*
X155722235Y-93913251D01*
G37*
G36*
X142222235Y-93853251D02*
G01*
X142456749Y-94087765D01*
X142583667Y-94394173D01*
X142583667Y-94725827D01*
X142456749Y-95032235D01*
X142222235Y-95266749D01*
X141915827Y-95393667D01*
X141584173Y-95393667D01*
X141277765Y-95266749D01*
X141043251Y-95032235D01*
X140916333Y-94725827D01*
X140916333Y-94394173D01*
X141043251Y-94087765D01*
X141277765Y-93853251D01*
X141584173Y-93726333D01*
X141915827Y-93726333D01*
X142222235Y-93853251D01*
G37*
G36*
X119969134Y-87953806D02*
G01*
X119985355Y-87964645D01*
X119996194Y-87980866D01*
X120000000Y-88000000D01*
X120000000Y-90000000D01*
X119996194Y-90019134D01*
X119985355Y-90035355D01*
X119969134Y-90046194D01*
X119950000Y-90050000D01*
X117950000Y-90050000D01*
X117930866Y-90046194D01*
X117914645Y-90035355D01*
X117903806Y-90019134D01*
X117900000Y-90000000D01*
X117900000Y-88000000D01*
X117903806Y-87980866D01*
X117914645Y-87964645D01*
X117930866Y-87953806D01*
X117950000Y-87950000D01*
X119950000Y-87950000D01*
X119969134Y-87953806D01*
G37*
G36*
X126726340Y-87970175D02*
G01*
X126754845Y-87970175D01*
X126807062Y-87991804D01*
X126951572Y-88030525D01*
X127081141Y-88105331D01*
X127133349Y-88126957D01*
X127153500Y-88147108D01*
X127188806Y-88167492D01*
X127382507Y-88361193D01*
X127402890Y-88396498D01*
X127423043Y-88416651D01*
X127444669Y-88468861D01*
X127519474Y-88598427D01*
X127558195Y-88742935D01*
X127579825Y-88795155D01*
X127579825Y-88823659D01*
X127590375Y-88863033D01*
X127590375Y-89136966D01*
X127579825Y-89176339D01*
X127579825Y-89204845D01*
X127558194Y-89257065D01*
X127519474Y-89401572D01*
X127444670Y-89531135D01*
X127423043Y-89583349D01*
X127402889Y-89603502D01*
X127382507Y-89638806D01*
X127188806Y-89832507D01*
X127153502Y-89852889D01*
X127133349Y-89873043D01*
X127081135Y-89894670D01*
X126951572Y-89969474D01*
X126807065Y-90008194D01*
X126754845Y-90029825D01*
X126726339Y-90029825D01*
X126686966Y-90040375D01*
X126413034Y-90040375D01*
X126373661Y-90029825D01*
X126345155Y-90029825D01*
X126292934Y-90008194D01*
X126148427Y-89969474D01*
X126018861Y-89894669D01*
X125966651Y-89873043D01*
X125946498Y-89852890D01*
X125911193Y-89832507D01*
X125717492Y-89638806D01*
X125697108Y-89603500D01*
X125676957Y-89583349D01*
X125655331Y-89531141D01*
X125580525Y-89401572D01*
X125541804Y-89257062D01*
X125520175Y-89204845D01*
X125520175Y-89176339D01*
X125509625Y-89136966D01*
X125509625Y-88863033D01*
X125520175Y-88823659D01*
X125520175Y-88795155D01*
X125541803Y-88742938D01*
X125580525Y-88598427D01*
X125655333Y-88468855D01*
X125676957Y-88416651D01*
X125697106Y-88396501D01*
X125717492Y-88361193D01*
X125911193Y-88167492D01*
X125946501Y-88147106D01*
X125966651Y-88126957D01*
X126018855Y-88105333D01*
X126148427Y-88030525D01*
X126292937Y-87991804D01*
X126345155Y-87970175D01*
X126373660Y-87970175D01*
X126413034Y-87959625D01*
X126686966Y-87959625D01*
X126726340Y-87970175D01*
G37*
G36*
X180337305Y-87172836D02*
G01*
X180434632Y-87237868D01*
X180499664Y-87335195D01*
X180522500Y-87450000D01*
X180522500Y-89550000D01*
X180499664Y-89664805D01*
X180434632Y-89762132D01*
X180337305Y-89827164D01*
X180222500Y-89850000D01*
X178122500Y-89850000D01*
X178007695Y-89827164D01*
X177910368Y-89762132D01*
X177845336Y-89664805D01*
X177822500Y-89550000D01*
X177822500Y-87450000D01*
X177845336Y-87335195D01*
X177910368Y-87237868D01*
X178007695Y-87172836D01*
X178122500Y-87150000D01*
X180222500Y-87150000D01*
X180337305Y-87172836D01*
G37*
G36*
X135472235Y-86293251D02*
G01*
X135706749Y-86527765D01*
X135833667Y-86834173D01*
X135833667Y-87165827D01*
X135706749Y-87472235D01*
X135472235Y-87706749D01*
X135165827Y-87833667D01*
X134834173Y-87833667D01*
X134527765Y-87706749D01*
X134293251Y-87472235D01*
X134166333Y-87165827D01*
X134166333Y-86834173D01*
X134293251Y-86527765D01*
X134527765Y-86293251D01*
X134834173Y-86166333D01*
X135165827Y-86166333D01*
X135472235Y-86293251D01*
G37*
G36*
X148972235Y-86293251D02*
G01*
X149206749Y-86527765D01*
X149333667Y-86834173D01*
X149333667Y-87165827D01*
X149206749Y-87472235D01*
X148972235Y-87706749D01*
X148665827Y-87833667D01*
X148334173Y-87833667D01*
X148027765Y-87706749D01*
X147793251Y-87472235D01*
X147666333Y-87165827D01*
X147666333Y-86834173D01*
X147793251Y-86527765D01*
X148027765Y-86293251D01*
X148334173Y-86166333D01*
X148665827Y-86166333D01*
X148972235Y-86293251D01*
G37*
G36*
X155722235Y-86293251D02*
G01*
X155956749Y-86527765D01*
X156083667Y-86834173D01*
X156083667Y-87165827D01*
X155956749Y-87472235D01*
X155722235Y-87706749D01*
X155415827Y-87833667D01*
X155084173Y-87833667D01*
X154777765Y-87706749D01*
X154543251Y-87472235D01*
X154416333Y-87165827D01*
X154416333Y-86834173D01*
X154543251Y-86527765D01*
X154777765Y-86293251D01*
X155084173Y-86166333D01*
X155415827Y-86166333D01*
X155722235Y-86293251D01*
G37*
G36*
X142222235Y-86233251D02*
G01*
X142456749Y-86467765D01*
X142583667Y-86774173D01*
X142583667Y-87105827D01*
X142456749Y-87412235D01*
X142222235Y-87646749D01*
X141915827Y-87773667D01*
X141584173Y-87773667D01*
X141277765Y-87646749D01*
X141043251Y-87412235D01*
X140916333Y-87105827D01*
X140916333Y-86774173D01*
X141043251Y-86467765D01*
X141277765Y-86233251D01*
X141584173Y-86106333D01*
X141915827Y-86106333D01*
X142222235Y-86233251D01*
G37*
G36*
X162440086Y-84857539D02*
G01*
X162700076Y-85007644D01*
X162912356Y-85219924D01*
X163062461Y-85479914D01*
X163140162Y-85769895D01*
X163140162Y-86070105D01*
X163062461Y-86360086D01*
X162912356Y-86620076D01*
X162700076Y-86832356D01*
X162440086Y-86982461D01*
X162150105Y-87060162D01*
X161849895Y-87060162D01*
X161559914Y-86982461D01*
X161299924Y-86832356D01*
X161087644Y-86620076D01*
X160937539Y-86360086D01*
X160859838Y-86070105D01*
X160859838Y-85769895D01*
X160937539Y-85479914D01*
X161087644Y-85219924D01*
X161299924Y-85007644D01*
X161559914Y-84857539D01*
X161849895Y-84779838D01*
X162150105Y-84779838D01*
X162440086Y-84857539D01*
G37*
G36*
X179689123Y-82252763D02*
G01*
X179994328Y-82428973D01*
X180243527Y-82678172D01*
X180419737Y-82983377D01*
X180510951Y-83323790D01*
X180510951Y-83676210D01*
X180419737Y-84016623D01*
X180243527Y-84321828D01*
X179994328Y-84571027D01*
X179689123Y-84747237D01*
X179348710Y-84838451D01*
X178996290Y-84838451D01*
X178655877Y-84747237D01*
X178350672Y-84571027D01*
X178101473Y-84321828D01*
X177925263Y-84016623D01*
X177834049Y-83676210D01*
X177834049Y-83323790D01*
X177925263Y-82983377D01*
X178101473Y-82678172D01*
X178350672Y-82428973D01*
X178655877Y-82252763D01*
X178996290Y-82161549D01*
X179348710Y-82161549D01*
X179689123Y-82252763D01*
G37*
M02*
