%TF.GenerationSoftware,KiCad,Pcbnew,10.0.1*%
%TF.CreationDate,2026-05-06T11:43:48+05:30*%
%TF.ProjectId,ember_launch_controller,656d6265-725f-46c6-9175-6e63685f636f,rev?*%
%TF.SameCoordinates,Original*%
%TF.FileFunction,Legend,Bot*%
%TF.FilePolarity,Positive*%
%FSLAX46Y46*%
G04 Gerber Fmt 4.6, Leading zero omitted, Abs format (unit mm)*
G04 Created by KiCad (PCBNEW 10.0.1) date 2026-05-06 11:43:48*
%MOMM*%
%LPD*%
G01*
G04 APERTURE LIST*
%ADD10C,0.300000*%
G04 APERTURE END LIST*
D10*
X179359774Y-120900828D02*
X178502632Y-120900828D01*
X178931203Y-122400828D02*
X178931203Y-120900828D01*
X178002632Y-122400828D02*
X178002632Y-121400828D01*
X178002632Y-121686542D02*
X177931203Y-121543685D01*
X177931203Y-121543685D02*
X177859775Y-121472257D01*
X177859775Y-121472257D02*
X177716917Y-121400828D01*
X177716917Y-121400828D02*
X177574060Y-121400828D01*
X176431204Y-121400828D02*
X176431204Y-122400828D01*
X177074061Y-121400828D02*
X177074061Y-122186542D01*
X177074061Y-122186542D02*
X177002632Y-122329400D01*
X177002632Y-122329400D02*
X176859775Y-122400828D01*
X176859775Y-122400828D02*
X176645489Y-122400828D01*
X176645489Y-122400828D02*
X176502632Y-122329400D01*
X176502632Y-122329400D02*
X176431204Y-122257971D01*
X175788346Y-122329400D02*
X175645489Y-122400828D01*
X175645489Y-122400828D02*
X175359775Y-122400828D01*
X175359775Y-122400828D02*
X175216918Y-122329400D01*
X175216918Y-122329400D02*
X175145489Y-122186542D01*
X175145489Y-122186542D02*
X175145489Y-122115114D01*
X175145489Y-122115114D02*
X175216918Y-121972257D01*
X175216918Y-121972257D02*
X175359775Y-121900828D01*
X175359775Y-121900828D02*
X175574061Y-121900828D01*
X175574061Y-121900828D02*
X175716918Y-121829400D01*
X175716918Y-121829400D02*
X175788346Y-121686542D01*
X175788346Y-121686542D02*
X175788346Y-121615114D01*
X175788346Y-121615114D02*
X175716918Y-121472257D01*
X175716918Y-121472257D02*
X175574061Y-121400828D01*
X175574061Y-121400828D02*
X175359775Y-121400828D01*
X175359775Y-121400828D02*
X175216918Y-121472257D01*
X174716917Y-121400828D02*
X174145489Y-121400828D01*
X174502632Y-120900828D02*
X174502632Y-122186542D01*
X174502632Y-122186542D02*
X174431203Y-122329400D01*
X174431203Y-122329400D02*
X174288346Y-122400828D01*
X174288346Y-122400828D02*
X174145489Y-122400828D01*
X172502632Y-122400828D02*
X172502632Y-120900828D01*
X172502632Y-120900828D02*
X171645489Y-122400828D01*
X171645489Y-122400828D02*
X171645489Y-120900828D01*
X170716917Y-122400828D02*
X170859774Y-122329400D01*
X170859774Y-122329400D02*
X170931203Y-122257971D01*
X170931203Y-122257971D02*
X171002631Y-122115114D01*
X171002631Y-122115114D02*
X171002631Y-121686542D01*
X171002631Y-121686542D02*
X170931203Y-121543685D01*
X170931203Y-121543685D02*
X170859774Y-121472257D01*
X170859774Y-121472257D02*
X170716917Y-121400828D01*
X170716917Y-121400828D02*
X170502631Y-121400828D01*
X170502631Y-121400828D02*
X170359774Y-121472257D01*
X170359774Y-121472257D02*
X170288346Y-121543685D01*
X170288346Y-121543685D02*
X170216917Y-121686542D01*
X170216917Y-121686542D02*
X170216917Y-122115114D01*
X170216917Y-122115114D02*
X170288346Y-122257971D01*
X170288346Y-122257971D02*
X170359774Y-122329400D01*
X170359774Y-122329400D02*
X170502631Y-122400828D01*
X170502631Y-122400828D02*
X170716917Y-122400828D01*
X169574060Y-121400828D02*
X169574060Y-122400828D01*
X169574060Y-121543685D02*
X169502631Y-121472257D01*
X169502631Y-121472257D02*
X169359774Y-121400828D01*
X169359774Y-121400828D02*
X169145488Y-121400828D01*
X169145488Y-121400828D02*
X169002631Y-121472257D01*
X169002631Y-121472257D02*
X168931203Y-121615114D01*
X168931203Y-121615114D02*
X168931203Y-122400828D01*
X167645488Y-122329400D02*
X167788345Y-122400828D01*
X167788345Y-122400828D02*
X168074060Y-122400828D01*
X168074060Y-122400828D02*
X168216917Y-122329400D01*
X168216917Y-122329400D02*
X168288345Y-122186542D01*
X168288345Y-122186542D02*
X168288345Y-121615114D01*
X168288345Y-121615114D02*
X168216917Y-121472257D01*
X168216917Y-121472257D02*
X168074060Y-121400828D01*
X168074060Y-121400828D02*
X167788345Y-121400828D01*
X167788345Y-121400828D02*
X167645488Y-121472257D01*
X167645488Y-121472257D02*
X167574060Y-121615114D01*
X167574060Y-121615114D02*
X167574060Y-121757971D01*
X167574060Y-121757971D02*
X168288345Y-121900828D01*
M02*
