%TF.GenerationSoftware,KiCad,Pcbnew,10.0.1*%
%TF.CreationDate,2026-05-06T11:43:48+05:30*%
%TF.ProjectId,ember_launch_controller,656d6265-725f-46c6-9175-6e63685f636f,rev?*%
%TF.SameCoordinates,Original*%
%TF.FileFunction,Copper,L2,Bot*%
%TF.FilePolarity,Positive*%
%FSLAX46Y46*%
G04 Gerber Fmt 4.6, Leading zero omitted, Abs format (unit mm)*
G04 Created by KiCad (PCBNEW 10.0.1) date 2026-05-06 11:43:48*
%MOMM*%
%LPD*%
G01*
G04 APERTURE LIST*
G04 Aperture macros list*
%AMRoundRect*
0 Rectangle with rounded corners*
0 $1 Rounding radius*
0 $2 $3 $4 $5 $6 $7 $8 $9 X,Y pos of 4 corners*
0 Add a 4 corners polygon primitive as box body*
4,1,4,$2,$3,$4,$5,$6,$7,$8,$9,$2,$3,0*
0 Add four circle primitives for the rounded corners*
1,1,$1+$1,$2,$3*
1,1,$1+$1,$4,$5*
1,1,$1+$1,$6,$7*
1,1,$1+$1,$8,$9*
0 Add four rect primitives between the rounded corners*
20,1,$1+$1,$2,$3,$4,$5,0*
20,1,$1+$1,$4,$5,$6,$7,0*
20,1,$1+$1,$6,$7,$8,$9,0*
20,1,$1+$1,$8,$9,$2,$3,0*%
G04 Aperture macros list end*
%TA.AperFunction,ComponentPad*%
%ADD10R,1.400000X2.100000*%
%TD*%
%TA.AperFunction,ComponentPad*%
%ADD11RoundRect,0.350000X-0.350000X-0.700000X0.350000X-0.700000X0.350000X0.700000X-0.350000X0.700000X0*%
%TD*%
%TA.AperFunction,ComponentPad*%
%ADD12RoundRect,0.250000X1.050000X-1.050000X1.050000X1.050000X-1.050000X1.050000X-1.050000X-1.050000X0*%
%TD*%
%TA.AperFunction,ComponentPad*%
%ADD13C,2.600000*%
%TD*%
%TA.AperFunction,WasherPad*%
%ADD14C,3.300000*%
%TD*%
%TA.AperFunction,ComponentPad*%
%ADD15RoundRect,0.250002X1.499998X-1.499998X1.499998X1.499998X-1.499998X1.499998X-1.499998X-1.499998X0*%
%TD*%
%TA.AperFunction,ComponentPad*%
%ADD16C,3.500000*%
%TD*%
%TA.AperFunction,ComponentPad*%
%ADD17C,1.600000*%
%TD*%
%TA.AperFunction,ComponentPad*%
%ADD18R,2.000000X2.000000*%
%TD*%
%TA.AperFunction,ComponentPad*%
%ADD19C,2.000000*%
%TD*%
%TA.AperFunction,ComponentPad*%
%ADD20R,2.000000X1.905000*%
%TD*%
%TA.AperFunction,ComponentPad*%
%ADD21O,2.000000X1.905000*%
%TD*%
%TA.AperFunction,ComponentPad*%
%ADD22RoundRect,0.249999X0.850001X-0.850001X0.850001X0.850001X-0.850001X0.850001X-0.850001X-0.850001X0*%
%TD*%
%TA.AperFunction,ComponentPad*%
%ADD23C,2.200000*%
%TD*%
%TA.AperFunction,Conductor*%
%ADD24C,2.000000*%
%TD*%
G04 APERTURE END LIST*
D10*
%TO.P,Q2,1,C_1*%
%TO.N,Net-(BZ1--)*%
X133230000Y-102010000D03*
D11*
%TO.P,Q2,2,B_2*%
%TO.N,Net-(Q2-B)*%
X134500000Y-99460000D03*
%TO.P,Q2,3,E_3*%
%TO.N,GND*%
X135770000Y-102010000D03*
%TD*%
D12*
%TO.P,J2,1,Pin_1_1*%
%TO.N,IGN +*%
X179172500Y-88500000D03*
D13*
%TO.P,J2,2,Pin_2_2*%
%TO.N,IGN -*%
X179172500Y-83500000D03*
%TD*%
D14*
%TO.P,M3,*%
%TO.N,*%
X117600000Y-102400000D03*
%TD*%
%TO.P,M3,*%
%TO.N,*%
X169300000Y-106100000D03*
%TD*%
D15*
%TO.P,D2,1,K_1*%
%TO.N,GND*%
X147000000Y-116500000D03*
D16*
%TO.P,D2,2,A_2*%
%TO.N,IGN +*%
X147000000Y-109500000D03*
%TD*%
D17*
%TO.P,R4,1*%
%TO.N,GND*%
X141750000Y-86940000D03*
%TO.P,R4,2*%
%TO.N,Net-(Q2-B)*%
X141750000Y-94560000D03*
%TD*%
D15*
%TO.P,F1,1*%
%TO.N,Net-(J1-Pin_1)*%
X163000000Y-116500000D03*
D16*
%TO.P,F1,2*%
%TO.N,VBAT*%
X163000000Y-109500000D03*
%TD*%
D17*
%TO.P,R2,1*%
%TO.N,GND*%
X148500000Y-87000000D03*
%TO.P,R2,2*%
%TO.N,Net-(Q1-G)*%
X148500000Y-94620000D03*
%TD*%
D14*
%TO.P,M3,*%
%TO.N,*%
X146300000Y-102400000D03*
%TD*%
D15*
%TO.P,SW1,1,1_1*%
%TO.N,VBAT*%
X155000000Y-116500000D03*
D16*
%TO.P,SW1,2,2_2*%
%TO.N,IGN +*%
X155000000Y-109500000D03*
%TD*%
D18*
%TO.P,BZ1,1,+_1*%
%TO.N,VBAT*%
X118950000Y-89000000D03*
D19*
%TO.P,BZ1,2,-_2*%
%TO.N,Net-(BZ1--)*%
X126550000Y-89000000D03*
%TD*%
D20*
%TO.P,Q1,1,G_1*%
%TO.N,Net-(Q1-G)*%
X179050000Y-96460000D03*
D21*
%TO.P,Q1,2,D_2*%
%TO.N,IGN -*%
X179050000Y-99000000D03*
%TO.P,Q1,3,S_3*%
%TO.N,GND*%
X179050000Y-101540000D03*
%TD*%
D22*
%TO.P,D1,1,K_1*%
%TO.N,IGN +*%
X162000000Y-96080000D03*
D23*
%TO.P,D1,2,A_2*%
%TO.N,IGN -*%
X162000000Y-85920000D03*
%TD*%
D15*
%TO.P,D3,1,K_1*%
%TO.N,GND*%
X131000000Y-116500000D03*
D16*
%TO.P,D3,2,A_2*%
%TO.N,Net-(D3-A)*%
X131000000Y-109500000D03*
%TD*%
D17*
%TO.P,R3,1*%
%TO.N,Net-(Q2-B)*%
X135000000Y-94620000D03*
%TO.P,R3,2*%
%TO.N,IGN -*%
X135000000Y-87000000D03*
%TD*%
%TO.P,R1,1*%
%TO.N,Net-(D3-A)*%
X155250000Y-87000000D03*
%TO.P,R1,2*%
%TO.N,Net-(Q1-G)*%
X155250000Y-94620000D03*
%TD*%
D12*
%TO.P,J1,1,Pin_1_1*%
%TO.N,Net-(J1-Pin_1)*%
X179000000Y-116500000D03*
D13*
%TO.P,J1,2,Pin_2_2*%
%TO.N,GND*%
X179000000Y-111500000D03*
%TD*%
D15*
%TO.P,SW2,1,1_1*%
%TO.N,VBAT*%
X139000000Y-116500000D03*
D16*
%TO.P,SW2,2,2_2*%
%TO.N,Net-(D3-A)*%
X139000000Y-109500000D03*
%TD*%
D15*
%TO.P,D4,1,K_1*%
%TO.N,Net-(BZ1--)*%
X123000000Y-116500000D03*
D16*
%TO.P,D4,2,A_2*%
%TO.N,VBAT*%
X123000000Y-109500000D03*
%TD*%
%TO.N,IGN +*%
D24*
X162000000Y-96080000D02*
X168420000Y-96080000D01*
X169000000Y-95500000D02*
X155000000Y-109500000D01*
X176000000Y-88500000D02*
X179172500Y-88500000D01*
X169000000Y-95500000D02*
X176000000Y-88500000D01*
X168420000Y-96080000D02*
X169000000Y-95500000D01*
%TO.N,IGN -*%
X183500000Y-98000000D02*
X182500000Y-99000000D01*
X168000000Y-83500000D02*
X179172500Y-83500000D01*
X165580000Y-85920000D02*
X168000000Y-83500000D01*
X182500000Y-99000000D02*
X179050000Y-99000000D01*
X179172500Y-83500000D02*
X183000000Y-83500000D01*
X183000000Y-83500000D02*
X183500000Y-84000000D01*
X162000000Y-85920000D02*
X165580000Y-85920000D01*
X183500000Y-84000000D02*
X183500000Y-98000000D01*
%TO.N,GND*%
X179050000Y-101540000D02*
X179050000Y-104250000D01*
X179050000Y-104250000D02*
X179050000Y-111450000D01*
X179050000Y-111450000D02*
X179000000Y-111500000D01*
%TO.N,Net-(J1-Pin_1)*%
X163000000Y-116500000D02*
X179000000Y-116500000D01*
%TO.N,VBAT*%
X117250000Y-115250000D02*
X117250000Y-122500000D01*
X163000000Y-109500000D02*
X162000000Y-109500000D01*
X123000000Y-109500000D02*
X117250000Y-115250000D01*
X123000000Y-93050000D02*
X118950000Y-89000000D01*
X143750000Y-124500000D02*
X139000000Y-119750000D01*
X155000000Y-116500000D02*
X147000000Y-124500000D01*
X141750000Y-122500000D02*
X143750000Y-124500000D01*
X147000000Y-124500000D02*
X143750000Y-124500000D01*
X123000000Y-109500000D02*
X123000000Y-93050000D01*
X117250000Y-122500000D02*
X141750000Y-122500000D01*
X162000000Y-109500000D02*
X155000000Y-116500000D01*
X139000000Y-119750000D02*
X139000000Y-116500000D01*
%TD*%
%TA.AperFunction,Conductor*%
%TO.N,GND*%
G36*
X187563181Y-75336819D02*
G01*
X187599500Y-75424500D01*
X187599500Y-127075500D01*
X187563181Y-127163181D01*
X187475500Y-127199500D01*
X113324500Y-127199500D01*
X113236819Y-127163181D01*
X113200500Y-127075500D01*
X113200500Y-115039290D01*
X115649500Y-115039290D01*
X115649500Y-122289290D01*
X115649500Y-122710710D01*
X115758571Y-123117770D01*
X115969281Y-123482730D01*
X116267270Y-123780719D01*
X116632230Y-123991429D01*
X117039290Y-124100500D01*
X141035689Y-124100500D01*
X141123370Y-124136819D01*
X142767270Y-125780719D01*
X143132229Y-125991429D01*
X143539290Y-126100500D01*
X143539292Y-126100500D01*
X147210708Y-126100500D01*
X147210710Y-126100500D01*
X147617770Y-125991429D01*
X147982730Y-125780719D01*
X154876630Y-118886817D01*
X154964311Y-118850499D01*
X156583763Y-118850499D01*
X156583764Y-118850498D01*
X156831847Y-118801153D01*
X157113176Y-118613176D01*
X157301153Y-118331847D01*
X157350500Y-118083763D01*
X157350499Y-116464309D01*
X157386817Y-116376630D01*
X158847215Y-114916232D01*
X160649500Y-114916232D01*
X160649500Y-118083762D01*
X160649501Y-118083766D01*
X160698846Y-118331847D01*
X160886824Y-118613176D01*
X161168151Y-118801152D01*
X161168155Y-118801154D01*
X161353377Y-118837996D01*
X161416237Y-118850500D01*
X164583762Y-118850499D01*
X164831847Y-118801153D01*
X165113176Y-118613176D01*
X165301153Y-118331847D01*
X165327318Y-118200309D01*
X165380044Y-118121398D01*
X165448935Y-118100500D01*
X177228666Y-118100500D01*
X177316347Y-118136819D01*
X177331769Y-118155611D01*
X177336821Y-118163173D01*
X177336823Y-118163175D01*
X177336824Y-118163176D01*
X177618151Y-118351153D01*
X177618152Y-118351153D01*
X177618153Y-118351154D01*
X177803375Y-118387996D01*
X177866235Y-118400500D01*
X180133764Y-118400499D01*
X180217203Y-118383902D01*
X180381846Y-118351154D01*
X180381846Y-118351153D01*
X180381849Y-118351153D01*
X180663176Y-118163176D01*
X180851153Y-117881849D01*
X180900500Y-117633765D01*
X180900499Y-115366236D01*
X180900054Y-115364001D01*
X180851154Y-115118153D01*
X180851153Y-115118152D01*
X180851153Y-115118151D01*
X180663176Y-114836824D01*
X180381849Y-114648847D01*
X180381848Y-114648846D01*
X180381847Y-114648846D01*
X180381846Y-114648845D01*
X180133768Y-114599500D01*
X177866235Y-114599500D01*
X177866231Y-114599501D01*
X177618153Y-114648845D01*
X177618152Y-114648846D01*
X177336824Y-114836823D01*
X177336821Y-114836826D01*
X177331769Y-114844389D01*
X177252859Y-114897117D01*
X177228666Y-114899500D01*
X165448934Y-114899500D01*
X165361253Y-114863181D01*
X165327317Y-114799692D01*
X165301153Y-114668153D01*
X165301152Y-114668151D01*
X165301152Y-114668150D01*
X165113175Y-114386823D01*
X164831848Y-114198847D01*
X164831844Y-114198845D01*
X164583766Y-114149500D01*
X161416237Y-114149500D01*
X161416233Y-114149501D01*
X161168152Y-114198846D01*
X160886823Y-114386824D01*
X160698847Y-114668151D01*
X160698845Y-114668155D01*
X160649500Y-114916232D01*
X158847215Y-114916232D01*
X162026653Y-111736794D01*
X162114333Y-111700476D01*
X162146418Y-111704699D01*
X162690551Y-111850500D01*
X162690554Y-111850500D01*
X163309446Y-111850500D01*
X163309449Y-111850500D01*
X163907259Y-111690317D01*
X164443241Y-111380868D01*
X164880868Y-110943241D01*
X165190317Y-110407259D01*
X165350500Y-109809449D01*
X165350500Y-109190551D01*
X165190317Y-108592741D01*
X164880868Y-108056759D01*
X164443241Y-107619132D01*
X163907261Y-107309684D01*
X163907260Y-107309683D01*
X163757806Y-107269637D01*
X163309449Y-107149500D01*
X162690551Y-107149500D01*
X162331865Y-107245609D01*
X162092739Y-107309683D01*
X162092738Y-107309684D01*
X161556757Y-107619133D01*
X161119134Y-108056756D01*
X161119130Y-108056762D01*
X161044014Y-108186863D01*
X161021746Y-108212267D01*
X161023015Y-108213536D01*
X155123368Y-114113181D01*
X155035687Y-114149500D01*
X153416237Y-114149500D01*
X153416233Y-114149501D01*
X153168152Y-114198846D01*
X152886823Y-114386824D01*
X152698847Y-114668151D01*
X152698845Y-114668155D01*
X152649500Y-114916232D01*
X152649500Y-116535688D01*
X152613181Y-116623369D01*
X146373370Y-122863181D01*
X146285689Y-122899500D01*
X144464311Y-122899500D01*
X144376630Y-122863181D01*
X140636819Y-119123370D01*
X140600500Y-119035689D01*
X140600500Y-118948934D01*
X140636819Y-118861253D01*
X140700309Y-118827316D01*
X140831847Y-118801153D01*
X140831848Y-118801152D01*
X140831849Y-118801152D01*
X140902657Y-118753839D01*
X141113176Y-118613176D01*
X141301153Y-118331847D01*
X141350500Y-118083763D01*
X141350499Y-114916238D01*
X141327317Y-114799690D01*
X141301153Y-114668152D01*
X141113175Y-114386823D01*
X140831848Y-114198847D01*
X140831844Y-114198845D01*
X140583766Y-114149500D01*
X137416237Y-114149500D01*
X137416233Y-114149501D01*
X137168152Y-114198846D01*
X136886823Y-114386824D01*
X136698847Y-114668151D01*
X136698845Y-114668155D01*
X136649500Y-114916232D01*
X136649500Y-118083762D01*
X136649501Y-118083766D01*
X136698846Y-118331847D01*
X136744719Y-118400500D01*
X136886824Y-118613176D01*
X137027169Y-118706951D01*
X137168150Y-118801152D01*
X137168152Y-118801152D01*
X137168153Y-118801153D01*
X137299691Y-118827317D01*
X137378602Y-118880043D01*
X137399500Y-118948934D01*
X137399500Y-119960709D01*
X137508571Y-120367769D01*
X137508572Y-120367772D01*
X137708179Y-120713500D01*
X137720567Y-120807593D01*
X137662792Y-120882887D01*
X137600792Y-120899500D01*
X118974500Y-120899500D01*
X118886819Y-120863181D01*
X118850500Y-120775500D01*
X118850500Y-115964311D01*
X118886819Y-115876630D01*
X119847217Y-114916232D01*
X120649500Y-114916232D01*
X120649500Y-118083762D01*
X120649501Y-118083766D01*
X120698846Y-118331847D01*
X120886824Y-118613176D01*
X121168151Y-118801152D01*
X121168155Y-118801154D01*
X121353377Y-118837996D01*
X121416237Y-118850500D01*
X124583762Y-118850499D01*
X124831847Y-118801153D01*
X125113176Y-118613176D01*
X125301153Y-118331847D01*
X125350500Y-118083763D01*
X125350499Y-114916238D01*
X125327317Y-114799690D01*
X125301153Y-114668152D01*
X125113175Y-114386823D01*
X124831848Y-114198847D01*
X124831844Y-114198845D01*
X124583766Y-114149500D01*
X121416237Y-114149500D01*
X121416233Y-114149501D01*
X121168152Y-114198846D01*
X120886823Y-114386824D01*
X120698847Y-114668151D01*
X120698845Y-114668155D01*
X120649500Y-114916232D01*
X119847217Y-114916232D01*
X122876630Y-111886819D01*
X122964311Y-111850500D01*
X123309446Y-111850500D01*
X123309449Y-111850500D01*
X123907259Y-111690317D01*
X124443241Y-111380868D01*
X124880868Y-110943241D01*
X125190317Y-110407259D01*
X125350500Y-109809449D01*
X125350500Y-109190551D01*
X128649500Y-109190551D01*
X128649500Y-109809449D01*
X128769637Y-110257806D01*
X128809683Y-110407260D01*
X128809684Y-110407261D01*
X129119132Y-110943241D01*
X129556759Y-111380868D01*
X130092741Y-111690317D01*
X130690551Y-111850500D01*
X130690554Y-111850500D01*
X131309446Y-111850500D01*
X131309449Y-111850500D01*
X131907259Y-111690317D01*
X132443241Y-111380868D01*
X132880868Y-110943241D01*
X133190317Y-110407259D01*
X133350500Y-109809449D01*
X133350500Y-109190551D01*
X136649500Y-109190551D01*
X136649500Y-109809449D01*
X136769637Y-110257806D01*
X136809683Y-110407260D01*
X136809684Y-110407261D01*
X137119132Y-110943241D01*
X137556759Y-111380868D01*
X138092741Y-111690317D01*
X138690551Y-111850500D01*
X138690554Y-111850500D01*
X139309446Y-111850500D01*
X139309449Y-111850500D01*
X139907259Y-111690317D01*
X140443241Y-111380868D01*
X140880868Y-110943241D01*
X141190317Y-110407259D01*
X141350500Y-109809449D01*
X141350500Y-109190551D01*
X144649500Y-109190551D01*
X144649500Y-109809449D01*
X144769637Y-110257806D01*
X144809683Y-110407260D01*
X144809684Y-110407261D01*
X145119132Y-110943241D01*
X145556759Y-111380868D01*
X146092741Y-111690317D01*
X146690551Y-111850500D01*
X146690554Y-111850500D01*
X147309446Y-111850500D01*
X147309449Y-111850500D01*
X147907259Y-111690317D01*
X148443241Y-111380868D01*
X148880868Y-110943241D01*
X149190317Y-110407259D01*
X149350500Y-109809449D01*
X149350500Y-109190551D01*
X152649500Y-109190551D01*
X152649500Y-109809449D01*
X152769637Y-110257806D01*
X152809683Y-110407260D01*
X152809684Y-110407261D01*
X153119132Y-110943241D01*
X153556759Y-111380868D01*
X154092741Y-111690317D01*
X154690551Y-111850500D01*
X154690554Y-111850500D01*
X155309446Y-111850500D01*
X155309449Y-111850500D01*
X155907259Y-111690317D01*
X156443241Y-111380868D01*
X156880868Y-110943241D01*
X157190317Y-110407259D01*
X157350500Y-109809449D01*
X157350500Y-109464311D01*
X157386819Y-109376630D01*
X160959733Y-105803716D01*
X167049500Y-105803716D01*
X167049500Y-106396284D01*
X167164526Y-106825566D01*
X167202868Y-106968661D01*
X167202869Y-106968662D01*
X167499152Y-107481839D01*
X167918161Y-107900848D01*
X168431340Y-108197132D01*
X169003716Y-108350500D01*
X169003719Y-108350500D01*
X169596281Y-108350500D01*
X169596284Y-108350500D01*
X170168660Y-108197132D01*
X170681839Y-107900848D01*
X171100848Y-107481839D01*
X171397132Y-106968660D01*
X171550500Y-106396284D01*
X171550500Y-105803716D01*
X171397132Y-105231340D01*
X171100848Y-104718161D01*
X170681839Y-104299152D01*
X170168662Y-104002869D01*
X170168661Y-104002868D01*
X170025566Y-103964526D01*
X169596284Y-103849500D01*
X169003716Y-103849500D01*
X168660290Y-103941520D01*
X168431338Y-104002868D01*
X168431337Y-104002869D01*
X167918164Y-104299150D01*
X167918158Y-104299154D01*
X167499154Y-104718158D01*
X167499150Y-104718164D01*
X167202869Y-105231337D01*
X167202868Y-105231338D01*
X167126184Y-105517528D01*
X167049500Y-105803716D01*
X160959733Y-105803716D01*
X176626630Y-90136819D01*
X176714311Y-90100500D01*
X177401166Y-90100500D01*
X177488847Y-90136819D01*
X177504269Y-90155611D01*
X177509321Y-90163173D01*
X177509323Y-90163175D01*
X177509324Y-90163176D01*
X177790651Y-90351153D01*
X177790652Y-90351153D01*
X177790653Y-90351154D01*
X177975875Y-90387996D01*
X178038735Y-90400500D01*
X180306264Y-90400499D01*
X180389703Y-90383902D01*
X180554346Y-90351154D01*
X180554346Y-90351153D01*
X180554349Y-90351153D01*
X180835676Y-90163176D01*
X181023653Y-89881849D01*
X181073000Y-89633765D01*
X181072999Y-87366236D01*
X181055993Y-87280739D01*
X181023654Y-87118153D01*
X181023653Y-87118152D01*
X181023653Y-87118151D01*
X180835676Y-86836824D01*
X180554349Y-86648847D01*
X180554348Y-86648846D01*
X180554347Y-86648846D01*
X180554346Y-86648845D01*
X180306268Y-86599500D01*
X178038735Y-86599500D01*
X178038731Y-86599501D01*
X177790653Y-86648845D01*
X177790652Y-86648846D01*
X177509324Y-86836823D01*
X177509321Y-86836826D01*
X177504269Y-86844389D01*
X177425359Y-86897117D01*
X177401166Y-86899500D01*
X175789290Y-86899500D01*
X175382230Y-87008571D01*
X175382227Y-87008572D01*
X175017273Y-87219279D01*
X175017267Y-87219283D01*
X167793370Y-94443181D01*
X167705689Y-94479500D01*
X163295271Y-94479500D01*
X163226380Y-94458602D01*
X163203301Y-94443181D01*
X163181849Y-94428847D01*
X163181847Y-94428846D01*
X163181844Y-94428845D01*
X162933769Y-94379500D01*
X162933766Y-94379500D01*
X161066234Y-94379500D01*
X161066231Y-94379500D01*
X160818155Y-94428845D01*
X160818151Y-94428847D01*
X160536824Y-94616824D01*
X160348847Y-94898151D01*
X160348845Y-94898155D01*
X160299500Y-95146229D01*
X160299500Y-97013770D01*
X160348845Y-97261844D01*
X160348846Y-97261847D01*
X160348847Y-97261849D01*
X160536824Y-97543176D01*
X160818151Y-97731153D01*
X160818154Y-97731153D01*
X160818155Y-97731154D01*
X161066229Y-97780499D01*
X161066232Y-97780500D01*
X161066234Y-97780500D01*
X162933768Y-97780500D01*
X162933769Y-97780499D01*
X163181849Y-97731153D01*
X163226380Y-97701397D01*
X163295271Y-97680500D01*
X164256689Y-97680500D01*
X164344370Y-97716819D01*
X164380689Y-97804500D01*
X164344370Y-97892181D01*
X155123370Y-107113181D01*
X155035689Y-107149500D01*
X154690551Y-107149500D01*
X154331865Y-107245609D01*
X154092739Y-107309683D01*
X154092738Y-107309684D01*
X153556757Y-107619133D01*
X153119133Y-108056757D01*
X152809684Y-108592738D01*
X152809683Y-108592739D01*
X152729591Y-108891646D01*
X152649500Y-109190551D01*
X149350500Y-109190551D01*
X149190317Y-108592741D01*
X148880868Y-108056759D01*
X148443241Y-107619132D01*
X147907261Y-107309684D01*
X147907260Y-107309683D01*
X147757806Y-107269637D01*
X147309449Y-107149500D01*
X146690551Y-107149500D01*
X146331865Y-107245609D01*
X146092739Y-107309683D01*
X146092738Y-107309684D01*
X145556757Y-107619133D01*
X145119133Y-108056757D01*
X144809684Y-108592738D01*
X144809683Y-108592739D01*
X144729591Y-108891646D01*
X144649500Y-109190551D01*
X141350500Y-109190551D01*
X141190317Y-108592741D01*
X140880868Y-108056759D01*
X140443241Y-107619132D01*
X139907261Y-107309684D01*
X139907260Y-107309683D01*
X139757806Y-107269637D01*
X139309449Y-107149500D01*
X138690551Y-107149500D01*
X138331865Y-107245609D01*
X138092739Y-107309683D01*
X138092738Y-107309684D01*
X137556757Y-107619133D01*
X137119133Y-108056757D01*
X136809684Y-108592738D01*
X136809683Y-108592739D01*
X136729591Y-108891646D01*
X136649500Y-109190551D01*
X133350500Y-109190551D01*
X133190317Y-108592741D01*
X132880868Y-108056759D01*
X132443241Y-107619132D01*
X131907261Y-107309684D01*
X131907260Y-107309683D01*
X131757806Y-107269637D01*
X131309449Y-107149500D01*
X130690551Y-107149500D01*
X130331865Y-107245609D01*
X130092739Y-107309683D01*
X130092738Y-107309684D01*
X129556757Y-107619133D01*
X129119133Y-108056757D01*
X128809684Y-108592738D01*
X128809683Y-108592739D01*
X128729591Y-108891646D01*
X128649500Y-109190551D01*
X125350500Y-109190551D01*
X125190317Y-108592741D01*
X124880868Y-108056759D01*
X124636819Y-107812710D01*
X124600500Y-107725029D01*
X124600500Y-100900854D01*
X131929500Y-100900854D01*
X131929500Y-103119138D01*
X131964342Y-103294304D01*
X132030703Y-103393619D01*
X132097064Y-103492936D01*
X132295697Y-103625658D01*
X132295698Y-103625658D01*
X132295699Y-103625659D01*
X132426475Y-103651671D01*
X132470859Y-103660500D01*
X133989140Y-103660499D01*
X134164303Y-103625658D01*
X134362936Y-103492936D01*
X134495658Y-103294303D01*
X134500759Y-103268662D01*
X134530499Y-103119145D01*
X134530500Y-103119141D01*
X134530499Y-102103716D01*
X144049500Y-102103716D01*
X144049500Y-102696284D01*
X144164526Y-103125566D01*
X144202868Y-103268661D01*
X144202869Y-103268662D01*
X144301629Y-103439719D01*
X144499152Y-103781839D01*
X144918161Y-104200848D01*
X145431340Y-104497132D01*
X146003716Y-104650500D01*
X146003719Y-104650500D01*
X146596281Y-104650500D01*
X146596284Y-104650500D01*
X147168660Y-104497132D01*
X147681839Y-104200848D01*
X148100848Y-103781839D01*
X148397132Y-103268660D01*
X148550500Y-102696284D01*
X148550500Y-102103716D01*
X148397132Y-101531340D01*
X148100848Y-101018161D01*
X147681839Y-100599152D01*
X147168662Y-100302869D01*
X147168661Y-100302868D01*
X146984842Y-100253614D01*
X146596284Y-100149500D01*
X146003716Y-100149500D01*
X145682760Y-100235500D01*
X145431338Y-100302868D01*
X145431337Y-100302869D01*
X144918164Y-100599150D01*
X144918158Y-100599154D01*
X144499154Y-101018158D01*
X144499150Y-101018164D01*
X144202869Y-101531337D01*
X144202868Y-101531338D01*
X144126184Y-101817528D01*
X144049500Y-102103716D01*
X134530499Y-102103716D01*
X134530499Y-101234499D01*
X134566818Y-101146819D01*
X134654499Y-101110500D01*
X134943616Y-101110500D01*
X134943617Y-101110499D01*
X135036860Y-101091952D01*
X135220864Y-101055352D01*
X135220864Y-101055351D01*
X135220867Y-101055351D01*
X135535272Y-100845272D01*
X135745351Y-100530867D01*
X135746108Y-100527064D01*
X135786662Y-100323181D01*
X135800500Y-100253614D01*
X135800500Y-98666386D01*
X135800500Y-98666383D01*
X135800499Y-98666381D01*
X135745352Y-98389135D01*
X135745351Y-98389134D01*
X135745351Y-98389133D01*
X135535272Y-98074728D01*
X135220867Y-97864649D01*
X135220866Y-97864648D01*
X135220865Y-97864648D01*
X135220864Y-97864647D01*
X134943617Y-97809500D01*
X134943614Y-97809500D01*
X134056386Y-97809500D01*
X134056383Y-97809500D01*
X133779135Y-97864647D01*
X133779134Y-97864648D01*
X133464728Y-98074728D01*
X133254648Y-98389134D01*
X133254647Y-98389135D01*
X133199500Y-98666381D01*
X133199500Y-100235500D01*
X133163181Y-100323181D01*
X133075500Y-100359500D01*
X132470861Y-100359500D01*
X132295695Y-100394342D01*
X132097064Y-100527064D01*
X131964341Y-100725698D01*
X131964340Y-100725699D01*
X131929500Y-100900854D01*
X124600500Y-100900854D01*
X124600500Y-94435621D01*
X133599500Y-94435621D01*
X133599500Y-94804379D01*
X133694942Y-95160573D01*
X133879321Y-95479927D01*
X134140073Y-95740679D01*
X134459427Y-95925058D01*
X134815621Y-96020500D01*
X134815623Y-96020500D01*
X135184376Y-96020500D01*
X135184379Y-96020500D01*
X135540573Y-95925058D01*
X135859927Y-95740679D01*
X136120679Y-95479927D01*
X136305058Y-95160573D01*
X136400500Y-94804379D01*
X136400500Y-94435621D01*
X136384423Y-94375621D01*
X140349500Y-94375621D01*
X140349500Y-94744379D01*
X140444942Y-95100573D01*
X140629321Y-95419927D01*
X140890073Y-95680679D01*
X141209427Y-95865058D01*
X141565621Y-95960500D01*
X141565623Y-95960500D01*
X141934376Y-95960500D01*
X141934379Y-95960500D01*
X142290573Y-95865058D01*
X142609927Y-95680679D01*
X142870679Y-95419927D01*
X143055058Y-95100573D01*
X143150500Y-94744379D01*
X143150500Y-94435621D01*
X147099500Y-94435621D01*
X147099500Y-94804379D01*
X147194942Y-95160573D01*
X147379321Y-95479927D01*
X147640073Y-95740679D01*
X147959427Y-95925058D01*
X148315621Y-96020500D01*
X148315623Y-96020500D01*
X148684376Y-96020500D01*
X148684379Y-96020500D01*
X149040573Y-95925058D01*
X149359927Y-95740679D01*
X149620679Y-95479927D01*
X149805058Y-95160573D01*
X149900500Y-94804379D01*
X149900500Y-94435621D01*
X153849500Y-94435621D01*
X153849500Y-94804379D01*
X153944942Y-95160573D01*
X154129321Y-95479927D01*
X154390073Y-95740679D01*
X154709427Y-95925058D01*
X155065621Y-96020500D01*
X155065623Y-96020500D01*
X155434376Y-96020500D01*
X155434379Y-96020500D01*
X155790573Y-95925058D01*
X156109927Y-95740679D01*
X156370679Y-95479927D01*
X156555058Y-95160573D01*
X156650500Y-94804379D01*
X156650500Y-94435621D01*
X156555058Y-94079427D01*
X156370679Y-93760073D01*
X156109927Y-93499321D01*
X155790573Y-93314942D01*
X155434379Y-93219500D01*
X155065621Y-93219500D01*
X154709427Y-93314942D01*
X154709425Y-93314943D01*
X154709424Y-93314943D01*
X154390076Y-93499319D01*
X154390070Y-93499323D01*
X154129323Y-93760070D01*
X154129319Y-93760076D01*
X153944943Y-94079424D01*
X153944943Y-94079425D01*
X153944942Y-94079427D01*
X153849500Y-94435621D01*
X149900500Y-94435621D01*
X149805058Y-94079427D01*
X149620679Y-93760073D01*
X149359927Y-93499321D01*
X149040573Y-93314942D01*
X148684379Y-93219500D01*
X148315621Y-93219500D01*
X147959427Y-93314942D01*
X147959425Y-93314943D01*
X147959424Y-93314943D01*
X147640076Y-93499319D01*
X147640070Y-93499323D01*
X147379323Y-93760070D01*
X147379319Y-93760076D01*
X147194943Y-94079424D01*
X147194943Y-94079425D01*
X147194942Y-94079427D01*
X147099500Y-94435621D01*
X143150500Y-94435621D01*
X143150500Y-94375621D01*
X143055058Y-94019427D01*
X142870679Y-93700073D01*
X142609927Y-93439321D01*
X142290573Y-93254942D01*
X141934379Y-93159500D01*
X141565621Y-93159500D01*
X141209427Y-93254942D01*
X141209425Y-93254943D01*
X141209424Y-93254943D01*
X140890076Y-93439319D01*
X140890070Y-93439323D01*
X140629323Y-93700070D01*
X140629319Y-93700076D01*
X140444943Y-94019424D01*
X140444943Y-94019425D01*
X140444942Y-94019427D01*
X140349500Y-94375621D01*
X136384423Y-94375621D01*
X136305058Y-94079427D01*
X136120679Y-93760073D01*
X135859927Y-93499321D01*
X135540573Y-93314942D01*
X135184379Y-93219500D01*
X134815621Y-93219500D01*
X134459427Y-93314942D01*
X134459425Y-93314943D01*
X134459424Y-93314943D01*
X134140076Y-93499319D01*
X134140070Y-93499323D01*
X133879323Y-93760070D01*
X133879319Y-93760076D01*
X133694943Y-94079424D01*
X133694943Y-94079425D01*
X133694942Y-94079427D01*
X133599500Y-94435621D01*
X124600500Y-94435621D01*
X124600500Y-92839292D01*
X124600500Y-92839290D01*
X124491429Y-92432230D01*
X124280719Y-92067270D01*
X123982730Y-91769281D01*
X121002739Y-88789290D01*
X124949500Y-88789290D01*
X124949500Y-89210710D01*
X125058571Y-89617770D01*
X125269281Y-89982730D01*
X125567270Y-90280719D01*
X125932230Y-90491429D01*
X126339290Y-90600500D01*
X126339292Y-90600500D01*
X126760708Y-90600500D01*
X126760710Y-90600500D01*
X127167770Y-90491429D01*
X127532730Y-90280719D01*
X127830719Y-89982730D01*
X128041429Y-89617770D01*
X128150500Y-89210710D01*
X128150500Y-88789290D01*
X128041429Y-88382230D01*
X127830719Y-88017270D01*
X127532730Y-87719281D01*
X127269083Y-87567064D01*
X127167772Y-87508572D01*
X127167771Y-87508571D01*
X127167770Y-87508571D01*
X126760710Y-87399500D01*
X126339290Y-87399500D01*
X125932230Y-87508571D01*
X125932227Y-87508572D01*
X125567273Y-87719279D01*
X125567267Y-87719283D01*
X125269283Y-88017267D01*
X125269279Y-88017273D01*
X125058572Y-88382227D01*
X125058571Y-88382230D01*
X124949500Y-88789290D01*
X121002739Y-88789290D01*
X120586818Y-88373369D01*
X120550499Y-88285688D01*
X120550499Y-87940861D01*
X120515658Y-87765698D01*
X120515658Y-87765697D01*
X120382936Y-87567064D01*
X120184303Y-87434342D01*
X120184302Y-87434341D01*
X120184301Y-87434341D01*
X120184300Y-87434340D01*
X120009144Y-87399500D01*
X120009141Y-87399500D01*
X119160711Y-87399500D01*
X119160710Y-87399500D01*
X118739290Y-87399500D01*
X118739287Y-87399500D01*
X117890861Y-87399500D01*
X117715695Y-87434342D01*
X117517064Y-87567064D01*
X117384341Y-87765698D01*
X117384340Y-87765699D01*
X117349500Y-87940854D01*
X117349500Y-90059138D01*
X117384342Y-90234304D01*
X117450703Y-90333619D01*
X117517064Y-90432936D01*
X117715697Y-90565658D01*
X117715698Y-90565658D01*
X117715699Y-90565659D01*
X117846475Y-90591671D01*
X117890859Y-90600500D01*
X118235688Y-90600499D01*
X118323369Y-90636818D01*
X121363181Y-93676630D01*
X121399500Y-93764311D01*
X121399500Y-107725029D01*
X121363181Y-107812710D01*
X121119133Y-108056757D01*
X120809684Y-108592738D01*
X120809683Y-108592739D01*
X120729591Y-108891646D01*
X120649500Y-109190551D01*
X120649500Y-109190553D01*
X120649500Y-109535689D01*
X120613181Y-109623370D01*
X115969283Y-114267267D01*
X115969279Y-114267273D01*
X115758572Y-114632227D01*
X115758571Y-114632230D01*
X115649500Y-115039290D01*
X113200500Y-115039290D01*
X113200500Y-102103716D01*
X115349500Y-102103716D01*
X115349500Y-102696284D01*
X115464526Y-103125566D01*
X115502868Y-103268661D01*
X115502869Y-103268662D01*
X115601629Y-103439719D01*
X115799152Y-103781839D01*
X116218161Y-104200848D01*
X116731340Y-104497132D01*
X117303716Y-104650500D01*
X117303719Y-104650500D01*
X117896281Y-104650500D01*
X117896284Y-104650500D01*
X118468660Y-104497132D01*
X118981839Y-104200848D01*
X119400848Y-103781839D01*
X119697132Y-103268660D01*
X119850500Y-102696284D01*
X119850500Y-102103716D01*
X119697132Y-101531340D01*
X119400848Y-101018161D01*
X118981839Y-100599152D01*
X118468662Y-100302869D01*
X118468661Y-100302868D01*
X118284842Y-100253614D01*
X117896284Y-100149500D01*
X117303716Y-100149500D01*
X116982760Y-100235500D01*
X116731338Y-100302868D01*
X116731337Y-100302869D01*
X116218164Y-100599150D01*
X116218158Y-100599154D01*
X115799154Y-101018158D01*
X115799150Y-101018164D01*
X115502869Y-101531337D01*
X115502868Y-101531338D01*
X115426184Y-101817528D01*
X115349500Y-102103716D01*
X113200500Y-102103716D01*
X113200500Y-86815621D01*
X133599500Y-86815621D01*
X133599500Y-87184379D01*
X133694942Y-87540573D01*
X133694943Y-87540574D01*
X133694943Y-87540575D01*
X133741087Y-87620499D01*
X133879321Y-87859927D01*
X134140073Y-88120679D01*
X134459427Y-88305058D01*
X134815621Y-88400500D01*
X134815623Y-88400500D01*
X135184376Y-88400500D01*
X135184379Y-88400500D01*
X135540573Y-88305058D01*
X135859927Y-88120679D01*
X136120679Y-87859927D01*
X136305058Y-87540573D01*
X136400500Y-87184379D01*
X136400500Y-86815621D01*
X153849500Y-86815621D01*
X153849500Y-87184379D01*
X153944942Y-87540573D01*
X153944943Y-87540574D01*
X153944943Y-87540575D01*
X153991087Y-87620499D01*
X154129321Y-87859927D01*
X154390073Y-88120679D01*
X154709427Y-88305058D01*
X155065621Y-88400500D01*
X155065623Y-88400500D01*
X155434376Y-88400500D01*
X155434379Y-88400500D01*
X155790573Y-88305058D01*
X156109927Y-88120679D01*
X156370679Y-87859927D01*
X156555058Y-87540573D01*
X156650500Y-87184379D01*
X156650500Y-86815621D01*
X156555058Y-86459427D01*
X156370679Y-86140073D01*
X156109927Y-85879321D01*
X155792622Y-85696125D01*
X160299500Y-85696125D01*
X160299500Y-86143875D01*
X160415386Y-86576369D01*
X160639261Y-86964132D01*
X160955868Y-87280739D01*
X161343631Y-87504614D01*
X161776125Y-87620500D01*
X161776127Y-87620500D01*
X162223873Y-87620500D01*
X162223875Y-87620500D01*
X162581313Y-87524724D01*
X162613406Y-87520500D01*
X165790708Y-87520500D01*
X165790710Y-87520500D01*
X166197770Y-87411429D01*
X166562730Y-87200719D01*
X168626630Y-85136819D01*
X168714311Y-85100500D01*
X178110423Y-85100500D01*
X178172422Y-85117112D01*
X178438935Y-85270984D01*
X178922294Y-85400500D01*
X178922297Y-85400500D01*
X179422703Y-85400500D01*
X179422706Y-85400500D01*
X179906065Y-85270984D01*
X180172577Y-85117112D01*
X180234577Y-85100500D01*
X181775500Y-85100500D01*
X181863181Y-85136819D01*
X181899500Y-85224500D01*
X181899500Y-97275500D01*
X181863181Y-97363181D01*
X181775500Y-97399500D01*
X180774500Y-97399500D01*
X180686819Y-97363181D01*
X180650500Y-97275500D01*
X180650499Y-95448361D01*
X180644844Y-95419929D01*
X180615658Y-95273197D01*
X180482936Y-95074564D01*
X180284303Y-94941842D01*
X180284302Y-94941841D01*
X180284301Y-94941841D01*
X180284300Y-94941840D01*
X180109144Y-94907000D01*
X177990861Y-94907000D01*
X177815695Y-94941842D01*
X177617064Y-95074564D01*
X177484341Y-95273198D01*
X177484340Y-95273199D01*
X177449500Y-95448354D01*
X177449500Y-97471638D01*
X177484342Y-97646804D01*
X177520821Y-97701398D01*
X177617064Y-97845436D01*
X177687023Y-97892181D01*
X177701931Y-97902142D01*
X177754657Y-97981053D01*
X177740427Y-98067244D01*
X177558572Y-98382227D01*
X177558571Y-98382230D01*
X177449500Y-98789290D01*
X177449500Y-99210710D01*
X177558571Y-99617770D01*
X177769281Y-99982730D01*
X178067270Y-100280719D01*
X178432230Y-100491429D01*
X178839290Y-100600500D01*
X178839292Y-100600500D01*
X182710708Y-100600500D01*
X182710710Y-100600500D01*
X183117770Y-100491429D01*
X183482730Y-100280719D01*
X184780719Y-98982730D01*
X184991429Y-98617770D01*
X185100500Y-98210710D01*
X185100500Y-97789290D01*
X185100500Y-83789290D01*
X184991429Y-83382230D01*
X184780719Y-83017270D01*
X184482730Y-82719281D01*
X183982730Y-82219281D01*
X183617770Y-82008571D01*
X183210710Y-81899500D01*
X183210709Y-81899500D01*
X180234577Y-81899500D01*
X180172577Y-81882887D01*
X179906067Y-81729017D01*
X179906066Y-81729016D01*
X179785225Y-81696637D01*
X179422706Y-81599500D01*
X178922294Y-81599500D01*
X178632278Y-81677209D01*
X178438933Y-81729016D01*
X178438932Y-81729017D01*
X178172423Y-81882887D01*
X178110423Y-81899500D01*
X167789290Y-81899500D01*
X167382230Y-82008571D01*
X167382227Y-82008572D01*
X167017273Y-82219279D01*
X167017267Y-82219283D01*
X164953370Y-84283181D01*
X164865689Y-84319500D01*
X162613406Y-84319500D01*
X162581313Y-84315275D01*
X162461536Y-84283181D01*
X162223875Y-84219500D01*
X161776125Y-84219500D01*
X161343631Y-84335386D01*
X161343628Y-84335387D01*
X160955871Y-84559259D01*
X160955865Y-84559263D01*
X160639263Y-84875865D01*
X160639259Y-84875871D01*
X160415387Y-85263628D01*
X160415386Y-85263631D01*
X160299500Y-85696125D01*
X155792622Y-85696125D01*
X155790573Y-85694942D01*
X155434379Y-85599500D01*
X155065621Y-85599500D01*
X154709427Y-85694942D01*
X154709425Y-85694943D01*
X154709424Y-85694943D01*
X154390076Y-85879319D01*
X154390070Y-85879323D01*
X154129323Y-86140070D01*
X154129319Y-86140076D01*
X153944943Y-86459424D01*
X153944943Y-86459425D01*
X153944942Y-86459427D01*
X153849500Y-86815621D01*
X136400500Y-86815621D01*
X136305058Y-86459427D01*
X136120679Y-86140073D01*
X135859927Y-85879321D01*
X135540573Y-85694942D01*
X135184379Y-85599500D01*
X134815621Y-85599500D01*
X134459427Y-85694942D01*
X134459425Y-85694943D01*
X134459424Y-85694943D01*
X134140076Y-85879319D01*
X134140070Y-85879323D01*
X133879323Y-86140070D01*
X133879319Y-86140076D01*
X133694943Y-86459424D01*
X133694943Y-86459425D01*
X133694942Y-86459427D01*
X133599500Y-86815621D01*
X113200500Y-86815621D01*
X113200500Y-75424500D01*
X113236819Y-75336819D01*
X113324500Y-75300500D01*
X187475500Y-75300500D01*
X187563181Y-75336819D01*
G37*
%TD.AperFunction*%
%TD*%
M02*
