%TF.GenerationSoftware,KiCad,Pcbnew,10.0.1*%
%TF.CreationDate,2026-05-07T18:19:01+05:30*%
%TF.ProjectId,ember_flight_recorder,656d6265-725f-4666-9c69-6768745f7265,rev?*%
%TF.SameCoordinates,Original*%
%TF.FileFunction,Legend,Bot*%
%TF.FilePolarity,Positive*%
%FSLAX46Y46*%
G04 Gerber Fmt 4.6, Leading zero omitted, Abs format (unit mm)*
G04 Created by KiCad (PCBNEW 10.0.1) date 2026-05-07 18:19:01*
%MOMM*%
%LPD*%
G01*
G04 APERTURE LIST*
%ADD10C,0.150000*%
%ADD11C,0.200000*%
%ADD12C,0.100000*%
%ADD13C,0.120000*%
G04 APERTURE END LIST*
D10*
X143154819Y-99033333D02*
X142678628Y-98700000D01*
X143154819Y-98461905D02*
X142154819Y-98461905D01*
X142154819Y-98461905D02*
X142154819Y-98842857D01*
X142154819Y-98842857D02*
X142202438Y-98938095D01*
X142202438Y-98938095D02*
X142250057Y-98985714D01*
X142250057Y-98985714D02*
X142345295Y-99033333D01*
X142345295Y-99033333D02*
X142488152Y-99033333D01*
X142488152Y-99033333D02*
X142583390Y-98985714D01*
X142583390Y-98985714D02*
X142631009Y-98938095D01*
X142631009Y-98938095D02*
X142678628Y-98842857D01*
X142678628Y-98842857D02*
X142678628Y-98461905D01*
X142154819Y-99366667D02*
X142154819Y-100033333D01*
X142154819Y-100033333D02*
X143154819Y-99604762D01*
X145159580Y-112233333D02*
X145207200Y-112185714D01*
X145207200Y-112185714D02*
X145254819Y-112042857D01*
X145254819Y-112042857D02*
X145254819Y-111947619D01*
X145254819Y-111947619D02*
X145207200Y-111804762D01*
X145207200Y-111804762D02*
X145111961Y-111709524D01*
X145111961Y-111709524D02*
X145016723Y-111661905D01*
X145016723Y-111661905D02*
X144826247Y-111614286D01*
X144826247Y-111614286D02*
X144683390Y-111614286D01*
X144683390Y-111614286D02*
X144492914Y-111661905D01*
X144492914Y-111661905D02*
X144397676Y-111709524D01*
X144397676Y-111709524D02*
X144302438Y-111804762D01*
X144302438Y-111804762D02*
X144254819Y-111947619D01*
X144254819Y-111947619D02*
X144254819Y-112042857D01*
X144254819Y-112042857D02*
X144302438Y-112185714D01*
X144302438Y-112185714D02*
X144350057Y-112233333D01*
X144254819Y-112566667D02*
X144254819Y-113185714D01*
X144254819Y-113185714D02*
X144635771Y-112852381D01*
X144635771Y-112852381D02*
X144635771Y-112995238D01*
X144635771Y-112995238D02*
X144683390Y-113090476D01*
X144683390Y-113090476D02*
X144731009Y-113138095D01*
X144731009Y-113138095D02*
X144826247Y-113185714D01*
X144826247Y-113185714D02*
X145064342Y-113185714D01*
X145064342Y-113185714D02*
X145159580Y-113138095D01*
X145159580Y-113138095D02*
X145207200Y-113090476D01*
X145207200Y-113090476D02*
X145254819Y-112995238D01*
X145254819Y-112995238D02*
X145254819Y-112709524D01*
X145254819Y-112709524D02*
X145207200Y-112614286D01*
X145207200Y-112614286D02*
X145159580Y-112566667D01*
X152459580Y-112133333D02*
X152507200Y-112085714D01*
X152507200Y-112085714D02*
X152554819Y-111942857D01*
X152554819Y-111942857D02*
X152554819Y-111847619D01*
X152554819Y-111847619D02*
X152507200Y-111704762D01*
X152507200Y-111704762D02*
X152411961Y-111609524D01*
X152411961Y-111609524D02*
X152316723Y-111561905D01*
X152316723Y-111561905D02*
X152126247Y-111514286D01*
X152126247Y-111514286D02*
X151983390Y-111514286D01*
X151983390Y-111514286D02*
X151792914Y-111561905D01*
X151792914Y-111561905D02*
X151697676Y-111609524D01*
X151697676Y-111609524D02*
X151602438Y-111704762D01*
X151602438Y-111704762D02*
X151554819Y-111847619D01*
X151554819Y-111847619D02*
X151554819Y-111942857D01*
X151554819Y-111942857D02*
X151602438Y-112085714D01*
X151602438Y-112085714D02*
X151650057Y-112133333D01*
X151650057Y-112514286D02*
X151602438Y-112561905D01*
X151602438Y-112561905D02*
X151554819Y-112657143D01*
X151554819Y-112657143D02*
X151554819Y-112895238D01*
X151554819Y-112895238D02*
X151602438Y-112990476D01*
X151602438Y-112990476D02*
X151650057Y-113038095D01*
X151650057Y-113038095D02*
X151745295Y-113085714D01*
X151745295Y-113085714D02*
X151840533Y-113085714D01*
X151840533Y-113085714D02*
X151983390Y-113038095D01*
X151983390Y-113038095D02*
X152554819Y-112466667D01*
X152554819Y-112466667D02*
X152554819Y-113085714D01*
X138359580Y-112833333D02*
X138407200Y-112785714D01*
X138407200Y-112785714D02*
X138454819Y-112642857D01*
X138454819Y-112642857D02*
X138454819Y-112547619D01*
X138454819Y-112547619D02*
X138407200Y-112404762D01*
X138407200Y-112404762D02*
X138311961Y-112309524D01*
X138311961Y-112309524D02*
X138216723Y-112261905D01*
X138216723Y-112261905D02*
X138026247Y-112214286D01*
X138026247Y-112214286D02*
X137883390Y-112214286D01*
X137883390Y-112214286D02*
X137692914Y-112261905D01*
X137692914Y-112261905D02*
X137597676Y-112309524D01*
X137597676Y-112309524D02*
X137502438Y-112404762D01*
X137502438Y-112404762D02*
X137454819Y-112547619D01*
X137454819Y-112547619D02*
X137454819Y-112642857D01*
X137454819Y-112642857D02*
X137502438Y-112785714D01*
X137502438Y-112785714D02*
X137550057Y-112833333D01*
X137454819Y-113738095D02*
X137454819Y-113261905D01*
X137454819Y-113261905D02*
X137931009Y-113214286D01*
X137931009Y-113214286D02*
X137883390Y-113261905D01*
X137883390Y-113261905D02*
X137835771Y-113357143D01*
X137835771Y-113357143D02*
X137835771Y-113595238D01*
X137835771Y-113595238D02*
X137883390Y-113690476D01*
X137883390Y-113690476D02*
X137931009Y-113738095D01*
X137931009Y-113738095D02*
X138026247Y-113785714D01*
X138026247Y-113785714D02*
X138264342Y-113785714D01*
X138264342Y-113785714D02*
X138359580Y-113738095D01*
X138359580Y-113738095D02*
X138407200Y-113690476D01*
X138407200Y-113690476D02*
X138454819Y-113595238D01*
X138454819Y-113595238D02*
X138454819Y-113357143D01*
X138454819Y-113357143D02*
X138407200Y-113261905D01*
X138407200Y-113261905D02*
X138359580Y-113214286D01*
X142438094Y-97454819D02*
X142438094Y-96454819D01*
X142438094Y-96454819D02*
X142199999Y-96454819D01*
X142199999Y-96454819D02*
X142057142Y-96502438D01*
X142057142Y-96502438D02*
X141961904Y-96597676D01*
X141961904Y-96597676D02*
X141914285Y-96692914D01*
X141914285Y-96692914D02*
X141866666Y-96883390D01*
X141866666Y-96883390D02*
X141866666Y-97026247D01*
X141866666Y-97026247D02*
X141914285Y-97216723D01*
X141914285Y-97216723D02*
X141961904Y-97311961D01*
X141961904Y-97311961D02*
X142057142Y-97407200D01*
X142057142Y-97407200D02*
X142199999Y-97454819D01*
X142199999Y-97454819D02*
X142438094Y-97454819D01*
X140961904Y-96454819D02*
X141438094Y-96454819D01*
X141438094Y-96454819D02*
X141485713Y-96931009D01*
X141485713Y-96931009D02*
X141438094Y-96883390D01*
X141438094Y-96883390D02*
X141342856Y-96835771D01*
X141342856Y-96835771D02*
X141104761Y-96835771D01*
X141104761Y-96835771D02*
X141009523Y-96883390D01*
X141009523Y-96883390D02*
X140961904Y-96931009D01*
X140961904Y-96931009D02*
X140914285Y-97026247D01*
X140914285Y-97026247D02*
X140914285Y-97264342D01*
X140914285Y-97264342D02*
X140961904Y-97359580D01*
X140961904Y-97359580D02*
X141009523Y-97407200D01*
X141009523Y-97407200D02*
X141104761Y-97454819D01*
X141104761Y-97454819D02*
X141342856Y-97454819D01*
X141342856Y-97454819D02*
X141438094Y-97407200D01*
X141438094Y-97407200D02*
X141485713Y-97359580D01*
D11*
X132376904Y-101355219D02*
X132376904Y-102164742D01*
X132376904Y-102164742D02*
X132329285Y-102259980D01*
X132329285Y-102259980D02*
X132281666Y-102307600D01*
X132281666Y-102307600D02*
X132186428Y-102355219D01*
X132186428Y-102355219D02*
X131995952Y-102355219D01*
X131995952Y-102355219D02*
X131900714Y-102307600D01*
X131900714Y-102307600D02*
X131853095Y-102259980D01*
X131853095Y-102259980D02*
X131805476Y-102164742D01*
X131805476Y-102164742D02*
X131805476Y-101355219D01*
X130900714Y-101688552D02*
X130900714Y-102355219D01*
X131138809Y-101307600D02*
X131376904Y-102021885D01*
X131376904Y-102021885D02*
X130757857Y-102021885D01*
D12*
X134146741Y-99827580D02*
X134146741Y-99589485D01*
X133908646Y-99684723D02*
X134146741Y-99589485D01*
X134146741Y-99589485D02*
X134384836Y-99684723D01*
X134003884Y-99399009D02*
X134146741Y-99589485D01*
X134146741Y-99589485D02*
X134289598Y-99399009D01*
D10*
X144559580Y-89033333D02*
X144607200Y-88985714D01*
X144607200Y-88985714D02*
X144654819Y-88842857D01*
X144654819Y-88842857D02*
X144654819Y-88747619D01*
X144654819Y-88747619D02*
X144607200Y-88604762D01*
X144607200Y-88604762D02*
X144511961Y-88509524D01*
X144511961Y-88509524D02*
X144416723Y-88461905D01*
X144416723Y-88461905D02*
X144226247Y-88414286D01*
X144226247Y-88414286D02*
X144083390Y-88414286D01*
X144083390Y-88414286D02*
X143892914Y-88461905D01*
X143892914Y-88461905D02*
X143797676Y-88509524D01*
X143797676Y-88509524D02*
X143702438Y-88604762D01*
X143702438Y-88604762D02*
X143654819Y-88747619D01*
X143654819Y-88747619D02*
X143654819Y-88842857D01*
X143654819Y-88842857D02*
X143702438Y-88985714D01*
X143702438Y-88985714D02*
X143750057Y-89033333D01*
X143654819Y-89890476D02*
X143654819Y-89700000D01*
X143654819Y-89700000D02*
X143702438Y-89604762D01*
X143702438Y-89604762D02*
X143750057Y-89557143D01*
X143750057Y-89557143D02*
X143892914Y-89461905D01*
X143892914Y-89461905D02*
X144083390Y-89414286D01*
X144083390Y-89414286D02*
X144464342Y-89414286D01*
X144464342Y-89414286D02*
X144559580Y-89461905D01*
X144559580Y-89461905D02*
X144607200Y-89509524D01*
X144607200Y-89509524D02*
X144654819Y-89604762D01*
X144654819Y-89604762D02*
X144654819Y-89795238D01*
X144654819Y-89795238D02*
X144607200Y-89890476D01*
X144607200Y-89890476D02*
X144559580Y-89938095D01*
X144559580Y-89938095D02*
X144464342Y-89985714D01*
X144464342Y-89985714D02*
X144226247Y-89985714D01*
X144226247Y-89985714D02*
X144131009Y-89938095D01*
X144131009Y-89938095D02*
X144083390Y-89890476D01*
X144083390Y-89890476D02*
X144035771Y-89795238D01*
X144035771Y-89795238D02*
X144035771Y-89604762D01*
X144035771Y-89604762D02*
X144083390Y-89509524D01*
X144083390Y-89509524D02*
X144131009Y-89461905D01*
X144131009Y-89461905D02*
X144226247Y-89414286D01*
X136259580Y-112833333D02*
X136307200Y-112785714D01*
X136307200Y-112785714D02*
X136354819Y-112642857D01*
X136354819Y-112642857D02*
X136354819Y-112547619D01*
X136354819Y-112547619D02*
X136307200Y-112404762D01*
X136307200Y-112404762D02*
X136211961Y-112309524D01*
X136211961Y-112309524D02*
X136116723Y-112261905D01*
X136116723Y-112261905D02*
X135926247Y-112214286D01*
X135926247Y-112214286D02*
X135783390Y-112214286D01*
X135783390Y-112214286D02*
X135592914Y-112261905D01*
X135592914Y-112261905D02*
X135497676Y-112309524D01*
X135497676Y-112309524D02*
X135402438Y-112404762D01*
X135402438Y-112404762D02*
X135354819Y-112547619D01*
X135354819Y-112547619D02*
X135354819Y-112642857D01*
X135354819Y-112642857D02*
X135402438Y-112785714D01*
X135402438Y-112785714D02*
X135450057Y-112833333D01*
X135688152Y-113690476D02*
X136354819Y-113690476D01*
X135307200Y-113452381D02*
X136021485Y-113214286D01*
X136021485Y-113214286D02*
X136021485Y-113833333D01*
%TO.C,R7*%
D13*
X143665000Y-98972936D02*
X143665000Y-99427064D01*
X145135000Y-98972936D02*
X145135000Y-99427064D01*
%TO.C,C3*%
X145890000Y-113111252D02*
X145890000Y-111688748D01*
X147710000Y-113111252D02*
X147710000Y-111688748D01*
%TO.C,C2*%
X149190000Y-113011252D02*
X149190000Y-111588748D01*
X151010000Y-113011252D02*
X151010000Y-111588748D01*
%TO.C,C5*%
X137790000Y-108788748D02*
X137790000Y-110211252D01*
X139610000Y-108788748D02*
X139610000Y-110211252D01*
%TO.C,D5*%
X140200000Y-93015000D02*
X144260000Y-93015000D01*
X144260000Y-93015000D02*
X144260000Y-96185000D01*
X144260000Y-96185000D02*
X140200000Y-96185000D01*
%TO.C,U4*%
X130245000Y-80313000D02*
X130245000Y-100887000D01*
X130245000Y-100887000D02*
X133015000Y-100887000D01*
X133015000Y-80313000D02*
X130245000Y-80313000D01*
X133015000Y-100883000D02*
X133015000Y-80333000D01*
%TO.C,C6*%
X141390000Y-89911252D02*
X141390000Y-88488748D01*
X143210000Y-89911252D02*
X143210000Y-88488748D01*
%TO.C,C4*%
X135290000Y-108788748D02*
X135290000Y-110211252D01*
X137110000Y-108788748D02*
X137110000Y-110211252D01*
%TD*%
M02*
