%TF.GenerationSoftware,KiCad,Pcbnew,10.0.1*%
%TF.CreationDate,2026-05-07T18:19:01+05:30*%
%TF.ProjectId,ember_flight_recorder,656d6265-725f-4666-9c69-6768745f7265,rev?*%
%TF.SameCoordinates,Original*%
%TF.FileFunction,Copper,L2,Bot*%
%TF.FilePolarity,Positive*%
%FSLAX46Y46*%
G04 Gerber Fmt 4.6, Leading zero omitted, Abs format (unit mm)*
G04 Created by KiCad (PCBNEW 10.0.1) date 2026-05-07 18:19:01*
%MOMM*%
%LPD*%
G01*
G04 APERTURE LIST*
G04 Aperture macros list*
%AMRoundRect*
0 Rectangle with rounded corners*
0 $1 Rounding radius*
0 $2 $3 $4 $5 $6 $7 $8 $9 X,Y pos of 4 corners*
0 Add a 4 corners polygon primitive as box body*
4,1,4,$2,$3,$4,$5,$6,$7,$8,$9,$2,$3,0*
0 Add four circle primitives for the rounded corners*
1,1,$1+$1,$2,$3*
1,1,$1+$1,$4,$5*
1,1,$1+$1,$6,$7*
1,1,$1+$1,$8,$9*
0 Add four rect primitives between the rounded corners*
20,1,$1+$1,$2,$3,$4,$5,0*
20,1,$1+$1,$4,$5,$6,$7,0*
20,1,$1+$1,$6,$7,$8,$9,0*
20,1,$1+$1,$8,$9,$2,$3,0*%
G04 Aperture macros list end*
%TA.AperFunction,ComponentPad*%
%ADD10RoundRect,0.250002X-1.499998X-1.499998X1.499998X-1.499998X1.499998X1.499998X-1.499998X1.499998X0*%
%TD*%
%TA.AperFunction,ComponentPad*%
%ADD11C,3.500000*%
%TD*%
%TA.AperFunction,ComponentPad*%
%ADD12R,1.500000X1.500000*%
%TD*%
%TA.AperFunction,ComponentPad*%
%ADD13C,1.600000*%
%TD*%
%TA.AperFunction,ComponentPad*%
%ADD14C,1.524000*%
%TD*%
%TA.AperFunction,SMDPad,CuDef*%
%ADD15RoundRect,0.250000X-0.450000X0.350000X-0.450000X-0.350000X0.450000X-0.350000X0.450000X0.350000X0*%
%TD*%
%TA.AperFunction,SMDPad,CuDef*%
%ADD16RoundRect,0.250000X0.650000X-0.412500X0.650000X0.412500X-0.650000X0.412500X-0.650000X-0.412500X0*%
%TD*%
%TA.AperFunction,SMDPad,CuDef*%
%ADD17RoundRect,0.250000X-0.650000X0.412500X-0.650000X-0.412500X0.650000X-0.412500X0.650000X0.412500X0*%
%TD*%
%TA.AperFunction,SMDPad,CuDef*%
%ADD18RoundRect,0.250001X0.462499X1.074999X-0.462499X1.074999X-0.462499X-1.074999X0.462499X-1.074999X0*%
%TD*%
%TA.AperFunction,ViaPad*%
%ADD19C,0.900000*%
%TD*%
%TA.AperFunction,Conductor*%
%ADD20C,0.200000*%
%TD*%
%TA.AperFunction,Conductor*%
%ADD21C,0.400000*%
%TD*%
%TA.AperFunction,Conductor*%
%ADD22C,1.000000*%
%TD*%
G04 APERTURE END LIST*
D10*
%TO.P,BT1,1,+_1*%
%TO.N,Net-(BT1-+)*%
X139250000Y-126500000D03*
D11*
%TO.P,BT1,2,-_2*%
%TO.N,GNDPWR*%
X146250000Y-126500000D03*
%TD*%
D12*
%TO.P,SW1,1,A_1*%
%TO.N,unconnected-(SW1-A-Pad1)*%
X145790000Y-120250000D03*
D13*
%TO.P,SW1,2,B_2*%
%TO.N,GNDPWR*%
X148330000Y-120250000D03*
%TO.P,SW1,3,C_3*%
%TO.N,Net-(SW1-C)*%
X143250000Y-120250000D03*
%TD*%
D14*
%TO.P,U5,1,VCC_1*%
%TO.N,VOUT_3V3*%
X153753000Y-97077000D03*
%TO.P,U5,2,GND_2*%
%TO.N,GND*%
X153753000Y-94537000D03*
%TO.P,U5,3,SCL_3*%
%TO.N,Net-(U4-SCL)*%
X153753000Y-91997000D03*
%TO.P,U5,4,SDA_4*%
%TO.N,Net-(U4-SDA)*%
X153753000Y-89457000D03*
%TO.P,U5,5,CSB_5*%
%TO.N,VOUT_3V3*%
X153753000Y-86917000D03*
%TO.P,U5,6,SDO_6*%
%TO.N,GND*%
X153753000Y-84377000D03*
%TD*%
D15*
%TO.P,R7,1*%
%TO.N,Net-(D5-K)*%
X144400000Y-98200000D03*
%TO.P,R7,2*%
%TO.N,GND*%
X144400000Y-100200000D03*
%TD*%
D16*
%TO.P,C3,1*%
%TO.N,Net-(Q4-S)*%
X146800000Y-113962500D03*
%TO.P,C3,2*%
%TO.N,GND*%
X146800000Y-110837500D03*
%TD*%
%TO.P,C2,1*%
%TO.N,Net-(Q4-S)*%
X150100000Y-113862500D03*
%TO.P,C2,2*%
%TO.N,GND*%
X150100000Y-110737500D03*
%TD*%
D17*
%TO.P,C5,1*%
%TO.N,VOUT_3V3*%
X138700000Y-107937500D03*
%TO.P,C5,2*%
%TO.N,GND*%
X138700000Y-111062500D03*
%TD*%
D18*
%TO.P,D5,1,K_1*%
%TO.N,Net-(D5-K)*%
X143287500Y-94600000D03*
%TO.P,D5,2,A_2*%
%TO.N,Net-(D5-A)*%
X140312500Y-94600000D03*
%TD*%
D14*
%TO.P,U4,1,VCC_1*%
%TO.N,VOUT_3V3*%
X131515000Y-99363000D03*
%TO.P,U4,2,GND_2*%
%TO.N,GND*%
X131515000Y-96823000D03*
%TO.P,U4,3,SCL_3*%
%TO.N,Net-(U4-SCL)*%
X131515000Y-94283000D03*
%TO.P,U4,4,SDA_4*%
%TO.N,Net-(U4-SDA)*%
X131515000Y-91743000D03*
%TO.P,U4,5,XDA_5*%
%TO.N,unconnected-(U4-XDA-Pad5)*%
X131515000Y-89203000D03*
%TO.P,U4,6,XCL_6*%
%TO.N,unconnected-(U4-XCL-Pad6)*%
X131515000Y-86663000D03*
%TO.P,U4,7,ADD_7*%
%TO.N,GND*%
X131515000Y-84123000D03*
%TO.P,U4,8,INT_8*%
%TO.N,unconnected-(U4-INT-Pad8)*%
X131515000Y-81583000D03*
%TD*%
D16*
%TO.P,C6,1*%
%TO.N,VOUT_3V3*%
X142300000Y-90762500D03*
%TO.P,C6,2*%
%TO.N,GND*%
X142300000Y-87637500D03*
%TD*%
D17*
%TO.P,C4,1*%
%TO.N,VOUT_3V3*%
X136200000Y-107937500D03*
%TO.P,C4,2*%
%TO.N,GND*%
X136200000Y-111062500D03*
%TD*%
D19*
%TO.N,GND*%
X147700000Y-105900000D03*
X143750000Y-84050000D03*
X151400000Y-105900000D03*
X144600000Y-85100000D03*
X143300000Y-105900000D03*
X147600000Y-84440000D03*
%TO.N,Net-(Q4-S)*%
X139200000Y-112400000D03*
X136000000Y-116200000D03*
%TO.N,VOUT_3V3*%
X134300000Y-106200000D03*
X142700000Y-92600000D03*
X139287501Y-106187501D03*
%TO.N,Net-(U4-SDA)*%
X138600000Y-82200000D03*
%TO.N,Net-(U4-SCL)*%
X139800000Y-82400000D03*
%TO.N,Net-(D5-A)*%
X138300000Y-94600000D03*
%TD*%
%TO.N,VOUT_3V3*%
D20*
X136200000Y-107937500D02*
X138700000Y-107937500D01*
%TO.N,GND*%
D21*
X150000000Y-107300000D02*
X151400000Y-105900000D01*
X134223000Y-96823000D02*
X143300000Y-105900000D01*
X150000000Y-110837500D02*
X150000000Y-107300000D01*
X143750000Y-84050000D02*
X143800000Y-84000000D01*
X146637000Y-94537000D02*
X146600000Y-94500000D01*
D22*
X146600000Y-104800000D02*
X147700000Y-105900000D01*
D21*
X131515000Y-96823000D02*
X134223000Y-96823000D01*
X142300000Y-87400000D02*
X144600000Y-85100000D01*
D22*
X147540000Y-84440000D02*
X146600000Y-85380000D01*
X146600000Y-85380000D02*
X146600000Y-94500000D01*
D21*
X138700000Y-111062500D02*
X138700000Y-110500000D01*
D22*
X146600000Y-94500000D02*
X146600000Y-104800000D01*
D21*
X146800000Y-106800000D02*
X147700000Y-105900000D01*
X131515000Y-84123000D02*
X143677000Y-84123000D01*
X143677000Y-84123000D02*
X143750000Y-84050000D01*
X142300000Y-87637500D02*
X142300000Y-87400000D01*
X144400000Y-104800000D02*
X143300000Y-105900000D01*
X138700000Y-111062500D02*
X136200000Y-111062500D01*
X153753000Y-94537000D02*
X146637000Y-94537000D01*
X138700000Y-110500000D02*
X143300000Y-105900000D01*
X144400000Y-100200000D02*
X144400000Y-104800000D01*
X146800000Y-110837500D02*
X146800000Y-106800000D01*
%TO.N,GNDPWR*%
D22*
X148330000Y-124420000D02*
X146250000Y-126500000D01*
X148330000Y-120250000D02*
X148330000Y-124420000D01*
%TO.N,Net-(Q4-S)*%
D21*
X139200000Y-113600000D02*
X136600000Y-116200000D01*
X139200000Y-113600000D02*
X139562500Y-113962500D01*
X150000000Y-113962500D02*
X146800000Y-113962500D01*
X139200000Y-112400000D02*
X139200000Y-113600000D01*
X139562500Y-113962500D02*
X146800000Y-113962500D01*
X136600000Y-116200000D02*
X136000000Y-116200000D01*
%TO.N,VOUT_3V3*%
X142300000Y-90762500D02*
X142300000Y-92200000D01*
D20*
X136200000Y-107937500D02*
X136037500Y-107937500D01*
D21*
X131515000Y-103415000D02*
X134300000Y-106200000D01*
X138700000Y-106775002D02*
X139287501Y-106187501D01*
X138700000Y-107937500D02*
X138700000Y-106775002D01*
X142300000Y-92200000D02*
X142700000Y-92600000D01*
D20*
X136037500Y-107937500D02*
X134300000Y-106200000D01*
D21*
X131515000Y-99363000D02*
X131515000Y-103415000D01*
%TO.N,Net-(U4-SDA)*%
D20*
X139150000Y-81650000D02*
X138600000Y-82200000D01*
X150500000Y-83734314D02*
X148415686Y-81650000D01*
X153753000Y-89457000D02*
X150500000Y-86204000D01*
X148415686Y-81650000D02*
X139150000Y-81650000D01*
X150500000Y-86204000D02*
X150500000Y-83734314D01*
%TO.N,Net-(U4-SCL)*%
X153753000Y-91997000D02*
X150100000Y-88344000D01*
X148600000Y-82400000D02*
X139800000Y-82400000D01*
X150100000Y-88344000D02*
X150100000Y-83900000D01*
X150100000Y-83900000D02*
X148600000Y-82400000D01*
%TO.N,Net-(D5-A)*%
D21*
X140312500Y-94600000D02*
X138300000Y-94600000D01*
%TO.N,Net-(D5-K)*%
X144400000Y-98200000D02*
X144400000Y-95712500D01*
X144400000Y-95712500D02*
X143287500Y-94600000D01*
%TD*%
%TA.AperFunction,Conductor*%
%TO.N,VOUT_3V3*%
G36*
X139395822Y-105766940D02*
G01*
X139508287Y-105813524D01*
X139548516Y-105840404D01*
X139634596Y-105926484D01*
X139661475Y-105966711D01*
X139661476Y-105966712D01*
X139708062Y-106079179D01*
X139717501Y-106126632D01*
X139717501Y-106248368D01*
X139708062Y-106295821D01*
X139661475Y-106408290D01*
X139634601Y-106448512D01*
X139630684Y-106452429D01*
X139522203Y-106598695D01*
X139488266Y-106662184D01*
X139447930Y-106755228D01*
X139447929Y-106755235D01*
X139446036Y-106784112D01*
X139404059Y-106869230D01*
X139322302Y-106900000D01*
X138638972Y-106900000D01*
X138616186Y-106890561D01*
X138591524Y-106890563D01*
X138574080Y-106873120D01*
X138551291Y-106863681D01*
X138541852Y-106840895D01*
X138524413Y-106823457D01*
X138524411Y-106798789D01*
X138514972Y-106776000D01*
X138524409Y-106728552D01*
X138537964Y-106695825D01*
X138564839Y-106655603D01*
X138639441Y-106581003D01*
X138773948Y-106379699D01*
X138810267Y-106292018D01*
X138836979Y-106157726D01*
X138844027Y-106134491D01*
X138913525Y-105966708D01*
X138940401Y-105926486D01*
X139026486Y-105840401D01*
X139066710Y-105813525D01*
X139179178Y-105766940D01*
X139226630Y-105757501D01*
X139348370Y-105757501D01*
X139395822Y-105766940D01*
G37*
%TD.AperFunction*%
%TA.AperFunction,Conductor*%
G36*
X133992891Y-105609666D02*
G01*
X134107795Y-105686443D01*
X134107801Y-105686446D01*
X134107802Y-105686447D01*
X134195483Y-105722766D01*
X134321739Y-105747880D01*
X134329755Y-105749475D01*
X134353016Y-105756531D01*
X134520786Y-105826023D01*
X134561015Y-105852903D01*
X134647095Y-105938983D01*
X134673975Y-105979211D01*
X134720561Y-106091678D01*
X134730000Y-106139131D01*
X134730000Y-106208481D01*
X134730000Y-106208483D01*
X134729999Y-106208483D01*
X134777232Y-106445932D01*
X134777234Y-106445938D01*
X134813551Y-106533616D01*
X134813558Y-106533628D01*
X134829541Y-106557549D01*
X134848055Y-106650631D01*
X134795327Y-106729541D01*
X134702245Y-106748055D01*
X134657547Y-106729540D01*
X134633626Y-106713556D01*
X134633617Y-106713551D01*
X134545939Y-106677234D01*
X134545933Y-106677232D01*
X134308484Y-106630000D01*
X134308482Y-106630000D01*
X134239131Y-106630000D01*
X134191678Y-106620561D01*
X134079211Y-106573975D01*
X134038983Y-106547095D01*
X133952904Y-106461016D01*
X133926024Y-106420788D01*
X133917714Y-106400725D01*
X133909003Y-106379696D01*
X133872686Y-106292018D01*
X133856530Y-106253015D01*
X133849475Y-106229755D01*
X133835151Y-106157744D01*
X133822766Y-106095483D01*
X133809438Y-106063306D01*
X133800000Y-106015855D01*
X133800000Y-105712768D01*
X133836319Y-105625087D01*
X133924000Y-105588768D01*
X133992891Y-105609666D01*
G37*
%TD.AperFunction*%
%TD*%
%TA.AperFunction,Conductor*%
%TO.N,GND*%
G36*
X154863181Y-80586819D02*
G01*
X154899500Y-80674500D01*
X154899500Y-83297978D01*
X154863181Y-83385659D01*
X154775500Y-83421978D01*
X154687819Y-83385659D01*
X154589289Y-83287129D01*
X154589284Y-83287125D01*
X154278715Y-83107819D01*
X154278712Y-83107818D01*
X153932310Y-83015000D01*
X153573689Y-83015000D01*
X153227287Y-83107818D01*
X153227284Y-83107819D01*
X152916715Y-83287125D01*
X152916710Y-83287129D01*
X152663129Y-83540710D01*
X152663125Y-83540715D01*
X152483819Y-83851284D01*
X152483818Y-83851287D01*
X152391000Y-84197689D01*
X152391000Y-84556310D01*
X152483818Y-84902712D01*
X152483819Y-84902715D01*
X152663125Y-85213284D01*
X152663129Y-85213289D01*
X152916710Y-85466870D01*
X152916715Y-85466874D01*
X153042203Y-85539324D01*
X153099978Y-85614617D01*
X153087590Y-85708711D01*
X153042204Y-85754098D01*
X152916405Y-85826729D01*
X152916402Y-85826731D01*
X152662731Y-86080402D01*
X152662727Y-86080408D01*
X152483353Y-86391092D01*
X152483353Y-86391093D01*
X152483352Y-86391095D01*
X152390500Y-86737623D01*
X152390500Y-86737625D01*
X152390500Y-86804482D01*
X152354181Y-86892163D01*
X152266500Y-86928482D01*
X152178819Y-86892163D01*
X151236819Y-85950163D01*
X151200500Y-85862482D01*
X151200500Y-83888094D01*
X151200501Y-83888085D01*
X151200501Y-83594977D01*
X151200500Y-83594973D01*
X151140657Y-83450500D01*
X151113799Y-83385659D01*
X151093856Y-83337512D01*
X150896802Y-83140458D01*
X150889737Y-83133393D01*
X150889730Y-83133387D01*
X149019754Y-81263412D01*
X149019746Y-81263402D01*
X148812485Y-81056141D01*
X148661668Y-80993673D01*
X148661667Y-80993672D01*
X148555024Y-80949499D01*
X148276348Y-80949499D01*
X148261914Y-80949499D01*
X148261906Y-80949500D01*
X139303780Y-80949500D01*
X139303772Y-80949499D01*
X139289338Y-80949499D01*
X139010661Y-80949499D01*
X139010659Y-80949499D01*
X138859842Y-81011969D01*
X138859842Y-81011970D01*
X138753198Y-81056144D01*
X138753196Y-81056145D01*
X138724679Y-81084663D01*
X138696160Y-81113181D01*
X138608481Y-81149500D01*
X138391040Y-81149500D01*
X138004938Y-81309429D01*
X137709429Y-81604938D01*
X137549500Y-81991040D01*
X137549500Y-82408959D01*
X137585291Y-82495366D01*
X137709429Y-82795061D01*
X138004939Y-83090571D01*
X138391042Y-83250500D01*
X138391044Y-83250500D01*
X138808957Y-83250500D01*
X138808958Y-83250500D01*
X138984077Y-83177963D01*
X139078982Y-83177963D01*
X139119211Y-83204843D01*
X139204939Y-83290571D01*
X139591042Y-83450500D01*
X139591044Y-83450500D01*
X140008956Y-83450500D01*
X140008958Y-83450500D01*
X140395061Y-83290571D01*
X140548813Y-83136819D01*
X140636494Y-83100500D01*
X148258482Y-83100500D01*
X148346163Y-83136819D01*
X149363181Y-84153837D01*
X149399500Y-84241518D01*
X149399500Y-88194659D01*
X149399499Y-88194673D01*
X149399499Y-88483338D01*
X149443673Y-88589981D01*
X149443673Y-88589983D01*
X149506141Y-88740799D01*
X149713402Y-88948060D01*
X149713412Y-88948068D01*
X152380549Y-91615206D01*
X152416868Y-91702887D01*
X152412643Y-91734978D01*
X152390500Y-91817619D01*
X152390500Y-91817623D01*
X152390500Y-92176377D01*
X152483352Y-92522905D01*
X152662729Y-92833595D01*
X152916405Y-93087271D01*
X152973764Y-93120387D01*
X153042204Y-93159901D01*
X153099979Y-93235194D01*
X153087591Y-93329288D01*
X153042204Y-93374675D01*
X152916715Y-93447125D01*
X152916710Y-93447129D01*
X152663129Y-93700710D01*
X152663125Y-93700715D01*
X152483819Y-94011284D01*
X152483818Y-94011287D01*
X152391000Y-94357689D01*
X152391000Y-94716310D01*
X152483818Y-95062712D01*
X152483819Y-95062715D01*
X152663125Y-95373284D01*
X152663129Y-95373289D01*
X152916710Y-95626870D01*
X152916715Y-95626874D01*
X153042203Y-95699324D01*
X153099978Y-95774617D01*
X153087590Y-95868711D01*
X153042204Y-95914098D01*
X152916405Y-95986729D01*
X152916402Y-95986731D01*
X152662731Y-96240402D01*
X152662727Y-96240408D01*
X152483353Y-96551092D01*
X152483353Y-96551093D01*
X152483352Y-96551095D01*
X152390500Y-96897623D01*
X152390500Y-97256377D01*
X152483352Y-97602905D01*
X152662729Y-97913595D01*
X152916405Y-98167271D01*
X153227095Y-98346648D01*
X153573623Y-98439500D01*
X153573625Y-98439500D01*
X153932374Y-98439500D01*
X153932377Y-98439500D01*
X154278905Y-98346648D01*
X154589595Y-98167271D01*
X154687819Y-98069047D01*
X154775500Y-98032728D01*
X154863181Y-98069047D01*
X154899500Y-98156728D01*
X154899500Y-129825500D01*
X154863181Y-129913181D01*
X154775500Y-129949500D01*
X130624500Y-129949500D01*
X130536819Y-129913181D01*
X130500500Y-129825500D01*
X130500500Y-124916232D01*
X136899500Y-124916232D01*
X136899500Y-128083762D01*
X136899501Y-128083766D01*
X136948846Y-128331847D01*
X137136824Y-128613176D01*
X137418151Y-128801152D01*
X137418155Y-128801154D01*
X137603377Y-128837996D01*
X137666237Y-128850500D01*
X140833762Y-128850499D01*
X141081847Y-128801153D01*
X141363176Y-128613176D01*
X141551153Y-128331847D01*
X141600500Y-128083763D01*
X141600499Y-124916238D01*
X141599179Y-124909602D01*
X141551153Y-124668152D01*
X141363175Y-124386823D01*
X141081848Y-124198847D01*
X141081844Y-124198845D01*
X140833766Y-124149500D01*
X137666237Y-124149500D01*
X137666233Y-124149501D01*
X137418152Y-124198846D01*
X137136823Y-124386824D01*
X136948847Y-124668151D01*
X136948845Y-124668155D01*
X136899500Y-124916232D01*
X130500500Y-124916232D01*
X130500500Y-120065621D01*
X141849500Y-120065621D01*
X141849500Y-120434379D01*
X141944942Y-120790573D01*
X142129321Y-121109927D01*
X142390073Y-121370679D01*
X142709427Y-121555058D01*
X143065621Y-121650500D01*
X143065623Y-121650500D01*
X143434376Y-121650500D01*
X143434379Y-121650500D01*
X143790573Y-121555058D01*
X144109927Y-121370679D01*
X144276327Y-121204278D01*
X144364007Y-121167960D01*
X144451688Y-121204279D01*
X144465764Y-121225344D01*
X144467556Y-121224148D01*
X144537021Y-121328109D01*
X144607064Y-121432936D01*
X144805697Y-121565658D01*
X144805698Y-121565658D01*
X144805699Y-121565659D01*
X144936475Y-121591671D01*
X144980859Y-121600500D01*
X146599140Y-121600499D01*
X146774303Y-121565658D01*
X146972936Y-121432936D01*
X147002398Y-121388841D01*
X147081308Y-121336116D01*
X147174390Y-121354630D01*
X147227117Y-121433541D01*
X147229500Y-121457733D01*
X147229500Y-123912795D01*
X147193181Y-124000476D01*
X146992349Y-124201307D01*
X146904668Y-124237626D01*
X146872575Y-124233401D01*
X146625017Y-124167069D01*
X146559449Y-124149500D01*
X145940551Y-124149500D01*
X145627429Y-124233401D01*
X145342739Y-124309683D01*
X145342738Y-124309684D01*
X144806757Y-124619133D01*
X144369133Y-125056757D01*
X144059684Y-125592738D01*
X144059683Y-125592739D01*
X144015496Y-125757649D01*
X143899500Y-126190551D01*
X143899500Y-126809449D01*
X144019637Y-127257806D01*
X144059683Y-127407260D01*
X144059684Y-127407261D01*
X144369132Y-127943241D01*
X144806759Y-128380868D01*
X145342741Y-128690317D01*
X145940551Y-128850500D01*
X145940554Y-128850500D01*
X146559446Y-128850500D01*
X146559449Y-128850500D01*
X147157259Y-128690317D01*
X147693241Y-128380868D01*
X148130868Y-127943241D01*
X148440317Y-127407259D01*
X148600500Y-126809449D01*
X148600500Y-126190551D01*
X148516597Y-125877423D01*
X148528985Y-125783330D01*
X148548687Y-125757653D01*
X149262959Y-125043383D01*
X149430500Y-124638903D01*
X149430500Y-124201097D01*
X149430500Y-121178103D01*
X149447113Y-121116103D01*
X149480000Y-121059141D01*
X149635058Y-120790573D01*
X149730500Y-120434379D01*
X149730500Y-120065621D01*
X149635058Y-119709427D01*
X149450679Y-119390073D01*
X149189927Y-119129321D01*
X148870573Y-118944942D01*
X148514379Y-118849500D01*
X148145621Y-118849500D01*
X147789427Y-118944942D01*
X147789425Y-118944943D01*
X147789424Y-118944943D01*
X147470076Y-119129319D01*
X147470070Y-119129323D01*
X147303673Y-119295720D01*
X147215992Y-119332039D01*
X147128311Y-119295720D01*
X147114239Y-119274652D01*
X147112444Y-119275852D01*
X147014536Y-119129323D01*
X146972936Y-119067064D01*
X146774303Y-118934342D01*
X146774302Y-118934341D01*
X146774301Y-118934341D01*
X146774300Y-118934340D01*
X146599144Y-118899500D01*
X144980861Y-118899500D01*
X144805695Y-118934342D01*
X144607064Y-119067064D01*
X144467557Y-119275852D01*
X144461955Y-119272108D01*
X144411455Y-119322603D01*
X144316549Y-119322599D01*
X144276327Y-119295721D01*
X144109929Y-119129323D01*
X144109927Y-119129321D01*
X143790573Y-118944942D01*
X143434379Y-118849500D01*
X143065621Y-118849500D01*
X142709427Y-118944942D01*
X142709425Y-118944943D01*
X142709424Y-118944943D01*
X142390076Y-119129319D01*
X142390070Y-119129323D01*
X142129323Y-119390070D01*
X142129319Y-119390076D01*
X141944943Y-119709424D01*
X141944943Y-119709425D01*
X141944942Y-119709427D01*
X141849500Y-120065621D01*
X130500500Y-120065621D01*
X130500500Y-110566280D01*
X134700000Y-110566280D01*
X134700000Y-111558714D01*
X134700001Y-111558718D01*
X134749317Y-111806653D01*
X134937184Y-112087816D01*
X135218345Y-112275681D01*
X135218349Y-112275683D01*
X135466281Y-112324999D01*
X136933714Y-112324999D01*
X136933718Y-112324998D01*
X137181653Y-112275682D01*
X137381109Y-112142410D01*
X137474191Y-112123895D01*
X137518891Y-112142410D01*
X137718348Y-112275682D01*
X137718349Y-112275683D01*
X137966282Y-112324999D01*
X138025498Y-112324999D01*
X138113180Y-112361316D01*
X138149500Y-112448997D01*
X138149500Y-112608959D01*
X138309429Y-112995061D01*
X138363181Y-113048813D01*
X138399500Y-113136494D01*
X138399500Y-113217059D01*
X138363181Y-113304740D01*
X136486368Y-115181552D01*
X136398687Y-115217871D01*
X136351235Y-115208432D01*
X136208961Y-115149501D01*
X136208959Y-115149500D01*
X136208958Y-115149500D01*
X135791042Y-115149500D01*
X135791040Y-115149500D01*
X135404938Y-115309429D01*
X135109429Y-115604938D01*
X134949500Y-115991040D01*
X134949500Y-115991042D01*
X134949500Y-116408958D01*
X135109429Y-116795061D01*
X135404939Y-117090571D01*
X135791042Y-117250500D01*
X135791044Y-117250500D01*
X136208956Y-117250500D01*
X136208958Y-117250500D01*
X136595061Y-117090571D01*
X136648813Y-117036819D01*
X136736494Y-117000500D01*
X136759227Y-117000500D01*
X136759229Y-117000500D01*
X137053447Y-116878631D01*
X139179084Y-114752992D01*
X139266764Y-114716674D01*
X139314217Y-114726113D01*
X139403268Y-114762999D01*
X139403269Y-114762999D01*
X139403271Y-114763000D01*
X145320087Y-114763000D01*
X145407768Y-114799319D01*
X145423187Y-114818107D01*
X145536824Y-114988176D01*
X145818151Y-115176153D01*
X145818152Y-115176153D01*
X145818153Y-115176154D01*
X145980428Y-115208432D01*
X146066235Y-115225500D01*
X147533764Y-115225499D01*
X147619568Y-115208432D01*
X147781846Y-115176154D01*
X147781846Y-115176153D01*
X147781849Y-115176153D01*
X148063176Y-114988176D01*
X148176811Y-114818108D01*
X148255722Y-114765383D01*
X148279913Y-114763000D01*
X148686905Y-114763000D01*
X148774586Y-114799319D01*
X148790005Y-114818106D01*
X148836824Y-114888176D01*
X149118151Y-115076153D01*
X149118152Y-115076153D01*
X149118153Y-115076154D01*
X149303375Y-115112996D01*
X149366235Y-115125500D01*
X150833764Y-115125499D01*
X150917203Y-115108902D01*
X151081846Y-115076154D01*
X151081846Y-115076153D01*
X151081849Y-115076153D01*
X151363176Y-114888176D01*
X151551153Y-114606849D01*
X151600500Y-114358765D01*
X151600499Y-113366236D01*
X151552651Y-113125681D01*
X151551154Y-113118153D01*
X151551153Y-113118152D01*
X151551153Y-113118151D01*
X151363176Y-112836824D01*
X151081849Y-112648847D01*
X151081848Y-112648846D01*
X151081847Y-112648846D01*
X151081846Y-112648845D01*
X150833768Y-112599500D01*
X149366235Y-112599500D01*
X149366231Y-112599501D01*
X149118153Y-112648845D01*
X149118152Y-112648846D01*
X148836824Y-112836824D01*
X148734110Y-112990547D01*
X148656371Y-113106891D01*
X148577460Y-113159617D01*
X148553269Y-113162000D01*
X148279913Y-113162000D01*
X148192232Y-113125681D01*
X148176811Y-113106891D01*
X148162272Y-113085132D01*
X148063176Y-112936824D01*
X147781849Y-112748847D01*
X147781848Y-112748846D01*
X147781847Y-112748846D01*
X147781846Y-112748845D01*
X147533768Y-112699500D01*
X146066235Y-112699500D01*
X146066231Y-112699501D01*
X145818153Y-112748845D01*
X145818152Y-112748846D01*
X145536824Y-112936824D01*
X145423189Y-113106891D01*
X145344278Y-113159617D01*
X145320087Y-113162000D01*
X140207001Y-113162000D01*
X140119320Y-113125681D01*
X140083001Y-113038000D01*
X140092439Y-112990550D01*
X140250500Y-112608958D01*
X140250500Y-112191042D01*
X140139376Y-111922764D01*
X140139376Y-111827862D01*
X140150575Y-111806910D01*
X140150683Y-111806651D01*
X140199999Y-111558719D01*
X140199999Y-110566285D01*
X140199998Y-110566281D01*
X140158845Y-110359384D01*
X140158844Y-110359383D01*
X140155243Y-110341280D01*
X145300000Y-110341280D01*
X145300000Y-111333714D01*
X145300001Y-111333718D01*
X145349317Y-111581653D01*
X145537184Y-111862816D01*
X145818345Y-112050681D01*
X145818349Y-112050683D01*
X146066281Y-112099999D01*
X147533714Y-112099999D01*
X147533718Y-112099998D01*
X147781653Y-112050682D01*
X148062816Y-111862815D01*
X148250681Y-111581654D01*
X148250683Y-111581650D01*
X148299999Y-111333719D01*
X148299999Y-110341287D01*
X148283708Y-110259383D01*
X148283708Y-110259380D01*
X148280108Y-110241280D01*
X148600000Y-110241280D01*
X148600000Y-111233714D01*
X148600001Y-111233718D01*
X148649317Y-111481653D01*
X148837184Y-111762816D01*
X149118345Y-111950681D01*
X149118349Y-111950683D01*
X149366281Y-111999999D01*
X150833714Y-111999999D01*
X150833718Y-111999998D01*
X151081653Y-111950682D01*
X151362816Y-111762815D01*
X151550681Y-111481654D01*
X151550683Y-111481650D01*
X151599999Y-111233719D01*
X151599999Y-110241285D01*
X151599998Y-110241281D01*
X151550682Y-109993346D01*
X151362815Y-109712183D01*
X151081654Y-109524318D01*
X151081650Y-109524316D01*
X150833718Y-109475000D01*
X149366285Y-109475000D01*
X149366281Y-109475001D01*
X149118346Y-109524317D01*
X148837183Y-109712184D01*
X148649318Y-109993345D01*
X148649316Y-109993349D01*
X148600000Y-110241280D01*
X148280108Y-110241280D01*
X148250682Y-110093347D01*
X148250682Y-110093346D01*
X148062815Y-109812183D01*
X147781654Y-109624318D01*
X147781650Y-109624316D01*
X147533718Y-109575000D01*
X146066285Y-109575000D01*
X146066281Y-109575001D01*
X145818346Y-109624317D01*
X145537183Y-109812184D01*
X145349318Y-110093345D01*
X145349316Y-110093349D01*
X145300000Y-110341280D01*
X140155243Y-110341280D01*
X140150681Y-110318344D01*
X139962815Y-110037183D01*
X139681654Y-109849318D01*
X139681650Y-109849316D01*
X139433718Y-109800000D01*
X137966285Y-109800000D01*
X137966281Y-109800001D01*
X137718347Y-109849317D01*
X137518890Y-109982589D01*
X137425808Y-110001103D01*
X137381110Y-109982589D01*
X137181652Y-109849317D01*
X136933718Y-109800000D01*
X135466285Y-109800000D01*
X135466281Y-109800001D01*
X135218346Y-109849317D01*
X134937183Y-110037184D01*
X134749318Y-110318345D01*
X134749316Y-110318349D01*
X134700000Y-110566280D01*
X130500500Y-110566280D01*
X130500500Y-103680977D01*
X130536819Y-103593296D01*
X130624500Y-103556977D01*
X130712181Y-103593296D01*
X130739060Y-103633523D01*
X130836369Y-103868447D01*
X133213181Y-106245259D01*
X133249500Y-106332940D01*
X133249500Y-106408959D01*
X133344447Y-106638181D01*
X133409429Y-106795061D01*
X133704939Y-107090571D01*
X134091042Y-107250500D01*
X134308482Y-107250500D01*
X134396163Y-107286819D01*
X134663181Y-107553837D01*
X134699500Y-107641518D01*
X134699500Y-108433764D01*
X134699501Y-108433768D01*
X134748845Y-108681846D01*
X134748846Y-108681847D01*
X134748846Y-108681848D01*
X134748847Y-108681849D01*
X134936824Y-108963176D01*
X135218151Y-109151153D01*
X135218152Y-109151153D01*
X135218153Y-109151154D01*
X135403375Y-109187996D01*
X135466235Y-109200500D01*
X136933764Y-109200499D01*
X137017203Y-109183902D01*
X137181846Y-109151154D01*
X137181846Y-109151153D01*
X137181849Y-109151153D01*
X137381110Y-109018009D01*
X137474191Y-108999495D01*
X137518887Y-109018008D01*
X137718151Y-109151153D01*
X137718155Y-109151154D01*
X137842193Y-109175826D01*
X137966235Y-109200500D01*
X139433764Y-109200499D01*
X139517203Y-109183902D01*
X139681846Y-109151154D01*
X139681846Y-109151153D01*
X139681849Y-109151153D01*
X139963176Y-108963176D01*
X140151153Y-108681849D01*
X140200500Y-108433765D01*
X140200499Y-107441236D01*
X140200054Y-107439001D01*
X140151154Y-107193153D01*
X140151153Y-107193152D01*
X140151153Y-107193151D01*
X140054012Y-107047770D01*
X140035498Y-106954689D01*
X140069435Y-106891198D01*
X140103646Y-106856988D01*
X140178072Y-106782562D01*
X140338001Y-106396459D01*
X140338001Y-105978543D01*
X140178072Y-105592440D01*
X139882562Y-105296930D01*
X139496460Y-105137001D01*
X139496459Y-105137001D01*
X139078543Y-105137001D01*
X139078541Y-105137001D01*
X138692439Y-105296930D01*
X138396930Y-105592439D01*
X138237001Y-105978541D01*
X138237001Y-106054561D01*
X138200682Y-106142242D01*
X138021370Y-106321553D01*
X138021369Y-106321554D01*
X137894826Y-106627057D01*
X137890269Y-106625169D01*
X137848015Y-106688396D01*
X137803326Y-106706904D01*
X137718153Y-106723846D01*
X137718149Y-106723847D01*
X137518890Y-106856988D01*
X137425809Y-106875503D01*
X137381110Y-106856988D01*
X137181850Y-106723847D01*
X137181846Y-106723845D01*
X136933768Y-106674500D01*
X136933765Y-106674500D01*
X135816519Y-106674500D01*
X135728838Y-106638181D01*
X135386819Y-106296162D01*
X135350500Y-106208481D01*
X135350500Y-105991043D01*
X135350499Y-105991040D01*
X135345322Y-105978541D01*
X135190571Y-105604939D01*
X134895061Y-105309429D01*
X134864886Y-105296930D01*
X134508959Y-105149500D01*
X134508958Y-105149500D01*
X134432940Y-105149500D01*
X134345259Y-105113181D01*
X132351819Y-103119741D01*
X132315500Y-103032060D01*
X132315500Y-100540728D01*
X132351819Y-100453047D01*
X132605271Y-100199595D01*
X132784648Y-99888905D01*
X132877500Y-99542377D01*
X132877500Y-99183623D01*
X132784648Y-98837095D01*
X132605271Y-98526405D01*
X132351595Y-98272729D01*
X132289551Y-98236908D01*
X132225795Y-98200098D01*
X132168020Y-98124804D01*
X132180408Y-98030711D01*
X132225796Y-97985323D01*
X132351287Y-97912872D01*
X132604870Y-97659289D01*
X132604874Y-97659284D01*
X132784180Y-97348715D01*
X132784181Y-97348712D01*
X132876999Y-97002310D01*
X132877000Y-97002309D01*
X132877000Y-96643691D01*
X132876999Y-96643689D01*
X132784181Y-96297287D01*
X132784180Y-96297284D01*
X132604874Y-95986715D01*
X132604870Y-95986710D01*
X132351289Y-95733129D01*
X132351284Y-95733125D01*
X132225796Y-95660675D01*
X132168021Y-95585382D01*
X132180409Y-95491288D01*
X132225796Y-95445901D01*
X132351595Y-95373271D01*
X132605271Y-95119595D01*
X132784648Y-94808905D01*
X132877500Y-94462377D01*
X132877500Y-94391040D01*
X137249500Y-94391040D01*
X137249500Y-94808959D01*
X137378168Y-95119591D01*
X137409429Y-95195061D01*
X137704939Y-95490571D01*
X138091042Y-95650500D01*
X138091044Y-95650500D01*
X138508956Y-95650500D01*
X138508958Y-95650500D01*
X138828050Y-95518328D01*
X138922952Y-95518328D01*
X138990061Y-95585436D01*
X138999500Y-95632889D01*
X138999500Y-95758768D01*
X139048845Y-96006845D01*
X139048846Y-96006846D01*
X139048846Y-96006847D01*
X139048847Y-96006848D01*
X139236824Y-96288176D01*
X139518152Y-96476153D01*
X139518153Y-96476153D01*
X139518154Y-96476154D01*
X139766231Y-96525499D01*
X139766234Y-96525500D01*
X139766236Y-96525500D01*
X140858766Y-96525500D01*
X140858767Y-96525499D01*
X140942200Y-96508903D01*
X141106845Y-96476154D01*
X141106845Y-96476153D01*
X141106848Y-96476153D01*
X141388176Y-96288176D01*
X141576153Y-96006848D01*
X141580156Y-95986727D01*
X141615835Y-95807352D01*
X141625500Y-95758764D01*
X141625500Y-93441236D01*
X141625500Y-93441234D01*
X141625500Y-93441233D01*
X141625499Y-93441231D01*
X141598452Y-93305254D01*
X141600929Y-93292797D01*
X141596069Y-93281063D01*
X141609910Y-93247646D01*
X141616967Y-93212172D01*
X141627527Y-93205115D01*
X141632388Y-93193382D01*
X141665804Y-93179540D01*
X141695878Y-93159446D01*
X141708334Y-93161923D01*
X141720069Y-93157063D01*
X141753485Y-93170904D01*
X141788960Y-93177961D01*
X141807750Y-93193382D01*
X141941089Y-93326721D01*
X141977408Y-93414402D01*
X141975026Y-93438590D01*
X141974500Y-93441234D01*
X141974500Y-95758768D01*
X142023845Y-96006845D01*
X142023846Y-96006846D01*
X142023846Y-96006847D01*
X142023847Y-96006848D01*
X142211824Y-96288176D01*
X142493152Y-96476153D01*
X142493153Y-96476153D01*
X142493154Y-96476154D01*
X142741231Y-96525499D01*
X142741234Y-96525500D01*
X142741236Y-96525500D01*
X143475500Y-96525500D01*
X143563181Y-96561819D01*
X143599500Y-96649500D01*
X143599500Y-96995029D01*
X143563181Y-97082710D01*
X143544391Y-97098131D01*
X143336824Y-97236824D01*
X143148846Y-97518152D01*
X143148845Y-97518153D01*
X143099500Y-97766231D01*
X143099500Y-98633764D01*
X143099501Y-98633768D01*
X143148845Y-98881846D01*
X143148846Y-98881847D01*
X143148846Y-98881848D01*
X143148847Y-98881849D01*
X143315698Y-99131559D01*
X143334213Y-99224640D01*
X143315699Y-99269339D01*
X143149317Y-99518349D01*
X143149316Y-99518349D01*
X143100000Y-99766280D01*
X143100000Y-100633714D01*
X143100001Y-100633718D01*
X143149317Y-100881653D01*
X143337184Y-101162816D01*
X143618345Y-101350681D01*
X143618349Y-101350683D01*
X143866281Y-101399999D01*
X144933714Y-101399999D01*
X144933718Y-101399998D01*
X145181653Y-101350682D01*
X145462816Y-101162815D01*
X145650681Y-100881654D01*
X145650683Y-100881650D01*
X145699999Y-100633719D01*
X145699999Y-99766285D01*
X145699998Y-99766281D01*
X145650682Y-99518346D01*
X145484302Y-99269340D01*
X145465787Y-99176258D01*
X145484301Y-99131559D01*
X145651153Y-98881849D01*
X145700500Y-98633765D01*
X145700499Y-97766236D01*
X145700054Y-97764001D01*
X145651154Y-97518153D01*
X145651153Y-97518152D01*
X145651153Y-97518151D01*
X145463176Y-97236824D01*
X145366278Y-97172078D01*
X145255609Y-97098131D01*
X145202883Y-97019220D01*
X145200500Y-96995029D01*
X145200500Y-95553272D01*
X145200499Y-95553269D01*
X145200242Y-95552648D01*
X145078631Y-95259053D01*
X144853447Y-95033869D01*
X144636819Y-94817241D01*
X144600500Y-94729560D01*
X144600500Y-93441233D01*
X144600499Y-93441231D01*
X144551154Y-93193154D01*
X144551153Y-93193153D01*
X144551153Y-93193152D01*
X144363176Y-92911824D01*
X144081848Y-92723847D01*
X144081847Y-92723846D01*
X144081846Y-92723846D01*
X144081845Y-92723845D01*
X143850309Y-92677790D01*
X143771398Y-92625064D01*
X143750500Y-92556173D01*
X143750500Y-92391043D01*
X143750499Y-92391040D01*
X143737323Y-92359230D01*
X143590571Y-92004939D01*
X143556173Y-91970541D01*
X143519854Y-91882860D01*
X143556173Y-91795179D01*
X143563172Y-91788178D01*
X143563176Y-91788176D01*
X143751153Y-91506849D01*
X143800500Y-91258765D01*
X143800499Y-90266236D01*
X143755419Y-90039597D01*
X143751154Y-90018153D01*
X143751153Y-90018152D01*
X143751153Y-90018151D01*
X143563176Y-89736824D01*
X143281849Y-89548847D01*
X143281848Y-89548846D01*
X143281847Y-89548846D01*
X143281846Y-89548845D01*
X143033768Y-89499500D01*
X141566235Y-89499500D01*
X141566231Y-89499501D01*
X141318153Y-89548845D01*
X141318152Y-89548846D01*
X141036824Y-89736824D01*
X140848846Y-90018152D01*
X140848845Y-90018153D01*
X140799500Y-90266231D01*
X140799500Y-91258764D01*
X140799501Y-91258768D01*
X140848845Y-91506846D01*
X140848846Y-91506847D01*
X140848846Y-91506848D01*
X140848847Y-91506849D01*
X141036824Y-91788176D01*
X141318151Y-91976153D01*
X141399691Y-91992372D01*
X141478602Y-92045097D01*
X141499500Y-92113989D01*
X141499500Y-92359230D01*
X141621369Y-92653447D01*
X141628154Y-92663601D01*
X141622377Y-92667460D01*
X141649500Y-92732940D01*
X141649500Y-92808959D01*
X141706023Y-92945417D01*
X141706023Y-93040323D01*
X141638915Y-93107431D01*
X141544009Y-93107431D01*
X141488361Y-93061761D01*
X141388176Y-92911824D01*
X141106848Y-92723847D01*
X141106847Y-92723846D01*
X141106846Y-92723846D01*
X141106845Y-92723845D01*
X140858767Y-92674500D01*
X140858764Y-92674500D01*
X139766236Y-92674500D01*
X139766233Y-92674500D01*
X139518154Y-92723845D01*
X139518153Y-92723846D01*
X139236824Y-92911824D01*
X139048846Y-93193153D01*
X139048845Y-93193154D01*
X138999500Y-93441231D01*
X138999500Y-93567110D01*
X138963181Y-93654791D01*
X138875500Y-93691110D01*
X138828047Y-93681671D01*
X138508959Y-93549500D01*
X138508958Y-93549500D01*
X138091042Y-93549500D01*
X138091040Y-93549500D01*
X137704938Y-93709429D01*
X137409429Y-94004938D01*
X137249500Y-94391040D01*
X132877500Y-94391040D01*
X132877500Y-94103623D01*
X132784648Y-93757095D01*
X132605271Y-93446405D01*
X132351595Y-93192729D01*
X132226294Y-93120386D01*
X132168520Y-93045094D01*
X132180908Y-92951000D01*
X132226295Y-92905613D01*
X132351595Y-92833271D01*
X132605271Y-92579595D01*
X132784648Y-92268905D01*
X132877500Y-91922377D01*
X132877500Y-91563623D01*
X132784648Y-91217095D01*
X132605271Y-90906405D01*
X132351595Y-90652729D01*
X132226294Y-90580386D01*
X132168520Y-90505094D01*
X132180908Y-90411000D01*
X132226295Y-90365613D01*
X132351595Y-90293271D01*
X132605271Y-90039595D01*
X132784648Y-89728905D01*
X132877500Y-89382377D01*
X132877500Y-89023623D01*
X132784648Y-88677095D01*
X132605271Y-88366405D01*
X132351595Y-88112729D01*
X132226294Y-88040386D01*
X132168520Y-87965094D01*
X132180908Y-87871000D01*
X132226295Y-87825613D01*
X132351595Y-87753271D01*
X132605271Y-87499595D01*
X132784648Y-87188905D01*
X132797409Y-87141280D01*
X140800000Y-87141280D01*
X140800000Y-88133714D01*
X140800001Y-88133718D01*
X140849317Y-88381653D01*
X141037184Y-88662816D01*
X141318345Y-88850681D01*
X141318349Y-88850683D01*
X141566281Y-88899999D01*
X143033714Y-88899999D01*
X143033718Y-88899998D01*
X143281653Y-88850682D01*
X143562816Y-88662815D01*
X143750681Y-88381654D01*
X143750683Y-88381650D01*
X143799999Y-88133719D01*
X143799999Y-87141285D01*
X143799998Y-87141281D01*
X143750682Y-86893346D01*
X143562815Y-86612183D01*
X143281654Y-86424318D01*
X143281650Y-86424316D01*
X143033718Y-86375000D01*
X141566285Y-86375000D01*
X141566281Y-86375001D01*
X141318346Y-86424317D01*
X141037183Y-86612184D01*
X140849318Y-86893345D01*
X140849316Y-86893349D01*
X140800000Y-87141280D01*
X132797409Y-87141280D01*
X132877500Y-86842377D01*
X132877500Y-86483623D01*
X132784648Y-86137095D01*
X132605271Y-85826405D01*
X132351595Y-85572729D01*
X132289551Y-85536908D01*
X132225795Y-85500098D01*
X132168020Y-85424804D01*
X132180408Y-85330711D01*
X132225796Y-85285323D01*
X132351287Y-85212872D01*
X132604870Y-84959289D01*
X132604874Y-84959284D01*
X132784180Y-84648715D01*
X132784181Y-84648712D01*
X132876999Y-84302310D01*
X132877000Y-84302309D01*
X132877000Y-83943691D01*
X132876999Y-83943689D01*
X132784181Y-83597287D01*
X132784180Y-83597284D01*
X132604874Y-83286715D01*
X132604870Y-83286710D01*
X132351289Y-83033129D01*
X132351284Y-83033125D01*
X132225796Y-82960675D01*
X132168021Y-82885382D01*
X132180409Y-82791288D01*
X132225796Y-82745901D01*
X132351595Y-82673271D01*
X132605271Y-82419595D01*
X132784648Y-82108905D01*
X132877500Y-81762377D01*
X132877500Y-81403623D01*
X132784648Y-81057095D01*
X132605271Y-80746405D01*
X132605270Y-80746404D01*
X132601207Y-80739366D01*
X132604641Y-80737383D01*
X132583456Y-80658310D01*
X132630912Y-80576122D01*
X132706395Y-80550500D01*
X154775500Y-80550500D01*
X154863181Y-80586819D01*
G37*
%TD.AperFunction*%
%TD*%
M02*
