%TF.GenerationSoftware,KiCad,Pcbnew,10.0.1*%
%TF.CreationDate,2026-05-06T09:57:29+05:30*%
%TF.ProjectId,ember_flight_recorder,656d6265-725f-4666-9c69-6768745f7265,rev?*%
%TF.SameCoordinates,Original*%
%TF.FileFunction,Copper,L1,Top*%
%TF.FilePolarity,Positive*%
%FSLAX46Y46*%
G04 Gerber Fmt 4.6, Leading zero omitted, Abs format (unit mm)*
G04 Created by KiCad (PCBNEW 10.0.1) date 2026-05-06 09:57:29*
%MOMM*%
%LPD*%
G01*
G04 APERTURE LIST*
G04 Aperture macros list*
%AMRoundRect*
0 Rectangle with rounded corners*
0 $1 Rounding radius*
0 $2 $3 $4 $5 $6 $7 $8 $9 X,Y pos of 4 corners*
0 Add a 4 corners polygon primitive as box body*
4,1,4,$2,$3,$4,$5,$6,$7,$8,$9,$2,$3,0*
0 Add four circle primitives for the rounded corners*
1,1,$1+$1,$2,$3*
1,1,$1+$1,$4,$5*
1,1,$1+$1,$6,$7*
1,1,$1+$1,$8,$9*
0 Add four rect primitives between the rounded corners*
20,1,$1+$1,$2,$3,$4,$5,0*
20,1,$1+$1,$4,$5,$6,$7,0*
20,1,$1+$1,$6,$7,$8,$9,0*
20,1,$1+$1,$8,$9,$2,$3,0*%
G04 Aperture macros list end*
%TA.AperFunction,ComponentPad*%
%ADD10C,1.524000*%
%TD*%
%TA.AperFunction,SMDPad,CuDef*%
%ADD11R,3.025000X1.524000*%
%TD*%
%TA.AperFunction,SMDPad,CuDef*%
%ADD12R,1.181100X0.558800*%
%TD*%
%TA.AperFunction,ComponentPad*%
%ADD13RoundRect,0.250002X-1.499998X-1.499998X1.499998X-1.499998X1.499998X1.499998X-1.499998X1.499998X0*%
%TD*%
%TA.AperFunction,ComponentPad*%
%ADD14C,3.500000*%
%TD*%
%TA.AperFunction,SMDPad,CuDef*%
%ADD15RoundRect,0.250000X-0.350000X-0.450000X0.350000X-0.450000X0.350000X0.450000X-0.350000X0.450000X0*%
%TD*%
%TA.AperFunction,SMDPad,CuDef*%
%ADD16RoundRect,0.150000X-0.150000X0.587500X-0.150000X-0.587500X0.150000X-0.587500X0.150000X0.587500X0*%
%TD*%
%TA.AperFunction,SMDPad,CuDef*%
%ADD17RoundRect,0.250000X0.450000X-0.350000X0.450000X0.350000X-0.450000X0.350000X-0.450000X-0.350000X0*%
%TD*%
%TA.AperFunction,SMDPad,CuDef*%
%ADD18RoundRect,0.250000X-0.650000X0.412500X-0.650000X-0.412500X0.650000X-0.412500X0.650000X0.412500X0*%
%TD*%
%TA.AperFunction,ComponentPad*%
%ADD19R,1.500000X1.500000*%
%TD*%
%TA.AperFunction,ComponentPad*%
%ADD20C,1.600000*%
%TD*%
%TA.AperFunction,SMDPad,CuDef*%
%ADD21RoundRect,0.150000X-0.512500X-0.150000X0.512500X-0.150000X0.512500X0.150000X-0.512500X0.150000X0*%
%TD*%
%TA.AperFunction,ViaPad*%
%ADD22C,0.900000*%
%TD*%
%TA.AperFunction,Conductor*%
%ADD23C,0.400000*%
%TD*%
%TA.AperFunction,Conductor*%
%ADD24C,1.000000*%
%TD*%
%TA.AperFunction,Conductor*%
%ADD25C,0.200000*%
%TD*%
G04 APERTURE END LIST*
D10*
%TO.P,U5,6,SDO_6*%
%TO.N,GND*%
X153753000Y-84377000D03*
%TO.P,U5,5,CSB_5*%
%TO.N,VOUT_3V3*%
X153753000Y-86917000D03*
%TO.P,U5,4,SDA_4*%
%TO.N,Net-(U4-SDA)*%
X153753000Y-89457000D03*
%TO.P,U5,3,SCL_3*%
%TO.N,Net-(U4-SCL)*%
X153753000Y-91997000D03*
%TO.P,U5,2,GND_2*%
%TO.N,GND*%
X153753000Y-94537000D03*
%TO.P,U5,1,VCC_1*%
%TO.N,VOUT_3V3*%
X153753000Y-97077000D03*
%TD*%
%TO.P,U4,1,VCC_1*%
%TO.N,VOUT_3V3*%
X131515000Y-99363000D03*
%TO.P,U4,2,GND_2*%
%TO.N,GND*%
X131515000Y-96823000D03*
%TO.P,U4,3,SCL_3*%
%TO.N,Net-(U4-SCL)*%
X131515000Y-94283000D03*
%TO.P,U4,4,SDA_4*%
%TO.N,Net-(U4-SDA)*%
X131515000Y-91743000D03*
%TO.P,U4,5,XDA_5*%
%TO.N,unconnected-(U4-XDA-Pad5)*%
X131515000Y-89203000D03*
%TO.P,U4,6,XCL_6*%
%TO.N,unconnected-(U4-XCL-Pad6)*%
X131515000Y-86663000D03*
%TO.P,U4,7,ADD_7*%
%TO.N,GND*%
X131515000Y-84123000D03*
%TO.P,U4,8,INT_8*%
%TO.N,unconnected-(U4-INT-Pad8)*%
X131515000Y-81583000D03*
%TD*%
D11*
%TO.P,U6,G,GND_G*%
%TO.N,GND*%
X150685000Y-84440000D03*
%TO.P,U6,21,GPIO21_21*%
%TO.N,unconnected-(U6-GPIO21-Pad21)*%
X134715000Y-99680000D03*
%TO.P,U6,20,GPIO20_20*%
%TO.N,unconnected-(U6-GPIO20-Pad20)*%
X134715000Y-97140000D03*
%TO.P,U6,10,GPIO10_10*%
%TO.N,Net-(D5-A)*%
X134715000Y-94600000D03*
%TO.P,U6,9,GPIO9_9*%
%TO.N,Net-(U4-SCL)*%
X134715000Y-92060000D03*
%TO.P,U6,8,GPIO8_8*%
%TO.N,Net-(U4-SDA)*%
X134715000Y-89520000D03*
%TO.P,U6,7,GPIO7_7*%
%TO.N,unconnected-(U6-GPIO7-Pad7)*%
X134715000Y-86980000D03*
%TO.P,U6,6,GPIO6_6*%
%TO.N,unconnected-(U6-GPIO6-Pad6)*%
X134715000Y-84440000D03*
%TO.P,U6,5V,5V_5V*%
%TO.N,unconnected-(U6-Pad5V)*%
X150685000Y-81900000D03*
%TO.P,U6,5,GPIO5_5*%
%TO.N,unconnected-(U6-GPIO5-Pad5)*%
X134715000Y-81900000D03*
%TO.P,U6,4,GPIO4_4*%
%TO.N,unconnected-(U6-GPIO4-Pad4)*%
X150685000Y-89520000D03*
%TO.P,U6,3.3,3V3_3.3*%
%TO.N,VOUT_3V3*%
X150685000Y-86980000D03*
%TO.P,U6,3,GPIO3_3*%
%TO.N,unconnected-(U6-GPIO3-Pad3)*%
X150685000Y-92060000D03*
%TO.P,U6,2,GPIO2_2*%
%TO.N,unconnected-(U6-GPIO2-Pad2)*%
X150685000Y-94600000D03*
%TO.P,U6,1,GPIO1_1*%
%TO.N,unconnected-(U6-GPIO1-Pad1)*%
X150685000Y-97140000D03*
%TO.P,U6,0,GPIO0_0*%
%TO.N,unconnected-(U6-GPIO0-Pad0)*%
X150685000Y-99680000D03*
%TD*%
D12*
%TO.P,Q3,1,1_1*%
%TO.N,Net-(SW1-C)*%
X141017100Y-113900000D03*
%TO.P,Q3,2,2_2*%
%TO.N,unconnected-(Q3-Pad2)*%
X141017100Y-114850001D03*
%TO.P,Q3,3,3_3*%
%TO.N,GND*%
X141017100Y-115800002D03*
%TO.P,Q3,4,4_4*%
%TO.N,Net-(U2-OC)*%
X143900000Y-115800002D03*
%TO.P,Q3,5,5_5*%
%TO.N,unconnected-(Q3-Pad5)*%
X143900000Y-114850001D03*
%TO.P,Q3,6,6_6*%
%TO.N,Net-(U2-OD)*%
X143900000Y-113900000D03*
%TD*%
D13*
%TO.P,BT1,1,+_1*%
%TO.N,Net-(BT1-+)*%
X139250000Y-126500000D03*
D14*
%TO.P,BT1,2,-_2*%
%TO.N,GNDPWR*%
X146250000Y-126500000D03*
%TD*%
D15*
%TO.P,R5,1*%
%TO.N,Net-(Q4-S)*%
X143300000Y-109500000D03*
%TO.P,R5,2*%
%TO.N,Net-(U2-VCC)*%
X145300000Y-109500000D03*
%TD*%
D16*
%TO.P,Q4,1,G_1*%
%TO.N,GNDPWR*%
X136950000Y-119025000D03*
%TO.P,Q4,2,S_2*%
%TO.N,Net-(Q4-S)*%
X135050000Y-119025000D03*
%TO.P,Q4,3,D_3*%
%TO.N,Net-(BT1-+)*%
X136000000Y-120900000D03*
%TD*%
D17*
%TO.P,R6,1*%
%TO.N,Net-(U2-CS)*%
X152800000Y-112900000D03*
%TO.P,R6,2*%
%TO.N,GND*%
X152800000Y-110900000D03*
%TD*%
D18*
%TO.P,C1,1*%
%TO.N,Net-(U2-VCC)*%
X149700000Y-108237500D03*
%TO.P,C1,2*%
%TO.N,Net-(SW1-C)*%
X149700000Y-111362500D03*
%TD*%
D19*
%TO.P,SW1,1,A_1*%
%TO.N,unconnected-(SW1-A-Pad1)*%
X145790000Y-120250000D03*
D20*
%TO.P,SW1,2,B_2*%
%TO.N,GNDPWR*%
X148330000Y-120250000D03*
%TO.P,SW1,3,C_3*%
%TO.N,Net-(SW1-C)*%
X143250000Y-120250000D03*
%TD*%
D16*
%TO.P,U3,1,GND_1*%
%TO.N,GND*%
X135950000Y-112162500D03*
%TO.P,U3,2,VO_2*%
%TO.N,VOUT_3V3*%
X134050000Y-112162500D03*
%TO.P,U3,3,VI_3*%
%TO.N,Net-(Q4-S)*%
X135000000Y-114037500D03*
%TD*%
D21*
%TO.P,U2,1,OD_1*%
%TO.N,Net-(U2-OD)*%
X147421050Y-113900001D03*
%TO.P,U2,2,CS_2*%
%TO.N,Net-(U2-CS)*%
X147421050Y-114850001D03*
%TO.P,U2,3,OC_3*%
%TO.N,Net-(U2-OC)*%
X147421050Y-115800001D03*
%TO.P,U2,4,TD_4*%
%TO.N,unconnected-(U2-TD-Pad4)*%
X149696050Y-115800001D03*
%TO.P,U2,5,VCC_5*%
%TO.N,Net-(U2-VCC)*%
X149696050Y-114850001D03*
%TO.P,U2,6,GND_6*%
%TO.N,Net-(SW1-C)*%
X149696050Y-113900001D03*
%TD*%
D22*
%TO.N,GND*%
X147700000Y-105900000D03*
X143750000Y-84050000D03*
X151400000Y-105900000D03*
X144600000Y-85100000D03*
X143300000Y-105900000D03*
X147600000Y-84440000D03*
%TO.N,Net-(Q4-S)*%
X139200000Y-112400000D03*
X136000000Y-116200000D03*
%TO.N,VOUT_3V3*%
X134300000Y-106200000D03*
X142700000Y-92600000D03*
X139287501Y-106187501D03*
%TO.N,Net-(U4-SDA)*%
X138600000Y-82200000D03*
%TO.N,Net-(U4-SCL)*%
X139800000Y-82400000D03*
%TO.N,Net-(D5-A)*%
X138300000Y-94600000D03*
%TD*%
%TO.N,Net-(SW1-C)*%
D23*
X143250000Y-120250000D02*
X142708550Y-119708550D01*
X142708550Y-119708550D02*
X142708550Y-114871501D01*
X149700000Y-113896051D02*
X149696050Y-113900001D01*
X141737049Y-113900000D02*
X142708550Y-114871501D01*
X149700000Y-111362500D02*
X149700000Y-113896051D01*
X141017100Y-113900000D02*
X141737049Y-113900000D01*
X148346050Y-112550001D02*
X143580049Y-112550001D01*
X143580049Y-112550001D02*
X142708550Y-113421500D01*
X149696050Y-113900001D02*
X148346050Y-112550001D01*
X142708550Y-113421500D02*
X142708550Y-114871501D01*
%TO.N,GND*%
D24*
X147600000Y-84440000D02*
X147540000Y-84440000D01*
X142212500Y-105900000D02*
X143300000Y-105900000D01*
D23*
X150748000Y-84377000D02*
X150685000Y-84440000D01*
D24*
X135950000Y-112162500D02*
X142212500Y-105900000D01*
X135950000Y-112162500D02*
X139616901Y-115829401D01*
D23*
X152800000Y-110900000D02*
X152800000Y-107300000D01*
X153753000Y-84377000D02*
X150748000Y-84377000D01*
X152800000Y-107300000D02*
X151400000Y-105900000D01*
D24*
X150685000Y-84440000D02*
X147600000Y-84440000D01*
D23*
X140967101Y-115850001D02*
X141017100Y-115800002D01*
D24*
X139616901Y-115829401D02*
X141017100Y-115829401D01*
%TO.N,Net-(U2-OC)*%
D23*
X147421050Y-115800001D02*
X143900000Y-115800002D01*
%TO.N,Net-(U2-OD)*%
X147421050Y-113900001D02*
X143900000Y-113900000D01*
%TO.N,Net-(BT1-+)*%
D24*
X136000000Y-120900000D02*
X136000000Y-123250000D01*
X136000000Y-123250000D02*
X139250000Y-126500000D01*
%TO.N,GNDPWR*%
D23*
X144425000Y-126500000D02*
X146250000Y-126500000D01*
X136950000Y-119025000D02*
X144425000Y-126500000D01*
%TO.N,Net-(Q4-S)*%
D24*
X135000000Y-114037500D02*
X135000000Y-116200000D01*
X135000000Y-118975000D02*
X135050000Y-119025000D01*
X135000000Y-116200000D02*
X135000000Y-118975000D01*
D23*
X142100000Y-109500000D02*
X139200000Y-112400000D01*
X136000000Y-116200000D02*
X135000000Y-116200000D01*
X143300000Y-109500000D02*
X142100000Y-109500000D01*
%TO.N,Net-(U2-VCC)*%
X151300000Y-113908550D02*
X150358549Y-114850001D01*
X149700000Y-108237500D02*
X151300000Y-109837500D01*
X145300000Y-109500000D02*
X148437500Y-109500000D01*
X150358549Y-114850001D02*
X149696050Y-114850001D01*
X148437500Y-109500000D02*
X149700000Y-108237500D01*
X151300000Y-109837500D02*
X151300000Y-113908550D01*
%TO.N,Net-(U2-CS)*%
X147421050Y-114850001D02*
X148083549Y-114850001D01*
X148633550Y-115400002D02*
X148633550Y-116933550D01*
X151700000Y-117200000D02*
X152800000Y-116100000D01*
X152800000Y-116100000D02*
X152800000Y-112900000D01*
X148083549Y-114850001D02*
X148633550Y-115400002D01*
X148900000Y-117200000D02*
X151700000Y-117200000D01*
X148633550Y-116933550D02*
X148900000Y-117200000D01*
%TO.N,VOUT_3V3*%
D24*
X144333001Y-92197499D02*
X149550500Y-86980000D01*
D23*
X150748000Y-86917000D02*
X150685000Y-86980000D01*
X152387501Y-102187501D02*
X143287501Y-102187501D01*
D24*
X143287501Y-102187501D02*
X144333001Y-101142000D01*
X144333001Y-92700000D02*
X144333001Y-92197499D01*
D23*
X153753000Y-100822002D02*
X152387501Y-102187501D01*
D24*
X134050000Y-112162500D02*
X134050000Y-111425001D01*
X139287501Y-106187501D02*
X143287501Y-102187501D01*
D23*
X144233001Y-92600000D02*
X144333001Y-92700000D01*
X153753000Y-86917000D02*
X150748000Y-86917000D01*
X153753000Y-97077000D02*
X153753000Y-100822002D01*
D24*
X134050000Y-111425001D02*
X139287501Y-106187501D01*
D23*
X142700000Y-92600000D02*
X144233001Y-92600000D01*
D24*
X144333001Y-101142000D02*
X144333001Y-92700000D01*
X149550500Y-86980000D02*
X150685000Y-86980000D01*
%TO.N,Net-(U4-SDA)*%
D25*
X138600000Y-82200000D02*
X138600000Y-85969500D01*
X135049500Y-89520000D02*
X134715000Y-89520000D01*
D23*
X133738000Y-89520000D02*
X134715000Y-89520000D01*
D25*
X138600000Y-85969500D02*
X135049500Y-89520000D01*
D23*
X131515000Y-91743000D02*
X133738000Y-89520000D01*
%TO.N,Net-(U4-SCL)*%
D25*
X139800000Y-82400000D02*
X139800000Y-87309500D01*
D23*
X131515000Y-94283000D02*
X133738000Y-92060000D01*
D25*
X139800000Y-87309500D02*
X135049500Y-92060000D01*
D23*
X133738000Y-92060000D02*
X134715000Y-92060000D01*
D25*
X135049500Y-92060000D02*
X134715000Y-92060000D01*
%TO.N,Net-(D5-A)*%
D23*
X138300000Y-94600000D02*
X134715000Y-94600000D01*
%TD*%
%TA.AperFunction,Conductor*%
%TO.N,VOUT_3V3*%
G36*
X139763681Y-105236319D02*
G01*
X139800000Y-105324000D01*
X139800000Y-106704795D01*
X139763681Y-106792476D01*
X139692476Y-106863681D01*
X139604795Y-106900000D01*
X133924000Y-106900000D01*
X133836319Y-106863681D01*
X133800000Y-106776000D01*
X133800000Y-105324000D01*
X133836319Y-105236319D01*
X133924000Y-105200000D01*
X139676000Y-105200000D01*
X139763681Y-105236319D01*
G37*
%TD.AperFunction*%
%TD*%
%TA.AperFunction,Conductor*%
%TO.N,GND*%
G36*
X152363681Y-104936319D02*
G01*
X152400000Y-105024000D01*
X152400000Y-106876000D01*
X152363681Y-106963681D01*
X152276000Y-107000000D01*
X150574173Y-107000000D01*
X150549982Y-106997617D01*
X150512558Y-106990172D01*
X150433767Y-106974500D01*
X148966235Y-106974500D01*
X148966231Y-106974501D01*
X148850021Y-106997617D01*
X148825830Y-107000000D01*
X143124000Y-107000000D01*
X143036319Y-106963681D01*
X143000000Y-106876000D01*
X143000000Y-105024000D01*
X143036319Y-104936319D01*
X143124000Y-104900000D01*
X152276000Y-104900000D01*
X152363681Y-104936319D01*
G37*
%TD.AperFunction*%
%TD*%
%TA.AperFunction,Conductor*%
%TO.N,GND*%
G36*
X148063681Y-83136319D02*
G01*
X148100000Y-83224000D01*
X148100000Y-85776000D01*
X148063681Y-85863681D01*
X147976000Y-85900000D01*
X143024000Y-85900000D01*
X142936319Y-85863681D01*
X142900000Y-85776000D01*
X142900000Y-83224000D01*
X142936319Y-83136319D01*
X143024000Y-83100000D01*
X147976000Y-83100000D01*
X148063681Y-83136319D01*
G37*
%TD.AperFunction*%
%TD*%
M02*
