%TF.GenerationSoftware,KiCad,Pcbnew,10.0.1*%
%TF.CreationDate,2026-05-06T09:57:29+05:30*%
%TF.ProjectId,ember_flight_recorder,656d6265-725f-4666-9c69-6768745f7265,rev?*%
%TF.SameCoordinates,Original*%
%TF.FileFunction,Legend,Top*%
%TF.FilePolarity,Positive*%
%FSLAX46Y46*%
G04 Gerber Fmt 4.6, Leading zero omitted, Abs format (unit mm)*
G04 Created by KiCad (PCBNEW 10.0.1) date 2026-05-06 09:57:29*
%MOMM*%
%LPD*%
G01*
G04 APERTURE LIST*
%ADD10C,0.100000*%
%ADD11C,0.200000*%
%ADD12C,0.150000*%
%ADD13C,0.120000*%
%ADD14C,0.127000*%
%ADD15C,0.152400*%
G04 APERTURE END LIST*
D10*
X147146741Y-82072419D02*
X147146741Y-82310514D01*
X146908646Y-82215276D02*
X147146741Y-82310514D01*
X147146741Y-82310514D02*
X147384836Y-82215276D01*
X147003884Y-82500990D02*
X147146741Y-82310514D01*
X147146741Y-82310514D02*
X147289598Y-82500990D01*
D11*
X152938095Y-98652219D02*
X152938095Y-99461742D01*
X152938095Y-99461742D02*
X152985714Y-99556980D01*
X152985714Y-99556980D02*
X153033333Y-99604600D01*
X153033333Y-99604600D02*
X153128571Y-99652219D01*
X153128571Y-99652219D02*
X153319047Y-99652219D01*
X153319047Y-99652219D02*
X153414285Y-99604600D01*
X153414285Y-99604600D02*
X153461904Y-99556980D01*
X153461904Y-99556980D02*
X153509523Y-99461742D01*
X153509523Y-99461742D02*
X153509523Y-98652219D01*
X154461904Y-98652219D02*
X153985714Y-98652219D01*
X153985714Y-98652219D02*
X153938095Y-99128409D01*
X153938095Y-99128409D02*
X153985714Y-99080790D01*
X153985714Y-99080790D02*
X154080952Y-99033171D01*
X154080952Y-99033171D02*
X154319047Y-99033171D01*
X154319047Y-99033171D02*
X154414285Y-99080790D01*
X154414285Y-99080790D02*
X154461904Y-99128409D01*
X154461904Y-99128409D02*
X154509523Y-99223647D01*
X154509523Y-99223647D02*
X154509523Y-99461742D01*
X154509523Y-99461742D02*
X154461904Y-99556980D01*
X154461904Y-99556980D02*
X154414285Y-99604600D01*
X154414285Y-99604600D02*
X154319047Y-99652219D01*
X154319047Y-99652219D02*
X154080952Y-99652219D01*
X154080952Y-99652219D02*
X153985714Y-99604600D01*
X153985714Y-99604600D02*
X153938095Y-99556980D01*
D10*
X153753258Y-100327580D02*
X153753258Y-100089485D01*
X153991353Y-100184723D02*
X153753258Y-100089485D01*
X153753258Y-100089485D02*
X153515163Y-100184723D01*
X153896115Y-99899009D02*
X153753258Y-100089485D01*
X153753258Y-100089485D02*
X153610401Y-99899009D01*
D12*
X145604009Y-95535761D02*
X145651628Y-95392904D01*
X145651628Y-95392904D02*
X145699247Y-95345285D01*
X145699247Y-95345285D02*
X145794485Y-95297666D01*
X145794485Y-95297666D02*
X145937342Y-95297666D01*
X145937342Y-95297666D02*
X146032580Y-95345285D01*
X146032580Y-95345285D02*
X146080200Y-95392904D01*
X146080200Y-95392904D02*
X146127819Y-95488142D01*
X146127819Y-95488142D02*
X146127819Y-95869094D01*
X146127819Y-95869094D02*
X145127819Y-95869094D01*
X145127819Y-95869094D02*
X145127819Y-95535761D01*
X145127819Y-95535761D02*
X145175438Y-95440523D01*
X145175438Y-95440523D02*
X145223057Y-95392904D01*
X145223057Y-95392904D02*
X145318295Y-95345285D01*
X145318295Y-95345285D02*
X145413533Y-95345285D01*
X145413533Y-95345285D02*
X145508771Y-95392904D01*
X145508771Y-95392904D02*
X145556390Y-95440523D01*
X145556390Y-95440523D02*
X145604009Y-95535761D01*
X145604009Y-95535761D02*
X145604009Y-95869094D01*
X146127819Y-94869094D02*
X145127819Y-94869094D01*
X145127819Y-94869094D02*
X145842104Y-94535761D01*
X145842104Y-94535761D02*
X145127819Y-94202428D01*
X145127819Y-94202428D02*
X146127819Y-94202428D01*
X145604009Y-93726237D02*
X145604009Y-93392904D01*
X146127819Y-93250047D02*
X146127819Y-93726237D01*
X146127819Y-93726237D02*
X145127819Y-93726237D01*
X145127819Y-93726237D02*
X145127819Y-93250047D01*
X145080200Y-92107190D02*
X146365914Y-92964332D01*
X146127819Y-91773856D02*
X145127819Y-91773856D01*
X145127819Y-91773856D02*
X145127819Y-91392904D01*
X145127819Y-91392904D02*
X145175438Y-91297666D01*
X145175438Y-91297666D02*
X145223057Y-91250047D01*
X145223057Y-91250047D02*
X145318295Y-91202428D01*
X145318295Y-91202428D02*
X145461152Y-91202428D01*
X145461152Y-91202428D02*
X145556390Y-91250047D01*
X145556390Y-91250047D02*
X145604009Y-91297666D01*
X145604009Y-91297666D02*
X145651628Y-91392904D01*
X145651628Y-91392904D02*
X145651628Y-91773856D01*
X145223057Y-90821475D02*
X145175438Y-90773856D01*
X145175438Y-90773856D02*
X145127819Y-90678618D01*
X145127819Y-90678618D02*
X145127819Y-90440523D01*
X145127819Y-90440523D02*
X145175438Y-90345285D01*
X145175438Y-90345285D02*
X145223057Y-90297666D01*
X145223057Y-90297666D02*
X145318295Y-90250047D01*
X145318295Y-90250047D02*
X145413533Y-90250047D01*
X145413533Y-90250047D02*
X145556390Y-90297666D01*
X145556390Y-90297666D02*
X146127819Y-90869094D01*
X146127819Y-90869094D02*
X146127819Y-90250047D01*
X145556390Y-89678618D02*
X145508771Y-89773856D01*
X145508771Y-89773856D02*
X145461152Y-89821475D01*
X145461152Y-89821475D02*
X145365914Y-89869094D01*
X145365914Y-89869094D02*
X145318295Y-89869094D01*
X145318295Y-89869094D02*
X145223057Y-89821475D01*
X145223057Y-89821475D02*
X145175438Y-89773856D01*
X145175438Y-89773856D02*
X145127819Y-89678618D01*
X145127819Y-89678618D02*
X145127819Y-89488142D01*
X145127819Y-89488142D02*
X145175438Y-89392904D01*
X145175438Y-89392904D02*
X145223057Y-89345285D01*
X145223057Y-89345285D02*
X145318295Y-89297666D01*
X145318295Y-89297666D02*
X145365914Y-89297666D01*
X145365914Y-89297666D02*
X145461152Y-89345285D01*
X145461152Y-89345285D02*
X145508771Y-89392904D01*
X145508771Y-89392904D02*
X145556390Y-89488142D01*
X145556390Y-89488142D02*
X145556390Y-89678618D01*
X145556390Y-89678618D02*
X145604009Y-89773856D01*
X145604009Y-89773856D02*
X145651628Y-89821475D01*
X145651628Y-89821475D02*
X145746866Y-89869094D01*
X145746866Y-89869094D02*
X145937342Y-89869094D01*
X145937342Y-89869094D02*
X146032580Y-89821475D01*
X146032580Y-89821475D02*
X146080200Y-89773856D01*
X146080200Y-89773856D02*
X146127819Y-89678618D01*
X146127819Y-89678618D02*
X146127819Y-89488142D01*
X146127819Y-89488142D02*
X146080200Y-89392904D01*
X146080200Y-89392904D02*
X146032580Y-89345285D01*
X146032580Y-89345285D02*
X145937342Y-89297666D01*
X145937342Y-89297666D02*
X145746866Y-89297666D01*
X145746866Y-89297666D02*
X145651628Y-89345285D01*
X145651628Y-89345285D02*
X145604009Y-89392904D01*
X145604009Y-89392904D02*
X145556390Y-89488142D01*
X145127819Y-88678618D02*
X145127819Y-88583380D01*
X145127819Y-88583380D02*
X145175438Y-88488142D01*
X145175438Y-88488142D02*
X145223057Y-88440523D01*
X145223057Y-88440523D02*
X145318295Y-88392904D01*
X145318295Y-88392904D02*
X145508771Y-88345285D01*
X145508771Y-88345285D02*
X145746866Y-88345285D01*
X145746866Y-88345285D02*
X145937342Y-88392904D01*
X145937342Y-88392904D02*
X146032580Y-88440523D01*
X146032580Y-88440523D02*
X146080200Y-88488142D01*
X146080200Y-88488142D02*
X146127819Y-88583380D01*
X146127819Y-88583380D02*
X146127819Y-88678618D01*
X146127819Y-88678618D02*
X146080200Y-88773856D01*
X146080200Y-88773856D02*
X146032580Y-88821475D01*
X146032580Y-88821475D02*
X145937342Y-88869094D01*
X145937342Y-88869094D02*
X145746866Y-88916713D01*
X145746866Y-88916713D02*
X145508771Y-88916713D01*
X145508771Y-88916713D02*
X145318295Y-88869094D01*
X145318295Y-88869094D02*
X145223057Y-88821475D01*
X145223057Y-88821475D02*
X145175438Y-88773856D01*
X145175438Y-88773856D02*
X145127819Y-88678618D01*
X141938095Y-101654819D02*
X141938095Y-102464342D01*
X141938095Y-102464342D02*
X141985714Y-102559580D01*
X141985714Y-102559580D02*
X142033333Y-102607200D01*
X142033333Y-102607200D02*
X142128571Y-102654819D01*
X142128571Y-102654819D02*
X142319047Y-102654819D01*
X142319047Y-102654819D02*
X142414285Y-102607200D01*
X142414285Y-102607200D02*
X142461904Y-102559580D01*
X142461904Y-102559580D02*
X142509523Y-102464342D01*
X142509523Y-102464342D02*
X142509523Y-101654819D01*
X143414285Y-101654819D02*
X143223809Y-101654819D01*
X143223809Y-101654819D02*
X143128571Y-101702438D01*
X143128571Y-101702438D02*
X143080952Y-101750057D01*
X143080952Y-101750057D02*
X142985714Y-101892914D01*
X142985714Y-101892914D02*
X142938095Y-102083390D01*
X142938095Y-102083390D02*
X142938095Y-102464342D01*
X142938095Y-102464342D02*
X142985714Y-102559580D01*
X142985714Y-102559580D02*
X143033333Y-102607200D01*
X143033333Y-102607200D02*
X143128571Y-102654819D01*
X143128571Y-102654819D02*
X143319047Y-102654819D01*
X143319047Y-102654819D02*
X143414285Y-102607200D01*
X143414285Y-102607200D02*
X143461904Y-102559580D01*
X143461904Y-102559580D02*
X143509523Y-102464342D01*
X143509523Y-102464342D02*
X143509523Y-102226247D01*
X143509523Y-102226247D02*
X143461904Y-102131009D01*
X143461904Y-102131009D02*
X143414285Y-102083390D01*
X143414285Y-102083390D02*
X143319047Y-102035771D01*
X143319047Y-102035771D02*
X143128571Y-102035771D01*
X143128571Y-102035771D02*
X143033333Y-102083390D01*
X143033333Y-102083390D02*
X142985714Y-102131009D01*
X142985714Y-102131009D02*
X142938095Y-102226247D01*
X142363311Y-118250057D02*
X142268073Y-118202438D01*
X142268073Y-118202438D02*
X142172835Y-118107200D01*
X142172835Y-118107200D02*
X142029978Y-117964342D01*
X142029978Y-117964342D02*
X141934740Y-117916723D01*
X141934740Y-117916723D02*
X141839502Y-117916723D01*
X141887121Y-118154819D02*
X141791883Y-118107200D01*
X141791883Y-118107200D02*
X141696645Y-118011961D01*
X141696645Y-118011961D02*
X141649026Y-117821485D01*
X141649026Y-117821485D02*
X141649026Y-117488152D01*
X141649026Y-117488152D02*
X141696645Y-117297676D01*
X141696645Y-117297676D02*
X141791883Y-117202438D01*
X141791883Y-117202438D02*
X141887121Y-117154819D01*
X141887121Y-117154819D02*
X142077597Y-117154819D01*
X142077597Y-117154819D02*
X142172835Y-117202438D01*
X142172835Y-117202438D02*
X142268073Y-117297676D01*
X142268073Y-117297676D02*
X142315692Y-117488152D01*
X142315692Y-117488152D02*
X142315692Y-117821485D01*
X142315692Y-117821485D02*
X142268073Y-118011961D01*
X142268073Y-118011961D02*
X142172835Y-118107200D01*
X142172835Y-118107200D02*
X142077597Y-118154819D01*
X142077597Y-118154819D02*
X141887121Y-118154819D01*
X142649026Y-117154819D02*
X143268073Y-117154819D01*
X143268073Y-117154819D02*
X142934740Y-117535771D01*
X142934740Y-117535771D02*
X143077597Y-117535771D01*
X143077597Y-117535771D02*
X143172835Y-117583390D01*
X143172835Y-117583390D02*
X143220454Y-117631009D01*
X143220454Y-117631009D02*
X143268073Y-117726247D01*
X143268073Y-117726247D02*
X143268073Y-117964342D01*
X143268073Y-117964342D02*
X143220454Y-118059580D01*
X143220454Y-118059580D02*
X143172835Y-118107200D01*
X143172835Y-118107200D02*
X143077597Y-118154819D01*
X143077597Y-118154819D02*
X142791883Y-118154819D01*
X142791883Y-118154819D02*
X142696645Y-118107200D01*
X142696645Y-118107200D02*
X142649026Y-118059580D01*
X140763100Y-111653020D02*
X140763100Y-111891115D01*
X140525005Y-111795877D02*
X140763100Y-111891115D01*
X140763100Y-111891115D02*
X141001195Y-111795877D01*
X140620243Y-112081591D02*
X140763100Y-111891115D01*
X140763100Y-111891115D02*
X140905957Y-112081591D01*
X140763100Y-111653020D02*
X140763100Y-111891115D01*
X140525005Y-111795877D02*
X140763100Y-111891115D01*
X140763100Y-111891115D02*
X141001195Y-111795877D01*
X140620243Y-112081591D02*
X140763100Y-111891115D01*
X140763100Y-111891115D02*
X140905957Y-112081591D01*
X150014285Y-126331009D02*
X150157142Y-126378628D01*
X150157142Y-126378628D02*
X150204761Y-126426247D01*
X150204761Y-126426247D02*
X150252380Y-126521485D01*
X150252380Y-126521485D02*
X150252380Y-126664342D01*
X150252380Y-126664342D02*
X150204761Y-126759580D01*
X150204761Y-126759580D02*
X150157142Y-126807200D01*
X150157142Y-126807200D02*
X150061904Y-126854819D01*
X150061904Y-126854819D02*
X149680952Y-126854819D01*
X149680952Y-126854819D02*
X149680952Y-125854819D01*
X149680952Y-125854819D02*
X150014285Y-125854819D01*
X150014285Y-125854819D02*
X150109523Y-125902438D01*
X150109523Y-125902438D02*
X150157142Y-125950057D01*
X150157142Y-125950057D02*
X150204761Y-126045295D01*
X150204761Y-126045295D02*
X150204761Y-126140533D01*
X150204761Y-126140533D02*
X150157142Y-126235771D01*
X150157142Y-126235771D02*
X150109523Y-126283390D01*
X150109523Y-126283390D02*
X150014285Y-126331009D01*
X150014285Y-126331009D02*
X149680952Y-126331009D01*
X150538095Y-125854819D02*
X151109523Y-125854819D01*
X150823809Y-126854819D02*
X150823809Y-125854819D01*
X151966666Y-126854819D02*
X151395238Y-126854819D01*
X151680952Y-126854819D02*
X151680952Y-125854819D01*
X151680952Y-125854819D02*
X151585714Y-125997676D01*
X151585714Y-125997676D02*
X151490476Y-126092914D01*
X151490476Y-126092914D02*
X151395238Y-126140533D01*
X144133333Y-108304819D02*
X143800000Y-107828628D01*
X143561905Y-108304819D02*
X143561905Y-107304819D01*
X143561905Y-107304819D02*
X143942857Y-107304819D01*
X143942857Y-107304819D02*
X144038095Y-107352438D01*
X144038095Y-107352438D02*
X144085714Y-107400057D01*
X144085714Y-107400057D02*
X144133333Y-107495295D01*
X144133333Y-107495295D02*
X144133333Y-107638152D01*
X144133333Y-107638152D02*
X144085714Y-107733390D01*
X144085714Y-107733390D02*
X144038095Y-107781009D01*
X144038095Y-107781009D02*
X143942857Y-107828628D01*
X143942857Y-107828628D02*
X143561905Y-107828628D01*
X145038095Y-107304819D02*
X144561905Y-107304819D01*
X144561905Y-107304819D02*
X144514286Y-107781009D01*
X144514286Y-107781009D02*
X144561905Y-107733390D01*
X144561905Y-107733390D02*
X144657143Y-107685771D01*
X144657143Y-107685771D02*
X144895238Y-107685771D01*
X144895238Y-107685771D02*
X144990476Y-107733390D01*
X144990476Y-107733390D02*
X145038095Y-107781009D01*
X145038095Y-107781009D02*
X145085714Y-107876247D01*
X145085714Y-107876247D02*
X145085714Y-108114342D01*
X145085714Y-108114342D02*
X145038095Y-108209580D01*
X145038095Y-108209580D02*
X144990476Y-108257200D01*
X144990476Y-108257200D02*
X144895238Y-108304819D01*
X144895238Y-108304819D02*
X144657143Y-108304819D01*
X144657143Y-108304819D02*
X144561905Y-108257200D01*
X144561905Y-108257200D02*
X144514286Y-108209580D01*
X139050057Y-120057738D02*
X139002438Y-120152976D01*
X139002438Y-120152976D02*
X138907200Y-120248214D01*
X138907200Y-120248214D02*
X138764342Y-120391071D01*
X138764342Y-120391071D02*
X138716723Y-120486309D01*
X138716723Y-120486309D02*
X138716723Y-120581547D01*
X138954819Y-120533928D02*
X138907200Y-120629166D01*
X138907200Y-120629166D02*
X138811961Y-120724404D01*
X138811961Y-120724404D02*
X138621485Y-120772023D01*
X138621485Y-120772023D02*
X138288152Y-120772023D01*
X138288152Y-120772023D02*
X138097676Y-120724404D01*
X138097676Y-120724404D02*
X138002438Y-120629166D01*
X138002438Y-120629166D02*
X137954819Y-120533928D01*
X137954819Y-120533928D02*
X137954819Y-120343452D01*
X137954819Y-120343452D02*
X138002438Y-120248214D01*
X138002438Y-120248214D02*
X138097676Y-120152976D01*
X138097676Y-120152976D02*
X138288152Y-120105357D01*
X138288152Y-120105357D02*
X138621485Y-120105357D01*
X138621485Y-120105357D02*
X138811961Y-120152976D01*
X138811961Y-120152976D02*
X138907200Y-120248214D01*
X138907200Y-120248214D02*
X138954819Y-120343452D01*
X138954819Y-120343452D02*
X138954819Y-120533928D01*
X138288152Y-119248214D02*
X138954819Y-119248214D01*
X137907200Y-119486309D02*
X138621485Y-119724404D01*
X138621485Y-119724404D02*
X138621485Y-119105357D01*
X153354819Y-114966666D02*
X152878628Y-115299999D01*
X153354819Y-115538094D02*
X152354819Y-115538094D01*
X152354819Y-115538094D02*
X152354819Y-115157142D01*
X152354819Y-115157142D02*
X152402438Y-115061904D01*
X152402438Y-115061904D02*
X152450057Y-115014285D01*
X152450057Y-115014285D02*
X152545295Y-114966666D01*
X152545295Y-114966666D02*
X152688152Y-114966666D01*
X152688152Y-114966666D02*
X152783390Y-115014285D01*
X152783390Y-115014285D02*
X152831009Y-115061904D01*
X152831009Y-115061904D02*
X152878628Y-115157142D01*
X152878628Y-115157142D02*
X152878628Y-115538094D01*
X152354819Y-114109523D02*
X152354819Y-114299999D01*
X152354819Y-114299999D02*
X152402438Y-114395237D01*
X152402438Y-114395237D02*
X152450057Y-114442856D01*
X152450057Y-114442856D02*
X152592914Y-114538094D01*
X152592914Y-114538094D02*
X152783390Y-114585713D01*
X152783390Y-114585713D02*
X153164342Y-114585713D01*
X153164342Y-114585713D02*
X153259580Y-114538094D01*
X153259580Y-114538094D02*
X153307200Y-114490475D01*
X153307200Y-114490475D02*
X153354819Y-114395237D01*
X153354819Y-114395237D02*
X153354819Y-114204761D01*
X153354819Y-114204761D02*
X153307200Y-114109523D01*
X153307200Y-114109523D02*
X153259580Y-114061904D01*
X153259580Y-114061904D02*
X153164342Y-114014285D01*
X153164342Y-114014285D02*
X152926247Y-114014285D01*
X152926247Y-114014285D02*
X152831009Y-114061904D01*
X152831009Y-114061904D02*
X152783390Y-114109523D01*
X152783390Y-114109523D02*
X152735771Y-114204761D01*
X152735771Y-114204761D02*
X152735771Y-114395237D01*
X152735771Y-114395237D02*
X152783390Y-114490475D01*
X152783390Y-114490475D02*
X152831009Y-114538094D01*
X152831009Y-114538094D02*
X152926247Y-114585713D01*
X150059580Y-106466666D02*
X150107200Y-106514285D01*
X150107200Y-106514285D02*
X150154819Y-106657142D01*
X150154819Y-106657142D02*
X150154819Y-106752380D01*
X150154819Y-106752380D02*
X150107200Y-106895237D01*
X150107200Y-106895237D02*
X150011961Y-106990475D01*
X150011961Y-106990475D02*
X149916723Y-107038094D01*
X149916723Y-107038094D02*
X149726247Y-107085713D01*
X149726247Y-107085713D02*
X149583390Y-107085713D01*
X149583390Y-107085713D02*
X149392914Y-107038094D01*
X149392914Y-107038094D02*
X149297676Y-106990475D01*
X149297676Y-106990475D02*
X149202438Y-106895237D01*
X149202438Y-106895237D02*
X149154819Y-106752380D01*
X149154819Y-106752380D02*
X149154819Y-106657142D01*
X149154819Y-106657142D02*
X149202438Y-106514285D01*
X149202438Y-106514285D02*
X149250057Y-106466666D01*
X150154819Y-105514285D02*
X150154819Y-106085713D01*
X150154819Y-105799999D02*
X149154819Y-105799999D01*
X149154819Y-105799999D02*
X149297676Y-105895237D01*
X149297676Y-105895237D02*
X149392914Y-105990475D01*
X149392914Y-105990475D02*
X149440533Y-106085713D01*
X151266667Y-120707200D02*
X151409524Y-120754819D01*
X151409524Y-120754819D02*
X151647619Y-120754819D01*
X151647619Y-120754819D02*
X151742857Y-120707200D01*
X151742857Y-120707200D02*
X151790476Y-120659580D01*
X151790476Y-120659580D02*
X151838095Y-120564342D01*
X151838095Y-120564342D02*
X151838095Y-120469104D01*
X151838095Y-120469104D02*
X151790476Y-120373866D01*
X151790476Y-120373866D02*
X151742857Y-120326247D01*
X151742857Y-120326247D02*
X151647619Y-120278628D01*
X151647619Y-120278628D02*
X151457143Y-120231009D01*
X151457143Y-120231009D02*
X151361905Y-120183390D01*
X151361905Y-120183390D02*
X151314286Y-120135771D01*
X151314286Y-120135771D02*
X151266667Y-120040533D01*
X151266667Y-120040533D02*
X151266667Y-119945295D01*
X151266667Y-119945295D02*
X151314286Y-119850057D01*
X151314286Y-119850057D02*
X151361905Y-119802438D01*
X151361905Y-119802438D02*
X151457143Y-119754819D01*
X151457143Y-119754819D02*
X151695238Y-119754819D01*
X151695238Y-119754819D02*
X151838095Y-119802438D01*
X152171429Y-119754819D02*
X152409524Y-120754819D01*
X152409524Y-120754819D02*
X152600000Y-120040533D01*
X152600000Y-120040533D02*
X152790476Y-120754819D01*
X152790476Y-120754819D02*
X153028572Y-119754819D01*
X153933333Y-120754819D02*
X153361905Y-120754819D01*
X153647619Y-120754819D02*
X153647619Y-119754819D01*
X153647619Y-119754819D02*
X153552381Y-119897676D01*
X153552381Y-119897676D02*
X153457143Y-119992914D01*
X153457143Y-119992914D02*
X153361905Y-120040533D01*
X136954819Y-113861904D02*
X137764342Y-113861904D01*
X137764342Y-113861904D02*
X137859580Y-113814285D01*
X137859580Y-113814285D02*
X137907200Y-113766666D01*
X137907200Y-113766666D02*
X137954819Y-113671428D01*
X137954819Y-113671428D02*
X137954819Y-113480952D01*
X137954819Y-113480952D02*
X137907200Y-113385714D01*
X137907200Y-113385714D02*
X137859580Y-113338095D01*
X137859580Y-113338095D02*
X137764342Y-113290476D01*
X137764342Y-113290476D02*
X136954819Y-113290476D01*
X136954819Y-112909523D02*
X136954819Y-112290476D01*
X136954819Y-112290476D02*
X137335771Y-112623809D01*
X137335771Y-112623809D02*
X137335771Y-112480952D01*
X137335771Y-112480952D02*
X137383390Y-112385714D01*
X137383390Y-112385714D02*
X137431009Y-112338095D01*
X137431009Y-112338095D02*
X137526247Y-112290476D01*
X137526247Y-112290476D02*
X137764342Y-112290476D01*
X137764342Y-112290476D02*
X137859580Y-112338095D01*
X137859580Y-112338095D02*
X137907200Y-112385714D01*
X137907200Y-112385714D02*
X137954819Y-112480952D01*
X137954819Y-112480952D02*
X137954819Y-112766666D01*
X137954819Y-112766666D02*
X137907200Y-112861904D01*
X137907200Y-112861904D02*
X137859580Y-112909523D01*
X146738095Y-111904820D02*
X146738095Y-112714343D01*
X146738095Y-112714343D02*
X146785714Y-112809581D01*
X146785714Y-112809581D02*
X146833333Y-112857201D01*
X146833333Y-112857201D02*
X146928571Y-112904820D01*
X146928571Y-112904820D02*
X147119047Y-112904820D01*
X147119047Y-112904820D02*
X147214285Y-112857201D01*
X147214285Y-112857201D02*
X147261904Y-112809581D01*
X147261904Y-112809581D02*
X147309523Y-112714343D01*
X147309523Y-112714343D02*
X147309523Y-111904820D01*
X147738095Y-112000058D02*
X147785714Y-111952439D01*
X147785714Y-111952439D02*
X147880952Y-111904820D01*
X147880952Y-111904820D02*
X148119047Y-111904820D01*
X148119047Y-111904820D02*
X148214285Y-111952439D01*
X148214285Y-111952439D02*
X148261904Y-112000058D01*
X148261904Y-112000058D02*
X148309523Y-112095296D01*
X148309523Y-112095296D02*
X148309523Y-112190534D01*
X148309523Y-112190534D02*
X148261904Y-112333391D01*
X148261904Y-112333391D02*
X147690476Y-112904820D01*
X147690476Y-112904820D02*
X148309523Y-112904820D01*
%TO.C,U5*%
D13*
X152673000Y-98347000D02*
X154769000Y-98347000D01*
X152673000Y-82853000D02*
X152673000Y-98347000D01*
X154769000Y-82853000D02*
X152673000Y-82853000D01*
X154769000Y-98347000D02*
X154769000Y-82853000D01*
%TO.C,U6*%
D14*
X151700000Y-103150000D02*
X151700000Y-100800000D01*
X151700000Y-103150000D02*
X133700000Y-103150000D01*
X151700000Y-80750000D02*
X151700000Y-80450000D01*
X151700000Y-80450000D02*
X147200000Y-80450000D01*
X147200000Y-79150000D02*
X147200000Y-80450000D01*
X147200000Y-79150000D02*
X138200000Y-79150000D01*
X138200000Y-80450000D02*
X133700000Y-80450000D01*
X138200000Y-79150000D02*
X138200000Y-80450000D01*
X133700000Y-103150000D02*
X133700000Y-100800000D01*
X133700000Y-80750000D02*
X133700000Y-80450000D01*
%TO.C,Q3*%
D15*
X141480650Y-116488301D02*
X143436450Y-116488301D01*
X143436450Y-113211701D02*
X141480650Y-113211701D01*
%TO.C,R5*%
D13*
X144072936Y-108765000D02*
X144527064Y-108765000D01*
X144072936Y-110235000D02*
X144527064Y-110235000D01*
%TO.C,Q4*%
X134440000Y-119202500D02*
X134490000Y-119202500D01*
X134440000Y-120722500D02*
X134440000Y-119202500D01*
X135440000Y-120722500D02*
X134440000Y-120722500D01*
X135610000Y-119202500D02*
X136390000Y-119202500D01*
X137510000Y-119202500D02*
X137560000Y-119202500D01*
X137560000Y-119202500D02*
X137560000Y-120722500D01*
X137560000Y-120722500D02*
X136560000Y-120722500D01*
X136380000Y-118662500D02*
X136050000Y-118902500D01*
X136050000Y-118422500D01*
X136380000Y-118662500D01*
G36*
X136380000Y-118662500D02*
G01*
X136050000Y-118902500D01*
X136050000Y-118422500D01*
X136380000Y-118662500D01*
G37*
%TO.C,R6*%
X152065000Y-112127064D02*
X152065000Y-111672936D01*
X153535000Y-112127064D02*
X153535000Y-111672936D01*
%TO.C,C1*%
X148790000Y-109088748D02*
X148790000Y-110511252D01*
X150610000Y-109088748D02*
X150610000Y-110511252D01*
%TO.C,SW1*%
X140680000Y-118890000D02*
X150900000Y-118890000D01*
X150900000Y-121610000D01*
X140680000Y-121610000D01*
X140680000Y-118890000D01*
%TO.C,U3*%
X133440000Y-112340000D02*
X133490000Y-112340000D01*
X133440000Y-113860000D02*
X133440000Y-112340000D01*
X134440000Y-113860000D02*
X133440000Y-113860000D01*
X134610000Y-112340000D02*
X135390000Y-112340000D01*
X136510000Y-112340000D02*
X136560000Y-112340000D01*
X136560000Y-112340000D02*
X136560000Y-113860000D01*
X136560000Y-113860000D02*
X135560000Y-113860000D01*
X135380000Y-111800000D02*
X135050000Y-112040000D01*
X135050000Y-111560000D01*
X135380000Y-111800000D01*
G36*
X135380000Y-111800000D02*
G01*
X135050000Y-112040000D01*
X135050000Y-111560000D01*
X135380000Y-111800000D01*
G37*
%TO.C,U2*%
X147648550Y-113290001D02*
X149468550Y-113290001D01*
X147648550Y-113340001D02*
X147648550Y-113290001D01*
X147648550Y-116410001D02*
X147648550Y-116360001D01*
X149468550Y-113290001D02*
X149468550Y-113340001D01*
X149468550Y-116360001D02*
X149468550Y-116410001D01*
X149468550Y-116410001D02*
X147648550Y-116410001D01*
X147108550Y-113340001D02*
X146868550Y-113010001D01*
X147348550Y-113010001D01*
X147108550Y-113340001D01*
G36*
X147108550Y-113340001D02*
G01*
X146868550Y-113010001D01*
X147348550Y-113010001D01*
X147108550Y-113340001D01*
G37*
%TD*%
M02*
