%TF.GenerationSoftware,KiCad,Pcbnew,10.0.1*%
%TF.CreationDate,2026-05-06T09:57:29+05:30*%
%TF.ProjectId,ember_flight_recorder,656d6265-725f-4666-9c69-6768745f7265,rev?*%
%TF.SameCoordinates,Original*%
%TF.FileFunction,Copper,L2,Bot*%
%TF.FilePolarity,Positive*%
%FSLAX46Y46*%
G04 Gerber Fmt 4.6, Leading zero omitted, Abs format (unit mm)*
G04 Created by KiCad (PCBNEW 10.0.1) date 2026-05-06 09:57:29*
%MOMM*%
%LPD*%
G01*
G04 APERTURE LIST*
G04 Aperture macros list*
%AMRoundRect*
0 Rectangle with rounded corners*
0 $1 Rounding radius*
0 $2 $3 $4 $5 $6 $7 $8 $9 X,Y pos of 4 corners*
0 Add a 4 corners polygon primitive as box body*
4,1,4,$2,$3,$4,$5,$6,$7,$8,$9,$2,$3,0*
0 Add four circle primitives for the rounded corners*
1,1,$1+$1,$2,$3*
1,1,$1+$1,$4,$5*
1,1,$1+$1,$6,$7*
1,1,$1+$1,$8,$9*
0 Add four rect primitives between the rounded corners*
20,1,$1+$1,$2,$3,$4,$5,0*
20,1,$1+$1,$4,$5,$6,$7,0*
20,1,$1+$1,$6,$7,$8,$9,0*
20,1,$1+$1,$8,$9,$2,$3,0*%
G04 Aperture macros list end*
%TA.AperFunction,ComponentPad*%
%ADD10C,1.524000*%
%TD*%
%TA.AperFunction,ComponentPad*%
%ADD11RoundRect,0.250002X-1.499998X-1.499998X1.499998X-1.499998X1.499998X1.499998X-1.499998X1.499998X0*%
%TD*%
%TA.AperFunction,ComponentPad*%
%ADD12C,3.500000*%
%TD*%
%TA.AperFunction,ComponentPad*%
%ADD13R,1.500000X1.500000*%
%TD*%
%TA.AperFunction,ComponentPad*%
%ADD14C,1.600000*%
%TD*%
%TA.AperFunction,SMDPad,CuDef*%
%ADD15RoundRect,0.250000X-0.450000X0.350000X-0.450000X-0.350000X0.450000X-0.350000X0.450000X0.350000X0*%
%TD*%
%TA.AperFunction,SMDPad,CuDef*%
%ADD16RoundRect,0.250000X0.650000X-0.412500X0.650000X0.412500X-0.650000X0.412500X-0.650000X-0.412500X0*%
%TD*%
%TA.AperFunction,SMDPad,CuDef*%
%ADD17RoundRect,0.250000X-0.650000X0.412500X-0.650000X-0.412500X0.650000X-0.412500X0.650000X0.412500X0*%
%TD*%
%TA.AperFunction,SMDPad,CuDef*%
%ADD18RoundRect,0.250001X0.462499X1.074999X-0.462499X1.074999X-0.462499X-1.074999X0.462499X-1.074999X0*%
%TD*%
%TA.AperFunction,ViaPad*%
%ADD19C,0.900000*%
%TD*%
%TA.AperFunction,Conductor*%
%ADD20C,0.400000*%
%TD*%
%TA.AperFunction,Conductor*%
%ADD21C,1.000000*%
%TD*%
%TA.AperFunction,Conductor*%
%ADD22C,0.200000*%
%TD*%
G04 APERTURE END LIST*
D10*
%TO.P,U5,6,SDO_6*%
%TO.N,GND*%
X153753000Y-84377000D03*
%TO.P,U5,5,CSB_5*%
%TO.N,VOUT_3V3*%
X153753000Y-86917000D03*
%TO.P,U5,4,SDA_4*%
%TO.N,Net-(U4-SDA)*%
X153753000Y-89457000D03*
%TO.P,U5,3,SCL_3*%
%TO.N,Net-(U4-SCL)*%
X153753000Y-91997000D03*
%TO.P,U5,2,GND_2*%
%TO.N,GND*%
X153753000Y-94537000D03*
%TO.P,U5,1,VCC_1*%
%TO.N,VOUT_3V3*%
X153753000Y-97077000D03*
%TD*%
%TO.P,U4,1,VCC_1*%
%TO.N,VOUT_3V3*%
X131515000Y-99363000D03*
%TO.P,U4,2,GND_2*%
%TO.N,GND*%
X131515000Y-96823000D03*
%TO.P,U4,3,SCL_3*%
%TO.N,Net-(U4-SCL)*%
X131515000Y-94283000D03*
%TO.P,U4,4,SDA_4*%
%TO.N,Net-(U4-SDA)*%
X131515000Y-91743000D03*
%TO.P,U4,5,XDA_5*%
%TO.N,unconnected-(U4-XDA-Pad5)*%
X131515000Y-89203000D03*
%TO.P,U4,6,XCL_6*%
%TO.N,unconnected-(U4-XCL-Pad6)*%
X131515000Y-86663000D03*
%TO.P,U4,7,ADD_7*%
%TO.N,GND*%
X131515000Y-84123000D03*
%TO.P,U4,8,INT_8*%
%TO.N,unconnected-(U4-INT-Pad8)*%
X131515000Y-81583000D03*
%TD*%
D11*
%TO.P,BT1,1,+_1*%
%TO.N,Net-(BT1-+)*%
X139250000Y-126500000D03*
D12*
%TO.P,BT1,2,-_2*%
%TO.N,GNDPWR*%
X146250000Y-126500000D03*
%TD*%
D13*
%TO.P,SW1,1,A_1*%
%TO.N,unconnected-(SW1-A-Pad1)*%
X145790000Y-120250000D03*
D14*
%TO.P,SW1,2,B_2*%
%TO.N,GNDPWR*%
X148330000Y-120250000D03*
%TO.P,SW1,3,C_3*%
%TO.N,Net-(SW1-C)*%
X143250000Y-120250000D03*
%TD*%
D15*
%TO.P,R7,1*%
%TO.N,Net-(D5-K)*%
X144400000Y-98200000D03*
%TO.P,R7,2*%
%TO.N,GND*%
X144400000Y-100200000D03*
%TD*%
D16*
%TO.P,C3,1*%
%TO.N,Net-(Q4-S)*%
X146800000Y-113962500D03*
%TO.P,C3,2*%
%TO.N,GND*%
X146800000Y-110837500D03*
%TD*%
%TO.P,C2,1*%
%TO.N,Net-(Q4-S)*%
X150100000Y-113862500D03*
%TO.P,C2,2*%
%TO.N,GND*%
X150100000Y-110737500D03*
%TD*%
D17*
%TO.P,C5,1*%
%TO.N,VOUT_3V3*%
X138700000Y-107937500D03*
%TO.P,C5,2*%
%TO.N,GND*%
X138700000Y-111062500D03*
%TD*%
D18*
%TO.P,D5,1,K_1*%
%TO.N,Net-(D5-K)*%
X143287500Y-94600000D03*
%TO.P,D5,2,A_2*%
%TO.N,Net-(D5-A)*%
X140312500Y-94600000D03*
%TD*%
D16*
%TO.P,C6,1*%
%TO.N,VOUT_3V3*%
X142300000Y-90762500D03*
%TO.P,C6,2*%
%TO.N,GND*%
X142300000Y-87637500D03*
%TD*%
D17*
%TO.P,C4,1*%
%TO.N,VOUT_3V3*%
X136200000Y-107937500D03*
%TO.P,C4,2*%
%TO.N,GND*%
X136200000Y-111062500D03*
%TD*%
D19*
%TO.N,GND*%
X147700000Y-105900000D03*
X143750000Y-84050000D03*
X151400000Y-105900000D03*
X144600000Y-85100000D03*
X143300000Y-105900000D03*
X147600000Y-84440000D03*
%TO.N,Net-(Q4-S)*%
X139200000Y-112400000D03*
X136000000Y-116200000D03*
%TO.N,VOUT_3V3*%
X134300000Y-106200000D03*
X142700000Y-92600000D03*
X139287501Y-106187501D03*
%TO.N,Net-(U4-SDA)*%
X138600000Y-82200000D03*
%TO.N,Net-(U4-SCL)*%
X139800000Y-82400000D03*
%TO.N,Net-(D5-A)*%
X138300000Y-94600000D03*
%TD*%
%TO.N,GND*%
D20*
X150000000Y-107300000D02*
X151400000Y-105900000D01*
X134223000Y-96823000D02*
X143300000Y-105900000D01*
X150000000Y-110837500D02*
X150000000Y-107300000D01*
X143750000Y-84050000D02*
X143800000Y-84000000D01*
X146637000Y-94537000D02*
X146600000Y-94500000D01*
D21*
X146600000Y-104800000D02*
X147700000Y-105900000D01*
D20*
X131515000Y-96823000D02*
X134223000Y-96823000D01*
X142300000Y-87400000D02*
X144600000Y-85100000D01*
D21*
X147540000Y-84440000D02*
X146600000Y-85380000D01*
X146600000Y-85380000D02*
X146600000Y-94500000D01*
D20*
X138700000Y-111062500D02*
X138700000Y-110500000D01*
D21*
X146600000Y-94500000D02*
X146600000Y-104800000D01*
D20*
X146800000Y-106800000D02*
X147700000Y-105900000D01*
X131515000Y-84123000D02*
X143677000Y-84123000D01*
X143677000Y-84123000D02*
X143750000Y-84050000D01*
X142300000Y-87637500D02*
X142300000Y-87400000D01*
X144400000Y-104800000D02*
X143300000Y-105900000D01*
X138700000Y-111062500D02*
X136200000Y-111062500D01*
X153753000Y-94537000D02*
X146637000Y-94537000D01*
X138700000Y-110500000D02*
X143300000Y-105900000D01*
X144400000Y-100200000D02*
X144400000Y-104800000D01*
X146800000Y-110837500D02*
X146800000Y-106800000D01*
%TO.N,GNDPWR*%
D21*
X148330000Y-124420000D02*
X146250000Y-126500000D01*
X148330000Y-120250000D02*
X148330000Y-124420000D01*
%TO.N,Net-(Q4-S)*%
D20*
X139200000Y-113600000D02*
X136600000Y-116200000D01*
X139200000Y-113600000D02*
X139562500Y-113962500D01*
X150000000Y-113962500D02*
X146800000Y-113962500D01*
X139200000Y-112400000D02*
X139200000Y-113600000D01*
X139562500Y-113962500D02*
X146800000Y-113962500D01*
X136600000Y-116200000D02*
X136000000Y-116200000D01*
%TO.N,VOUT_3V3*%
X142300000Y-90762500D02*
X142300000Y-92200000D01*
D22*
X136200000Y-107937500D02*
X136037500Y-107937500D01*
D20*
X131515000Y-103415000D02*
X134300000Y-106200000D01*
X138700000Y-106775002D02*
X139287501Y-106187501D01*
X138700000Y-107937500D02*
X138700000Y-106775002D01*
X142300000Y-92200000D02*
X142700000Y-92600000D01*
D22*
X136037500Y-107937500D02*
X134300000Y-106200000D01*
D20*
X131515000Y-99363000D02*
X131515000Y-103415000D01*
%TO.N,Net-(U4-SDA)*%
D22*
X139150000Y-81650000D02*
X138600000Y-82200000D01*
X150500000Y-83734314D02*
X148415686Y-81650000D01*
X153753000Y-89457000D02*
X150500000Y-86204000D01*
X148415686Y-81650000D02*
X139150000Y-81650000D01*
X150500000Y-86204000D02*
X150500000Y-83734314D01*
%TO.N,Net-(U4-SCL)*%
X153753000Y-91997000D02*
X150100000Y-88344000D01*
X148600000Y-82400000D02*
X139800000Y-82400000D01*
X150100000Y-88344000D02*
X150100000Y-83900000D01*
X150100000Y-83900000D02*
X148600000Y-82400000D01*
%TO.N,Net-(D5-A)*%
D20*
X140312500Y-94600000D02*
X138300000Y-94600000D01*
%TO.N,Net-(D5-K)*%
X144400000Y-98200000D02*
X144400000Y-95712500D01*
X144400000Y-95712500D02*
X143287500Y-94600000D01*
%TD*%
%TA.AperFunction,Conductor*%
%TO.N,VOUT_3V3*%
G36*
X139763681Y-105236319D02*
G01*
X139800000Y-105324000D01*
X139800000Y-106776000D01*
X139763681Y-106863681D01*
X139676000Y-106900000D01*
X133924000Y-106900000D01*
X133836319Y-106863681D01*
X133800000Y-106776000D01*
X133800000Y-105324000D01*
X133836319Y-105236319D01*
X133924000Y-105200000D01*
X139676000Y-105200000D01*
X139763681Y-105236319D01*
G37*
%TD.AperFunction*%
%TD*%
%TA.AperFunction,Conductor*%
%TO.N,GND*%
G36*
X152363681Y-104936319D02*
G01*
X152400000Y-105024000D01*
X152400000Y-106876000D01*
X152363681Y-106963681D01*
X152276000Y-107000000D01*
X143124000Y-107000000D01*
X143036319Y-106963681D01*
X143000000Y-106876000D01*
X143000000Y-105024000D01*
X143036319Y-104936319D01*
X143124000Y-104900000D01*
X152276000Y-104900000D01*
X152363681Y-104936319D01*
G37*
%TD.AperFunction*%
%TD*%
%TA.AperFunction,Conductor*%
%TO.N,GND*%
G36*
X148063681Y-83136819D02*
G01*
X148100000Y-83224500D01*
X148100000Y-85776000D01*
X148063681Y-85863681D01*
X147976000Y-85900000D01*
X143024000Y-85900000D01*
X142936319Y-85863681D01*
X142900000Y-85776000D01*
X142900000Y-83224500D01*
X142936319Y-83136819D01*
X143024000Y-83100500D01*
X147976000Y-83100500D01*
X148063681Y-83136819D01*
G37*
%TD.AperFunction*%
%TD*%
M02*
