M48
; DRILL file KiCad 10.0.1 date 2026-05-07T18:19:05
; FORMAT={-:-/ absolute / metric / decimal}
; #@! TF.CreationDate,2026-05-07T18:19:05+05:30
; #@! TF.GenerationSoftware,Kicad,Pcbnew,10.0.1
; #@! TF.FileFunction,Plated,1,2,PTH
FMAT,2
METRIC
; #@! TA.AperFunction,Plated,PTH,ViaDrill
T1C0.400
; #@! TA.AperFunction,Plated,PTH,ComponentDrill
T2C0.762
; #@! TA.AperFunction,Plated,PTH,ComponentDrill
T3C0.800
; #@! TA.AperFunction,Plated,PTH,ComponentDrill
T4C1.600
%
G90
G05
T1
X134.3Y-106.2
X136.0Y-116.2
X138.3Y-94.6
X138.6Y-82.2
X139.2Y-112.4
X139.288Y-106.188
X139.8Y-82.4
X142.7Y-92.6
X143.3Y-105.9
X143.75Y-84.05
X144.6Y-85.1
X147.6Y-84.44
X147.7Y-105.9
X151.4Y-105.9
T2
X131.515Y-81.583
X131.515Y-84.123
X131.515Y-86.663
X131.515Y-89.203
X131.515Y-91.743
X131.515Y-94.283
X131.515Y-96.823
X131.515Y-99.363
X153.753Y-84.377
X153.753Y-86.917
X153.753Y-89.457
X153.753Y-91.997
X153.753Y-94.537
X153.753Y-97.077
T3
X143.25Y-120.25
X145.79Y-120.25
X148.33Y-120.25
T4
X139.25Y-126.5
X146.25Y-126.5
M30
