%TF.GenerationSoftware,KiCad,Pcbnew,10.0.1*%
%TF.CreationDate,2026-05-07T18:19:01+05:30*%
%TF.ProjectId,ember_flight_recorder,656d6265-725f-4666-9c69-6768745f7265,rev?*%
%TF.SameCoordinates,Original*%
%TF.FileFunction,Copper,L1,Top*%
%TF.FilePolarity,Positive*%
%FSLAX46Y46*%
G04 Gerber Fmt 4.6, Leading zero omitted, Abs format (unit mm)*
G04 Created by KiCad (PCBNEW 10.0.1) date 2026-05-07 18:19:01*
%MOMM*%
%LPD*%
G01*
G04 APERTURE LIST*
G04 Aperture macros list*
%AMRoundRect*
0 Rectangle with rounded corners*
0 $1 Rounding radius*
0 $2 $3 $4 $5 $6 $7 $8 $9 X,Y pos of 4 corners*
0 Add a 4 corners polygon primitive as box body*
4,1,4,$2,$3,$4,$5,$6,$7,$8,$9,$2,$3,0*
0 Add four circle primitives for the rounded corners*
1,1,$1+$1,$2,$3*
1,1,$1+$1,$4,$5*
1,1,$1+$1,$6,$7*
1,1,$1+$1,$8,$9*
0 Add four rect primitives between the rounded corners*
20,1,$1+$1,$2,$3,$4,$5,0*
20,1,$1+$1,$4,$5,$6,$7,0*
20,1,$1+$1,$6,$7,$8,$9,0*
20,1,$1+$1,$8,$9,$2,$3,0*%
G04 Aperture macros list end*
%TA.AperFunction,SMDPad,CuDef*%
%ADD10R,1.181100X0.558800*%
%TD*%
%TA.AperFunction,ComponentPad*%
%ADD11RoundRect,0.250002X-1.499998X-1.499998X1.499998X-1.499998X1.499998X1.499998X-1.499998X1.499998X0*%
%TD*%
%TA.AperFunction,ComponentPad*%
%ADD12C,3.500000*%
%TD*%
%TA.AperFunction,SMDPad,CuDef*%
%ADD13RoundRect,0.250000X-0.350000X-0.450000X0.350000X-0.450000X0.350000X0.450000X-0.350000X0.450000X0*%
%TD*%
%TA.AperFunction,SMDPad,CuDef*%
%ADD14RoundRect,0.150000X-0.150000X0.587500X-0.150000X-0.587500X0.150000X-0.587500X0.150000X0.587500X0*%
%TD*%
%TA.AperFunction,SMDPad,CuDef*%
%ADD15RoundRect,0.250000X0.450000X-0.350000X0.450000X0.350000X-0.450000X0.350000X-0.450000X-0.350000X0*%
%TD*%
%TA.AperFunction,SMDPad,CuDef*%
%ADD16R,3.025000X1.524000*%
%TD*%
%TA.AperFunction,SMDPad,CuDef*%
%ADD17RoundRect,0.250000X-0.650000X0.412500X-0.650000X-0.412500X0.650000X-0.412500X0.650000X0.412500X0*%
%TD*%
%TA.AperFunction,ComponentPad*%
%ADD18R,1.500000X1.500000*%
%TD*%
%TA.AperFunction,ComponentPad*%
%ADD19C,1.600000*%
%TD*%
%TA.AperFunction,SMDPad,CuDef*%
%ADD20RoundRect,0.150000X-0.512500X-0.150000X0.512500X-0.150000X0.512500X0.150000X-0.512500X0.150000X0*%
%TD*%
%TA.AperFunction,ComponentPad*%
%ADD21C,1.524000*%
%TD*%
%TA.AperFunction,ViaPad*%
%ADD22C,0.900000*%
%TD*%
%TA.AperFunction,Conductor*%
%ADD23C,0.400000*%
%TD*%
%TA.AperFunction,Conductor*%
%ADD24C,1.000000*%
%TD*%
%TA.AperFunction,Conductor*%
%ADD25C,0.200000*%
%TD*%
G04 APERTURE END LIST*
D10*
%TO.P,Q3,1,1_1*%
%TO.N,Net-(SW1-C)*%
X141017100Y-113900000D03*
%TO.P,Q3,2,2_2*%
%TO.N,unconnected-(Q3-Pad2)*%
X141017100Y-114850001D03*
%TO.P,Q3,3,3_3*%
%TO.N,GND*%
X141017100Y-115800002D03*
%TO.P,Q3,4,4_4*%
%TO.N,Net-(U2-OC)*%
X143900000Y-115800002D03*
%TO.P,Q3,5,5_5*%
%TO.N,unconnected-(Q3-Pad5)*%
X143900000Y-114850001D03*
%TO.P,Q3,6,6_6*%
%TO.N,Net-(U2-OD)*%
X143900000Y-113900000D03*
%TD*%
D11*
%TO.P,BT1,1,+_1*%
%TO.N,Net-(BT1-+)*%
X139250000Y-126500000D03*
D12*
%TO.P,BT1,2,-_2*%
%TO.N,GNDPWR*%
X146250000Y-126500000D03*
%TD*%
D13*
%TO.P,R5,1*%
%TO.N,Net-(Q4-S)*%
X143300000Y-109500000D03*
%TO.P,R5,2*%
%TO.N,Net-(U2-VCC)*%
X145300000Y-109500000D03*
%TD*%
D14*
%TO.P,Q4,1,G_1*%
%TO.N,GNDPWR*%
X136950000Y-119025000D03*
%TO.P,Q4,2,S_2*%
%TO.N,Net-(Q4-S)*%
X135050000Y-119025000D03*
%TO.P,Q4,3,D_3*%
%TO.N,Net-(BT1-+)*%
X136000000Y-120900000D03*
%TD*%
D15*
%TO.P,R6,1*%
%TO.N,Net-(U2-CS)*%
X152800000Y-112900000D03*
%TO.P,R6,2*%
%TO.N,GND*%
X152800000Y-110900000D03*
%TD*%
D16*
%TO.P,U6,0,GPIO0_0*%
%TO.N,unconnected-(U6-GPIO0-Pad0)*%
X150685000Y-99680000D03*
%TO.P,U6,1,GPIO1_1*%
%TO.N,unconnected-(U6-GPIO1-Pad1)*%
X150685000Y-97140000D03*
%TO.P,U6,2,GPIO2_2*%
%TO.N,unconnected-(U6-GPIO2-Pad2)*%
X150685000Y-94600000D03*
%TO.P,U6,3,GPIO3_3*%
%TO.N,unconnected-(U6-GPIO3-Pad3)*%
X150685000Y-92060000D03*
%TO.P,U6,3.3,3V3_3.3*%
%TO.N,VOUT_3V3*%
X150685000Y-86980000D03*
%TO.P,U6,4,GPIO4_4*%
%TO.N,unconnected-(U6-GPIO4-Pad4)*%
X150685000Y-89520000D03*
%TO.P,U6,5,GPIO5_5*%
%TO.N,unconnected-(U6-GPIO5-Pad5)*%
X134715000Y-81900000D03*
%TO.P,U6,5V,5V_5V*%
%TO.N,unconnected-(U6-Pad5V)*%
X150685000Y-81900000D03*
%TO.P,U6,6,GPIO6_6*%
%TO.N,unconnected-(U6-GPIO6-Pad6)*%
X134715000Y-84440000D03*
%TO.P,U6,7,GPIO7_7*%
%TO.N,unconnected-(U6-GPIO7-Pad7)*%
X134715000Y-86980000D03*
%TO.P,U6,8,GPIO8_8*%
%TO.N,Net-(U4-SDA)*%
X134715000Y-89520000D03*
%TO.P,U6,9,GPIO9_9*%
%TO.N,Net-(U4-SCL)*%
X134715000Y-92060000D03*
%TO.P,U6,10,GPIO10_10*%
%TO.N,Net-(D5-A)*%
X134715000Y-94600000D03*
%TO.P,U6,20,GPIO20_20*%
%TO.N,unconnected-(U6-GPIO20-Pad20)*%
X134715000Y-97140000D03*
%TO.P,U6,21,GPIO21_21*%
%TO.N,unconnected-(U6-GPIO21-Pad21)*%
X134715000Y-99680000D03*
%TO.P,U6,G,GND_G*%
%TO.N,GND*%
X150685000Y-84440000D03*
%TD*%
D17*
%TO.P,C1,1*%
%TO.N,Net-(U2-VCC)*%
X149700000Y-108237500D03*
%TO.P,C1,2*%
%TO.N,Net-(SW1-C)*%
X149700000Y-111362500D03*
%TD*%
D18*
%TO.P,SW1,1,A_1*%
%TO.N,unconnected-(SW1-A-Pad1)*%
X145790000Y-120250000D03*
D19*
%TO.P,SW1,2,B_2*%
%TO.N,GNDPWR*%
X148330000Y-120250000D03*
%TO.P,SW1,3,C_3*%
%TO.N,Net-(SW1-C)*%
X143250000Y-120250000D03*
%TD*%
D14*
%TO.P,U3,1,GND_1*%
%TO.N,GND*%
X135950000Y-112162500D03*
%TO.P,U3,2,VO_2*%
%TO.N,VOUT_3V3*%
X134050000Y-112162500D03*
%TO.P,U3,3,VI_3*%
%TO.N,Net-(Q4-S)*%
X135000000Y-114037500D03*
%TD*%
D20*
%TO.P,U2,1,OD_1*%
%TO.N,Net-(U2-OD)*%
X147421050Y-113900001D03*
%TO.P,U2,2,CS_2*%
%TO.N,Net-(U2-CS)*%
X147421050Y-114850001D03*
%TO.P,U2,3,OC_3*%
%TO.N,Net-(U2-OC)*%
X147421050Y-115800001D03*
%TO.P,U2,4,TD_4*%
%TO.N,unconnected-(U2-TD-Pad4)*%
X149696050Y-115800001D03*
%TO.P,U2,5,VCC_5*%
%TO.N,Net-(U2-VCC)*%
X149696050Y-114850001D03*
%TO.P,U2,6,GND_6*%
%TO.N,Net-(SW1-C)*%
X149696050Y-113900001D03*
%TD*%
D21*
%TO.P,U5,1,VCC_1*%
%TO.N,VOUT_3V3*%
X153753000Y-97077000D03*
%TO.P,U5,2,GND_2*%
%TO.N,GND*%
X153753000Y-94537000D03*
%TO.P,U5,3,SCL_3*%
%TO.N,Net-(U4-SCL)*%
X153753000Y-91997000D03*
%TO.P,U5,4,SDA_4*%
%TO.N,Net-(U4-SDA)*%
X153753000Y-89457000D03*
%TO.P,U5,5,CSB_5*%
%TO.N,VOUT_3V3*%
X153753000Y-86917000D03*
%TO.P,U5,6,SDO_6*%
%TO.N,GND*%
X153753000Y-84377000D03*
%TD*%
%TO.P,U4,1,VCC_1*%
%TO.N,VOUT_3V3*%
X131515000Y-99363000D03*
%TO.P,U4,2,GND_2*%
%TO.N,GND*%
X131515000Y-96823000D03*
%TO.P,U4,3,SCL_3*%
%TO.N,Net-(U4-SCL)*%
X131515000Y-94283000D03*
%TO.P,U4,4,SDA_4*%
%TO.N,Net-(U4-SDA)*%
X131515000Y-91743000D03*
%TO.P,U4,5,XDA_5*%
%TO.N,unconnected-(U4-XDA-Pad5)*%
X131515000Y-89203000D03*
%TO.P,U4,6,XCL_6*%
%TO.N,unconnected-(U4-XCL-Pad6)*%
X131515000Y-86663000D03*
%TO.P,U4,7,ADD_7*%
%TO.N,GND*%
X131515000Y-84123000D03*
%TO.P,U4,8,INT_8*%
%TO.N,unconnected-(U4-INT-Pad8)*%
X131515000Y-81583000D03*
%TD*%
D22*
%TO.N,GND*%
X147700000Y-105900000D03*
X143750000Y-84050000D03*
X151400000Y-105900000D03*
X144600000Y-85100000D03*
X143300000Y-105900000D03*
X147600000Y-84440000D03*
%TO.N,Net-(Q4-S)*%
X139200000Y-112400000D03*
X136000000Y-116200000D03*
%TO.N,VOUT_3V3*%
X134300000Y-106200000D03*
X142700000Y-92600000D03*
X139287501Y-106187501D03*
%TO.N,Net-(U4-SDA)*%
X138600000Y-82200000D03*
%TO.N,Net-(U4-SCL)*%
X139800000Y-82400000D03*
%TO.N,Net-(D5-A)*%
X138300000Y-94600000D03*
%TD*%
%TO.N,Net-(SW1-C)*%
D23*
X143250000Y-120250000D02*
X142708550Y-119708550D01*
X142708550Y-119708550D02*
X142708550Y-114871501D01*
X149700000Y-113896051D02*
X149696050Y-113900001D01*
X141737049Y-113900000D02*
X142708550Y-114871501D01*
X149700000Y-111362500D02*
X149700000Y-113896051D01*
X141017100Y-113900000D02*
X141737049Y-113900000D01*
X148346050Y-112550001D02*
X143580049Y-112550001D01*
X143580049Y-112550001D02*
X142708550Y-113421500D01*
X149696050Y-113900001D02*
X148346050Y-112550001D01*
X142708550Y-113421500D02*
X142708550Y-114871501D01*
%TO.N,GND*%
D24*
X147600000Y-84440000D02*
X147540000Y-84440000D01*
X142212500Y-105900000D02*
X143300000Y-105900000D01*
D23*
X150748000Y-84377000D02*
X150685000Y-84440000D01*
D24*
X135950000Y-112162500D02*
X142212500Y-105900000D01*
X135950000Y-112162500D02*
X139616901Y-115829401D01*
D23*
X152800000Y-110900000D02*
X152800000Y-107300000D01*
X153753000Y-84377000D02*
X150748000Y-84377000D01*
X152800000Y-107300000D02*
X151400000Y-105900000D01*
D24*
X150685000Y-84440000D02*
X147600000Y-84440000D01*
D23*
X140967101Y-115850001D02*
X141017100Y-115800002D01*
D24*
X139616901Y-115829401D02*
X141017100Y-115829401D01*
%TO.N,Net-(U2-OC)*%
D23*
X147421050Y-115800001D02*
X143900000Y-115800002D01*
%TO.N,Net-(U2-OD)*%
X147421050Y-113900001D02*
X143900000Y-113900000D01*
%TO.N,Net-(BT1-+)*%
D24*
X136000000Y-120900000D02*
X136000000Y-123250000D01*
X136000000Y-123250000D02*
X139250000Y-126500000D01*
%TO.N,GNDPWR*%
D23*
X144425000Y-126500000D02*
X146250000Y-126500000D01*
X136950000Y-119025000D02*
X144425000Y-126500000D01*
%TO.N,Net-(Q4-S)*%
D24*
X135000000Y-114037500D02*
X135000000Y-116200000D01*
X135000000Y-118975000D02*
X135050000Y-119025000D01*
X135000000Y-116200000D02*
X135000000Y-118975000D01*
D23*
X142100000Y-109500000D02*
X139200000Y-112400000D01*
X136000000Y-116200000D02*
X135000000Y-116200000D01*
X143300000Y-109500000D02*
X142100000Y-109500000D01*
%TO.N,Net-(U2-VCC)*%
X151300000Y-113908550D02*
X150358549Y-114850001D01*
X149700000Y-108237500D02*
X151300000Y-109837500D01*
X145300000Y-109500000D02*
X148437500Y-109500000D01*
X150358549Y-114850001D02*
X149696050Y-114850001D01*
X148437500Y-109500000D02*
X149700000Y-108237500D01*
X151300000Y-109837500D02*
X151300000Y-113908550D01*
%TO.N,Net-(U2-CS)*%
X147421050Y-114850001D02*
X148083549Y-114850001D01*
X148633550Y-115400002D02*
X148633550Y-116933550D01*
X151700000Y-117200000D02*
X152800000Y-116100000D01*
X152800000Y-116100000D02*
X152800000Y-112900000D01*
X148083549Y-114850001D02*
X148633550Y-115400002D01*
X148900000Y-117200000D02*
X151700000Y-117200000D01*
X148633550Y-116933550D02*
X148900000Y-117200000D01*
%TO.N,VOUT_3V3*%
D24*
X144333001Y-92197499D02*
X149550500Y-86980000D01*
D23*
X150748000Y-86917000D02*
X150685000Y-86980000D01*
X152387501Y-102187501D02*
X143287501Y-102187501D01*
D24*
X143287501Y-102187501D02*
X144333001Y-101142000D01*
X144333001Y-92700000D02*
X144333001Y-92197499D01*
D23*
X153753000Y-100822002D02*
X152387501Y-102187501D01*
D24*
X134050000Y-112162500D02*
X134050000Y-111425001D01*
X139287501Y-106187501D02*
X143287501Y-102187501D01*
D23*
X144233001Y-92600000D02*
X144333001Y-92700000D01*
X153753000Y-86917000D02*
X150748000Y-86917000D01*
X153753000Y-97077000D02*
X153753000Y-100822002D01*
D24*
X134050000Y-111425001D02*
X139287501Y-106187501D01*
D23*
X142700000Y-92600000D02*
X144233001Y-92600000D01*
D24*
X144333001Y-101142000D02*
X144333001Y-92700000D01*
X149550500Y-86980000D02*
X150685000Y-86980000D01*
%TO.N,Net-(U4-SDA)*%
D25*
X138600000Y-82200000D02*
X138600000Y-85969500D01*
X135049500Y-89520000D02*
X134715000Y-89520000D01*
D23*
X133738000Y-89520000D02*
X134715000Y-89520000D01*
D25*
X138600000Y-85969500D02*
X135049500Y-89520000D01*
D23*
X131515000Y-91743000D02*
X133738000Y-89520000D01*
%TO.N,Net-(U4-SCL)*%
D25*
X139800000Y-82400000D02*
X139800000Y-87309500D01*
D23*
X131515000Y-94283000D02*
X133738000Y-92060000D01*
D25*
X139800000Y-87309500D02*
X135049500Y-92060000D01*
D23*
X133738000Y-92060000D02*
X134715000Y-92060000D01*
D25*
X135049500Y-92060000D02*
X134715000Y-92060000D01*
%TO.N,Net-(D5-A)*%
D23*
X138300000Y-94600000D02*
X134715000Y-94600000D01*
%TD*%
%TA.AperFunction,Conductor*%
%TO.N,VOUT_3V3*%
G36*
X139698787Y-105209438D02*
G01*
X139716228Y-105216663D01*
X139733670Y-105234104D01*
X139739016Y-105236319D01*
X139741230Y-105241664D01*
X139783334Y-105283767D01*
X139790559Y-105301208D01*
X139800000Y-105348665D01*
X139800000Y-106302462D01*
X139763681Y-106390143D01*
X139290143Y-106863681D01*
X139202462Y-106900000D01*
X138195542Y-106900000D01*
X138107861Y-106863681D01*
X138071542Y-106776000D01*
X138107861Y-106688319D01*
X139559861Y-105236319D01*
X139647542Y-105200000D01*
X139651335Y-105200000D01*
X139698787Y-105209438D01*
G37*
%TD.AperFunction*%
%TA.AperFunction,Conductor*%
G36*
X134408321Y-105779439D02*
G01*
X134520789Y-105826025D01*
X134561017Y-105852905D01*
X134647095Y-105938983D01*
X134673975Y-105979211D01*
X134720560Y-106091677D01*
X134720561Y-106091678D01*
X134730000Y-106139131D01*
X134730000Y-106260867D01*
X134720561Y-106308320D01*
X134673975Y-106420787D01*
X134647095Y-106461015D01*
X134561015Y-106547095D01*
X134520788Y-106573975D01*
X134478455Y-106591510D01*
X134408320Y-106620561D01*
X134360869Y-106630000D01*
X134239131Y-106630000D01*
X134191678Y-106620561D01*
X134079211Y-106573975D01*
X134038983Y-106547095D01*
X133952903Y-106461015D01*
X133926023Y-106420786D01*
X133879439Y-106308321D01*
X133870000Y-106260869D01*
X133870000Y-106139129D01*
X133879439Y-106091677D01*
X133926023Y-105979211D01*
X133952900Y-105938985D01*
X134038985Y-105852900D01*
X134079209Y-105826024D01*
X134191677Y-105779439D01*
X134239129Y-105770000D01*
X134360868Y-105770000D01*
X134408321Y-105779439D01*
G37*
%TD.AperFunction*%
%TD*%
%TA.AperFunction,Conductor*%
%TO.N,GND*%
G36*
X148698534Y-80586819D02*
G01*
X148734853Y-80674500D01*
X148713955Y-80743391D01*
X148606841Y-80903698D01*
X148606840Y-80903699D01*
X148572000Y-81078854D01*
X148572000Y-82721138D01*
X148606842Y-82896304D01*
X148743989Y-83101558D01*
X148762504Y-83194640D01*
X148743989Y-83239340D01*
X148607312Y-83443891D01*
X148607310Y-83443895D01*
X148572500Y-83618898D01*
X148572500Y-85261094D01*
X148607312Y-85436110D01*
X148743988Y-85640661D01*
X148762503Y-85733743D01*
X148743989Y-85778441D01*
X148711941Y-85826405D01*
X148646094Y-85924953D01*
X148606841Y-85983699D01*
X148606840Y-85983699D01*
X148572000Y-86158854D01*
X148572000Y-86350795D01*
X148535681Y-86438476D01*
X143709618Y-91264540D01*
X143400043Y-91574114D01*
X143400040Y-91574118D01*
X143384279Y-91612169D01*
X143317170Y-91679277D01*
X143222266Y-91679276D01*
X142908959Y-91549500D01*
X142908958Y-91549500D01*
X142491042Y-91549500D01*
X142491040Y-91549500D01*
X142104938Y-91709429D01*
X141809429Y-92004938D01*
X141649500Y-92391040D01*
X141649500Y-92808959D01*
X141751954Y-93056305D01*
X141809429Y-93195061D01*
X142104939Y-93490571D01*
X142491042Y-93650500D01*
X142491044Y-93650500D01*
X142908956Y-93650500D01*
X142908958Y-93650500D01*
X143061049Y-93587502D01*
X143155954Y-93587502D01*
X143223062Y-93654610D01*
X143232501Y-93702063D01*
X143232501Y-100634795D01*
X143196182Y-100722476D01*
X142664118Y-101254542D01*
X138664118Y-105254542D01*
X133409176Y-110509482D01*
X133117041Y-110801617D01*
X132949500Y-111206096D01*
X132949500Y-112381404D01*
X133117041Y-112785883D01*
X133121518Y-112790360D01*
X133155454Y-112853850D01*
X133193043Y-113042828D01*
X133193044Y-113042829D01*
X133193044Y-113042830D01*
X133193045Y-113042831D01*
X133358920Y-113291080D01*
X133607169Y-113456955D01*
X133607172Y-113456955D01*
X133607173Y-113456956D01*
X133716626Y-113478727D01*
X133826083Y-113500500D01*
X133845677Y-113500499D01*
X133933358Y-113536814D01*
X133969680Y-113624494D01*
X133960241Y-113671951D01*
X133899501Y-113818593D01*
X133899500Y-113818598D01*
X133899500Y-119193904D01*
X134067041Y-119598383D01*
X134121518Y-119652860D01*
X134155454Y-119716350D01*
X134193043Y-119905328D01*
X134193044Y-119905329D01*
X134193044Y-119905330D01*
X134193045Y-119905331D01*
X134358920Y-120153580D01*
X134607169Y-120319455D01*
X134607172Y-120319455D01*
X134607173Y-120319456D01*
X134716626Y-120341227D01*
X134826083Y-120363000D01*
X134845677Y-120362999D01*
X134933358Y-120399314D01*
X134969680Y-120486994D01*
X134960241Y-120534451D01*
X134899501Y-120681093D01*
X134899500Y-120681098D01*
X134899500Y-123468904D01*
X135067041Y-123873383D01*
X136863181Y-125669523D01*
X136899500Y-125757204D01*
X136899500Y-128083762D01*
X136899501Y-128083766D01*
X136948846Y-128331847D01*
X137136824Y-128613176D01*
X137418151Y-128801152D01*
X137418155Y-128801154D01*
X137603377Y-128837996D01*
X137666237Y-128850500D01*
X140833762Y-128850499D01*
X141081847Y-128801153D01*
X141363176Y-128613176D01*
X141551153Y-128331847D01*
X141600500Y-128083763D01*
X141600499Y-125106938D01*
X141636818Y-125019258D01*
X141724499Y-124982939D01*
X141812180Y-125019258D01*
X143980188Y-127187267D01*
X143976918Y-127190536D01*
X144016360Y-127245578D01*
X144059684Y-127407263D01*
X144293622Y-127812453D01*
X144369132Y-127943241D01*
X144806759Y-128380868D01*
X145342741Y-128690317D01*
X145940551Y-128850500D01*
X145940554Y-128850500D01*
X146559446Y-128850500D01*
X146559449Y-128850500D01*
X147157259Y-128690317D01*
X147693241Y-128380868D01*
X148130868Y-127943241D01*
X148440317Y-127407259D01*
X148600500Y-126809449D01*
X148600500Y-126190551D01*
X148440317Y-125592741D01*
X148130868Y-125056759D01*
X147693241Y-124619132D01*
X147157261Y-124309684D01*
X147157260Y-124309683D01*
X147007806Y-124269637D01*
X146559449Y-124149500D01*
X145940551Y-124149500D01*
X145581865Y-124245609D01*
X145342739Y-124309683D01*
X145342738Y-124309684D01*
X144806757Y-124619133D01*
X144369134Y-125056756D01*
X144369127Y-125056765D01*
X144356486Y-125078661D01*
X144281192Y-125136435D01*
X144187099Y-125124046D01*
X144161419Y-125104341D01*
X137886818Y-118829740D01*
X137850499Y-118742059D01*
X137850499Y-118363583D01*
X137850498Y-118363579D01*
X137806956Y-118144671D01*
X137806955Y-118144670D01*
X137806955Y-118144669D01*
X137641080Y-117896420D01*
X137392831Y-117730545D01*
X137392829Y-117730544D01*
X137392826Y-117730543D01*
X137173920Y-117687000D01*
X136726083Y-117687000D01*
X136726079Y-117687001D01*
X136507171Y-117730543D01*
X136507170Y-117730544D01*
X136293391Y-117873387D01*
X136200309Y-117891902D01*
X136121398Y-117839176D01*
X136100500Y-117770285D01*
X136100500Y-117373837D01*
X136136819Y-117286156D01*
X136200314Y-117252219D01*
X136208957Y-117250500D01*
X136208958Y-117250500D01*
X136595061Y-117090571D01*
X136890571Y-116795061D01*
X137050500Y-116408958D01*
X137050500Y-115991042D01*
X136890571Y-115604939D01*
X136595061Y-115309429D01*
X136577343Y-115302090D01*
X136208955Y-115149498D01*
X136200309Y-115147779D01*
X136121398Y-115095053D01*
X136100500Y-115026162D01*
X136100500Y-113818598D01*
X136100499Y-113818595D01*
X136039551Y-113671453D01*
X136039551Y-113576547D01*
X136106659Y-113509439D01*
X136154112Y-113500000D01*
X136173868Y-113500000D01*
X136173870Y-113499999D01*
X136392632Y-113456485D01*
X136392636Y-113456483D01*
X136640719Y-113290720D01*
X136640720Y-113290719D01*
X136806483Y-113042636D01*
X136806485Y-113042632D01*
X136849999Y-112823870D01*
X136850000Y-112823868D01*
X136850000Y-112191040D01*
X138149500Y-112191040D01*
X138149500Y-112608959D01*
X138256811Y-112868030D01*
X138309429Y-112995061D01*
X138604939Y-113290571D01*
X138991042Y-113450500D01*
X138991044Y-113450500D01*
X139408956Y-113450500D01*
X139408958Y-113450500D01*
X139673228Y-113341036D01*
X139768129Y-113341036D01*
X139835238Y-113408144D01*
X139842295Y-113479787D01*
X139826050Y-113561459D01*
X139826050Y-114238539D01*
X139848381Y-114350809D01*
X139848381Y-114399188D01*
X139826050Y-114511461D01*
X139826050Y-115188539D01*
X139848636Y-115302090D01*
X139848635Y-115350471D01*
X139826550Y-115461500D01*
X139826550Y-116138496D01*
X139861362Y-116313510D01*
X139993974Y-116511977D01*
X140192441Y-116644589D01*
X140192445Y-116644591D01*
X140367450Y-116679401D01*
X141666746Y-116679401D01*
X141666749Y-116679400D01*
X141759859Y-116660880D01*
X141852941Y-116679395D01*
X141905667Y-116758306D01*
X141908050Y-116782497D01*
X141908050Y-119830783D01*
X141903825Y-119862876D01*
X141849500Y-120065621D01*
X141849500Y-120434379D01*
X141944942Y-120790573D01*
X142129321Y-121109927D01*
X142390073Y-121370679D01*
X142709427Y-121555058D01*
X143065621Y-121650500D01*
X143065623Y-121650500D01*
X143434376Y-121650500D01*
X143434379Y-121650500D01*
X143790573Y-121555058D01*
X144109927Y-121370679D01*
X144276327Y-121204278D01*
X144364007Y-121167960D01*
X144451688Y-121204279D01*
X144465764Y-121225344D01*
X144467556Y-121224148D01*
X144537021Y-121328109D01*
X144607064Y-121432936D01*
X144805697Y-121565658D01*
X144805698Y-121565658D01*
X144805699Y-121565659D01*
X144936475Y-121591671D01*
X144980859Y-121600500D01*
X146599140Y-121600499D01*
X146774303Y-121565658D01*
X146972936Y-121432936D01*
X147105658Y-121234303D01*
X147105658Y-121234302D01*
X147112443Y-121224148D01*
X147118066Y-121227905D01*
X147168416Y-121177449D01*
X147263321Y-121177347D01*
X147303672Y-121204278D01*
X147470073Y-121370679D01*
X147789427Y-121555058D01*
X148145621Y-121650500D01*
X148145623Y-121650500D01*
X148514376Y-121650500D01*
X148514379Y-121650500D01*
X148870573Y-121555058D01*
X149189927Y-121370679D01*
X149450679Y-121109927D01*
X149635058Y-120790573D01*
X149730500Y-120434379D01*
X149730500Y-120065621D01*
X149635058Y-119709427D01*
X149450679Y-119390073D01*
X149189927Y-119129321D01*
X148870573Y-118944942D01*
X148514379Y-118849500D01*
X148145621Y-118849500D01*
X147789427Y-118944942D01*
X147789425Y-118944943D01*
X147789424Y-118944943D01*
X147470076Y-119129319D01*
X147470070Y-119129323D01*
X147303673Y-119295720D01*
X147215992Y-119332039D01*
X147128311Y-119295720D01*
X147114239Y-119274652D01*
X147112444Y-119275852D01*
X147014536Y-119129323D01*
X146972936Y-119067064D01*
X146774303Y-118934342D01*
X146774302Y-118934341D01*
X146774301Y-118934341D01*
X146774300Y-118934340D01*
X146599144Y-118899500D01*
X144980861Y-118899500D01*
X144805695Y-118934342D01*
X144607064Y-119067064D01*
X144522313Y-119193904D01*
X144467557Y-119275852D01*
X144461955Y-119272108D01*
X144411455Y-119322603D01*
X144316549Y-119322599D01*
X144276327Y-119295721D01*
X144109929Y-119129323D01*
X144109927Y-119129321D01*
X143790575Y-118944943D01*
X143790574Y-118944942D01*
X143600956Y-118894134D01*
X143525663Y-118836359D01*
X143509050Y-118774359D01*
X143509050Y-116803901D01*
X143545369Y-116716220D01*
X143633050Y-116679901D01*
X144549689Y-116679901D01*
X144549690Y-116679901D01*
X144724853Y-116645060D01*
X144760264Y-116621399D01*
X144829155Y-116600501D01*
X146493613Y-116600501D01*
X146562502Y-116621397D01*
X146615719Y-116656956D01*
X146615721Y-116656956D01*
X146615723Y-116656957D01*
X146725176Y-116678728D01*
X146834633Y-116700501D01*
X147709050Y-116700500D01*
X147796731Y-116736819D01*
X147833050Y-116824500D01*
X147833050Y-117092779D01*
X147954919Y-117386997D01*
X148446553Y-117878631D01*
X148740771Y-118000500D01*
X148740773Y-118000500D01*
X151859227Y-118000500D01*
X151859229Y-118000500D01*
X152153447Y-117878631D01*
X153478631Y-116553447D01*
X153600500Y-116259229D01*
X153600500Y-115940771D01*
X153600500Y-114104969D01*
X153636819Y-114017288D01*
X153655606Y-114001869D01*
X153863176Y-113863176D01*
X154051153Y-113581849D01*
X154100500Y-113333765D01*
X154100499Y-112466236D01*
X154083625Y-112381403D01*
X154051154Y-112218153D01*
X154051153Y-112218152D01*
X154051153Y-112218151D01*
X153884302Y-111968441D01*
X153865787Y-111875359D01*
X153884302Y-111830660D01*
X154050681Y-111581654D01*
X154050683Y-111581650D01*
X154099999Y-111333719D01*
X154099999Y-110466285D01*
X154099998Y-110466281D01*
X154050682Y-110218346D01*
X153862815Y-109937183D01*
X153581654Y-109749318D01*
X153581650Y-109749316D01*
X153333718Y-109700000D01*
X152266285Y-109700000D01*
X152221241Y-109708960D01*
X152128159Y-109690443D01*
X152082492Y-109634796D01*
X151978631Y-109384053D01*
X151753447Y-109158869D01*
X151236818Y-108642240D01*
X151200499Y-108554559D01*
X151200499Y-107741235D01*
X151200498Y-107741231D01*
X151151154Y-107493153D01*
X151151153Y-107493152D01*
X151151153Y-107493151D01*
X150963176Y-107211824D01*
X150681849Y-107023847D01*
X150681848Y-107023846D01*
X150681847Y-107023846D01*
X150681846Y-107023845D01*
X150433768Y-106974500D01*
X148966235Y-106974500D01*
X148966231Y-106974501D01*
X148718153Y-107023845D01*
X148718152Y-107023846D01*
X148436824Y-107211824D01*
X148248846Y-107493152D01*
X148248845Y-107493153D01*
X148199500Y-107741230D01*
X148199500Y-108554558D01*
X148163183Y-108642237D01*
X148142242Y-108663179D01*
X148054562Y-108699500D01*
X146504970Y-108699500D01*
X146417289Y-108663181D01*
X146401868Y-108644391D01*
X146341844Y-108554559D01*
X146263176Y-108436824D01*
X145981849Y-108248847D01*
X145981848Y-108248846D01*
X145981847Y-108248846D01*
X145981846Y-108248845D01*
X145733767Y-108199500D01*
X144866235Y-108199500D01*
X144866231Y-108199501D01*
X144618153Y-108248845D01*
X144618152Y-108248846D01*
X144368891Y-108415397D01*
X144275809Y-108433912D01*
X144231109Y-108415397D01*
X144084489Y-108317429D01*
X143981849Y-108248847D01*
X143981848Y-108248846D01*
X143981847Y-108248846D01*
X143981846Y-108248845D01*
X143733767Y-108199500D01*
X142866235Y-108199500D01*
X142866231Y-108199501D01*
X142618153Y-108248845D01*
X142618152Y-108248846D01*
X142618151Y-108248847D01*
X142336824Y-108436824D01*
X142258157Y-108554558D01*
X142198132Y-108644391D01*
X142119221Y-108697117D01*
X142095030Y-108699500D01*
X141940769Y-108699500D01*
X141646552Y-108821369D01*
X141646551Y-108821370D01*
X139154741Y-111313181D01*
X139067060Y-111349500D01*
X138991040Y-111349500D01*
X138604938Y-111509429D01*
X138309429Y-111804938D01*
X138149500Y-112191040D01*
X136850000Y-112191040D01*
X136850000Y-111501131D01*
X136849999Y-111501129D01*
X136806485Y-111282367D01*
X136806483Y-111282363D01*
X136640720Y-111034280D01*
X136640719Y-111034279D01*
X136382481Y-110861731D01*
X136385928Y-110856571D01*
X136334471Y-110805096D01*
X136334487Y-110710191D01*
X136361354Y-110669988D01*
X140220460Y-106810884D01*
X143910883Y-103120460D01*
X143910885Y-103120460D01*
X144007026Y-103024319D01*
X144043344Y-103009275D01*
X144094706Y-102988001D01*
X152546728Y-102988001D01*
X152546730Y-102988001D01*
X152840948Y-102866132D01*
X154431631Y-101275449D01*
X154553500Y-100981231D01*
X154553500Y-100662773D01*
X154553500Y-98254728D01*
X154589819Y-98167047D01*
X154687819Y-98069047D01*
X154775500Y-98032728D01*
X154863181Y-98069047D01*
X154899500Y-98156728D01*
X154899500Y-129825500D01*
X154863181Y-129913181D01*
X154775500Y-129949500D01*
X130624500Y-129949500D01*
X130536819Y-129913181D01*
X130500500Y-129825500D01*
X130500500Y-105991040D01*
X133249500Y-105991040D01*
X133249500Y-105991042D01*
X133249500Y-106408958D01*
X133409429Y-106795061D01*
X133704939Y-107090571D01*
X134091042Y-107250500D01*
X134091044Y-107250500D01*
X134508956Y-107250500D01*
X134508958Y-107250500D01*
X134895061Y-107090571D01*
X135190571Y-106795061D01*
X135350500Y-106408958D01*
X135350500Y-105991042D01*
X135190571Y-105604939D01*
X134895061Y-105309429D01*
X134762552Y-105254542D01*
X134508959Y-105149500D01*
X134508958Y-105149500D01*
X134091042Y-105149500D01*
X134091040Y-105149500D01*
X133704938Y-105309429D01*
X133409429Y-105604938D01*
X133249500Y-105991040D01*
X130500500Y-105991040D01*
X130500500Y-100565331D01*
X130536819Y-100477650D01*
X130624500Y-100441331D01*
X130686497Y-100457943D01*
X130989095Y-100632648D01*
X131335623Y-100725500D01*
X131335625Y-100725500D01*
X131694374Y-100725500D01*
X131694377Y-100725500D01*
X132040905Y-100632648D01*
X132351595Y-100453271D01*
X132390320Y-100414545D01*
X132477997Y-100378226D01*
X132565679Y-100414543D01*
X132599141Y-100495301D01*
X132601404Y-100495079D01*
X132602000Y-100501136D01*
X132636842Y-100676304D01*
X132669714Y-100725500D01*
X132769564Y-100874936D01*
X132968197Y-101007658D01*
X132968198Y-101007658D01*
X132968199Y-101007659D01*
X133098975Y-101033671D01*
X133143359Y-101042500D01*
X136286640Y-101042499D01*
X136461803Y-101007658D01*
X136660436Y-100874936D01*
X136793158Y-100676303D01*
X136795850Y-100662773D01*
X136827999Y-100501145D01*
X136828000Y-100501141D01*
X136827999Y-98858860D01*
X136793158Y-98683697D01*
X136793157Y-98683696D01*
X136793157Y-98683694D01*
X136656311Y-98478890D01*
X136637796Y-98385808D01*
X136656311Y-98341108D01*
X136660434Y-98334937D01*
X136660436Y-98334936D01*
X136793158Y-98136303D01*
X136795446Y-98124804D01*
X136827999Y-97961145D01*
X136828000Y-97961141D01*
X136827999Y-96318860D01*
X136793158Y-96143697D01*
X136793157Y-96143696D01*
X136793157Y-96143694D01*
X136656311Y-95938890D01*
X136637796Y-95845808D01*
X136656311Y-95801108D01*
X136660434Y-95794937D01*
X136660436Y-95794936D01*
X136793158Y-95596303D01*
X136793159Y-95596300D01*
X136812253Y-95500309D01*
X136864979Y-95421398D01*
X136933870Y-95400500D01*
X137563506Y-95400500D01*
X137651187Y-95436819D01*
X137704939Y-95490571D01*
X138091042Y-95650500D01*
X138091044Y-95650500D01*
X138508956Y-95650500D01*
X138508958Y-95650500D01*
X138895061Y-95490571D01*
X139190571Y-95195061D01*
X139350500Y-94808958D01*
X139350500Y-94391042D01*
X139190571Y-94004939D01*
X138895061Y-93709429D01*
X138752794Y-93650500D01*
X138508959Y-93549500D01*
X138508958Y-93549500D01*
X138091042Y-93549500D01*
X138091040Y-93549500D01*
X137704938Y-93709429D01*
X137704937Y-93709430D01*
X137651187Y-93763181D01*
X137563506Y-93799500D01*
X136933869Y-93799500D01*
X136846188Y-93763181D01*
X136812251Y-93699691D01*
X136793158Y-93603697D01*
X136793157Y-93603696D01*
X136793157Y-93603694D01*
X136656311Y-93398890D01*
X136637796Y-93305808D01*
X136656311Y-93261108D01*
X136660434Y-93254937D01*
X136660436Y-93254936D01*
X136793158Y-93056303D01*
X136793238Y-93055905D01*
X136827999Y-92881145D01*
X136828000Y-92881141D01*
X136827999Y-91323516D01*
X136864317Y-91235837D01*
X140184880Y-87915275D01*
X140184888Y-87915269D01*
X140196800Y-87903356D01*
X140196802Y-87903356D01*
X140393856Y-87706302D01*
X140393856Y-87706300D01*
X140393858Y-87706299D01*
X140448091Y-87575366D01*
X140481348Y-87495076D01*
X140500501Y-87448838D01*
X140500501Y-87170161D01*
X140500501Y-87160172D01*
X140500500Y-87160158D01*
X140500500Y-83236494D01*
X140536819Y-83148813D01*
X140590696Y-83094936D01*
X140690571Y-82995061D01*
X140850500Y-82608958D01*
X140850500Y-82191042D01*
X140690571Y-81804939D01*
X140395061Y-81509429D01*
X140184076Y-81422036D01*
X140008959Y-81349500D01*
X140008958Y-81349500D01*
X139591042Y-81349500D01*
X139591040Y-81349500D01*
X139591038Y-81349501D01*
X139415921Y-81422036D01*
X139321016Y-81422036D01*
X139280788Y-81395156D01*
X139195061Y-81309429D01*
X138808959Y-81149500D01*
X138808958Y-81149500D01*
X138391042Y-81149500D01*
X138391040Y-81149500D01*
X138004938Y-81309429D01*
X137709429Y-81604938D01*
X137549500Y-81991040D01*
X137549500Y-82408959D01*
X137709429Y-82795061D01*
X137863181Y-82948813D01*
X137899500Y-83036494D01*
X137899500Y-85627981D01*
X137863181Y-85715662D01*
X137039680Y-86539163D01*
X136951999Y-86575482D01*
X136864318Y-86539163D01*
X136827999Y-86451482D01*
X136827999Y-86158861D01*
X136793157Y-85983694D01*
X136656311Y-85778890D01*
X136637796Y-85685808D01*
X136656311Y-85641108D01*
X136660434Y-85634937D01*
X136660436Y-85634936D01*
X136793158Y-85436303D01*
X136793197Y-85436110D01*
X136827999Y-85261145D01*
X136828000Y-85261141D01*
X136827999Y-83618860D01*
X136793158Y-83443697D01*
X136793157Y-83443696D01*
X136793157Y-83443694D01*
X136656311Y-83238890D01*
X136637796Y-83145808D01*
X136656311Y-83101108D01*
X136660434Y-83094937D01*
X136660436Y-83094936D01*
X136793158Y-82896303D01*
X136795331Y-82885382D01*
X136827999Y-82721145D01*
X136828000Y-82721141D01*
X136827999Y-81078860D01*
X136793158Y-80903697D01*
X136686044Y-80743390D01*
X136667530Y-80650309D01*
X136720256Y-80571398D01*
X136789147Y-80550500D01*
X148610853Y-80550500D01*
X148698534Y-80586819D01*
G37*
%TD.AperFunction*%
%TD*%
M02*
