v 12.0 0.0 3.000021
v 11.966447 0.89676106 3.000021
v 11.86597 1.7885072 3.000021
v 11.699135 2.6702514 3.000021
v 11.466874 3.537062 3.000021
v 11.1704855 4.3840923 3.000021
v 10.811626 5.206605 3.000021
v 10.392304 6.0 3.000021
v 9.914865 6.7598405 3.000021
v 9.381978 7.481878 3.000021
v 8.796623 8.162073 3.000021
v 8.162073 8.796623 3.000021
v 7.481878 9.381978 3.000021
v 6.7598405 9.914865 3.000021
v 6.0 10.392304 3.000021
v 5.206605 10.811626 3.000021
v 4.3840923 11.1704855 3.000021
v 3.537062 11.466874 3.000021
v 2.6702514 11.699135 3.000021
v 1.7885072 11.86597 3.000021
v 0.89676106 11.966447 3.000021
v 7.347881E-16 12.0 3.000021
v -0.89676106 11.966447 3.000021
v -1.7885072 11.86597 3.000021
v -2.6702514 11.699135 3.000021
v -3.537062 11.466874 3.000021
v -4.3840923 11.1704855 3.000021
v -5.206605 10.811626 3.000021
v -6.0 10.392304 3.000021
v -6.7598405 9.914865 3.000021
v -7.481878 9.381978 3.000021
v -8.162073 8.796623 3.000021
v -8.796623 8.162073 3.000021
v -9.381978 7.481878 3.000021
v -9.914865 6.7598405 3.000021
v -10.392304 6.0 3.000021
v -10.811626 5.206605 3.000021
v -11.1704855 4.3840923 3.000021
v -11.466874 3.537062 3.000021
v -11.699135 2.6702514 3.000021
v -11.86597 1.7885072 3.000021
v -11.966447 0.89676106 3.000021
v -12.0 1.4695762E-15 3.000021
v -11.966447 -0.89676106 3.000021
v -11.86597 -1.7885072 3.000021
v -11.699135 -2.6702514 3.000021
v -11.466874 -3.537062 3.000021
v -11.1704855 -4.3840923 3.000021
v -10.811626 -5.206605 3.000021
v -10.392304 -6.0 3.000021
v -9.914865 -6.7598405 3.000021
v -9.381978 -7.481878 3.000021
v -8.796623 -8.162073 3.000021
v -8.162073 -8.796623 3.000021
v -7.481878 -9.381978 3.000021
v -6.7598405 -9.914865 3.000021
v -6.0 -10.392304 3.000021
v -5.206605 -10.811626 3.000021
v -4.3840923 -11.1704855 3.000021
v -3.537062 -11.466874 3.000021
v -2.6702514 -11.699135 3.000021
v -1.7885072 -11.86597 3.000021
v -0.89676106 -11.966447 3.000021
v -2.204364E-15 -12.0 3.000021
v 0.89676106 -11.966447 3.000021
v 1.7885072 -11.86597 3.000021
v 2.6702514 -11.699135 3.000021
v 3.537062 -11.466874 3.000021
v 4.3840923 -11.1704855 3.000021
v 5.206605 -10.811626 3.000021
v 6.0 -10.392304 3.000021
v 6.7598405 -9.914865 3.000021
v 7.481878 -9.381978 3.000021
v 8.162073 -8.796623 3.000021
v 8.796623 -8.162073 3.000021
v 9.381978 -7.481878 3.000021
v 9.914865 -6.7598405 3.000021
v 10.392304 -6.0 3.000021
v 10.811626 -5.206605 3.000021
v 11.1704855 -4.3840923 3.000021
v 11.466874 -3.537062 3.000021
v 11.699135 -2.6702514 3.000021
v 11.86597 -1.7885072 3.000021
v 11.966447 -0.89676106 3.000021
v 12.0 0.0 0.0
v 11.966447 0.89676106 0.0
v 11.86597 1.7885072 0.0
v 11.699135 2.6702514 0.0
v 11.466874 3.537062 0.0
v 11.1704855 4.3840923 0.0
v 10.811626 5.206605 0.0
v 10.392304 6.0 0.0
v 9.914865 6.7598405 0.0
v 9.381978 7.481878 0.0
v 8.796623 8.162073 0.0
v 8.162073 8.796623 0.0
v 7.481878 9.381978 0.0
v 6.7598405 9.914865 0.0
v 6.0 10.392304 0.0
v 5.206605 10.811626 0.0
v 4.3840923 11.1704855 0.0
v 3.537062 11.466874 0.0
v 2.6702514 11.699135 0.0
v 1.7885072 11.86597 0.0
v 0.89676106 11.966447 0.0
v 7.347881E-16 12.0 0.0
v -0.89676106 11.966447 0.0
v -1.7885072 11.86597 0.0
v -2.6702514 11.699135 0.0
v -3.537062 11.466874 0.0
v -4.3840923 11.1704855 0.0
v -5.206605 10.811626 0.0
v -6.0 10.392304 0.0
v -6.7598405 9.914865 0.0
v -7.481878 9.381978 0.0
v -8.162073 8.796623 0.0
v -8.796623 8.162073 0.0
v -9.381978 7.481878 0.0
v -9.914865 6.7598405 0.0
v -10.392304 6.0 0.0
v -10.811626 5.206605 0.0
v -11.1704855 4.3840923 0.0
v -11.466874 3.537062 0.0
v -11.699135 2.6702514 0.0
v -11.86597 1.7885072 0.0
v -11.966447 0.89676106 0.0
v -12.0 1.4695762E-15 0.0
v -11.966447 -0.89676106 0.0
v -11.86597 -1.7885072 0.0
v -11.699135 -2.6702514 0.0
v -11.466874 -3.537062 0.0
v -11.1704855 -4.3840923 0.0
v -10.811626 -5.206605 0.0
v -10.392304 -6.0 0.0
v -9.914865 -6.7598405 0.0
v -9.381978 -7.481878 0.0
v -8.796623 -8.162073 0.0
v -8.162073 -8.796623 0.0
v -7.481878 -9.381978 0.0
v -6.7598405 -9.914865 0.0
v -6.0 -10.392304 0.0
v -5.206605 -10.811626 0.0
v -4.3840923 -11.1704855 0.0
v -3.537062 -11.466874 0.0
v -2.6702514 -11.699135 0.0
v -1.7885072 -11.86597 0.0
v -0.89676106 -11.966447 0.0
v -2.204364E-15 -12.0 0.0
v 0.89676106 -11.966447 0.0
v 1.7885072 -11.86597 0.0
v 2.6702514 -11.699135 0.0
v 3.537062 -11.466874 0.0
v 4.3840923 -11.1704855 0.0
v 5.206605 -10.811626 0.0
v 6.0 -10.392304 0.0
v 6.7598405 -9.914865 0.0
v 7.481878 -9.381978 0.0
v 8.162073 -8.796623 0.0
v 8.796623 -8.162073 0.0
v 9.381978 -7.481878 0.0
v 9.914865 -6.7598405 0.0
v 10.392304 -6.0 0.0
v 10.811626 -5.206605 0.0
v 11.1704855 -4.3840923 0.0
v 11.466874 -3.537062 0.0
v 11.699135 -2.6702514 0.0
v 11.86597 -1.7885072 0.0
v 11.966447 -0.89676106 0.0
v 19.050001 0.0 3.000021
v 18.996733 1.4236083 3.000021
v 18.837227 2.839255 3.000021
v 18.572376 4.2390237 3.000021
v 18.203661 5.6150856 3.000021
v 17.733145 6.959747 3.000021
v 17.163458 8.265485 3.000021
v 16.497784 9.525001 3.000021
v 15.739849 10.731247 3.000021
v 14.89389 11.8774805 3.000021
v 13.964639 12.957291 3.000021
v 12.957291 13.964639 3.000021
v 11.8774805 14.89389 3.000021
v 10.731247 15.739849 3.000021
v 9.525001 16.497784 3.000021
v 8.265485 17.163458 3.000021
v 6.959747 17.733145 3.000021
v 5.6150856 18.203661 3.000021
v 4.2390237 18.572376 3.000021
v 2.839255 18.837227 3.000021
v 1.4236083 18.996733 3.000021
v 1.1664762E-15 19.050001 3.000021
v -1.4236083 18.996733 3.000021
v -2.839255 18.837227 3.000021
v -4.2390237 18.572376 3.000021
v -5.6150856 18.203661 3.000021
v -6.959747 17.733145 3.000021
v -8.265485 17.163458 3.000021
v -9.525001 16.497784 3.000021
v -10.731247 15.739849 3.000021
v -11.8774805 14.89389 3.000021
v -12.957291 13.964639 3.000021
v -13.964639 12.957291 3.000021
v -14.89389 11.8774805 3.000021
v -15.739849 10.731247 3.000021
v -16.497784 9.525001 3.000021
v -17.163458 8.265485 3.000021
v -17.733145 6.959747 3.000021
v -18.203661 5.6150856 3.000021
v -18.572376 4.2390237 3.000021
v -18.837227 2.839255 3.000021
v -18.996733 1.4236083 3.000021
v -19.050001 2.3329524E-15 3.000021
v -18.996733 -1.4236083 3.000021
v -18.837227 -2.839255 3.000021
v -18.572376 -4.2390237 3.000021
v -18.203661 -5.6150856 3.000021
v -17.733145 -6.959747 3.000021
v -17.163458 -8.265485 3.000021
v -16.497784 -9.525001 3.000021
v -15.739849 -10.731247 3.000021
v -14.89389 -11.8774805 3.000021
v -13.964639 -12.957291 3.000021
v -12.957291 -13.964639 3.000021
v -11.8774805 -14.89389 3.000021
v -10.731247 -15.739849 3.000021
v -9.525001 -16.497784 3.000021
v -8.265485 -17.163458 3.000021
v -6.959747 -17.733145 3.000021
v -5.6150856 -18.203661 3.000021
v -4.2390237 -18.572376 3.000021
v -2.839255 -18.837227 3.000021
v -1.4236083 -18.996733 3.000021
v -3.4994281E-15 -19.050001 3.000021
v 1.4236083 -18.996733 3.000021
v 2.839255 -18.837227 3.000021
v 4.2390237 -18.572376 3.000021
v 5.6150856 -18.203661 3.000021
v 6.959747 -17.733145 3.000021
v 8.265485 -17.163458 3.000021
v 9.525001 -16.497784 3.000021
v 10.731247 -15.739849 3.000021
v 11.8774805 -14.89389 3.000021
v 12.957291 -13.964639 3.000021
v 13.964639 -12.957291 3.000021
v 14.89389 -11.8774805 3.000021
v 15.739849 -10.731247 3.000021
v 16.497784 -9.525001 3.000021
v 17.163458 -8.265485 3.000021
v 17.733145 -6.959747 3.000021
v 18.203661 -5.6150856 3.000021
v 18.572376 -4.2390237 3.000021
v 18.837227 -2.839255 3.000021
v 18.996733 -1.4236083 3.000021
v 19.050001 0.0 0.0
v 18.996733 1.4236083 0.0
v 18.837227 2.839255 0.0
v 18.572376 4.2390237 0.0
v 18.203661 5.6150856 0.0
v 17.733145 6.959747 0.0
v 17.163458 8.265485 0.0
v 16.497784 9.525001 0.0
v 15.739849 10.731247 0.0
v 14.89389 11.8774805 0.0
v 13.964639 12.957291 0.0
v 12.957291 13.964639 0.0
v 11.8774805 14.89389 0.0
v 10.731247 15.739849 0.0
v 9.525001 16.497784 0.0
v 8.265485 17.163458 0.0
v 6.959747 17.733145 0.0
v 5.6150856 18.203661 0.0
v 4.2390237 18.572376 0.0
v 2.839255 18.837227 0.0
v 1.4236083 18.996733 0.0
v 1.1664762E-15 19.050001 0.0
v -1.4236083 18.996733 0.0
v -2.839255 18.837227 0.0
v -4.2390237 18.572376 0.0
v -5.6150856 18.203661 0.0
v -6.959747 17.733145 0.0
v -8.265485 17.163458 0.0
v -9.525001 16.497784 0.0
v -10.731247 15.739849 0.0
v -11.8774805 14.89389 0.0
v -12.957291 13.964639 0.0
v -13.964639 12.957291 0.0
v -14.89389 11.8774805 0.0
v -15.739849 10.731247 0.0
v -16.497784 9.525001 0.0
v -17.163458 8.265485 0.0
v -17.733145 6.959747 0.0
v -18.203661 5.6150856 0.0
v -18.572376 4.2390237 0.0
v -18.837227 2.839255 0.0
v -18.996733 1.4236083 0.0
v -19.050001 2.3329524E-15 0.0
v -18.996733 -1.4236083 0.0
v -18.837227 -2.839255 0.0
v -18.572376 -4.2390237 0.0
v -18.203661 -5.6150856 0.0
v -17.733145 -6.959747 0.0
v -17.163458 -8.265485 0.0
v -16.497784 -9.525001 0.0
v -15.739849 -10.731247 0.0
v -14.89389 -11.8774805 0.0
v -13.964639 -12.957291 0.0
v -12.957291 -13.964639 0.0
v -11.8774805 -14.89389 0.0
v -10.731247 -15.739849 0.0
v -9.525001 -16.497784 0.0
v -8.265485 -17.163458 0.0
v -6.959747 -17.733145 0.0
v -5.6150856 -18.203661 0.0
v -4.2390237 -18.572376 0.0
v -2.839255 -18.837227 0.0
v -1.4236083 -18.996733 0.0
v -3.4994281E-15 -19.050001 0.0
v 1.4236083 -18.996733 0.0
v 2.839255 -18.837227 0.0
v 4.2390237 -18.572376 0.0
v 5.6150856 -18.203661 0.0
v 6.959747 -17.733145 0.0
v 8.265485 -17.163458 0.0
v 9.525001 -16.497784 0.0
v 10.731247 -15.739849 0.0
v 11.8774805 -14.89389 0.0
v 12.957291 -13.964639 0.0
v 13.964639 -12.957291 0.0
v 14.89389 -11.8774805 0.0
v 15.739849 -10.731247 0.0
v 16.497784 -9.525001 0.0
v 17.163458 -8.265485 0.0
v 17.733145 -6.959747 0.0
v 18.203661 -5.6150856 0.0
v 18.572376 -4.2390237 0.0
v 18.837227 -2.839255 0.0
v 18.996733 -1.4236083 0.0
vt 0.0 0.0
vt 0.011904762 0.0
vt 0.023809524 0.0
vt 0.035714287 0.0
vt 0.04761905 0.0
vt 0.05952381 0.0
vt 0.071428575 0.0
vt 0.083333336 0.0
vt 0.0952381 0.0
vt 0.10714286 0.0
vt 0.11904762 0.0
vt 0.13095239 0.0
vt 0.14285715 0.0
vt 0.15476191 0.0
vt 0.16666667 0.0
vt 0.17857143 0.0
vt 0.1904762 0.0
vt 0.20238096 0.0
vt 0.21428572 0.0
vt 0.22619048 0.0
vt 0.23809524 0.0
vt 0.25 0.0
vt 0.26190478 0.0
vt 0.27380952 0.0
vt 0.2857143 0.0
vt 0.29761904 0.0
vt 0.30952382 0.0
vt 0.32142857 0.0
vt 0.33333334 0.0
vt 0.3452381 0.0
vt 0.35714287 0.0
vt 0.3690476 0.0
vt 0.3809524 0.0
vt 0.39285713 0.0
vt 0.4047619 0.0
vt 0.41666666 0.0
vt 0.42857143 0.0
vt 0.44047618 0.0
vt 0.45238096 0.0
vt 0.4642857 0.0
vt 0.47619048 0.0
vt 0.48809522 0.0
vt 0.5 0.0
vt 0.5119048 0.0
vt 0.52380955 0.0
vt 0.53571427 0.0
vt 0.54761904 0.0
vt 0.5595238 0.0
vt 0.5714286 0.0
vt 0.5833333 0.0
vt 0.5952381 0.0
vt 0.60714287 0.0
vt 0.61904764 0.0
vt 0.63095236 0.0
vt 0.64285713 0.0
vt 0.6547619 0.0
vt 0.6666667 0.0
vt 0.6785714 0.0
vt 0.6904762 0.0
vt 0.70238096 0.0
vt 0.71428573 0.0
vt 0.72619045 0.0
vt 0.7380952 0.0
vt 0.75 0.0
vt 0.7619048 0.0
vt 0.77380955 0.0
vt 0.78571427 0.0
vt 0.79761904 0.0
vt 0.8095238 0.0
vt 0.8214286 0.0
vt 0.8333333 0.0
vt 0.8452381 0.0
vt 0.85714287 0.0
vt 0.86904764 0.0
vt 0.88095236 0.0
vt 0.89285713 0.0
vt 0.9047619 0.0
vt 0.9166667 0.0
vt 0.9285714 0.0
vt 0.9404762 0.0
vt 0.95238096 0.0
vt 0.96428573 0.0
vt 0.97619045 0.0
vt 0.9880952 0.0
vt 1.0 0.0
vt 0.0 1.0
vt 0.011904762 1.0
vt 0.023809524 1.0
vt 0.035714287 1.0
vt 0.04761905 1.0
vt 0.05952381 1.0
vt 0.071428575 1.0
vt 0.083333336 1.0
vt 0.0952381 1.0
vt 0.10714286 1.0
vt 0.11904762 1.0
vt 0.13095239 1.0
vt 0.14285715 1.0
vt 0.15476191 1.0
vt 0.16666667 1.0
vt 0.17857143 1.0
vt 0.1904762 1.0
vt 0.20238096 1.0
vt 0.21428572 1.0
vt 0.22619048 1.0
vt 0.23809524 1.0
vt 0.25 1.0
vt 0.26190478 1.0
vt 0.27380952 1.0
vt 0.2857143 1.0
vt 0.29761904 1.0
vt 0.30952382 1.0
vt 0.32142857 1.0
vt 0.33333334 1.0
vt 0.3452381 1.0
vt 0.35714287 1.0
vt 0.3690476 1.0
vt 0.3809524 1.0
vt 0.39285713 1.0
vt 0.4047619 1.0
vt 0.41666666 1.0
vt 0.42857143 1.0
vt 0.44047618 1.0
vt 0.45238096 1.0
vt 0.4642857 1.0
vt 0.47619048 1.0
vt 0.48809522 1.0
vt 0.5 1.0
vt 0.5119048 1.0
vt 0.52380955 1.0
vt 0.53571427 1.0
vt 0.54761904 1.0
vt 0.5595238 1.0
vt 0.5714286 1.0
vt 0.5833333 1.0
vt 0.5952381 1.0
vt 0.60714287 1.0
vt 0.61904764 1.0
vt 0.63095236 1.0
vt 0.64285713 1.0
vt 0.6547619 1.0
vt 0.6666667 1.0
vt 0.6785714 1.0
vt 0.6904762 1.0
vt 0.70238096 1.0
vt 0.71428573 1.0
vt 0.72619045 1.0
vt 0.7380952 1.0
vt 0.75 1.0
vt 0.7619048 1.0
vt 0.77380955 1.0
vt 0.78571427 1.0
vt 0.79761904 1.0
vt 0.8095238 1.0
vt 0.8214286 1.0
vt 0.8333333 1.0
vt 0.8452381 1.0
vt 0.85714287 1.0
vt 0.86904764 1.0
vt 0.88095236 1.0
vt 0.89285713 1.0
vt 0.9047619 1.0
vt 0.9166667 1.0
vt 0.9285714 1.0
vt 0.9404762 1.0
vt 0.95238096 1.0
vt 0.96428573 1.0
vt 0.97619045 1.0
vt 0.9880952 1.0
vt 1.0 1.0
vt 0.0 1.0
vt 0.011904762 1.0
vt 0.023809524 1.0
vt 0.035714287 1.0
vt 0.04761905 1.0
vt 0.05952381 1.0
vt 0.071428575 1.0
vt 0.083333336 1.0
vt 0.0952381 1.0
vt 0.10714286 1.0
vt 0.11904762 1.0
vt 0.13095239 1.0
vt 0.14285715 1.0
vt 0.15476191 1.0
vt 0.16666667 1.0
vt 0.17857143 1.0
vt 0.1904762 1.0
vt 0.20238096 1.0
vt 0.21428572 1.0
vt 0.22619048 1.0
vt 0.23809524 1.0
vt 0.25 1.0
vt 0.26190478 1.0
vt 0.27380952 1.0
vt 0.2857143 1.0
vt 0.29761904 1.0
vt 0.30952382 1.0
vt 0.32142857 1.0
vt 0.33333334 1.0
vt 0.3452381 1.0
vt 0.35714287 1.0
vt 0.3690476 1.0
vt 0.3809524 1.0
vt 0.39285713 1.0
vt 0.4047619 1.0
vt 0.41666666 1.0
vt 0.42857143 1.0
vt 0.44047618 1.0
vt 0.45238096 1.0
vt 0.4642857 1.0
vt 0.47619048 1.0
vt 0.48809522 1.0
vt 0.5 1.0
vt 0.5119048 1.0
vt 0.52380955 1.0
vt 0.53571427 1.0
vt 0.54761904 1.0
vt 0.5595238 1.0
vt 0.5714286 1.0
vt 0.5833333 1.0
vt 0.5952381 1.0
vt 0.60714287 1.0
vt 0.61904764 1.0
vt 0.63095236 1.0
vt 0.64285713 1.0
vt 0.6547619 1.0
vt 0.6666667 1.0
vt 0.6785714 1.0
vt 0.6904762 1.0
vt 0.70238096 1.0
vt 0.71428573 1.0
vt 0.72619045 1.0
vt 0.7380952 1.0
vt 0.75 1.0
vt 0.7619048 1.0
vt 0.77380955 1.0
vt 0.78571427 1.0
vt 0.79761904 1.0
vt 0.8095238 1.0
vt 0.8214286 1.0
vt 0.8333333 1.0
vt 0.8452381 1.0
vt 0.85714287 1.0
vt 0.86904764 1.0
vt 0.88095236 1.0
vt 0.89285713 1.0
vt 0.9047619 1.0
vt 0.9166667 1.0
vt 0.9285714 1.0
vt 0.9404762 1.0
vt 0.95238096 1.0
vt 0.96428573 1.0
vt 0.97619045 1.0
vt 0.9880952 1.0
vt 1.0 1.0
vt 0.0 0.0
vt 0.011904762 0.0
vt 0.023809524 0.0
vt 0.035714287 0.0
vt 0.04761905 0.0
vt 0.05952381 0.0
vt 0.071428575 0.0
vt 0.083333336 0.0
vt 0.0952381 0.0
vt 0.10714286 0.0
vt 0.11904762 0.0
vt 0.13095239 0.0
vt 0.14285715 0.0
vt 0.15476191 0.0
vt 0.16666667 0.0
vt 0.17857143 0.0
vt 0.1904762 0.0
vt 0.20238096 0.0
vt 0.21428572 0.0
vt 0.22619048 0.0
vt 0.23809524 0.0
vt 0.25 0.0
vt 0.26190478 0.0
vt 0.27380952 0.0
vt 0.2857143 0.0
vt 0.29761904 0.0
vt 0.30952382 0.0
vt 0.32142857 0.0
vt 0.33333334 0.0
vt 0.3452381 0.0
vt 0.35714287 0.0
vt 0.3690476 0.0
vt 0.3809524 0.0
vt 0.39285713 0.0
vt 0.4047619 0.0
vt 0.41666666 0.0
vt 0.42857143 0.0
vt 0.44047618 0.0
vt 0.45238096 0.0
vt 0.4642857 0.0
vt 0.47619048 0.0
vt 0.48809522 0.0
vt 0.5 0.0
vt 0.5119048 0.0
vt 0.52380955 0.0
vt 0.53571427 0.0
vt 0.54761904 0.0
vt 0.5595238 0.0
vt 0.5714286 0.0
vt 0.5833333 0.0
vt 0.5952381 0.0
vt 0.60714287 0.0
vt 0.61904764 0.0
vt 0.63095236 0.0
vt 0.64285713 0.0
vt 0.6547619 0.0
vt 0.6666667 0.0
vt 0.6785714 0.0
vt 0.6904762 0.0
vt 0.70238096 0.0
vt 0.71428573 0.0
vt 0.72619045 0.0
vt 0.7380952 0.0
vt 0.75 0.0
vt 0.7619048 0.0
vt 0.77380955 0.0
vt 0.78571427 0.0
vt 0.79761904 0.0
vt 0.8095238 0.0
vt 0.8214286 0.0
vt 0.8333333 0.0
vt 0.8452381 0.0
vt 0.85714287 0.0
vt 0.86904764 0.0
vt 0.88095236 0.0
vt 0.89285713 0.0
vt 0.9047619 0.0
vt 0.9166667 0.0
vt 0.9285714 0.0
vt 0.9404762 0.0
vt 0.95238096 0.0
vt 0.96428573 0.0
vt 0.97619045 0.0
vt 0.9880952 0.0
vt 1.0 0.0
vt 0.0 0.0
vt 0.0 0.0
vt 0.0 0.0
vt 0.0 0.0
vt 0.0 0.0
vt 0.0 0.0
vt 0.0 0.0
vt 0.0 0.0
vt 0.0 0.0
vt 0.0 0.0
vt 0.0 0.0
vt 0.0 0.0
vt 0.0 0.0
vt 0.0 0.0
vt 0.0 0.0
vt 0.0 0.0
vt 0.0 0.0
vt 0.0 0.0
vt 0.0 0.0
vt 0.0 0.0
vt 0.0 0.0
vt 0.0 0.0
vt 0.0 0.0
vt 0.0 0.0
vt 0.0 0.0
vt 0.0 0.0
vt 0.0 0.0
vt 0.0 0.0
vt 0.0 0.0
vt 0.0 0.0
vt 0.0 0.0
vt 0.0 0.0
vt 0.0 0.0
vt 0.0 0.0
vt 0.0 0.0
vt 0.0 0.0
vt 0.0 0.0
vt 0.0 0.0
vt 0.0 0.0
vt 0.0 0.0
vt 0.0 0.0
vt 0.0 0.0
vt 0.0 0.0
vt 0.0 0.0
vt 0.0 0.0
vt 0.0 0.0
vt 0.0 0.0
vt 0.0 0.0
vt 0.0 0.0
vt 0.0 0.0
vt 0.0 0.0
vt 0.0 0.0
vt 0.0 0.0
vt 0.0 0.0
vt 0.0 0.0
vt 0.0 0.0
vt 0.0 0.0
vt 0.0 0.0
vt 0.0 0.0
vt 0.0 0.0
vt 0.0 0.0
vt 0.0 0.0
vt 0.0 0.0
vt 0.0 0.0
vt 0.0 0.0
vt 0.0 0.0
vt 0.0 0.0
vt 0.0 0.0
vt 0.0 0.0
vt 0.0 0.0
vt 0.0 0.0
vt 0.0 0.0
vt 0.0 0.0
vt 0.0 0.0
vt 0.0 0.0
vt 0.0 0.0
vt 0.0 0.0
vt 0.0 0.0
vt 0.0 0.0
vt 0.0 0.0
vt 0.0 0.0
vt 0.0 0.0
vt 0.0 0.0
vt 0.0 0.0
vt 0.0 0.0
vt 0.0 0.0
vt 0.0 0.0
vt 0.0 0.0
vt 0.0 0.0
vt 0.0 0.0
vt 0.0 0.0
vt 0.0 0.0
vt 0.0 0.0
vt 0.0 0.0
vt 0.0 0.0
vt 0.0 0.0
vt 0.0 0.0
vt 0.0 0.0
vt 0.0 0.0
vt 0.0 0.0
vt 0.0 0.0
vt 0.0 0.0
vt 0.0 0.0
vt 0.0 0.0
vt 0.0 0.0
vt 0.0 0.0
vt 0.0 0.0
vt 0.0 0.0
vt 0.0 0.0
vt 0.0 0.0
vt 0.0 0.0
vt 0.0 0.0
vt 0.0 0.0
vt 0.0 0.0
vt 0.0 0.0
vt 0.0 0.0
vt 0.0 0.0
vt 0.0 0.0
vt 0.0 0.0
vt 0.0 0.0
vt 0.0 0.0
vt 0.0 0.0
vt 0.0 0.0
vt 0.0 0.0
vt 0.0 0.0
vt 0.0 0.0
vt 0.0 0.0
vt 0.0 0.0
vt 0.0 0.0
vt 0.0 0.0
vt 0.0 0.0
vt 0.0 0.0
vt 0.0 0.0
vt 0.0 0.0
vt 0.0 0.0
vt 0.0 0.0
vt 0.0 0.0
vt 0.0 0.0
vt 0.0 0.0
vt 0.0 0.0
vt 0.0 0.0
vt 0.0 0.0
vt 0.0 0.0
vt 0.0 0.0
vt 0.0 0.0
vt 0.0 0.0
vt 0.0 0.0
vt 0.0 0.0
vt 0.0 0.0
vt 0.0 0.0
vt 0.0 0.0
vt 0.0 0.0
vt 0.0 0.0
vt 0.0 0.0
vt 0.0 0.0
vt 0.0 0.0
vt 0.0 0.0
vt 0.0 0.0
vt 0.0 0.0
vt 0.0 0.0
vt 0.0 0.0
vt 0.0 0.0
vt 0.0 0.0
vt 0.0 0.0
vt 0.0 0.0
vt 0.0 0.0
vt 0.0 0.0
vt 0.0 0.0
vt 0.0 0.0
vt 0.0 0.0
vt 0.0 0.0
vt 0.0 0.0
vt 0.0 0.0
vt 0.0 0.0
vt 0.0 0.0
vt 0.0 0.0
vt 0.0 0.0
vt 0.0 0.0
vt 0.0 0.0
vt 0.0 0.0
vt 0.0 0.0
vt 0.0 0.0
vt 0.0 0.0
vt 0.0 0.0
vt 0.0 0.0
vt 0.0 0.0
vt 0.0 0.0
vt 0.0 0.0
vt 0.0 0.0
vt 0.0 0.0
vt 0.0 0.0
vt 0.0 0.0
vt 0.0 0.0
vt 0.0 0.0
vt 0.0 0.0
vt 0.0 0.0
vt 0.0 0.0
vt 0.0 0.0
vt 0.0 0.0
vt 0.0 0.0
vt 0.0 0.0
vt 0.0 0.0
vt 0.0 0.0
vt 0.0 0.0
vt 0.0 0.0
vt 0.0 0.0
vt 0.0 0.0
vt 0.0 0.0
vt 0.0 0.0
vt 0.0 0.0
vt 0.0 0.0
vt 0.0 0.0
vt 0.0 0.0
vt 0.0 0.0
vt 0.0 0.0
vt 0.0 0.0
vt 0.0 0.0
vt 0.0 0.0
vt 0.0 0.0
vt 0.0 0.0
vt 0.0 0.0
vt 0.0 0.0
vt 0.0 0.0
vt 0.0 0.0
vt 0.0 0.0
vt 0.0 0.0
vt 0.0 0.0
vt 0.0 0.0
vt 0.0 0.0
vt 0.0 0.0
vt 0.0 0.0
vt 0.0 0.0
vt 0.0 0.0
vt 0.0 0.0
vt 0.0 0.0
vt 0.0 0.0
vt 0.0 0.0
vt 0.0 0.0
vt 0.0 0.0
vt 0.0 0.0
vt 0.0 0.0
vt 0.0 0.0
vt 0.0 0.0
vt 0.0 0.0
vt 0.0 0.0
vt 0.0 0.0
vt 0.0 0.0
vt 0.0 0.0
vt 0.0 0.0
vt 0.0 0.0
vt 0.0 0.0
vt 0.0 0.0
vt 0.0 0.0
vt 0.0 0.0
vt 0.0 0.0
vt 0.0 0.0
vt 0.0 0.0
vt 0.0 0.0
vt 0.0 0.0
vt 0.0 0.0
vt 0.0 0.0
vt 0.0 0.0
vt 0.0 0.0
vt 0.0 0.0
vt 0.0 0.0
vt 0.0 0.0
vt 0.0 0.0
vt 0.0 0.0
vt 0.0 0.0
vt 0.0 0.0
vt 0.0 0.0
vt 0.0 0.0
vt 0.0 0.0
vt 0.0 0.0
vt 0.0 0.0
vt 0.0 0.0
vt 0.0 0.0
vt 0.0 0.0
vt 0.0 0.0
vt 0.0 0.0
vt 0.0 0.0
vt 0.0 0.0
vt 0.0 0.0
vt 0.0 0.0
vt 0.0 0.0
vt 0.0 0.0
vt 0.0 0.0
vt 0.0 0.0
vt 0.0 0.0
vt 0.0 0.0
vt 0.0 0.0
vt 0.0 0.0
vt 0.0 0.0
vt 0.0 0.0
vt 0.0 0.0
vt 0.0 0.0
vt 0.0 0.0
vt 0.0 0.0
vt 0.0 0.0
vt 0.0 0.0
vt 0.0 0.0
vt 0.0 0.0
vt 0.0 0.0
vt 0.0 0.0
vt 0.0 0.0
vt 0.0 0.0
vt 0.0 0.0
vt 0.0 0.0
vt 0.0 0.0
vt 0.0 0.0
vt 0.0 0.0
vt 0.0 0.0
vt 0.0 0.0
vt 0.0 0.0
vt 0.0 0.0
vt 0.0 0.0
vt 0.0 0.0
vt 0.0 0.0
vt 0.0 0.0
vt 0.0 0.0
vt 0.0 0.0
vt 0.0 0.0
vt 0.0 0.0
vt 0.0 0.0
vt 0.0 0.0
vt 0.0 0.0
vt 0.0 0.0
vt 0.0 0.0
vt 0.0 0.0
vt 0.0 0.0
vt 0.0 0.0
vt 0.0 0.0
vt 0.0 0.0
vt 0.0 0.0
vt 0.0 0.0
vt 0.0 0.0
vt 0.0 0.0
vt 0.0 0.0
vt 0.0 0.0
vt 0.0 0.0
vn -1.0 0.0 0.0
vn -0.9972038 -0.07473009 0.0
vn -0.98883086 -0.14904228 0.0
vn -0.97492796 -0.22252095 0.0
vn -0.95557284 -0.2947552 0.0
vn -0.93087375 -0.36534104 0.0
vn -0.9009689 -0.43388376 0.0
vn -0.8660254 -0.5 0.0
vn -0.8262388 -0.5633201 0.0
vn -0.7818315 -0.6234898 0.0
vn -0.7330519 -0.68017274 0.0
vn -0.68017274 -0.7330519 0.0
vn -0.6234898 -0.7818315 0.0
vn -0.5633201 -0.8262388 0.0
vn -0.5 -0.8660254 0.0
vn -0.43388376 -0.9009689 0.0
vn -0.36534104 -0.93087375 0.0
vn -0.2947552 -0.95557284 0.0
vn -0.22252095 -0.97492796 0.0
vn -0.14904228 -0.98883086 0.0
vn -0.07473009 -0.9972038 0.0
vn -6.123234E-17 -1.0 0.0
vn 0.07473009 -0.9972038 0.0
vn 0.14904228 -0.98883086 0.0
vn 0.22252095 -0.97492796 0.0
vn 0.2947552 -0.95557284 0.0
vn 0.36534104 -0.93087375 0.0
vn 0.43388376 -0.9009689 0.0
vn 0.5 -0.8660254 0.0
vn 0.5633201 -0.8262388 0.0
vn 0.6234898 -0.7818315 0.0
vn 0.68017274 -0.7330519 0.0
vn 0.7330519 -0.68017274 0.0
vn 0.7818315 -0.6234898 0.0
vn 0.8262388 -0.5633201 0.0
vn 0.8660254 -0.5 0.0
vn 0.9009689 -0.43388376 0.0
vn 0.93087375 -0.36534104 0.0
vn 0.95557284 -0.2947552 0.0
vn 0.97492796 -0.22252095 0.0
vn 0.98883086 -0.14904228 0.0
vn 0.9972038 -0.07473009 0.0
vn 1.0 -1.2246469E-16 0.0
vn 0.9972038 0.07473009 0.0
vn 0.98883086 0.14904228 0.0
vn 0.97492796 0.22252095 0.0
vn 0.95557284 0.2947552 0.0
vn 0.93087375 0.36534104 0.0
vn 0.9009689 0.43388376 0.0
vn 0.8660254 0.5 0.0
vn 0.8262388 0.5633201 0.0
vn 0.7818315 0.6234898 0.0
vn 0.7330519 0.68017274 0.0
vn 0.68017274 0.7330519 0.0
vn 0.6234898 0.7818315 0.0
vn 0.5633201 0.8262388 0.0
vn 0.5 0.8660254 0.0
vn 0.43388376 0.9009689 0.0
vn 0.36534104 0.93087375 0.0
vn 0.2947552 0.95557284 0.0
vn 0.22252095 0.97492796 0.0
vn 0.14904228 0.98883086 0.0
vn 0.07473009 0.9972038 0.0
vn 1.8369701E-16 1.0 0.0
vn -0.07473009 0.9972038 0.0
vn -0.14904228 0.98883086 0.0
vn -0.22252095 0.97492796 0.0
vn -0.2947552 0.95557284 0.0
vn -0.36534104 0.93087375 0.0
vn -0.43388376 0.9009689 0.0
vn -0.5 0.8660254 0.0
vn -0.5633201 0.8262388 0.0
vn -0.6234898 0.7818315 0.0
vn -0.68017274 0.7330519 0.0
vn -0.7330519 0.68017274 0.0
vn -0.7818315 0.6234898 0.0
vn -0.8262388 0.5633201 0.0
vn -0.8660254 0.5 0.0
vn -0.9009689 0.43388376 0.0
vn -0.93087375 0.36534104 0.0
vn -0.95557284 0.2947552 0.0
vn -0.97492796 0.22252095 0.0
vn -0.98883086 0.14904228 0.0
vn -0.9972038 0.07473009 0.0
vn -1.0 0.0 0.0
vn -0.9972038 -0.07473009 0.0
vn -0.98883086 -0.14904228 0.0
vn -0.97492796 -0.22252095 0.0
vn -0.95557284 -0.2947552 0.0
vn -0.93087375 -0.36534104 0.0
vn -0.9009689 -0.43388376 0.0
vn -0.8660254 -0.5 0.0
vn -0.8262388 -0.5633201 0.0
vn -0.7818315 -0.6234898 0.0
vn -0.7330519 -0.68017274 0.0
vn -0.68017274 -0.7330519 0.0
vn -0.6234898 -0.7818315 0.0
vn -0.5633201 -0.8262388 0.0
vn -0.5 -0.8660254 0.0
vn -0.43388376 -0.9009689 0.0
vn -0.36534104 -0.93087375 0.0
vn -0.2947552 -0.95557284 0.0
vn -0.22252095 -0.97492796 0.0
vn -0.14904228 -0.98883086 0.0
vn -0.07473009 -0.9972038 0.0
vn -6.123234E-17 -1.0 0.0
vn 0.07473009 -0.9972038 0.0
vn 0.14904228 -0.98883086 0.0
vn 0.22252095 -0.97492796 0.0
vn 0.2947552 -0.95557284 0.0
vn 0.36534104 -0.93087375 0.0
vn 0.43388376 -0.9009689 0.0
vn 0.5 -0.8660254 0.0
vn 0.5633201 -0.8262388 0.0
vn 0.6234898 -0.7818315 0.0
vn 0.68017274 -0.7330519 0.0
vn 0.7330519 -0.68017274 0.0
vn 0.7818315 -0.6234898 0.0
vn 0.8262388 -0.5633201 0.0
vn 0.8660254 -0.5 0.0
vn 0.9009689 -0.43388376 0.0
vn 0.93087375 -0.36534104 0.0
vn 0.95557284 -0.2947552 0.0
vn 0.97492796 -0.22252095 0.0
vn 0.98883086 -0.14904228 0.0
vn 0.9972038 -0.07473009 0.0
vn 1.0 -1.2246469E-16 0.0
vn 0.9972038 0.07473009 0.0
vn 0.98883086 0.14904228 0.0
vn 0.97492796 0.22252095 0.0
vn 0.95557284 0.2947552 0.0
vn 0.93087375 0.36534104 0.0
vn 0.9009689 0.43388376 0.0
vn 0.8660254 0.5 0.0
vn 0.8262388 0.5633201 0.0
vn 0.7818315 0.6234898 0.0
vn 0.7330519 0.68017274 0.0
vn 0.68017274 0.7330519 0.0
vn 0.6234898 0.7818315 0.0
vn 0.5633201 0.8262388 0.0
vn 0.5 0.8660254 0.0
vn 0.43388376 0.9009689 0.0
vn 0.36534104 0.93087375 0.0
vn 0.2947552 0.95557284 0.0
vn 0.22252095 0.97492796 0.0
vn 0.14904228 0.98883086 0.0
vn 0.07473009 0.9972038 0.0
vn 1.8369701E-16 1.0 0.0
vn -0.07473009 0.9972038 0.0
vn -0.14904228 0.98883086 0.0
vn -0.22252095 0.97492796 0.0
vn -0.2947552 0.95557284 0.0
vn -0.36534104 0.93087375 0.0
vn -0.43388376 0.9009689 0.0
vn -0.5 0.8660254 0.0
vn -0.5633201 0.8262388 0.0
vn -0.6234898 0.7818315 0.0
vn -0.68017274 0.7330519 0.0
vn -0.7330519 0.68017274 0.0
vn -0.7818315 0.6234898 0.0
vn -0.8262388 0.5633201 0.0
vn -0.8660254 0.5 0.0
vn -0.9009689 0.43388376 0.0
vn -0.93087375 0.36534104 0.0
vn -0.95557284 0.2947552 0.0
vn -0.97492796 0.22252095 0.0
vn -0.98883086 0.14904228 0.0
vn -0.9972038 0.07473009 0.0
vn 1.0 0.0 0.0
vn 0.9972038 0.07473009 0.0
vn 0.98883086 0.14904228 0.0
vn 0.97492796 0.22252095 0.0
vn 0.95557284 0.2947552 0.0
vn 0.93087375 0.36534104 0.0
vn 0.9009689 0.43388376 0.0
vn 0.8660254 0.5 0.0
vn 0.8262388 0.5633201 0.0
vn 0.7818315 0.6234898 0.0
vn 0.7330519 0.68017274 0.0
vn 0.68017274 0.7330519 0.0
vn 0.6234898 0.7818315 0.0
vn 0.5633201 0.8262388 0.0
vn 0.5 0.8660254 0.0
vn 0.43388376 0.9009689 0.0
vn 0.36534104 0.93087375 0.0
vn 0.2947552 0.95557284 0.0
vn 0.22252095 0.97492796 0.0
vn 0.14904228 0.98883086 0.0
vn 0.07473009 0.9972038 0.0
vn 6.123234E-17 1.0 0.0
vn -0.07473009 0.9972038 0.0
vn -0.14904228 0.98883086 0.0
vn -0.22252095 0.97492796 0.0
vn -0.2947552 0.95557284 0.0
vn -0.36534104 0.93087375 0.0
vn -0.43388376 0.9009689 0.0
vn -0.5 0.8660254 0.0
vn -0.5633201 0.8262388 0.0
vn -0.6234898 0.7818315 0.0
vn -0.68017274 0.7330519 0.0
vn -0.7330519 0.68017274 0.0
vn -0.7818315 0.6234898 0.0
vn -0.8262388 0.5633201 0.0
vn -0.8660254 0.5 0.0
vn -0.9009689 0.43388376 0.0
vn -0.93087375 0.36534104 0.0
vn -0.95557284 0.2947552 0.0
vn -0.97492796 0.22252095 0.0
vn -0.98883086 0.14904228 0.0
vn -0.9972038 0.07473009 0.0
vn -1.0 1.2246469E-16 0.0
vn -0.9972038 -0.07473009 0.0
vn -0.98883086 -0.14904228 0.0
vn -0.97492796 -0.22252095 0.0
vn -0.95557284 -0.2947552 0.0
vn -0.93087375 -0.36534104 0.0
vn -0.9009689 -0.43388376 0.0
vn -0.8660254 -0.5 0.0
vn -0.8262388 -0.5633201 0.0
vn -0.7818315 -0.6234898 0.0
vn -0.7330519 -0.68017274 0.0
vn -0.68017274 -0.7330519 0.0
vn -0.6234898 -0.7818315 0.0
vn -0.5633201 -0.8262388 0.0
vn -0.5 -0.8660254 0.0
vn -0.43388376 -0.9009689 0.0
vn -0.36534104 -0.93087375 0.0
vn -0.2947552 -0.95557284 0.0
vn -0.22252095 -0.97492796 0.0
vn -0.14904228 -0.98883086 0.0
vn -0.07473009 -0.9972038 0.0
vn -1.8369701E-16 -1.0 0.0
vn 0.07473009 -0.9972038 0.0
vn 0.14904228 -0.98883086 0.0
vn 0.22252095 -0.97492796 0.0
vn 0.2947552 -0.95557284 0.0
vn 0.36534104 -0.93087375 0.0
vn 0.43388376 -0.9009689 0.0
vn 0.5 -0.8660254 0.0
vn 0.5633201 -0.8262388 0.0
vn 0.6234898 -0.7818315 0.0
vn 0.68017274 -0.7330519 0.0
vn 0.7330519 -0.68017274 0.0
vn 0.7818315 -0.6234898 0.0
vn 0.8262388 -0.5633201 0.0
vn 0.8660254 -0.5 0.0
vn 0.9009689 -0.43388376 0.0
vn 0.93087375 -0.36534104 0.0
vn 0.95557284 -0.2947552 0.0
vn 0.97492796 -0.22252095 0.0
vn 0.98883086 -0.14904228 0.0
vn 0.9972038 -0.07473009 0.0
vn 1.0 0.0 0.0
vn 0.9972038 0.07473009 0.0
vn 0.98883086 0.14904228 0.0
vn 0.97492796 0.22252095 0.0
vn 0.95557284 0.2947552 0.0
vn 0.93087375 0.36534104 0.0
vn 0.9009689 0.43388376 0.0
vn 0.8660254 0.5 0.0
vn 0.8262388 0.5633201 0.0
vn 0.7818315 0.6234898 0.0
vn 0.7330519 0.68017274 0.0
vn 0.68017274 0.7330519 0.0
vn 0.6234898 0.7818315 0.0
vn 0.5633201 0.8262388 0.0
vn 0.5 0.8660254 0.0
vn 0.43388376 0.9009689 0.0
vn 0.36534104 0.93087375 0.0
vn 0.2947552 0.95557284 0.0
vn 0.22252095 0.97492796 0.0
vn 0.14904228 0.98883086 0.0
vn 0.07473009 0.9972038 0.0
vn 6.123234E-17 1.0 0.0
vn -0.07473009 0.9972038 0.0
vn -0.14904228 0.98883086 0.0
vn -0.22252095 0.97492796 0.0
vn -0.2947552 0.95557284 0.0
vn -0.36534104 0.93087375 0.0
vn -0.43388376 0.9009689 0.0
vn -0.5 0.8660254 0.0
vn -0.5633201 0.8262388 0.0
vn -0.6234898 0.7818315 0.0
vn -0.68017274 0.7330519 0.0
vn -0.7330519 0.68017274 0.0
vn -0.7818315 0.6234898 0.0
vn -0.8262388 0.5633201 0.0
vn -0.8660254 0.5 0.0
vn -0.9009689 0.43388376 0.0
vn -0.93087375 0.36534104 0.0
vn -0.95557284 0.2947552 0.0
vn -0.97492796 0.22252095 0.0
vn -0.98883086 0.14904228 0.0
vn -0.9972038 0.07473009 0.0
vn -1.0 1.2246469E-16 0.0
vn -0.9972038 -0.07473009 0.0
vn -0.98883086 -0.14904228 0.0
vn -0.97492796 -0.22252095 0.0
vn -0.95557284 -0.2947552 0.0
vn -0.93087375 -0.36534104 0.0
vn -0.9009689 -0.43388376 0.0
vn -0.8660254 -0.5 0.0
vn -0.8262388 -0.5633201 0.0
vn -0.7818315 -0.6234898 0.0
vn -0.7330519 -0.68017274 0.0
vn -0.68017274 -0.7330519 0.0
vn -0.6234898 -0.7818315 0.0
vn -0.5633201 -0.8262388 0.0
vn -0.5 -0.8660254 0.0
vn -0.43388376 -0.9009689 0.0
vn -0.36534104 -0.93087375 0.0
vn -0.2947552 -0.95557284 0.0
vn -0.22252095 -0.97492796 0.0
vn -0.14904228 -0.98883086 0.0
vn -0.07473009 -0.9972038 0.0
vn -1.8369701E-16 -1.0 0.0
vn 0.07473009 -0.9972038 0.0
vn 0.14904228 -0.98883086 0.0
vn 0.22252095 -0.97492796 0.0
vn 0.2947552 -0.95557284 0.0
vn 0.36534104 -0.93087375 0.0
vn 0.43388376 -0.9009689 0.0
vn 0.5 -0.8660254 0.0
vn 0.5633201 -0.8262388 0.0
vn 0.6234898 -0.7818315 0.0
vn 0.68017274 -0.7330519 0.0
vn 0.7330519 -0.68017274 0.0
vn 0.7818315 -0.6234898 0.0
vn 0.8262388 -0.5633201 0.0
vn 0.8660254 -0.5 0.0
vn 0.9009689 -0.43388376 0.0
vn 0.93087375 -0.36534104 0.0
vn 0.95557284 -0.2947552 0.0
vn 0.97492796 -0.22252095 0.0
vn 0.98883086 -0.14904228 0.0
vn 0.9972038 -0.07473009 0.0
vn 0.0 0.0 1.0
vn 0.0 0.0 -1.0
g 1_Centering Ring 
f 85/86/85 1/1/1 86/87/86
f 2/2/2 86/87/86 1/1/1
f 87/88/87 86/87/86 3/3/3
f 2/2/2 3/3/3 86/87/86
f 87/88/87 3/3/3 88/89/88
f 4/4/4 88/89/88 3/3/3
f 88/89/88 4/4/4 89/90/89
f 5/5/5 89/90/89 4/4/4
f 89/90/89 5/5/5 90/91/90
f 6/6/6 90/91/90 5/5/5
f 91/92/91 90/91/90 7/7/7
f 6/6/6 7/7/7 90/91/90
f 92/93/92 91/92/91 8/8/8
f 7/7/7 8/8/8 91/92/91
f 93/94/93 92/93/92 9/9/9
f 8/8/8 9/9/9 92/93/92
f 94/95/94 93/94/93 10/10/10
f 9/9/9 10/10/10 93/94/93
f 95/96/95 94/95/94 10/10/10
f 10/10/10 11/11/11 95/96/95
f 95/96/95 11/11/11 96/97/96
f 12/12/12 96/97/96 11/11/11
f 96/97/96 12/12/12 97/98/97
f 13/13/13 97/98/97 12/12/12
f 98/99/98 97/98/97 13/13/13
f 13/13/13 14/14/14 98/99/98
f 98/99/98 14/14/14 99/100/99
f 15/15/15 99/100/99 14/14/14
f 100/101/100 99/100/99 15/15/15
f 15/15/15 16/16/16 100/101/100
f 101/102/101 100/101/100 17/17/17
f 16/16/16 17/17/17 100/101/100
f 101/102/101 17/17/17 102/103/102
f 18/18/18 102/103/102 17/17/17
f 103/104/103 102/103/102 18/18/18
f 18/18/18 19/19/19 103/104/103
f 103/104/103 19/19/19 104/105/104
f 20/20/20 104/105/104 19/19/19
f 105/106/105 104/105/104 20/20/20
f 20/20/20 21/21/21 105/106/105
f 106/107/106 105/106/105 21/21/21
f 21/21/21 22/22/22 106/107/106
f 106/107/106 22/22/22 107/108/107
f 23/23/23 107/108/107 22/22/22
f 108/109/108 107/108/107 23/23/23
f 23/23/23 24/24/24 108/109/108
f 108/109/108 24/24/24 109/110/109
f 25/25/25 109/110/109 24/24/24
f 110/111/110 109/110/109 25/25/25
f 25/25/25 26/26/26 110/111/110
f 110/111/110 26/26/26 111/112/111
f 27/27/27 111/112/111 26/26/26
f 112/113/112 111/112/111 28/28/28
f 27/27/27 28/28/28 111/112/111
f 113/114/113 112/113/112 28/28/28
f 28/28/28 29/29/29 113/114/113
f 113/114/113 29/29/29 114/115/114
f 30/30/30 114/115/114 29/29/29
f 115/116/115 114/115/114 30/30/30
f 30/30/30 31/31/31 115/116/115
f 115/116/115 31/31/31 116/117/116
f 32/32/32 116/117/116 31/31/31
f 116/117/116 32/32/32 117/118/117
f 33/33/33 117/118/117 32/32/32
f 118/119/118 117/118/117 33/33/33
f 33/33/33 34/34/34 118/119/118
f 119/120/119 118/119/118 35/35/35
f 34/34/34 35/35/35 118/119/118
f 120/121/120 119/120/119 36/36/36
f 35/35/35 36/36/36 119/120/119
f 121/122/121 120/121/120 37/37/37
f 36/36/36 37/37/37 120/121/120
f 122/123/122 121/122/121 38/38/38
f 37/37/37 38/38/38 121/122/121
f 122/123/122 38/38/38 123/124/123
f 39/39/39 123/124/123 38/38/38
f 123/124/123 39/39/39 124/125/124
f 40/40/40 124/125/124 39/39/39
f 124/125/124 40/40/40 125/126/125
f 41/41/41 125/126/125 40/40/40
f 126/127/126 125/126/125 42/42/42
f 41/41/41 42/42/42 125/126/125
f 127/128/127 126/127/126 42/42/42
f 42/42/42 43/43/43 127/128/127
f 128/129/128 127/128/127 43/43/43
f 43/43/43 44/44/44 128/129/128
f 129/130/129 128/129/128 45/45/45
f 44/44/44 45/45/45 128/129/128
f 129/130/129 45/45/45 130/131/130
f 46/46/46 130/131/130 45/45/45
f 130/131/130 46/46/46 131/132/131
f 47/47/47 131/132/131 46/46/46
f 131/132/131 47/47/47 132/133/132
f 48/48/48 132/133/132 47/47/47
f 133/134/133 132/133/132 49/49/49
f 48/48/48 49/49/49 132/133/132
f 134/135/134 133/134/133 50/50/50
f 49/49/49 50/50/50 133/134/133
f 135/136/135 134/135/134 51/51/51
f 50/50/50 51/51/51 134/135/134
f 136/137/136 135/136/135 52/52/52
f 51/51/51 52/52/52 135/136/135
f 137/138/137 136/137/136 52/52/52
f 52/52/52 53/53/53 137/138/137
f 137/138/137 53/53/53 138/139/138
f 54/54/54 138/139/138 53/53/53
f 138/139/138 54/54/54 139/140/139
f 55/55/55 139/140/139 54/54/54
f 140/141/140 139/140/139 55/55/55
f 55/55/55 56/56/56 140/141/140
f 140/141/140 56/56/56 141/142/141
f 57/57/57 141/142/141 56/56/56
f 142/143/142 141/142/141 57/57/57
f 57/57/57 58/58/58 142/143/142
f 143/144/143 142/143/142 59/59/59
f 58/58/58 59/59/59 142/143/142
f 143/144/143 59/59/59 144/145/144
f 60/60/60 144/145/144 59/59/59
f 145/146/145 144/145/144 60/60/60
f 60/60/60 61/61/61 145/146/145
f 145/146/145 61/61/61 146/147/146
f 62/62/62 146/147/146 61/61/61
f 147/148/147 146/147/146 62/62/62
f 62/62/62 63/63/63 147/148/147
f 148/149/148 147/148/147 64/64/64
f 63/63/63 64/64/64 147/148/147
f 149/150/149 148/149/148 64/64/64
f 64/64/64 65/65/65 149/150/149
f 150/151/150 149/150/149 65/65/65
f 65/65/65 66/66/66 150/151/150
f 150/151/150 66/66/66 151/152/151
f 67/67/67 151/152/151 66/66/66
f 152/153/152 151/152/151 67/67/67
f 67/67/67 68/68/68 152/153/152
f 152/153/152 68/68/68 153/154/153
f 69/69/69 153/154/153 68/68/68
f 154/155/154 153/154/153 70/70/70
f 69/69/69 70/70/70 153/154/153
f 155/156/155 154/155/154 70/70/70
f 70/70/70 71/71/71 155/156/155
f 155/156/155 71/71/71 156/157/156
f 72/72/72 156/157/156 71/71/71
f 157/158/157 156/157/156 72/72/72
f 72/72/72 73/73/73 157/158/157
f 157/158/157 73/73/73 158/159/158
f 74/74/74 158/159/158 73/73/73
f 158/159/158 74/74/74 159/160/159
f 75/75/75 159/160/159 74/74/74
f 160/161/160 159/160/159 75/75/75
f 75/75/75 76/76/76 160/161/160
f 161/162/161 160/161/160 77/77/77
f 76/76/76 77/77/77 160/161/160
f 162/163/162 161/162/161 78/78/78
f 77/77/77 78/78/78 161/162/161
f 163/164/163 162/163/162 79/79/79
f 78/78/78 79/79/79 162/163/162
f 164/165/164 163/164/163 80/80/80
f 79/79/79 80/80/80 163/164/163
f 164/165/164 80/80/80 165/166/165
f 81/81/81 165/166/165 80/80/80
f 165/166/165 81/81/81 166/167/166
f 82/82/82 166/167/166 81/81/81
f 166/167/166 82/82/82 167/168/167
f 83/83/83 167/168/167 82/82/82
f 168/169/168 167/168/167 84/84/84
f 83/83/83 84/84/84 167/168/167
f 168/169/168 84/84/84 85/170/85
f 1/85/1 85/170/85 84/84/84
f 253/256/253 254/257/254 169/171/169
f 170/172/170 169/171/169 254/257/254
f 254/257/254 255/258/255 171/173/171
f 171/173/171 170/172/170 254/257/254
f 255/258/255 256/259/256 172/174/172
f 172/174/172 171/173/171 255/258/255
f 256/259/256 257/260/257 173/175/173
f 173/175/173 172/174/172 256/259/256
f 257/260/257 258/261/258 174/176/174
f 174/176/174 173/175/173 257/260/257
f 259/262/259 175/177/175 258/261/258
f 174/176/174 258/261/258 175/177/175
f 260/263/260 176/178/176 259/262/259
f 175/177/175 259/262/259 176/178/176
f 260/263/260 261/264/261 177/179/177
f 177/179/177 176/178/176 260/263/260
f 261/264/261 262/265/262 178/180/178
f 178/180/178 177/179/177 261/264/261
f 262/265/262 263/266/263 179/181/179
f 179/181/179 178/180/178 262/265/262
f 263/266/263 264/267/264 180/182/180
f 180/182/180 179/181/179 263/266/263
f 264/267/264 265/268/265 181/183/181
f 181/183/181 180/182/180 264/267/264
f 265/268/265 266/269/266 182/184/182
f 182/184/182 181/183/181 265/268/265
f 266/269/266 267/270/267 183/185/183
f 183/185/183 182/184/182 266/269/266
f 267/270/267 268/271/268 184/186/184
f 184/186/184 183/185/183 267/270/267
f 268/271/268 269/272/269 184/186/184
f 185/187/185 184/186/184 269/272/269
f 270/273/270 186/188/186 269/272/269
f 185/187/185 269/272/269 186/188/186
f 271/274/271 187/189/187 270/273/270
f 186/188/186 270/273/270 187/189/187
f 271/274/271 272/275/272 188/190/188
f 188/190/188 187/189/187 271/274/271
f 272/275/272 273/276/273 189/191/189
f 189/191/189 188/190/188 272/275/272
f 273/276/273 274/277/274 190/192/190
f 190/192/190 189/191/189 273/276/273
f 274/277/274 275/278/275 190/192/190
f 191/193/191 190/192/190 275/278/275
f 275/278/275 276/279/276 192/194/192
f 192/194/192 191/193/191 275/278/275
f 276/279/276 277/280/277 193/195/193
f 193/195/193 192/194/192 276/279/276
f 278/281/278 194/196/194 277/280/277
f 193/195/193 277/280/277 194/196/194
f 279/282/279 195/197/195 278/281/278
f 194/196/194 278/281/278 195/197/195
f 279/282/279 280/283/280 195/197/195
f 196/198/196 195/197/195 280/283/280
f 280/283/280 281/284/281 197/199/197
f 197/199/197 196/198/196 280/283/280
f 281/284/281 282/285/282 198/200/198
f 198/200/198 197/199/197 281/284/281
f 282/285/282 283/286/283 199/201/199
f 199/201/199 198/200/198 282/285/282
f 283/286/283 284/287/284 200/202/200
f 200/202/200 199/201/199 283/286/283
f 284/287/284 285/288/285 201/203/201
f 201/203/201 200/202/200 284/287/284
f 285/288/285 286/289/286 202/204/202
f 202/204/202 201/203/201 285/288/285
f 286/289/286 287/290/287 203/205/203
f 203/205/203 202/204/202 286/289/286
f 287/290/287 288/291/288 204/206/204
f 204/206/204 203/205/203 287/290/287
f 289/292/289 205/207/205 288/291/288
f 204/206/204 288/291/288 205/207/205
f 290/293/290 206/208/206 289/292/289
f 205/207/205 289/292/289 206/208/206
f 290/293/290 291/294/291 207/209/207
f 207/209/207 206/208/206 290/293/290
f 291/294/291 292/295/292 208/210/208
f 208/210/208 207/209/207 291/294/291
f 292/295/292 293/296/293 209/211/209
f 209/211/209 208/210/208 292/295/292
f 293/296/293 294/297/294 210/212/210
f 210/212/210 209/211/209 293/296/293
f 294/297/294 295/298/295 210/212/210
f 211/213/211 210/212/210 295/298/295
f 296/299/296 212/214/212 295/298/295
f 211/213/211 295/298/295 212/214/212
f 296/299/296 297/300/297 213/215/213
f 213/215/213 212/214/212 296/299/296
f 297/300/297 298/301/298 214/216/214
f 214/216/214 213/215/213 297/300/297
f 298/301/298 299/302/299 215/217/215
f 215/217/215 214/216/214 298/301/298
f 299/302/299 300/303/300 216/218/216
f 216/218/216 215/217/215 299/302/299
f 301/304/301 217/219/217 300/303/300
f 216/218/216 300/303/300 217/219/217
f 302/305/302 218/220/218 301/304/301
f 217/219/217 301/304/301 218/220/218
f 302/305/302 303/306/303 219/221/219
f 219/221/219 218/220/218 302/305/302
f 303/306/303 304/307/304 220/222/220
f 220/222/220 219/221/219 303/306/303
f 304/307/304 305/308/305 221/223/221
f 221/223/221 220/222/220 304/307/304
f 305/308/305 306/309/306 222/224/222
f 222/224/222 221/223/221 305/308/305
f 306/309/306 307/310/307 223/225/223
f 223/225/223 222/224/222 306/309/306
f 307/310/307 308/311/308 224/226/224
f 224/226/224 223/225/223 307/310/307
f 308/311/308 309/312/309 225/227/225
f 225/227/225 224/226/224 308/311/308
f 309/312/309 310/313/310 226/228/226
f 226/228/226 225/227/225 309/312/309
f 310/313/310 311/314/311 226/228/226
f 227/229/227 226/228/226 311/314/311
f 312/315/312 228/230/228 311/314/311
f 227/229/227 311/314/311 228/230/228
f 313/316/313 229/231/229 312/315/312
f 228/230/228 312/315/312 229/231/229
f 313/316/313 314/317/314 230/232/230
f 230/232/230 229/231/229 313/316/313
f 314/317/314 315/318/315 231/233/231
f 231/233/231 230/232/230 314/317/314
f 315/318/315 316/319/316 232/234/232
f 232/234/232 231/233/231 315/318/315
f 316/319/316 317/320/317 233/235/233
f 233/235/233 232/234/232 316/319/316
f 317/320/317 318/321/318 234/236/234
f 234/236/234 233/235/233 317/320/317
f 318/321/318 319/322/319 235/237/235
f 235/237/235 234/236/234 318/321/318
f 320/323/320 236/238/236 319/322/319
f 235/237/235 319/322/319 236/238/236
f 321/324/321 237/239/237 320/323/320
f 236/238/236 320/323/320 237/239/237
f 321/324/321 322/325/322 237/239/237
f 238/240/238 237/239/237 322/325/322
f 322/325/322 323/326/323 239/241/239
f 239/241/239 238/240/238 322/325/322
f 323/326/323 324/327/324 240/242/240
f 240/242/240 239/241/239 323/326/323
f 324/327/324 325/328/325 241/243/241
f 241/243/241 240/242/240 324/327/324
f 325/328/325 326/329/326 242/244/242
f 242/244/242 241/243/241 325/328/325
f 326/329/326 327/330/327 243/245/243
f 243/245/243 242/244/242 326/329/326
f 327/330/327 328/331/328 244/246/244
f 244/246/244 243/245/243 327/330/327
f 328/331/328 329/332/329 245/247/245
f 245/247/245 244/246/244 328/331/328
f 329/332/329 330/333/330 246/248/246
f 246/248/246 245/247/245 329/332/329
f 331/334/331 247/249/247 330/333/330
f 246/248/246 330/333/330 247/249/247
f 332/335/332 248/250/248 331/334/331
f 247/249/247 331/334/331 248/250/248
f 332/335/332 333/336/333 249/251/249
f 249/251/249 248/250/248 332/335/332
f 333/336/333 334/337/334 250/252/250
f 250/252/250 249/251/249 333/336/333
f 334/337/334 335/338/335 251/253/251
f 251/253/251 250/252/250 334/337/334
f 335/338/335 336/339/336 252/254/252
f 252/254/252 251/253/251 335/338/335
f 336/339/336 253/340/253 252/254/252
f 169/255/169 252/254/252 253/340/253
f 2/427/337 1/426/337 169/341/337
f 169/341/337 170/342/337 2/427/337
f 170/342/337 171/343/337 2/427/337
f 3/428/337 2/427/337 171/343/337
f 171/343/337 172/344/337 4/429/337
f 4/429/337 3/428/337 171/343/337
f 173/345/337 5/430/337 4/429/337
f 4/429/337 172/344/337 173/345/337
f 5/430/337 173/345/337 6/431/337
f 174/346/337 6/431/337 173/345/337
f 6/431/337 174/346/337 175/347/337
f 175/347/337 7/432/337 6/431/337
f 176/348/337 8/433/337 7/432/337
f 7/432/337 175/347/337 176/348/337
f 8/433/337 176/348/337 9/434/337
f 177/349/337 9/434/337 176/348/337
f 177/349/337 178/350/337 10/435/337
f 10/435/337 9/434/337 177/349/337
f 178/350/337 179/351/337 11/436/337
f 11/436/337 10/435/337 178/350/337
f 11/436/337 179/351/337 180/352/337
f 180/352/337 12/437/337 11/436/337
f 180/352/337 181/353/337 12/437/337
f 13/438/337 12/437/337 181/353/337
f 13/438/337 181/353/337 182/354/337
f 182/354/337 14/439/337 13/438/337
f 182/354/337 183/355/337 14/439/337
f 15/440/337 14/439/337 183/355/337
f 15/440/337 183/355/337 16/441/337
f 184/356/337 16/441/337 183/355/337
f 185/357/337 17/442/337 184/356/337
f 16/441/337 184/356/337 17/442/337
f 186/358/337 18/443/337 17/442/337
f 17/442/337 185/357/337 186/358/337
f 18/443/337 186/358/337 19/444/337
f 187/359/337 19/444/337 186/358/337
f 188/360/337 20/445/337 19/444/337
f 19/444/337 187/359/337 188/360/337
f 20/445/337 188/360/337 21/446/337
f 189/361/337 21/446/337 188/360/337
f 190/362/337 22/447/337 21/446/337
f 21/446/337 189/361/337 190/362/337
f 23/448/337 22/447/337 190/362/337
f 190/362/337 191/363/337 23/448/337
f 191/363/337 192/364/337 23/448/337
f 24/449/337 23/448/337 192/364/337
f 25/450/337 24/449/337 192/364/337
f 192/364/337 193/365/337 25/450/337
f 193/365/337 194/366/337 25/450/337
f 26/451/337 25/450/337 194/366/337
f 194/366/337 195/367/337 27/452/337
f 27/452/337 26/451/337 194/366/337
f 28/453/337 27/452/337 196/368/337
f 195/367/337 196/368/337 27/452/337
f 196/368/337 197/369/337 28/453/337
f 29/454/337 28/453/337 197/369/337
f 29/454/337 197/369/337 30/455/337
f 198/370/337 30/455/337 197/369/337
f 198/370/337 199/371/337 31/456/337
f 31/456/337 30/455/337 198/370/337
f 31/456/337 199/371/337 32/457/337
f 200/372/337 32/457/337 199/371/337
f 200/372/337 201/373/337 32/457/337
f 33/458/337 32/457/337 201/373/337
f 33/458/337 201/373/337 202/374/337
f 202/374/337 34/459/337 33/458/337
f 35/460/337 34/459/337 203/375/337
f 202/374/337 203/375/337 34/459/337
f 203/375/337 204/376/337 35/460/337
f 36/461/337 35/460/337 204/376/337
f 37/462/337 36/461/337 204/376/337
f 204/376/337 205/377/337 37/462/337
f 37/462/337 205/377/337 38/463/337
f 206/378/337 38/463/337 205/377/337
f 39/464/337 38/463/337 207/379/337
f 206/378/337 207/379/337 38/463/337
f 39/464/337 207/379/337 40/465/337
f 208/380/337 40/465/337 207/379/337
f 40/465/337 208/380/337 209/381/337
f 209/381/337 41/466/337 40/465/337
f 41/466/337 209/381/337 42/467/337
f 210/382/337 42/467/337 209/381/337
f 43/468/337 42/467/337 211/383/337
f 210/382/337 211/383/337 42/467/337
f 44/469/337 43/468/337 211/383/337
f 211/383/337 212/384/337 44/469/337
f 45/470/337 44/469/337 213/385/337
f 212/384/337 213/385/337 44/469/337
f 46/471/337 45/470/337 213/385/337
f 213/385/337 214/386/337 46/471/337
f 215/387/337 47/472/337 46/471/337
f 46/471/337 214/386/337 215/387/337
f 47/472/337 215/387/337 48/473/337
f 216/388/337 48/473/337 215/387/337
f 48/473/337 216/388/337 217/389/337
f 217/389/337 49/474/337 48/473/337
f 218/390/337 50/475/337 49/474/337
f 49/474/337 217/389/337 218/390/337
f 50/475/337 218/390/337 51/476/337
f 219/391/337 51/476/337 218/390/337
f 52/477/337 51/476/337 219/391/337
f 219/391/337 220/392/337 52/477/337
f 53/478/337 52/477/337 220/392/337
f 220/392/337 221/393/337 53/478/337
f 53/478/337 221/393/337 222/394/337
f 222/394/337 54/479/337 53/478/337
f 55/480/337 54/479/337 223/395/337
f 222/394/337 223/395/337 54/479/337
f 55/480/337 223/395/337 224/396/337
f 224/396/337 56/481/337 55/480/337
f 57/482/337 56/481/337 225/397/337
f 224/396/337 225/397/337 56/481/337
f 57/482/337 225/397/337 58/483/337
f 226/398/337 58/483/337 225/397/337
f 227/399/337 59/484/337 226/398/337
f 58/483/337 226/398/337 59/484/337
f 228/400/337 60/485/337 59/484/337
f 59/484/337 227/399/337 228/400/337
f 60/485/337 228/400/337 61/486/337
f 229/401/337 61/486/337 228/400/337
f 230/402/337 62/487/337 61/486/337
f 61/486/337 229/401/337 230/402/337
f 62/487/337 230/402/337 63/488/337
f 231/403/337 63/488/337 230/402/337
f 232/404/337 64/489/337 63/488/337
f 63/488/337 231/403/337 232/404/337
f 65/490/337 64/489/337 232/404/337
f 232/404/337 233/405/337 65/490/337
f 233/405/337 234/406/337 65/490/337
f 66/491/337 65/490/337 234/406/337
f 67/492/337 66/491/337 234/406/337
f 234/406/337 235/407/337 67/492/337
f 235/407/337 236/408/337 67/492/337
f 68/493/337 67/492/337 236/408/337
f 236/408/337 237/409/337 69/494/337
f 69/494/337 68/493/337 236/408/337
f 70/495/337 69/494/337 238/410/337
f 237/409/337 238/410/337 69/494/337
f 238/410/337 239/411/337 70/495/337
f 71/496/337 70/495/337 239/411/337
f 240/412/337 72/497/337 239/411/337
f 71/496/337 239/411/337 72/497/337
f 240/412/337 241/413/337 73/498/337
f 73/498/337 72/497/337 240/412/337
f 242/414/337 74/499/337 241/413/337
f 73/498/337 241/413/337 74/499/337
f 242/414/337 243/415/337 74/499/337
f 75/500/337 74/499/337 243/415/337
f 244/416/337 76/501/337 75/500/337
f 75/500/337 243/415/337 244/416/337
f 77/502/337 76/501/337 245/417/337
f 244/416/337 245/417/337 76/501/337
f 245/417/337 246/418/337 77/502/337
f 78/503/337 77/502/337 246/418/337
f 79/504/337 78/503/337 246/418/337
f 246/418/337 247/419/337 79/504/337
f 248/420/337 80/505/337 247/419/337
f 79/504/337 247/419/337 80/505/337
f 81/506/337 80/505/337 249/421/337
f 248/420/337 249/421/337 80/505/337
f 250/422/337 82/507/337 249/421/337
f 81/506/337 249/421/337 82/507/337
f 251/423/337 83/508/337 82/507/337
f 82/507/337 250/422/337 251/423/337
f 252/424/337 84/509/337 251/423/337
f 83/508/337 251/423/337 84/509/337
f 1/510/337 84/509/337 169/425/337
f 252/424/337 169/425/337 84/509/337
f 86/597/338 254/512/338 253/511/338
f 253/511/338 85/596/338 86/597/338
f 86/597/338 255/513/338 254/512/338
f 255/513/338 86/597/338 87/598/338
f 87/598/338 88/599/338 255/513/338
f 256/514/338 255/513/338 88/599/338
f 88/599/338 257/515/338 256/514/338
f 257/515/338 88/599/338 89/600/338
f 90/601/338 258/516/338 257/515/338
f 257/515/338 89/600/338 90/601/338
f 90/601/338 91/602/338 259/517/338
f 259/517/338 258/516/338 90/601/338
f 260/518/338 259/517/338 91/602/338
f 91/602/338 92/603/338 260/518/338
f 261/519/338 260/518/338 93/604/338
f 92/603/338 93/604/338 260/518/338
f 93/604/338 94/605/338 261/519/338
f 262/520/338 261/519/338 94/605/338
f 263/521/338 262/520/338 95/606/338
f 94/605/338 95/606/338 262/520/338
f 96/607/338 264/522/338 95/606/338
f 263/521/338 95/606/338 264/522/338
f 265/523/338 264/522/338 96/607/338
f 96/607/338 97/608/338 265/523/338
f 266/524/338 265/523/338 97/608/338
f 97/608/338 98/609/338 266/524/338
f 98/609/338 99/610/338 267/525/338
f 267/525/338 266/524/338 98/609/338
f 99/610/338 100/611/338 267/525/338
f 268/526/338 267/525/338 100/611/338
f 269/527/338 268/526/338 101/612/338
f 100/611/338 101/612/338 268/526/338
f 101/612/338 102/613/338 270/528/338
f 270/528/338 269/527/338 101/612/338
f 102/613/338 103/614/338 270/528/338
f 271/529/338 270/528/338 103/614/338
f 272/530/338 271/529/338 103/614/338
f 103/614/338 104/615/338 272/530/338
f 273/531/338 272/530/338 105/616/338
f 104/615/338 105/616/338 272/530/338
f 105/616/338 106/617/338 274/532/338
f 274/532/338 273/531/338 105/616/338
f 274/532/338 106/617/338 107/618/338
f 107/618/338 275/533/338 274/532/338
f 275/533/338 107/618/338 276/534/338
f 108/619/338 276/534/338 107/618/338
f 109/620/338 277/535/338 276/534/338
f 276/534/338 108/619/338 109/620/338
f 277/535/338 109/620/338 278/536/338
f 110/621/338 278/536/338 109/620/338
f 278/536/338 110/621/338 111/622/338
f 111/622/338 279/537/338 278/536/338
f 112/623/338 280/538/338 111/622/338
f 279/537/338 111/622/338 280/538/338
f 280/538/338 112/623/338 281/539/338
f 113/624/338 281/539/338 112/623/338
f 281/539/338 113/624/338 114/625/338
f 114/625/338 282/540/338 281/539/338
f 115/626/338 283/541/338 282/540/338
f 282/540/338 114/625/338 115/626/338
f 116/627/338 284/542/338 283/541/338
f 283/541/338 115/626/338 116/627/338
f 116/627/338 117/628/338 284/542/338
f 285/543/338 284/542/338 117/628/338
f 118/629/338 286/544/338 117/628/338
f 285/543/338 117/628/338 286/544/338
f 286/544/338 118/629/338 287/545/338
f 119/630/338 287/545/338 118/629/338
f 120/631/338 288/546/338 119/630/338
f 287/545/338 119/630/338 288/546/338
f 121/632/338 289/547/338 288/546/338
f 288/546/338 120/631/338 121/632/338
f 289/547/338 121/632/338 122/633/338
f 122/633/338 290/548/338 289/547/338
f 123/634/338 291/549/338 122/633/338
f 290/548/338 122/633/338 291/549/338
f 124/635/338 291/549/338 123/634/338
f 291/549/338 124/635/338 292/550/338
f 293/551/338 292/550/338 124/635/338
f 124/635/338 125/636/338 293/551/338
f 126/637/338 293/551/338 125/636/338
f 293/551/338 126/637/338 294/552/338
f 295/553/338 294/552/338 126/637/338
f 126/637/338 127/638/338 295/553/338
f 295/553/338 127/638/338 128/639/338
f 128/639/338 296/554/338 295/553/338
f 297/555/338 128/639/338 129/640/338
f 128/639/338 297/555/338 296/554/338
f 129/640/338 130/641/338 297/555/338
f 298/556/338 297/555/338 130/641/338
f 299/557/338 130/641/338 131/642/338
f 130/641/338 299/557/338 298/556/338
f 299/557/338 131/642/338 132/643/338
f 132/643/338 300/558/338 299/557/338
f 132/643/338 133/644/338 301/559/338
f 301/559/338 300/558/338 132/643/338
f 302/560/338 301/559/338 133/644/338
f 133/644/338 134/645/338 302/560/338
f 303/561/338 302/560/338 135/646/338
f 134/645/338 135/646/338 302/560/338
f 135/646/338 136/647/338 303/561/338
f 304/562/338 303/561/338 136/647/338
f 305/563/338 304/562/338 137/648/338
f 136/647/338 137/648/338 304/562/338
f 138/649/338 306/564/338 137/648/338
f 305/563/338 137/648/338 306/564/338
f 307/565/338 306/564/338 138/649/338
f 138/649/338 139/650/338 307/565/338
f 308/566/338 307/565/338 139/650/338
f 139/650/338 140/651/338 308/566/338
f 140/651/338 141/652/338 309/567/338
f 309/567/338 308/566/338 140/651/338
f 141/652/338 142/653/338 309/567/338
f 310/568/338 309/567/338 142/653/338
f 311/569/338 310/568/338 143/654/338
f 142/653/338 143/654/338 310/568/338
f 143/654/338 144/655/338 312/570/338
f 312/570/338 311/569/338 143/654/338
f 144/655/338 145/656/338 312/570/338
f 313/571/338 312/570/338 145/656/338
f 314/572/338 313/571/338 145/656/338
f 145/656/338 146/657/338 314/572/338
f 315/573/338 314/572/338 147/658/338
f 146/657/338 147/658/338 314/572/338
f 147/658/338 148/659/338 316/574/338
f 316/574/338 315/573/338 147/658/338
f 316/574/338 148/659/338 149/660/338
f 149/660/338 317/575/338 316/574/338
f 317/575/338 149/660/338 318/576/338
f 150/661/338 318/576/338 149/660/338
f 151/662/338 319/577/338 318/576/338
f 318/576/338 150/661/338 151/662/338
f 319/577/338 151/662/338 320/578/338
f 152/663/338 320/578/338 151/662/338
f 320/578/338 152/663/338 153/664/338
f 153/664/338 321/579/338 320/578/338
f 154/665/338 322/580/338 153/664/338
f 321/579/338 153/664/338 322/580/338
f 322/580/338 154/665/338 323/581/338
f 155/666/338 323/581/338 154/665/338
f 323/581/338 155/666/338 156/667/338
f 156/667/338 324/582/338 323/581/338
f 157/668/338 325/583/338 324/582/338
f 324/582/338 156/667/338 157/668/338
f 158/669/338 326/584/338 325/583/338
f 325/583/338 157/668/338 158/669/338
f 158/669/338 159/670/338 326/584/338
f 327/585/338 326/584/338 159/670/338
f 160/671/338 328/586/338 159/670/338
f 327/585/338 159/670/338 328/586/338
f 328/586/338 160/671/338 329/587/338
f 161/672/338 329/587/338 160/671/338
f 162/673/338 330/588/338 161/672/338
f 329/587/338 161/672/338 330/588/338
f 163/674/338 331/589/338 330/588/338
f 330/588/338 162/673/338 163/674/338
f 331/589/338 163/674/338 164/675/338
f 164/675/338 332/590/338 331/589/338
f 165/676/338 333/591/338 164/675/338
f 332/590/338 164/675/338 333/591/338
f 333/591/338 166/677/338 334/592/338
f 166/677/338 333/591/338 165/676/338
f 166/677/338 167/678/338 335/593/338
f 335/593/338 334/592/338 166/677/338
f 335/593/338 168/679/338 336/594/338
f 168/679/338 335/593/338 167/678/338
f 168/679/338 85/680/338 253/595/338
f 253/595/338 336/594/338 168/679/338
