# Created by FreeCAD <https://www.freecad.org>
v 1.335521 0.187141 0.000000
v 4.000000 0.000000 0.000000
v 4.000000 0.000000 25.000000
v 1.335521 0.187141 25.000000
v -1.335521 0.187141 25.000000
v -1.335521 0.187141 0.000000
v -4.000000 0.000000 0.000000
v -4.000000 0.000000 25.000000
v 3.500000 5.210556 25.000000
v 3.500000 5.210556 0.000000
v -3.500000 5.210556 0.000000
v -3.500000 5.210556 25.000000
v -1.136129 3.564588 0.000000
v -1.497022 3.884310 0.000000
v -1.770912 4.281109 0.000000
v -0.709210 3.340523 0.000000
v -1.941884 4.731924 0.000000
v -0.241073 3.225138 0.000000
v -2.000000 5.210556 0.000000
v 0.241073 3.225138 0.000000
v -3.398296 6.048161 0.000000
v -1.941884 5.689187 0.000000
v 0.709210 3.340523 0.000000
v -3.099096 6.837087 0.000000
v -1.770912 6.140002 0.000000
v 1.136129 3.564588 0.000000
v -2.619788 7.531485 0.000000
v -1.497022 6.536801 0.000000
v 1.497022 3.884310 0.000000
v 1.770912 4.281109 0.000000
v -1.988227 8.090999 0.000000
v -1.136129 6.856524 0.000000
v -1.241117 8.483112 0.000000
v -0.709210 7.080588 0.000000
v -0.241073 7.195973 0.000000
v -0.421878 8.685037 0.000000
v 0.241073 7.195973 0.000000
v 1.941884 5.689187 0.000000
v 2.000000 5.210556 0.000000
v 1.941884 4.731924 0.000000
v 0.421878 8.685037 0.000000
v 3.398296 6.048161 0.000000
v 1.241117 8.483112 0.000000
v 0.709210 7.080588 0.000000
v 1.136129 6.856524 0.000000
v 1.770912 6.140002 0.000000
v 3.099096 6.837087 0.000000
v 1.988227 8.090999 0.000000
v 1.497022 6.536801 0.000000
v 2.619788 7.531485 0.000000
v -1.136129 3.564588 25.000000
v -1.497022 3.884310 25.000000
v -1.770912 4.281109 25.000000
v -0.709210 3.340523 25.000000
v -1.941884 4.731924 25.000000
v -0.241073 3.225138 25.000000
v -2.000000 5.210556 25.000000
v 0.241073 3.225138 25.000000
v -1.941884 5.689187 25.000000
v -3.398296 6.048161 25.000000
v 0.709210 3.340523 25.000000
v -1.770912 6.140002 25.000000
v -3.099096 6.837087 25.000000
v 1.136129 3.564588 25.000000
v -1.497022 6.536801 25.000000
v -2.619788 7.531485 25.000000
v 1.497022 3.884310 25.000000
v 1.770912 4.281109 25.000000
v -1.988227 8.090999 25.000000
v -1.136129 6.856524 25.000000
v -1.241117 8.483112 25.000000
v -0.709210 7.080588 25.000000
v -0.421878 8.685037 25.000000
v -0.241073 7.195973 25.000000
v 0.241073 7.195973 25.000000
v 1.941884 5.689187 25.000000
v 2.000000 5.210556 25.000000
v 1.941884 4.731924 25.000000
v 0.421878 8.685037 25.000000
v 3.398296 6.048161 25.000000
v 1.241117 8.483112 25.000000
v 0.709210 7.080588 25.000000
v 1.136129 6.856524 25.000000
v 3.099096 6.837087 25.000000
v 1.770912 6.140002 25.000000
v 1.988227 8.090999 25.000000
v 2.619788 7.531485 25.000000
v 1.497022 6.536801 25.000000
vn -0.070063 -0.997543 0.000000
vn -0.070063 -0.997543 0.000000
vn 0.000000 -1.000000 0.000000
vn 0.000000 -1.000000 0.000000
vn 0.070063 -0.997543 0.000000
vn 0.070063 -0.997543 0.000000
vn 0.995427 0.095520 0.000000
vn 0.995427 0.095520 0.000000
vn -0.995427 0.095520 0.000000
vn -0.995427 0.095520 0.000000
vn 0.000000 0.000000 -1.000000
vn 0.000000 -0.000000 -1.000000
vn 0.000000 -0.000000 -1.000000
vn 0.000000 0.000000 -1.000000
vn 0.000000 -0.000000 -1.000000
vn 0.000000 0.000000 -1.000000
vn 0.000000 -0.000000 -1.000000
vn 0.000000 0.000000 -1.000000
vn 0.000000 0.000000 -1.000000
vn 0.000000 -0.000000 -1.000000
vn 0.000000 -0.000000 -1.000000
vn 0.000000 0.000000 -1.000000
vn 0.000000 0.000000 -1.000000
vn 0.000000 -0.000000 -1.000000
vn 0.000000 0.000000 -1.000000
vn 0.000000 0.000000 -1.000000
vn 0.000000 0.000000 -1.000000
vn 0.000000 -0.000000 -1.000000
vn 0.000000 0.000000 -1.000000
vn 0.000000 0.000000 -1.000000
vn 0.000000 0.000000 -1.000000
vn 0.000000 0.000000 -1.000000
vn 0.000000 0.000000 -1.000000
vn 0.000000 0.000000 -1.000000
vn 0.000000 0.000000 -1.000000
vn 0.000000 0.000000 -1.000000
vn 0.000000 0.000000 -1.000000
vn 0.000000 0.000000 -1.000000
vn 0.000000 0.000000 -1.000000
vn 0.000000 -0.000000 -1.000000
vn 0.000000 -0.000000 -1.000000
vn 0.000000 0.000000 -1.000000
vn 0.000000 0.000000 -1.000000
vn 0.000000 0.000000 -1.000000
vn 0.000000 -0.000000 -1.000000
vn 0.000000 0.000000 -1.000000
vn 0.000000 0.000000 -1.000000
vn 0.000000 0.000000 -1.000000
vn 0.000000 0.000000 -1.000000
vn 0.000000 -0.000000 -1.000000
vn 0.000000 0.000000 -1.000000
vn 0.000000 0.000000 -1.000000
vn 0.000000 0.000000 -1.000000
vn 0.000000 -0.000000 -1.000000
vn 0.000000 0.000000 1.000000
vn 0.000000 0.000000 1.000000
vn 0.000000 0.000000 1.000000
vn 0.000000 0.000000 1.000000
vn 0.000000 0.000000 1.000000
vn 0.000000 0.000000 1.000000
vn 0.000000 0.000000 1.000000
vn 0.000000 0.000000 1.000000
vn 0.000000 0.000000 1.000000
vn 0.000000 0.000000 1.000000
vn 0.000000 0.000000 1.000000
vn 0.000000 0.000000 1.000000
vn 0.000000 0.000000 1.000000
vn 0.000000 0.000000 1.000000
vn 0.000000 0.000000 1.000000
vn 0.000000 0.000000 1.000000
vn 0.000000 0.000000 1.000000
vn 0.000000 0.000000 1.000000
vn 0.000000 0.000000 1.000000
vn 0.000000 0.000000 1.000000
vn 0.000000 0.000000 1.000000
vn 0.000000 0.000000 1.000000
vn 0.000000 0.000000 1.000000
vn 0.000000 0.000000 1.000000
vn 0.000000 0.000000 1.000000
vn 0.000000 0.000000 1.000000
vn 0.000000 0.000000 1.000000
vn 0.000000 0.000000 1.000000
vn 0.000000 0.000000 1.000000
vn 0.000000 0.000000 1.000000
vn 0.000000 0.000000 1.000000
vn 0.000000 0.000000 1.000000
vn 0.000000 0.000000 1.000000
vn 0.000000 0.000000 1.000000
vn 0.000000 0.000000 1.000000
vn 0.000000 0.000000 1.000000
vn 0.000000 0.000000 1.000000
vn 0.000000 0.000000 1.000000
vn 0.000000 0.000000 1.000000
vn 0.000000 0.000000 1.000000
vn 0.000000 0.000000 1.000000
vn 0.000000 0.000000 1.000000
vn 0.000000 0.000000 1.000000
vn 0.000000 0.000000 1.000000
vn 0.992709 0.120537 -0.000000
vn 0.992709 0.120537 0.000000
vn 0.935016 0.354605 0.000000
vn 0.935016 0.354605 -0.000000
vn 0.822984 0.568065 0.000000
vn 0.822984 0.568065 -0.000000
vn 0.663122 0.748511 0.000000
vn 0.663122 0.748511 -0.000000
vn 0.464723 0.885456 0.000000
vn 0.464723 0.885456 -0.000000
vn 0.239316 0.970942 0.000000
vn 0.000000 1.000000 0.000000
vn 0.239316 0.970942 -0.000000
vn 0.000000 1.000000 0.000000
vn -0.239316 0.970942 0.000000
vn -0.464723 0.885456 0.000000
vn -0.239316 0.970942 0.000000
vn -0.464723 0.885456 0.000000
vn -0.663122 0.748511 0.000000
vn -0.663122 0.748511 0.000000
vn -0.822984 0.568065 0.000000
vn -0.822984 0.568065 0.000000
vn -0.935016 0.354605 0.000000
vn -0.992709 0.120537 0.000000
vn -0.935016 0.354605 0.000000
vn -0.992709 0.120537 0.000000
vn -0.992709 -0.120537 -0.000000
vn -0.992709 -0.120537 0.000000
vn -0.935016 -0.354605 0.000000
vn -0.935016 -0.354605 -0.000000
vn -0.822984 -0.568065 0.000000
vn -0.822984 -0.568065 -0.000000
vn -0.663123 -0.748511 0.000000
vn -0.464723 -0.885456 0.000000
vn -0.663123 -0.748511 -0.000000
vn -0.464723 -0.885456 0.000000
vn -0.239316 -0.970942 0.000000
vn 0.000000 -1.000000 0.000000
vn -0.239316 -0.970942 -0.000000
vn -0.000000 -1.000000 0.000000
vn 0.239316 -0.970942 0.000000
vn 0.239316 -0.970942 0.000000
vn 0.464723 -0.885456 0.000000
vn 0.663123 -0.748511 0.000000
vn 0.464723 -0.885456 0.000000
vn 0.663123 -0.748511 0.000000
vn 0.822984 -0.568065 0.000000
vn 0.822984 -0.568065 0.000000
vn 0.935016 -0.354605 0.000000
vn 0.935016 -0.354605 0.000000
vn 0.992709 -0.120537 0.000000
vn 0.992709 -0.120537 0.000000
vn 0.992709 0.120537 -0.000000
vn 0.935016 0.354605 -0.000000
vn 0.992709 0.120537 0.000000
vn 0.935016 0.354605 0.000000
vn 0.822984 0.568065 0.000000
vn 0.822984 0.568065 0.000000
vn 0.663123 0.748511 0.000000
vn 0.663123 0.748511 0.000000
vn 0.464723 0.885456 0.000000
vn 0.239316 0.970942 -0.000000
vn 0.464723 0.885456 0.000000
vn 0.239316 0.970942 0.000000
vn 0.000000 1.000000 0.000000
vn -0.239316 0.970942 0.000000
vn -0.000000 1.000000 0.000000
vn -0.239316 0.970942 0.000000
vn -0.464723 0.885456 0.000000
vn -0.464723 0.885456 0.000000
vn -0.663123 0.748511 0.000000
vn -0.663123 0.748511 0.000000
vn -0.822984 0.568065 0.000000
vn -0.935016 0.354605 0.000000
vn -0.822984 0.568065 0.000000
vn -0.935016 0.354605 0.000000
vn -0.992709 0.120537 0.000000
vn -0.992709 0.120537 0.000000
f 1//1 2//1 3//1
f 1//2 3//2 4//2
f 1//3 4//3 5//3
f 6//4 1//4 5//4
f 7//5 5//5 8//5
f 7//6 6//6 5//6
f 3//7 2//7 9//7
f 2//8 10//8 9//8
f 11//9 7//9 8//9
f 11//10 8//10 12//10
f 7//11 13//11 6//11
f 14//12 13//12 7//12
f 11//13 15//13 7//13
f 7//14 15//14 14//14
f 13//15 16//15 6//15
f 11//16 17//16 15//16
f 16//17 18//17 6//17
f 11//18 19//18 17//18
f 6//19 20//19 1//19
f 18//20 20//20 6//20
f 21//21 22//21 11//21
f 11//22 22//22 19//22
f 20//23 23//23 1//23
f 24//24 25//24 21//24
f 21//25 25//25 22//25
f 1//26 26//26 2//26
f 23//27 26//27 1//27
f 27//28 28//28 24//28
f 24//29 28//29 25//29
f 26//30 29//30 2//30
f 29//31 30//31 2//31
f 28//32 31//32 32//32
f 27//33 31//33 28//33
f 32//34 33//34 34//34
f 31//35 33//35 32//35
f 35//36 36//36 37//36
f 34//37 36//37 35//37
f 33//38 36//38 34//38
f 38//39 10//39 39//39
f 40//40 10//40 30//40
f 39//41 10//41 40//41
f 30//42 10//42 2//42
f 36//43 41//43 37//43
f 38//44 42//44 10//44
f 41//45 43//45 37//45
f 44//46 43//46 45//46
f 37//47 43//47 44//47
f 46//48 47//48 38//48
f 38//49 47//49 42//49
f 43//50 48//50 45//50
f 49//51 50//51 46//51
f 45//52 50//52 49//52
f 46//53 50//53 47//53
f 48//54 50//54 45//54
f 51//55 8//55 5//55
f 51//56 52//56 8//56
f 53//57 12//57 8//57
f 53//58 8//58 52//58
f 54//59 51//59 5//59
f 55//60 12//60 53//60
f 56//61 54//61 5//61
f 57//62 12//62 55//62
f 58//63 5//63 4//63
f 58//64 56//64 5//64
f 59//65 60//65 12//65
f 59//66 12//66 57//66
f 61//67 58//67 4//67
f 62//68 63//68 60//68
f 62//69 60//69 59//69
f 64//70 4//70 3//70
f 64//71 61//71 4//71
f 65//72 66//72 63//72
f 65//73 63//73 62//73
f 67//74 64//74 3//74
f 68//75 67//75 3//75
f 69//76 65//76 70//76
f 69//77 66//77 65//77
f 71//78 70//78 72//78
f 71//79 69//79 70//79
f 73//80 74//80 75//80
f 73//81 72//81 74//81
f 73//82 71//82 72//82
f 9//83 76//83 77//83
f 9//84 78//84 68//84
f 9//85 77//85 78//85
f 9//86 68//86 3//86
f 79//87 73//87 75//87
f 80//88 76//88 9//88
f 81//89 79//89 75//89
f 81//90 82//90 83//90
f 81//91 75//91 82//91
f 84//92 85//92 76//92
f 84//93 76//93 80//93
f 86//94 81//94 83//94
f 87//95 88//95 85//95
f 87//96 83//96 88//96
f 87//97 85//97 84//97
f 87//98 86//98 83//98
f 10//99 42//99 9//99
f 9//100 42//100 80//100
f 80//101 47//101 84//101
f 42//102 47//102 80//102
f 84//103 50//103 87//103
f 47//104 50//104 84//104
f 87//105 48//105 86//105
f 50//106 48//106 87//106
f 86//107 43//107 81//107
f 48//108 43//108 86//108
f 81//109 41//109 79//109
f 79//110 41//110 73//110
f 43//111 41//111 81//111
f 41//112 36//112 73//112
f 73//113 33//113 71//113
f 71//114 33//114 69//114
f 36//115 33//115 73//115
f 33//116 31//116 69//116
f 69//117 27//117 66//117
f 31//118 27//118 69//118
f 66//119 24//119 63//119
f 27//120 24//120 66//120
f 63//121 21//121 60//121
f 60//122 21//122 12//122
f 24//123 21//123 63//123
f 21//124 11//124 12//124
f 77//125 76//125 39//125
f 39//126 76//126 38//126
f 38//127 85//127 46//127
f 76//128 85//128 38//128
f 46//129 88//129 49//129
f 85//130 88//130 46//130
f 49//131 83//131 45//131
f 45//132 83//132 44//132
f 88//133 83//133 49//133
f 83//134 82//134 44//134
f 44//135 75//135 37//135
f 37//136 75//136 35//136
f 82//137 75//137 44//137
f 75//138 74//138 35//138
f 35//139 72//139 34//139
f 74//140 72//140 35//140
f 34//141 70//141 32//141
f 32//142 70//142 28//142
f 72//143 70//143 34//143
f 70//144 65//144 28//144
f 65//145 62//145 28//145
f 28//146 62//146 25//146
f 25//147 62//147 22//147
f 62//148 59//148 22//148
f 59//149 57//149 22//149
f 22//150 57//150 19//150
f 19//151 57//151 17//151
f 17//152 55//152 15//152
f 57//153 55//153 17//153
f 55//154 53//154 15//154
f 53//155 52//155 15//155
f 15//156 52//156 14//156
f 14//157 51//157 13//157
f 52//158 51//158 14//158
f 13//159 54//159 16//159
f 16//160 54//160 18//160
f 51//161 54//161 13//161
f 54//162 56//162 18//162
f 18//163 58//163 20//163
f 20//164 58//164 23//164
f 56//165 58//165 18//165
f 58//166 61//166 23//166
f 23//167 64//167 26//167
f 61//168 64//168 23//168
f 26//169 67//169 29//169
f 64//170 67//170 26//170
f 29//171 68//171 30//171
f 30//172 68//172 40//172
f 67//173 68//173 29//173
f 68//174 78//174 40//174
f 40//175 77//175 39//175
f 78//176 77//176 40//176
