# Created by FreeCAD <https://www.freecad.org>
v 0.000722 0.000000 0.001000
v 1.600020 0.200003 0.000000
v 0.000000 0.000000 0.000000
v 1.600020 -0.200003 0.000000
v 0.000000 0.888515 -0.018745
v 0.000000 0.659088 -0.009862
v -2.327306 0.000000 0.001000
v 0.000000 0.429574 -0.003614
v 0.000000 0.200003 0.000000
v 0.000000 -0.200003 0.000000
v 0.000000 -0.429574 -0.003614
v 0.000000 -0.659088 -0.009862
v -0.000000 -0.888515 -0.018745
v 0.000000 1.000000 -3.000000
v 0.000000 1.000000 0.000000
v 0.000000 0.868292 0.000000
v 0.000000 -1.000000 -3.000000
v 0.000000 -1.000000 0.000000
v 0.000000 -0.868292 0.000000
v 1.639082 1.557812 -0.059759
v 0.281320 1.000000 -0.024014
v 0.353334 1.000000 0.000000
v 6.426503 3.489879 -0.114072
v 5.502529 3.584088 -0.322746
v 5.348041 3.471923 -0.302646
v 6.187366 3.718435 -0.260305
v 5.654889 3.701628 -0.344518
v 5.804499 3.825574 -0.368266
v 5.950479 3.957348 -0.394404
v 0.657596 0.211239 1.280580
v 0.015796 0.000000 1.425410
v 0.545891 0.000000 1.830493
v -0.532653 0.000000 1.039498
v 1.408145 0.297908 1.515950
v 1.055724 0.000000 2.251829
v 1.543623 0.000000 2.686836
v 6.349300 0.582701 3.495019
v 3.250511 0.000000 4.523643
v 3.611751 0.000000 5.000000
v 2.862450 0.000000 4.053075
v 2.448079 0.000000 3.589202
v 2.008144 0.000000 3.133264
v 11.487101 1.001000 5.000000
v 0.297631 0.229671 1.026099
v -1.097318 0.000000 0.676014
v 5.964612 0.636319 3.074062
v 0.713099 0.345277 1.019410
v 5.750382 0.670871 2.850208
v 0.441804 0.367476 0.835274
v 1.584599 0.499559 1.168780
v -0.003356 0.339413 0.657226
v 5.564249 0.703442 2.661460
v 0.167238 0.390897 0.657226
v 1.320879 0.531844 0.980151
v -0.282272 0.360814 0.485728
v -1.675829 0.000000 0.338547
v -0.563894 0.383283 0.321263
v -2.000087 0.000000 0.164865
v -0.847890 0.406824 0.164333
v -1.005512 0.420277 0.081144
v 1.000742 0.663905 0.626532
v 4.331628 0.915778 1.634804
v 6.026765 2.008643 0.793101
v 5.582098 1.693205 0.986161
v 5.780870 1.605192 1.146781
v 5.382078 1.785512 0.829701
v 5.830087 2.117113 0.642173
v 5.652515 2.218841 0.510425
v 6.010521 2.365978 0.483763
v 7.898260 2.321325 0.990703
v 7.598046 2.529344 0.739244
v 7.296931 2.752909 0.499866
v 5.852594 2.466957 0.369469
v 6.995746 2.992097 0.273826
v 0.677106 0.819176 0.298558
v 1.306768 1.064086 0.265096
v 4.948760 1.271075 1.303504
v 5.673627 1.075948 1.877329
v 4.847224 1.305601 1.220861
v 3.013972 1.202824 0.712055
v 7.724593 1.519359 1.865375
v 9.241274 1.565227 2.265691
v 8.886436 1.737447 1.905131
v 8.525647 1.932902 1.556022
v 4.199665 1.976741 0.324075
v 3.728132 2.521211 -0.158541
v 2.987031 2.158870 -0.115854
v 4.559741 2.130124 0.298714
v 4.217747 2.779274 -0.193041
v 5.491434 2.872827 0.024240
v 6.695374 3.246987 0.062456
v 5.139450 3.329364 -0.278049
v 4.901914 3.176889 -0.252915
v 4.581668 2.984253 -0.222886
v 5.827755 0.825681 2.463783
v 2.291884 0.826845 0.935934
v 6.837923 1.012662 2.457523
v 2.331635 1.372249 0.303892
v 9.019351 1.327160 2.615114
v 9.929089 1.290024 3.015028
v 9.589128 1.416124 2.636123
v 4.522973 1.611576 0.752416
v 2.989283 1.630894 0.271588
v 6.887016 1.748369 1.310157
v 8.196795 2.128780 1.253064
v 8.909980 1.017202 3.308083
v 10.260368 1.186820 3.401181
v 6.320058 1.271830 1.780961
v 10.228151 0.970608 4.143334
v 11.196031 1.013588 4.593547
v 10.894327 1.048695 4.191220
v 10.582297 1.106409 3.793534
v 5.847488 -3.863113 -0.375618
v 5.950479 -3.957348 -0.394404
v 6.187366 -3.718435 -0.260305
v 5.742521 -3.773051 -0.358104
v 5.586757 -3.648113 -0.334516
v 6.426503 -3.489879 -0.114072
v 5.375129 -3.491144 -0.306044
v 6.349300 -0.582701 3.495019
v 11.487101 -1.001000 5.000000
v 5.924116 -2.153274 0.635572
v 7.898260 -2.321325 0.990703
v 8.196795 -2.128780 1.253064
v 7.598046 -2.529344 0.739244
v 6.056088 -1.689636 1.132206
v 5.859017 -1.782239 0.971948
v 5.997526 -2.532236 0.356986
v 7.296931 -2.752909 0.499866
v 6.995746 -2.992097 0.273826
v 5.660793 -1.879341 0.815875
v 5.747160 -2.256695 0.504021
v 5.461595 -1.980956 0.664261
v 1.857305 -0.578133 1.154158
v 4.511482 -0.962414 1.624468
v 5.564249 -0.703442 2.661460
v 1.587706 -0.344216 1.505749
v 0.713099 -0.345277 1.019410
v 1.595457 -0.615480 0.965952
v 0.657596 -0.211239 1.280580
v 0.441804 -0.367476 0.835274
v 0.297631 -0.229671 1.026099
v 0.167238 -0.390897 0.657226
v 1.186545 -0.726945 0.617683
v -0.003356 -0.339413 0.657226
v -0.282272 -0.360814 0.485728
v -0.563894 -0.383283 0.321263
v -0.847890 -0.406824 0.164333
v -1.005512 -0.420277 0.081144
v 7.859343 -1.553505 1.857441
v 8.886436 -1.737447 1.905131
v 9.241274 -1.565227 2.265691
v 8.525647 -1.932902 1.556022
v 5.176362 -1.336886 1.291086
v 5.807867 -1.108928 1.869386
v 5.075478 -1.373194 1.208583
v 5.598866 -2.930260 0.014139
v 6.695374 -3.246987 0.062456
v 4.634374 -3.015081 -0.227562
v 5.024828 -3.254622 -0.265577
v 5.207987 -3.375209 -0.285844
v 4.974170 -1.410435 1.127029
v 5.189870 -2.615217 0.113611
v 4.027034 -2.676620 -0.178908
v 4.746800 -2.309930 0.213398
v 3.182731 -2.251815 -0.126165
v 1.821520 -0.136063 2.295162
v 5.750382 -0.670871 2.850208
v 5.964612 -0.636319 3.074062
v 1.574210 -0.144574 2.081918
v 1.686125 -1.210095 0.249011
v 0.353334 -1.000000 0.000000
v 0.281320 -1.000000 -0.024014
v 2.221283 -1.810126 -0.081078
v 0.771556 -0.854713 0.294488
v 5.893945 -0.839459 2.459624
v 4.854112 -1.815584 0.647500
v 3.955835 -1.131885 1.143173
v 3.385830 -1.329098 0.694049
v 4.055038 -1.784881 0.446249
v 3.274789 -1.744952 0.257536
v 2.613490 -0.927558 0.919496
v 2.805972 -1.554893 0.283560
v 6.869824 -1.168715 2.154969
v 8.765585 -1.126990 2.956941
v 9.929089 -1.290024 3.015028
v 10.260368 -1.186820 3.401181
v 9.589128 -1.416124 2.636123
v 6.616075 -0.828514 2.812575
v 6.468435 -1.404219 1.629481
v 10.008798 -1.034903 3.763519
v 11.196031 -1.013588 4.593547
v 10.894327 -1.048695 4.191220
v 10.582297 -1.106409 3.793534
v 8.320846 -1.315645 2.396770
v 33.000000 1.000000 -0.024014
v 33.000000 1.000000 -3.000000
v 33.000000 -1.000000 -3.000000
v 33.000000 -1.000000 -0.024014
v 33.528889 3.957348 -0.394404
v 33.669495 3.853915 -0.373810
v 33.811676 3.754617 -0.354572
v 34.193428 3.507967 -0.309033
v 34.672665 3.227653 -0.261149
v 35.481964 2.801883 -0.196226
v 36.391872 2.368783 -0.139767
v 38.359432 1.526319 -0.057323
v 33.000000 0.733449 -0.012453
v 38.399979 0.200003 0.000000
v 33.000000 0.466767 -0.004447
v 33.000000 0.200003 0.000000
v 42.328625 0.000000 0.001000
v 40.000599 0.000000 0.001000
v 34.892448 1.011232 4.635602
v 35.113152 1.001000 5.000000
v 34.704826 1.035894 4.310436
v 34.545040 1.070645 4.020260
v 34.394020 1.117325 3.732669
v 34.251965 1.175970 3.447949
v 34.119106 1.246617 3.166432
v 33.995705 1.329303 2.888501
v 33.892967 1.414049 2.641786
v 33.807449 1.498711 2.422812
v 33.728706 1.591346 2.207032
v 33.656937 1.691978 1.994746
v 33.592350 1.800630 1.786271
v 33.535175 1.917328 1.581949
v 33.490253 2.029255 1.401908
v 33.455276 2.135594 1.243226
v 33.425610 2.247258 1.087943
v 33.401402 2.364261 0.936280
v 33.382801 2.486618 0.788469
v 33.369968 2.614343 0.644749
v 33.363068 2.747451 0.505369
v 33.362270 2.885959 0.370587
v 33.366913 3.015246 0.253435
v 33.375549 3.135364 0.151533
v 33.388512 3.259053 0.053138
v 33.405899 3.386322 -0.041598
v 33.427814 3.517179 -0.132514
v 33.454372 3.651634 -0.219450
v 33.485672 3.789696 -0.302237
v 33.506424 3.872891 -0.349091
v 3.612500 0.000000 5.000000
v 35.112499 -1.000000 5.000000
v 35.113152 -1.001000 5.000000
v 11.487500 -1.000000 5.000000
v 35.112499 1.000000 5.000000
v 11.487500 1.000000 5.000000
v 42.988499 0.000000 5.000000
v 42.987499 0.000000 5.000000
v 34.892448 -1.011232 4.635602
v 34.704826 -1.035894 4.310436
v 34.545040 -1.070645 4.020260
v 34.394020 -1.117325 3.732669
v 34.251965 -1.175970 3.447949
v 34.119106 -1.246617 3.166432
v 33.995705 -1.329303 2.888501
v 33.892967 -1.414049 2.641786
v 33.807449 -1.498711 2.422812
v 33.728706 -1.591346 2.207032
v 33.656937 -1.691978 1.994746
v 33.592350 -1.800630 1.786271
v 33.535175 -1.917328 1.581949
v 33.490253 -2.029255 1.401908
v 33.455276 -2.135594 1.243226
v 33.425610 -2.247258 1.087943
v 33.401402 -2.364261 0.936280
v 33.382801 -2.486618 0.788469
v 33.369968 -2.614343 0.644749
v 33.363068 -2.747451 0.505369
v 33.362270 -2.885959 0.370587
v 33.366913 -3.015246 0.253435
v 33.375549 -3.135364 0.151533
v 33.388512 -3.259053 0.053138
v 33.405899 -3.386322 -0.041598
v 33.427814 -3.517179 -0.132514
v 33.454372 -3.651634 -0.219450
v 33.485672 -3.789696 -0.302237
v 33.506424 -3.872891 -0.349091
v 33.528889 -3.957348 -0.394404
v 38.399979 -0.200003 0.000000
v 33.000000 -0.466767 -0.004447
v 33.000000 -0.200003 0.000000
v 40.045605 -0.861430 -0.017559
v 33.000000 -0.733449 -0.012453
v 37.771877 -1.768190 -0.077312
v 36.560524 -2.292309 -0.130795
v 35.758713 -2.666009 -0.177477
v 35.162006 -2.964543 -0.219922
v 34.636570 -3.247884 -0.264467
v 34.290039 -3.449216 -0.298657
v 34.032814 -3.608669 -0.327239
v 33.778706 -3.777224 -0.358906
v 34.818165 1.874342 1.093916
v 34.339432 2.422302 0.523932
v 34.807518 1.934065 0.999767
v 34.799114 1.995491 0.907047
v 34.792984 2.058623 0.815812
v 33.960480 2.923219 0.155691
v 34.341103 2.482846 0.455636
v 34.344376 2.544589 0.388513
v 34.789169 2.123463 0.726119
v 33.969959 2.994039 0.094438
v 34.349266 2.607533 0.322598
v 34.787704 2.190015 0.638025
v 35.799408 1.479842 1.378871
v 35.819511 1.423337 1.501607
v 34.355804 2.671679 0.257923
v 34.788433 2.251378 0.560156
v 34.364006 2.737031 0.194525
v 35.782642 1.538580 1.258003
v 35.770466 1.593358 1.150896
v 35.902325 1.828150 0.673635
v 40.687790 0.237927 2.201397
v 42.110611 0.000000 3.078016
v 42.029732 0.000000 2.793412
v 41.964298 0.000000 2.513231
v 41.918915 0.000000 2.265298
v 41.889263 0.000000 2.045954
v 40.655231 0.252872 1.990668
v 40.001663 0.421878 1.638221
v 41.870457 0.000000 1.830561
v 40.634212 0.267331 1.804222
v 41.862999 0.000000 1.640386
v 40.621700 0.281914 1.630622
v 41.864124 0.000000 1.472450
v 39.993176 0.443234 1.480170
v 40.616611 0.296568 1.468637
v 39.990891 0.463405 1.340391
v 40.617805 0.310423 1.325458
v 39.993248 0.482331 1.216705
v 41.872822 0.000000 1.307791
v 40.624073 0.324134 1.192235
v 39.999863 0.501990 1.095131
v 41.887245 0.000000 1.162588
v 40.634739 0.337688 1.067976
v 40.009514 0.520312 0.987608
v 41.905670 0.000000 1.034474
v 40.648331 0.350327 0.958158
v 40.021236 0.537311 0.892440
v 41.929344 0.000000 0.908928
v 40.664745 0.362688 0.855963
v 40.035877 0.554793 0.798853
v 41.958347 0.000000 0.786087
v 40.683578 0.374779 0.760611
v 40.051590 0.570942 0.716027
v 41.992783 0.000000 0.666090
v 40.703262 0.385952 0.676293
v 40.067802 0.585812 0.642660
v 40.724335 0.396791 0.597772
v 40.086010 0.601001 0.570441
v 35.121105 1.137204 2.919795
v 35.065456 1.176152 2.782075
v 35.012436 1.217707 2.645404
v 36.396385 0.844696 3.617785
v 34.962090 1.261873 2.509843
v 36.912937 1.031035 1.960563
v 37.986546 0.747103 2.305150
v 36.898479 1.050991 1.895992
v 35.842896 1.369061 1.626120
v 36.884834 1.071409 1.831799
v 36.872009 1.092289 1.767994
v 36.861172 1.111476 1.710910
v 35.096554 2.520009 0.156922
v 36.892715 1.188612 1.448687
v 35.657249 2.273183 0.207313
v 36.107170 2.087476 0.240492
v 40.379040 0.274959 3.617785
v 42.728394 0.000000 4.537741
v 42.522007 0.000000 4.126329
v 42.359074 0.000000 3.760290
v 42.218178 0.000000 3.398837
v 40.288784 0.286721 3.395274
v 37.956871 1.074791 1.004891
v 37.274685 1.309382 0.892229
v 38.639194 0.880110 1.034828
v 39.139374 0.932417 0.476615
v 40.104115 0.614945 0.506456
v 40.121815 0.627715 0.449711
v 39.152557 0.948757 0.428873
v 40.140865 0.640696 0.393782
v 39.165230 0.963656 0.386410
v 40.161274 0.653887 0.338690
v 39.178669 0.978738 0.344434
v 39.191425 0.992469 0.307079
v 40.183056 0.667288 0.284454
v 40.485420 0.543518 0.345549
v 40.494389 0.548011 0.323435
v 40.503582 0.552533 0.301463
v 40.510448 0.555859 0.285481
v 40.203842 0.679530 0.236389
v 40.223518 0.690694 0.193750
v 40.244122 0.701996 0.151708
v 40.265652 0.713438 0.110275
v 40.288124 0.725018 0.069461
v 34.840973 1.532714 1.777050
v 36.040668 1.049806 2.590741
v 34.876095 2.856854 -0.062096
v 36.384548 1.480670 1.049247
v 36.681644 1.666632 0.553876
v 36.792507 1.777801 0.337549
v 37.759731 1.425214 0.386316
v 38.098778 1.285958 0.436563
v 38.739258 1.206848 0.197775
v 39.203445 1.004954 0.273809
v 39.215981 1.017559 0.240874
v 39.227699 1.029007 0.211523
v 39.238609 1.039394 0.185345
v 38.748009 1.217144 0.175695
v 39.249863 1.049860 0.159396
v 38.756088 1.226467 0.155964
v 39.261459 1.060406 0.133678
v 38.764366 1.235844 0.136367
v 38.771984 1.244330 0.118846
v 39.273403 1.071031 0.108194
v 38.778980 1.252003 0.103171
v 39.284451 1.080661 0.085460
v 38.786106 1.259713 0.087587
v 39.305046 1.098158 0.045027
v 39.315693 1.106984 0.025049
v 39.326569 1.115863 0.005232
v 39.337677 1.124794 -0.014423
v 39.294632 1.089383 0.065164
v 39.846741 0.942733 -0.028522
v 40.311543 0.736737 0.029278
v 40.329273 0.745397 0.000292
v 41.712284 0.173391 0.182970
v 41.328972 0.372645 0.000646
v 42.028488 0.000000 0.560641
v 42.064507 0.000000 0.467896
v 42.104259 0.000000 0.377277
v 42.147800 0.000000 0.288869
v 42.195179 0.000000 0.202756
v 41.736698 0.176225 0.141082
v 42.246460 0.000000 0.119022
v 42.286472 0.000000 0.059333
v 36.581665 2.056932 0.088143
v 38.657314 1.032688 0.596406
v 41.088791 0.468547 -0.013807
v 39.725903 0.992769 -0.035669
v 41.028694 0.492696 -0.017407
v 39.695679 1.005322 -0.037453
v 41.013668 0.498744 -0.018306
v 39.688122 1.008463 -0.037898
v 41.009911 0.500256 -0.018530
v 39.686234 1.009248 -0.038010
v 40.000000 0.000000 0.000000
v 41.151569 -0.160775 1.649639
v 40.504070 -0.274152 2.191209
v 41.148445 -0.169129 1.487311
v 41.151505 -0.177030 1.343804
v 40.470959 -0.291387 1.980653
v 41.159626 -0.184851 1.210253
v 40.449398 -0.308058 1.794377
v 41.172127 -0.192584 1.085664
v 41.187428 -0.199796 0.975535
v 40.796444 -0.274260 1.243841
v 40.805729 -0.285444 1.121791
v 40.817871 -0.295871 1.013820
v 40.831909 -0.305547 0.918232
v 40.848934 -0.315500 0.824208
v 40.866848 -0.324696 0.740974
v 39.723324 -0.486887 1.623703
v 40.885090 -0.333165 0.667228
v 40.905369 -0.341816 0.594619
v 39.713993 -0.511539 1.465908
v 40.925377 -0.349760 0.530272
v 40.944824 -0.357035 0.473193
v 39.710903 -0.534819 1.326373
v 40.965645 -0.364432 0.416922
v 40.987854 -0.371949 0.361480
v 39.712505 -0.556658 1.202920
v 41.011463 -0.379586 0.306886
v 41.033920 -0.386564 0.258492
v 41.055122 -0.392927 0.215550
v 41.077263 -0.399370 0.173201
v 41.100357 -0.405893 0.131454
v 41.124405 -0.412495 0.090321
v 41.149418 -0.419177 0.049813
v 41.168331 -0.424115 0.020585
v 39.758080 -0.646250 0.757639
v 34.900227 -1.848961 1.100205
v 35.517624 -1.554997 1.364784
v 35.538494 -1.495620 1.487309
v 35.500065 -1.616712 1.244138
v 35.487144 -1.674257 1.137241
v 34.889729 -1.907887 1.005962
v 34.881477 -1.968496 0.913146
v 34.875507 -2.030791 0.821811
v 35.766026 -1.872066 0.669145
v 34.871857 -2.094774 0.732014
v 34.870564 -2.160450 0.643812
v 34.476017 -2.304430 0.613487
v 34.476219 -2.368895 0.536047
v 34.478069 -2.428155 0.467549
v 34.481525 -2.488593 0.400218
v 34.190277 -2.675812 0.307960
v 34.486603 -2.550210 0.334088
v 34.196625 -2.741556 0.243569
v 34.204636 -2.808529 0.180462
v 33.951912 -3.003004 0.092471
v 33.963085 -3.075297 0.032632
v 40.288185 -0.287905 3.612288
v 40.197842 -0.300254 3.389823
v 37.802395 -0.783756 2.294883
v 40.513336 -0.600777 0.165774
v 40.526733 -0.606815 0.139999
v 40.539101 -0.612288 0.117000
v 40.550480 -0.617246 0.096464
v 39.867641 -0.747812 0.348579
v 36.305241 -0.858197 3.612288
v 36.223682 -0.886716 3.436965
v 36.681190 -1.082515 1.948078
v 36.666473 -1.103484 1.883580
v 35.562611 -1.438575 1.611621
v 36.652565 -1.124936 1.819461
v 36.976795 -1.399447 0.879030
v 37.579159 -1.184552 0.987100
v 36.732582 -1.229493 1.441408
v 34.927647 -1.201281 2.774137
v 34.874401 -1.243793 2.637528
v 34.823811 -1.288968 2.502033
v 35.724758 -2.241221 0.216409
v 36.121288 -2.079844 0.243697
v 35.268929 -2.410392 0.205151
v 34.972927 -2.539363 0.180048
v 34.800335 -2.755739 0.041739
v 34.538525 -2.883507 0.016299
v 39.003090 -0.725573 1.257903
v 39.250690 -0.875425 0.530115
v 38.750710 -1.136988 0.314361
v 38.299072 -1.015123 0.909563
v 37.643356 -0.961841 1.617660
v 37.994167 -1.350543 0.382332
v 35.827724 -1.108916 2.496799
v 38.257854 -1.433662 0.111493
v 37.618584 -1.452963 0.416804
v 37.319660 -1.581217 0.368719
v 36.236324 -1.523313 1.043398
v 36.538120 -1.714206 0.549455
v 36.723751 -1.801076 0.337083
v 34.811626 -1.539225 1.776783
v 34.168190 -1.571564 2.033045
v 35.931492 -2.358803 0.024063
v 37.872345 -1.548433 0.143167
v 37.680298 -1.604652 0.159138
v 36.630451 -2.034909 0.092877
v 28.900000 0.000000 40.000000
v 19.975000 0.500000 22.500000
v 35.900002 1.000000 40.000000
v 35.900002 -1.000000 40.000000
v 19.975000 -0.500000 22.500000
v 34.817188 -1.000000 13.750000
v 34.849998 -1.000000 22.500000
v 35.210938 -1.000000 31.250000
v 56.900002 -1.000000 40.000000
v 46.039062 -1.000000 31.250000
v 40.452736 -1.000000 18.125000
v 63.900002 0.000000 40.000000
v 49.724998 -0.500000 22.500000
v 56.900002 1.000000 40.000000
v 49.724998 0.500000 22.500000
v 34.817188 1.000000 13.750000
v 34.849998 1.000000 22.500000
v 35.210938 1.000000 31.250000
v 46.039062 1.000000 31.250000
v 40.452736 1.000000 18.125000
vn -0.123540 0.988317 0.089257
vn -0.123540 -0.988318 0.089245
vn 0.006293 -0.038688 -0.999232
vn 0.003042 -0.027215 -0.999625
vn 0.000923 -0.015739 -0.999876
vn 0.000000 -0.005000 -0.999988
vn 0.000000 -0.005000 -0.999988
vn 0.000000 0.000000 1.000000
vn 0.000000 0.005000 -0.999988
vn 0.000923 0.015739 -0.999876
vn 0.003042 0.027215 -0.999625
vn 0.006293 0.038688 -0.999232
vn 0.000000 0.005000 -0.999988
vn 0.000000 0.000000 1.000000
vn -1.000000 -0.000000 0.000000
vn -1.000000 0.000000 -0.000000
vn -1.000000 0.000000 0.000000
vn -1.000000 0.000000 0.000000
vn -1.000000 0.000000 0.000000
vn -1.000000 0.000000 0.000000
vn -1.000000 0.000000 0.000000
vn -1.000000 0.000000 0.000000
vn -1.000000 0.000000 0.000000
vn -1.000000 0.000000 0.000000
vn -1.000000 0.000000 -0.000000
vn -1.000000 0.000000 0.000000
vn -1.000000 -0.000000 0.000000
vn -0.243325 0.639030 0.729681
vn -0.164926 0.389536 0.906124
vn -0.156438 0.372243 0.914856
vn -0.161693 0.406236 0.899348
vn -0.156666 0.364942 0.917755
vn -0.159023 0.358620 0.919839
vn -0.234401 0.922479 0.306739
vn -0.228688 0.917645 0.325006
vn -0.236439 0.934758 0.265187
vn -0.224340 0.935939 0.271460
vn -0.205574 0.926812 0.314259
vn -0.147625 0.982687 0.111950
vn -0.144998 0.982180 0.119575
vn -0.143479 0.981319 0.128168
vn -0.143051 0.980043 0.138029
vn -0.124608 0.980352 0.152913
vn -0.241502 0.894944 0.375168
vn -0.238211 0.884556 0.401018
vn -0.149632 0.954405 0.258306
vn -0.229321 0.884901 0.405415
vn -0.239367 0.883535 0.402579
vn -0.161607 0.972423 0.168157
vn -0.161903 0.951700 0.260874
vn -0.147886 0.946270 0.287583
vn -0.233045 0.863412 0.447448
vn -0.225885 0.887843 0.400887
vn -0.255665 0.849573 0.461369
vn -0.233318 0.863436 0.447259
vn -0.183796 0.922149 0.340383
vn -0.250850 0.831196 0.496173
vn -0.231298 0.852240 0.469242
vn -0.235272 0.861236 0.450467
vn -0.236846 0.846612 0.476605
vn -0.267805 0.847063 0.459091
vn -0.247670 0.826268 0.505905
vn -0.248911 0.824771 0.507737
vn -0.262772 0.787465 0.557540
vn -0.273206 0.815594 0.510063
vn -0.266947 0.756820 0.596626
vn -0.281398 0.777858 0.561918
vn -0.236776 0.660468 0.712544
vn -0.264922 0.708452 0.654150
vn -0.261924 0.742621 0.616368
vn -0.272016 0.725090 0.632654
vn -0.250307 0.821754 0.511925
vn -0.249313 0.805892 0.537011
vn -0.246907 0.813091 0.527181
vn -0.203584 0.881192 0.426677
vn -0.204423 0.888007 0.411891
vn -0.219385 0.715325 0.663461
vn -0.205503 0.705081 0.678697
vn -0.188804 0.664160 0.723357
vn -0.173848 0.652163 0.737875
vn -0.220782 0.632598 0.742344
vn -0.185960 0.636479 0.748541
vn -0.187123 0.589412 0.785862
vn -0.185527 0.638308 0.747089
vn -0.200953 0.625551 0.753859
vn -0.181764 0.544771 0.818649
vn -0.188026 0.592523 0.783302
vn -0.186059 0.594465 0.782300
vn -0.259322 0.768749 0.584617
vn -0.253698 0.680597 0.687332
vn -0.253505 0.753342 0.606804
vn -0.247329 0.694895 0.675240
vn -0.235167 0.697148 0.677260
vn -0.258876 0.748914 0.610009
vn -0.245043 0.642593 0.725967
vn -0.193940 0.827777 0.526472
vn -0.188050 0.744453 0.640646
vn -0.194198 0.823265 0.533406
vn -0.206229 0.786605 0.581998
vn -0.172652 0.815282 0.552726
vn -0.171591 0.812594 0.556999
vn -0.166610 0.776918 0.607157
vn -0.215383 0.536644 0.815858
vn -0.213495 0.515961 0.829580
vn -0.181436 0.559638 0.808632
vn -0.194399 0.657603 0.727851
vn -0.198812 0.600379 0.774608
vn -0.216415 0.631203 0.744814
vn -0.180300 0.493234 0.851007
vn -0.168006 0.451068 0.876534
vn -0.161598 0.442593 0.882042
vn -0.192849 0.434012 0.880024
vn -0.187780 0.437501 0.879392
vn -0.184116 0.442864 0.877481
vn -0.182183 0.450689 0.873893
vn -0.179254 0.539986 0.822364
vn -0.180219 0.531864 0.827431
vn -0.184766 0.536168 0.823642
vn -0.149038 0.917522 0.368702
vn -0.182757 0.886009 0.426132
vn -0.196455 0.923136 0.330493
vn -0.177860 0.925255 0.335065
vn -0.227668 0.826537 0.514785
vn -0.213320 0.828902 0.517122
vn -0.230972 0.785484 0.574166
vn -0.235937 0.847786 0.474965
vn -0.242767 0.745870 0.620276
vn -0.218545 0.773770 0.594574
vn -0.162379 0.891421 0.423086
vn -0.170067 0.929729 0.326621
vn -0.193857 0.935222 0.296277
vn -0.218947 0.634879 0.740939
vn -0.234542 0.694375 0.680319
vn -0.158930 0.855015 0.493651
vn -0.154619 0.859417 0.487335
vn -0.154582 0.887521 0.434063
vn -0.152158 0.859094 0.488678
vn -0.204006 0.706531 0.677639
vn -0.217772 0.741260 0.634908
vn -0.196621 0.753012 0.627944
vn -0.199527 0.666224 0.718565
vn -0.215589 0.640256 0.737288
vn -0.237731 0.689874 0.683782
vn -0.199755 0.579143 0.790374
vn -0.224103 0.575951 0.786167
vn -0.206871 0.695794 0.687805
vn -0.218524 0.655003 0.723338
vn -0.181375 0.724317 0.665183
vn -0.170366 0.691882 0.701623
vn -0.190350 0.712506 0.675353
vn -0.191959 0.710492 0.677017
vn -0.177352 0.786285 0.591864
vn -0.158852 0.910357 0.382121
vn -0.135186 0.936235 0.324329
vn -0.132933 0.912395 0.387123
vn -0.140789 0.919674 0.366578
vn -0.180540 0.864382 0.469308
vn -0.188125 0.794399 0.577529
vn -0.174479 0.789255 0.588755
vn -0.178501 0.840636 0.511341
vn -0.204465 0.784089 0.586002
vn -0.189730 0.859567 0.474497
vn -0.141190 0.950771 0.275861
vn -0.087462 0.991784 0.093349
vn -0.127300 0.975290 0.180567
vn -0.130085 0.961612 0.241620
vn -0.095672 0.956791 0.274588
vn -0.122440 0.981811 0.145105
vn -0.138350 0.952451 0.271472
vn -0.159742 -0.357978 0.919964
vn -0.157500 -0.362226 0.918687
vn -0.158902 -0.408747 0.898708
vn -0.156338 -0.367963 0.916603
vn -0.165159 -0.387203 0.907081
vn -0.124608 -0.980352 0.152913
vn -0.147625 -0.982687 0.111950
vn -0.144998 -0.982180 0.119575
vn -0.143479 -0.981319 0.128168
vn -0.185533 -0.679520 0.709810
vn -0.188875 -0.633967 0.749942
vn -0.248769 -0.674135 0.695453
vn -0.181735 -0.694247 0.696415
vn -0.186567 -0.589905 0.785624
vn -0.182456 -0.544146 0.818910
vn -0.183914 -0.605082 0.774630
vn -0.222100 -0.675982 0.702652
vn -0.215979 -0.605142 0.766261
vn -0.204326 -0.667624 0.715912
vn -0.188977 -0.632319 0.751306
vn -0.203170 -0.881430 0.426383
vn -0.204150 -0.879974 0.428914
vn -0.228053 -0.882164 0.412042
vn -0.228885 -0.843548 0.485838
vn -0.225029 -0.885454 0.406611
vn -0.234401 -0.922479 0.306739
vn -0.228688 -0.917645 0.325006
vn -0.236119 -0.860402 0.451614
vn -0.241502 -0.894944 0.375168
vn -0.233045 -0.863412 0.447448
vn -0.239367 -0.883535 0.402579
vn -0.238211 -0.884556 0.401018
vn -0.236042 -0.847469 0.475479
vn -0.243771 -0.803348 0.543331
vn -0.255665 -0.849573 0.461369
vn -0.250850 -0.831196 0.496173
vn -0.233318 -0.863436 0.447259
vn -0.267805 -0.847063 0.459091
vn -0.247670 -0.826268 0.505905
vn -0.248911 -0.824771 0.507737
vn -0.273206 -0.815594 0.510063
vn -0.248606 -0.815566 0.522539
vn -0.262772 -0.787465 0.557540
vn -0.267890 -0.780168 0.565308
vn -0.266947 -0.756820 0.596626
vn -0.280302 -0.734922 0.617511
vn -0.281398 -0.777858 0.561918
vn -0.264922 -0.708452 0.654150
vn -0.236776 -0.660468 0.712544
vn -0.261924 -0.742621 0.616368
vn -0.272016 -0.725090 0.632654
vn -0.171406 -0.812717 0.556876
vn -0.167265 -0.776452 0.607573
vn -0.140241 -0.755099 0.640436
vn -0.191256 -0.762078 0.618594
vn -0.194102 -0.821692 0.535861
vn -0.205004 -0.778469 0.593262
vn -0.180036 -0.493476 0.850922
vn -0.168733 -0.450408 0.876734
vn -0.182307 -0.436947 0.880819
vn -0.186356 -0.431404 0.882701
vn -0.190347 -0.428332 0.883346
vn -0.177299 -0.534321 0.826478
vn -0.160773 -0.440164 0.883407
vn -0.191369 -0.729385 0.656792
vn -0.201994 -0.771550 0.603249
vn -0.178455 -0.584520 0.791512
vn -0.192140 -0.468722 0.862196
vn -0.170804 -0.491391 0.854026
vn -0.197342 -0.518823 0.831792
vn -0.201090 -0.503958 0.839993
vn -0.180076 -0.531825 0.827487
vn -0.185491 -0.630231 0.753925
vn -0.203842 -0.558631 0.803977
vn -0.209276 -0.956780 0.201931
vn -0.190827 -0.961332 0.198561
vn -0.182447 -0.961686 0.204630
vn -0.170913 -0.935902 0.308019
vn -0.171536 -0.938907 0.298378
vn -0.141508 -0.975049 0.171039
vn -0.173007 -0.927740 0.330708
vn -0.165607 -0.947918 0.272078
vn -0.207021 -0.926615 0.313889
vn -0.190525 -0.954228 0.230543
vn -0.183079 -0.950709 0.250271
vn -0.208783 -0.925565 0.315816
vn -0.238235 -0.919393 0.312988
vn -0.237196 -0.661657 0.711301
vn -0.237998 -0.622439 0.745605
vn -0.236414 -0.695265 0.678759
vn -0.256567 -0.739854 0.621924
vn -0.252178 -0.676521 0.691900
vn -0.250923 -0.745849 0.617047
vn -0.238759 -0.713743 0.658457
vn -0.146454 -0.914532 0.377071
vn -0.181220 -0.884367 0.430179
vn -0.177141 -0.925626 0.334420
vn -0.190779 -0.624010 0.757770
vn -0.202068 -0.669871 0.714452
vn -0.189295 -0.726178 0.660933
vn -0.198653 -0.698868 0.687110
vn -0.202677 -0.775602 0.597799
vn -0.202470 -0.826757 0.524861
vn -0.202759 -0.780471 0.591399
vn -0.201589 -0.771918 0.602913
vn -0.221696 -0.696528 0.682422
vn -0.194328 -0.724778 0.661010
vn -0.191276 -0.597396 0.778801
vn -0.214280 -0.617835 0.756547
vn -0.221428 -0.562704 0.796450
vn -0.221185 -0.562766 0.796474
vn -0.204687 -0.682174 0.701956
vn -0.237883 -0.732601 0.637736
vn -0.213538 -0.817766 0.534473
vn -0.213002 -0.818882 0.532975
vn -0.214345 -0.758090 0.615919
vn -0.234454 -0.838132 0.492511
vn -0.226754 -0.818320 0.528143
vn -0.217649 -0.761453 0.610588
vn -0.234107 -0.673479 0.701156
vn -0.206760 -0.614286 0.761513
vn -0.230263 -0.677903 0.698159
vn -0.211069 -0.608899 0.764651
vn -0.165471 -0.887801 0.429451
vn -0.147004 -0.916860 0.371157
vn -0.146336 -0.891809 0.428091
vn -0.158552 -0.941600 0.297070
vn -0.152394 -0.900582 0.407097
vn -0.180043 -0.900302 0.396283
vn -0.153792 -0.926517 0.343387
vn -0.168899 -0.946519 0.274908
vn -0.185984 -0.835770 0.516622
vn -0.181835 -0.780164 0.598565
vn -0.174034 -0.842166 0.510361
vn -0.199010 -0.769588 0.606736
vn -0.180907 -0.831463 0.525302
vn -0.007400 -0.999315 0.036247
vn -0.089074 -0.984253 0.152684
vn -0.128726 -0.943256 0.306101
vn -0.132539 -0.960820 0.243430
vn -0.133507 -0.943614 0.302932
vn -0.151707 -0.928181 0.339801
vn -0.138203 -0.947797 0.287368
vn -0.133969 -0.973210 0.186854
vn -0.150263 -0.894706 0.420621
vn -0.161052 -0.853877 0.494931
vn -0.161326 -0.889442 0.427631
vn -0.171021 -0.839092 0.516407
vn -0.157275 -0.846841 0.508061
vn 0.000000 0.000000 1.000000
vn 0.000000 0.000000 1.000000
vn 0.000000 1.000000 0.000000
vn 0.000000 1.000000 0.000000
vn -0.000000 1.000000 0.000000
vn 0.000000 1.000000 0.000000
vn 0.000000 0.000000 -1.000000
vn 0.000000 0.000000 -1.000000
vn 0.000000 -1.000000 0.000000
vn 0.000000 -1.000000 0.000000
vn -0.000000 -1.000000 -0.000000
vn 0.000000 -1.000000 0.000000
vn -0.000000 -0.195272 -0.980749
vn 0.000003 -0.194567 -0.980889
vn 0.000003 -0.188176 -0.982135
vn -0.000008 -0.182124 -0.983276
vn -0.000002 -0.190207 -0.981744
vn 0.000002 -0.176395 -0.984319
vn -0.000006 -0.170017 -0.985441
vn -0.000012 -0.181577 -0.983377
vn 0.000004 -0.162656 -0.986683
vn -0.000011 -0.154005 -0.988070
vn -0.000016 -0.168413 -0.985717
vn 0.000003 -0.144089 -0.989565
vn -0.000005 -0.132499 -0.991183
vn -0.000037 -0.150809 -0.988563
vn 0.000025 -0.117051 -0.993126
vn -0.000034 -0.129337 -0.991601
vn -0.000014 -0.092893 -0.995676
vn -0.000099 -0.097623 -0.995223
vn 0.000000 -0.063948 -0.997953
vn 0.000012 -0.063281 -0.997996
vn -0.001953 -0.043335 -0.999059
vn -0.000659 -0.030005 -0.999549
vn 0.000000 -0.016669 -0.999861
vn -0.001968 -0.043240 -0.999063
vn 0.000000 -0.005000 -0.999988
vn -0.001947 -0.043239 -0.999063
vn 0.000044 0.999522 0.030923
vn 0.000000 0.999606 0.028069
vn 0.000101 0.996221 0.086856
vn -0.000035 0.997135 0.075648
vn 0.000119 0.989646 0.143528
vn -0.000062 0.992901 0.118942
vn 0.000064 0.979649 0.200721
vn -0.000043 0.987078 0.160240
vn 0.000050 0.979444 0.201714
vn 0.000118 0.966117 0.258106
vn -0.000036 0.969921 0.243418
vn -0.000065 0.958473 0.285183
vn 0.000111 0.948864 0.315684
vn 0.000005 0.945761 0.324863
vn 0.000124 0.927712 0.373298
vn -0.000004 0.932714 0.360618
vn -0.000035 0.918896 0.394500
vn 0.000097 0.902388 0.430925
vn 0.000062 0.903623 0.428329
vn 0.000118 0.872607 0.488423
vn -0.000044 0.886784 0.462185
vn 0.000027 0.868353 0.495947
vn 0.000110 0.839820 0.542865
vn -0.000018 0.849263 0.527970
vn -0.000007 0.830715 0.556698
vn 0.000086 0.806236 0.591594
vn 0.000008 0.811881 0.583823
vn 0.000063 0.770560 0.637368
vn -0.000030 0.791764 0.610827
vn 0.000059 0.770321 0.637656
vn 0.000092 0.730890 0.682496
vn -0.000030 0.747475 0.664289
vn 0.000006 0.723190 0.690649
vn 0.000098 0.686914 0.726739
vn -0.000005 0.697401 0.716681
vn -0.000016 0.671475 0.741027
vn 0.000101 0.638403 0.769702
vn 0.000022 0.646913 0.762564
vn -0.000008 0.622550 0.782580
vn 0.000084 0.587969 0.808884
vn 0.000010 0.597106 0.802162
vn -0.000016 0.570582 0.821241
vn 0.000058 0.538985 0.842315
vn 0.000025 0.542961 0.839758
vn -0.000025 0.514272 0.857627
vn 0.000066 0.489508 0.871999
vn 0.000057 0.490699 0.871329
vn 0.000000 0.472778 0.881182
vn 0.000000 0.000000 1.000000
vn 0.000000 0.000000 1.000000
vn 0.000000 0.000000 1.000000
vn 0.000000 0.000000 1.000000
vn 0.000000 0.000000 1.000000
vn 0.000000 0.000000 1.000000
vn 0.000000 0.000000 1.000000
vn 0.000000 0.000000 1.000000
vn 0.000000 0.000000 1.000000
vn -0.000000 0.000000 1.000000
vn 0.000000 0.000000 1.000000
vn 0.000000 0.000000 1.000000
vn 0.000000 -0.999606 0.028069
vn -0.000035 -0.997135 0.075648
vn 0.000044 -0.999522 0.030923
vn -0.000062 -0.992901 0.118942
vn 0.000101 -0.996221 0.086856
vn -0.000043 -0.987078 0.160240
vn 0.000119 -0.989646 0.143528
vn 0.000050 -0.979444 0.201714
vn -0.000036 -0.969921 0.243418
vn 0.000064 -0.979649 0.200721
vn -0.000065 -0.958473 0.285183
vn 0.000118 -0.966117 0.258106
vn 0.000005 -0.945761 0.324863
vn -0.000004 -0.932714 0.360618
vn 0.000111 -0.948864 0.315684
vn -0.000035 -0.918896 0.394500
vn 0.000062 -0.903623 0.428329
vn 0.000124 -0.927712 0.373298
vn -0.000044 -0.886783 0.462185
vn 0.000097 -0.902388 0.430925
vn 0.000027 -0.868353 0.495947
vn -0.000018 -0.849263 0.527970
vn 0.000118 -0.872607 0.488423
vn -0.000007 -0.830715 0.556698
vn 0.000008 -0.811881 0.583823
vn 0.000110 -0.839820 0.542865
vn -0.000030 -0.791764 0.610827
vn 0.000086 -0.806236 0.591594
vn 0.000059 -0.770321 0.637656
vn -0.000030 -0.747475 0.664289
vn 0.000063 -0.770560 0.637368
vn 0.000092 -0.730890 0.682496
vn 0.000006 -0.723190 0.690649
vn -0.000005 -0.697401 0.716681
vn -0.000016 -0.671475 0.741027
vn 0.000022 -0.646913 0.762564
vn 0.000098 -0.686914 0.726739
vn 0.000101 -0.638403 0.769702
vn -0.000008 -0.622550 0.782580
vn 0.000010 -0.597106 0.802162
vn -0.000016 -0.570582 0.821241
vn 0.000025 -0.542961 0.839758
vn 0.000084 -0.587969 0.808884
vn -0.000025 -0.514273 0.857627
vn 0.000057 -0.490699 0.871329
vn 0.000058 -0.538985 0.842315
vn 0.000000 -0.472778 0.881182
vn 0.000066 -0.489508 0.871999
vn 0.000000 0.005000 -0.999988
vn 0.000000 0.016669 -0.999861
vn 0.000000 0.070264 -0.997528
vn -0.000179 0.030005 -0.999550
vn 0.000063 0.043335 -0.999061
vn -0.000973 0.024118 -0.999709
vn -0.000434 0.025458 -0.999676
vn 0.000024 0.069362 -0.997592
vn -0.000399 0.066749 -0.997770
vn -0.000015 0.101518 -0.994834
vn 0.000012 0.123235 -0.992378
vn -0.000014 0.101549 -0.994831
vn 0.000003 0.123950 -0.992288
vn 0.000012 0.142312 -0.989822
vn -0.000002 0.140766 -0.990043
vn 0.000001 0.156740 -0.987640
vn -0.000001 0.165737 -0.986170
vn -0.000010 0.155325 -0.987863
vn 0.000003 0.171655 -0.985157
vn -0.000008 0.167435 -0.985883
vn 0.000004 0.178480 -0.983944
vn -0.000004 0.176447 -0.984310
vn -0.000000 0.185520 -0.982641
vn 0.000000 0.190896 -0.981610
vn -0.000005 0.184646 -0.982805
vn 0.000000 0.195502 -0.980703
vn -0.000008 0.193367 -0.981127
vn 1.000000 0.000000 0.000000
vn 1.000000 0.000000 0.000000
vn 1.000000 0.000000 0.000000
vn 1.000000 0.000000 0.000000
vn 1.000000 -0.000000 0.000000
vn 1.000000 -0.000000 0.000000
vn 1.000000 -0.000000 0.000000
vn 1.000000 -0.000000 0.000000
vn 0.184689 0.446891 0.875316
vn 0.183867 0.426295 0.885700
vn 0.188293 0.439746 0.878162
vn 0.171344 0.510845 0.842424
vn 0.189045 0.473118 0.860477
vn 0.203344 0.473002 0.857275
vn 0.215498 0.832502 0.510393
vn 0.215091 0.811893 0.542739
vn 0.204806 0.790522 0.577173
vn 0.218925 0.764986 0.605697
vn 0.225461 0.738140 0.635859
vn 0.223873 0.710346 0.667300
vn 0.362224 0.805075 0.469732
vn 0.326242 0.801386 0.501344
vn 0.208145 0.786574 0.581358
vn 0.296118 0.794636 0.529969
vn 0.317390 0.705742 0.633398
vn 0.209033 0.682613 0.700246
vn 0.220535 0.650582 0.726710
vn 0.220170 0.621786 0.751603
vn 0.212410 0.678004 0.703699
vn 0.290129 0.697237 0.655504
vn 0.271807 0.785355 0.556182
vn 0.215664 0.593958 0.775050
vn 0.201680 0.566959 0.798675
vn 0.178150 0.541156 0.821835
vn 0.232456 0.536050 0.811551
vn 0.219933 0.621146 0.752202
vn 0.193585 0.552370 0.810810
vn 0.267610 0.686848 0.675741
vn 0.253291 0.773905 0.580444
vn 0.251906 0.894082 0.370352
vn 0.249739 0.674758 0.694501
vn 0.224168 0.726527 0.649543
vn 0.198553 0.701421 0.684533
vn 0.179391 0.689352 0.701864
vn 0.241179 0.761151 0.602064
vn 0.213504 0.713804 0.667008
vn 0.236505 0.661093 0.712055
vn 0.214698 0.622317 0.752746
vn 0.193710 0.599439 0.776627
vn 0.240783 0.885668 0.397007
vn 0.198492 0.812150 0.548647
vn 0.216230 0.835332 0.505436
vn 0.233317 0.876245 0.421613
vn 0.208811 0.823883 0.526891
vn 0.233822 0.777651 0.583598
vn 0.228611 0.763594 0.603871
vn 0.236675 0.792141 0.562581
vn 0.237007 0.844197 0.480791
vn 0.198358 0.978507 -0.056370
vn 0.193716 0.980014 -0.045240
vn 0.191385 0.980890 -0.035032
vn 0.190977 0.981255 -0.025817
vn 0.233591 0.971781 0.032826
vn 0.201469 0.979337 -0.017591
vn 0.198929 0.979249 0.038711
vn 0.210014 0.976313 0.052040
vn 0.211521 0.977338 -0.008295
vn 0.224605 0.973158 0.050151
vn 0.220499 0.973161 0.065857
vn 0.220485 0.973165 0.065858
vn 0.221461 0.975168 0.001484
vn 0.220017 0.968210 0.119006
vn 0.229671 0.969932 0.080525
vn 0.230298 0.969785 0.080492
vn 0.229268 0.963907 0.135350
vn 0.237737 0.959466 0.151346
vn 0.238130 0.966525 0.095518
vn 0.240259 0.970626 0.012691
vn 0.229945 0.968493 0.095640
vn 0.240104 0.964431 0.110553
vn 0.245916 0.954664 0.167754
vn 0.249019 0.968183 0.024736
vn 0.245788 0.962985 0.110672
vn 0.253627 0.949532 0.184560
vn 0.249342 0.960166 0.126134
vn 0.253594 0.959020 0.126374
vn 0.257527 0.965561 0.037037
vn 0.257685 0.955753 0.141894
vn 0.260542 0.944356 0.200775
vn 0.260648 0.954910 0.142164
vn 0.265248 0.962882 0.050018
vn 0.266123 0.950942 0.157761
vn 0.267086 0.938883 0.217174
vn 0.266930 0.950699 0.157861
vn 0.272623 0.959965 0.064367
vn 0.273148 0.933139 0.233757
vn 0.274546 0.945674 0.174140
vn 0.279674 0.956735 0.080257
vn 0.273217 0.946097 0.173932
vn 0.282859 0.940034 0.190598
vn 0.278809 0.941397 0.189833
vn 0.278492 0.927460 0.249518
vn 0.283463 0.921558 0.265290
vn 0.283714 0.936644 0.205438
vn 0.096070 0.989264 0.110123
vn 0.127935 0.982071 0.138450
vn 0.149098 0.973409 0.173911
vn 0.158432 0.963392 0.216274
vn 0.162116 0.952036 0.259511
vn 0.158914 0.964983 0.208694
vn 0.167542 0.959441 0.226723
vn 0.091597 0.995416 -0.027526
vn 0.115762 0.993240 0.008537
vn 0.130966 0.990297 0.046479
vn 0.149380 0.979184 0.137420
vn 0.126090 0.992007 0.004882
vn 0.170368 0.939633 0.296756
vn 0.164628 0.926720 0.337769
vn 0.149936 0.912061 0.381660
vn 0.166530 0.954081 0.248993
vn 0.200281 0.964718 0.170901
vn 0.222689 0.944374 0.242007
vn 0.169457 0.951660 0.256178
vn 0.219216 0.942273 0.253112
vn 0.164793 0.949507 0.266982
vn 0.159425 0.947275 0.277947
vn 0.216375 0.939914 0.264090
vn 0.214285 0.937433 0.274410
vn 0.153663 0.945073 0.288487
vn 0.200585 0.911304 0.359570
vn 0.232691 0.661986 0.712482
vn 0.236161 0.715711 0.657256
vn 0.149452 0.943568 0.295539
vn 0.227443 0.761385 0.607093
vn 0.213583 0.636488 0.741125
vn 0.259119 0.638823 0.724405
vn 0.251234 0.705912 0.662246
vn 0.271950 0.763516 0.585736
vn 0.234074 0.689552 0.685367
vn 0.141263 0.987476 -0.070253
vn 0.140938 0.985207 0.097488
vn 0.147932 0.985488 -0.083239
vn 0.143751 0.986983 -0.072113
vn 0.141725 0.987894 -0.063086
vn 0.141223 0.988446 -0.055049
vn 0.230187 0.972436 0.037188
vn 0.146903 0.987924 -0.049254
vn 0.147002 0.989109 -0.007345
vn 0.174349 0.983554 0.047167
vn 0.157545 0.987435 0.012297
vn 0.211503 0.976780 -0.034160
vn 0.248244 0.897247 0.365134
vn 0.199809 0.951198 0.235158
vn 0.259919 0.953767 0.150897
vn 0.257033 0.951709 0.167881
vn 0.255538 0.949004 0.184642
vn 0.224514 0.950487 0.214867
vn 0.257608 0.938330 0.230596
vn 0.270707 0.955815 0.114609
vn 0.264278 0.955160 0.133515
vn 0.318281 0.925666 0.204549
vn 0.309965 0.924652 0.221223
vn 0.303350 0.922814 0.237474
vn 0.294709 0.917452 0.267262
vn 0.292042 0.913949 0.281796
vn 0.290378 0.910173 0.295409
vn 0.251369 0.916525 0.311119
vn 0.298455 0.920417 0.252502
vn 0.283516 0.880605 0.379675
vn 0.292956 0.904568 0.309732
vn 0.295041 0.898703 0.324476
vn 0.286406 0.874162 0.392188
vn 0.289217 0.867670 0.404355
vn 0.287711 0.862918 0.415445
vn 0.299971 0.891053 0.340648
vn 0.290091 0.914690 0.281405
vn 0.295253 0.908249 0.296496
vn 0.298064 0.902467 0.310984
vn 0.298596 0.897183 0.325428
vn 0.283187 0.920995 0.267531
vn 0.301093 0.903287 0.305639
vn 0.257762 0.921127 0.291691
vn 0.253221 0.921166 0.295519
vn 0.300795 0.890684 0.340888
vn 0.300768 0.901442 0.311354
vn 0.249021 0.921282 0.298709
vn 0.304614 0.897918 0.317732
vn 0.300183 0.885247 0.355286
vn 0.296644 0.881382 0.367653
vn 0.291556 0.878270 0.378993
vn 0.284756 0.875768 0.389800
vn 0.276217 0.873885 0.400036
vn 0.183051 0.931589 0.314061
vn 0.194657 0.893249 0.405235
vn 0.190920 0.874432 0.446002
vn 0.179083 0.854949 0.486818
vn 0.219062 0.875577 0.430553
vn 0.202885 0.911015 0.359012
vn 0.202811 0.878500 0.432557
vn 0.165364 0.964490 0.205948
vn 0.168951 0.953904 0.248037
vn 0.194890 0.942374 0.271935
vn 0.144992 0.978715 0.145240
vn 0.159768 0.934230 0.318885
vn 0.213318 0.939712 0.267276
vn 0.129965 0.979999 0.150701
vn 0.168682 0.959352 0.226254
vn 0.224878 0.630316 0.743055
vn 0.221966 0.629454 0.744660
vn 0.227521 0.554526 0.800459
vn 0.260803 0.563773 0.783672
vn 0.237006 0.902886 0.358644
vn 0.285460 0.909596 0.301906
vn 0.199212 0.909789 0.364142
vn 0.234607 0.845015 0.480530
vn 0.224402 0.888355 0.400585
vn 0.212607 0.900357 0.379678
vn 0.230749 0.876678 0.422126
vn 0.245787 0.849740 0.466401
vn 0.247701 0.848756 0.467180
vn 0.249825 0.774139 0.581632
vn 0.197846 0.826932 0.526346
vn 0.278719 0.788609 0.548098
vn 0.282779 0.839820 0.463398
vn 0.264250 0.799504 0.539412
vn 0.231530 0.876242 0.422603
vn 0.297770 0.868202 0.396937
vn 0.254365 0.809972 0.528435
vn 0.309781 0.858918 0.407794
vn 0.304506 0.855645 0.418507
vn 0.300488 0.852188 0.428350
vn 0.297301 0.848451 0.437884
vn 0.294886 0.844471 0.447115
vn 0.293189 0.840473 0.455681
vn 0.298646 0.786603 0.540432
vn 0.332465 0.797403 0.503603
vn 0.293604 0.835574 0.464341
vn 0.287157 0.819497 0.495949
vn 0.287972 0.814915 0.502977
vn 0.327222 0.795564 0.509906
vn 0.293792 0.830604 0.473058
vn 0.322485 0.793598 0.515951
vn 0.288774 0.810407 0.509754
vn 0.287593 0.806969 0.515841
vn 0.318258 0.791541 0.521703
vn 0.295296 0.824761 0.482254
vn 0.314628 0.789511 0.526955
vn 0.288540 0.802783 0.521809
vn 0.295100 0.819840 0.490692
vn 0.293252 0.806884 0.512778
vn 0.292804 0.802311 0.520157
vn 0.292652 0.797403 0.527733
vn 0.293125 0.774100 0.561111
vn 0.311387 0.787462 0.531923
vn 0.289267 0.798835 0.527435
vn 0.295032 0.815226 0.498360
vn 0.293996 0.811192 0.505504
vn 0.289081 0.851046 0.438352
vn 0.282856 0.859923 0.424882
vn 0.287316 0.852950 0.435805
vn 0.355749 0.857272 0.372192
vn 0.290989 0.846272 0.446262
vn 0.346175 0.856040 0.383874
vn 0.338111 0.854061 0.395299
vn 0.331068 0.851271 0.407101
vn 0.324983 0.847620 0.419435
vn 0.319885 0.843079 0.432309
vn 0.316336 0.838343 0.443975
vn 0.326734 0.898052 0.294529
vn 0.360977 0.924530 0.122230
vn 0.347581 0.927883 0.134985
vn 0.337727 0.929511 0.148156
vn 0.330535 0.929649 0.162788
vn 0.325946 0.928224 0.179331
vn 0.283630 0.943055 0.173786
vn 0.298205 0.931427 0.208607
vn 0.344252 0.901678 0.261661
vn 0.334772 0.898326 0.284496
vn 0.327825 0.923158 0.200772
vn 0.327237 0.919128 0.219361
vn 0.328343 0.914274 0.237265
vn 0.318426 0.915064 0.247515
vn 0.247546 0.742804 0.622064
vn 0.265904 0.669045 0.694028
vn 0.272640 0.747341 0.605928
vn 0.256359 0.667166 0.699406
vn 0.269564 0.905967 0.326433
vn 0.283089 0.873815 0.395357
vn 0.245906 0.912241 0.327638
vn 0.277766 0.882796 0.378837
vn 0.294730 0.851951 0.432798
vn 0.280892 0.876344 0.391308
vn 0.267266 0.861665 0.431397
vn 0.337193 0.890514 0.305425
vn 0.281347 0.919205 0.275511
vn 0.322460 0.865390 0.383562
vn 0.286708 0.843512 0.454187
vn 0.290351 0.837142 0.463562
vn 0.306319 0.810978 0.498481
vn 0.325866 0.867111 0.376737
vn 0.315812 0.849061 0.423508
vn 0.304712 0.805795 0.507784
vn 0.313885 0.844377 0.434170
vn 0.326241 0.866648 0.377476
vn 0.304846 0.805513 0.508151
vn 0.311604 0.829598 0.463325
vn 0.293712 0.784718 0.545849
vn 0.317105 0.877186 0.360540
vn 0.292671 0.782165 0.550056
vn 0.297726 0.794601 0.529120
vn 0.315778 0.845489 0.430619
vn 0.313601 0.843688 0.435713
vn 0.326295 0.866583 0.377577
vn 0.314580 0.839403 0.443217
vn 0.299491 0.803438 0.514580
vn 0.299488 0.798548 0.522139
vn 0.298976 0.793773 0.529658
vn 0.295801 0.779641 0.551962
vn -0.024907 -0.026585 0.999336
vn 0.304969 0.805261 0.508477
vn 0.291127 0.831918 0.472395
vn 0.294204 0.825316 0.481973
vn 0.296494 0.819115 0.491062
vn -0.021699 -0.018175 0.999599
vn 0.298015 0.813641 0.499175
vn 0.298997 0.808482 0.506910
vn 0.291731 0.779866 0.553807
vn 0.123694 0.989552 -0.074077
vn 0.000000 0.000000 -1.000000
vn 0.000000 0.000000 -1.000000
vn 0.000000 0.000000 -1.000000
vn 0.194213 -0.505287 0.840813
vn 0.195615 -0.457834 0.867250
vn 0.186604 -0.473775 0.860649
vn 0.188208 -0.445881 0.875082
vn 0.181918 -0.426879 0.885822
vn 0.228668 -0.973014 -0.030912
vn 0.222872 -0.974653 -0.019459
vn 0.220314 -0.975391 -0.008640
vn 0.198060 -0.978573 -0.056285
vn 0.193974 -0.979960 -0.045301
vn 0.191885 -0.980789 -0.035124
vn 0.189149 -0.981732 0.020621
vn 0.230014 -0.973186 0.001541
vn 0.220765 -0.974247 0.045889
vn 0.238928 -0.970955 0.012621
vn 0.230740 -0.971261 0.058397
vn 0.210200 -0.976534 0.046878
vn 0.247666 -0.968533 0.024601
vn 0.241103 -0.967874 0.071342
vn 0.217127 -0.974169 0.062055
vn 0.256165 -0.965931 0.036841
vn 0.250563 -0.964362 0.084995
vn 0.259140 -0.960760 0.098925
vn 0.263874 -0.963273 0.049759
vn 0.264753 -0.962288 0.062509
vn 0.267790 -0.960408 0.076846
vn 0.273079 -0.957537 0.092467
vn 0.248300 -0.966913 0.058532
vn 0.244662 -0.966968 0.071505
vn 0.220244 -0.972228 0.079150
vn 0.257363 -0.965279 0.044723
vn 0.246994 -0.963086 0.107048
vn 0.252665 -0.963798 0.085171
vn 0.259969 -0.960526 0.099025
vn 0.255083 -0.959278 0.121320
vn 0.262398 -0.955434 0.135251
vn 0.259962 -0.954197 0.148083
vn 0.254422 -0.953744 0.160128
vn 0.233587 -0.971394 0.042780
vn 0.225169 -0.972410 0.060967
vn 0.246829 -0.953924 0.170602
vn 0.237463 -0.954562 0.180062
vn 0.205861 -0.968637 0.139155
vn 0.295471 -0.944409 0.144181
vn 0.297326 -0.947768 0.115468
vn 0.226662 -0.955571 0.188437
vn 0.297319 -0.929148 0.219737
vn 0.197582 -0.967622 0.157062
vn 0.238981 -0.966723 0.091299
vn 0.296541 -0.926535 0.231510
vn 0.306309 -0.942400 0.134373
vn 0.303212 -0.920551 0.246271
vn 0.247454 -0.961357 0.120663
vn 0.242267 -0.954832 0.172056
vn 0.246880 -0.963116 0.107042
vn 0.315207 -0.936240 0.155239
vn 0.302003 -0.917463 0.258952
vn 0.308576 -0.910730 0.274502
vn 0.318518 -0.931577 0.175244
vn 0.314805 -0.903965 0.289389
vn 0.313749 -0.900523 0.301031
vn 0.325019 -0.924522 0.199053
vn 0.319729 -0.893116 0.316413
vn 0.318432 -0.889070 0.328869
vn 0.331413 -0.916957 0.222161
vn 0.322194 -0.881803 0.344405
vn 0.320637 -0.877838 0.355797
vn 0.336616 -0.909682 0.243244
vn 0.320027 -0.856866 0.404181
vn 0.278399 -0.948550 0.150824
vn 0.276901 -0.942011 0.189581
vn 0.259048 -0.941418 0.215930
vn 0.280827 -0.949873 0.137394
vn 0.277028 -0.946725 0.164217
vn 0.276593 -0.944567 0.176889
vn 0.256637 -0.886192 0.385748
vn 0.240552 -0.877890 0.414059
vn 0.214788 -0.811921 0.542817
vn 0.230683 -0.868139 0.439454
vn 0.217973 -0.838242 0.499838
vn 0.208879 -0.827221 0.521607
vn 0.233907 -0.837771 0.493383
vn 0.195252 -0.816132 0.543880
vn 0.237359 -0.795668 0.557291
vn 0.235232 -0.781216 0.578246
vn 0.216501 -0.789397 0.574438
vn 0.224151 -0.764385 0.604542
vn 0.224825 -0.738222 0.635989
vn 0.333212 -0.815684 0.472896
vn 0.300150 -0.810684 0.502695
vn 0.273698 -0.802827 0.529677
vn 0.240348 -0.780247 0.577449
vn 0.253779 -0.792592 0.554432
vn 0.211048 -0.798712 0.563488
vn 0.225214 -0.748516 0.623700
vn 0.213454 -0.735976 0.642478
vn 0.197533 -0.724448 0.660421
vn 0.220931 -0.710760 0.667840
vn 0.225378 -0.680124 0.697593
vn 0.219073 -0.714862 0.664063
vn 0.299376 -0.732916 0.610907
vn 0.271698 -0.724173 0.633840
vn 0.251768 -0.713742 0.653594
vn 0.238067 -0.701411 0.671823
vn 0.222144 -0.671205 0.707203
vn 0.207818 -0.657533 0.724197
vn 0.213865 -0.651711 0.727692
vn 0.219832 -0.621850 0.751649
vn 0.215816 -0.593928 0.775031
vn 0.218674 -0.642817 0.734144
vn 0.272355 -0.659718 0.700425
vn 0.248387 -0.648392 0.719647
vn 0.209274 -0.565328 0.797878
vn 0.191117 -0.538275 0.820813
vn 0.232969 -0.522806 0.820000
vn 0.219819 -0.601643 0.767923
vn 0.185168 -0.532887 0.825678
vn 0.198677 -0.606509 0.769853
vn 0.147818 -0.985511 -0.083175
vn 0.143806 -0.986973 -0.072141
vn 0.141851 -0.987872 -0.063142
vn 0.141353 -0.988425 -0.055100
vn 0.125993 -0.991244 -0.039515
vn 0.211671 -0.976826 -0.031736
vn 0.236086 -0.970942 0.039172
vn 0.147038 -0.987902 -0.049300
vn 0.147021 -0.989122 -0.004799
vn 0.158050 -0.987251 0.018880
vn 0.172128 -0.983385 0.057671
vn 0.346534 -0.908418 0.233862
vn 0.322258 -0.904318 0.279926
vn 0.319213 -0.901819 0.291248
vn 0.317048 -0.898872 0.302505
vn 0.338791 -0.908465 0.244768
vn 0.332132 -0.907792 0.256127
vn 0.283844 -0.913318 0.292033
vn 0.326549 -0.906384 0.268017
vn 0.355907 -0.907598 0.222702
vn 0.317871 -0.894088 0.315537
vn 0.334163 -0.864206 0.376143
vn 0.308710 -0.877871 0.366115
vn 0.330893 -0.862375 0.383169
vn 0.311396 -0.873062 0.375227
vn 0.318469 -0.889050 0.328888
vn 0.328202 -0.860520 0.389601
vn 0.313945 -0.868488 0.383624
vn 0.318919 -0.883660 0.342689
vn 0.318359 -0.879172 0.354548
vn 0.317414 -0.851336 0.417704
vn 0.292424 -0.906857 0.303477
vn 0.312378 -0.853668 0.416738
vn 0.141710 -0.989708 0.019887
vn 0.140961 -0.984478 0.104566
vn 0.089043 -0.995689 -0.025971
vn 0.114377 -0.993394 0.009348
vn 0.130381 -0.990358 0.046808
vn 0.139223 -0.986432 0.087003
vn 0.134931 -0.986034 0.097625
vn 0.198360 -0.962034 0.187467
vn 0.222786 -0.940910 0.255058
vn 0.219272 -0.938577 0.266445
vn 0.188385 -0.905943 0.379181
vn 0.250175 -0.891359 0.378011
vn 0.204464 -0.976794 0.063776
vn 0.110229 -0.982907 0.147456
vn 0.140921 -0.973907 0.177895
vn 0.158856 -0.963367 0.216078
vn 0.162600 -0.952011 0.259301
vn 0.142707 -0.975927 0.164926
vn 0.167202 -0.958004 0.232962
vn 0.166329 -0.952412 0.255434
vn 0.267815 -0.758518 0.594075
vn 0.256853 -0.618927 0.742264
vn 0.266888 -0.758677 0.594289
vn 0.224434 -0.652881 0.723448
vn 0.222585 -0.746256 0.627342
vn 0.206088 -0.620292 0.756812
vn 0.258712 -0.719263 0.644771
vn 0.213694 -0.732863 0.645946
vn 0.228842 -0.703390 0.672959
vn 0.240272 -0.569188 0.786317
vn 0.242069 -0.652244 0.718318
vn 0.183324 -0.629092 0.755405
vn 0.241173 -0.550795 0.799038
vn 0.197567 -0.564422 0.801496
vn 0.246440 -0.648401 0.720308
vn 0.208202 -0.657763 0.723878
vn 0.204135 -0.543115 0.814466
vn 0.228559 -0.621976 0.748937
vn 0.243144 -0.957625 0.154385
vn 0.216679 -0.956110 0.197241
vn 0.241954 -0.946138 0.215130
vn 0.240776 -0.955200 0.172102
vn 0.249200 -0.958985 0.135084
vn 0.277257 -0.912491 0.300814
vn 0.299337 -0.860381 0.412483
vn 0.286813 -0.873224 0.393977
vn 0.285876 -0.872788 0.395621
vn 0.285266 -0.914958 0.285440
vn 0.246124 -0.929380 0.275093
vn 0.249029 -0.920893 0.299902
vn 0.213447 -0.927807 0.305966
vn 0.191510 -0.959349 0.207300
vn 0.207364 -0.943262 0.259341
vn 0.209542 -0.940055 0.269050
vn 0.214452 -0.928788 0.302264
vn 0.237798 -0.927024 0.289963
vn 0.218813 -0.955098 0.199770
vn 0.250550 -0.875898 0.412343
vn 0.282324 -0.874959 0.393370
vn 0.151307 -0.974354 0.166556
vn 0.140341 -0.975161 0.171365
vn 0.211957 -0.934893 0.284692
vn 0.169747 -0.957812 0.231911
vn 0.172061 -0.952001 0.253157
vn 0.298631 -0.824626 0.480429
vn 0.283027 -0.749163 0.598875
vn 0.275261 -0.810659 0.516781
vn 0.274248 -0.862663 0.424972
vn 0.234852 -0.873135 0.427177
vn 0.278535 -0.830219 0.482861
vn 0.232977 -0.898259 0.372629
vn 0.194874 -0.911111 0.363182
vn 0.216296 -0.892546 0.395699
vn 0.286778 -0.906017 0.311274
vn 0.230762 -0.839351 0.492177
vn 0.225489 -0.880270 0.417468
vn 0.229997 -0.868249 0.439596
vn 0.246422 -0.843834 0.476675
vn 0.246971 -0.843547 0.476900
vn 0.248530 -0.772257 0.584681
vn 0.274859 -0.781599 0.559960
vn 0.280250 -0.829185 0.483644
vn 0.205446 -0.829732 0.518976
vn 0.203744 -0.904193 0.375398
vn 0.161152 -0.835919 0.524662
vn 0.223635 -0.874806 0.429770
vn 0.216432 -0.876662 0.429676
vn 0.189887 -0.937315 0.292204
vn 0.168923 -0.932591 0.318965
vn 0.173730 -0.931826 0.318620
vn 0.142744 -0.940639 0.307933
vn 0.173993 -0.926311 0.334176
vn 0.186877 -0.910650 0.368502
vn 0.210122 -0.884788 0.415931
vn 0.179844 -0.894065 0.410249
vn 0.152319 -0.875971 0.457682
vn 0.107463 -0.856148 0.505433
vn 0.173141 -0.931683 0.319358
vn 0.236218 -0.695217 0.678877
vn 0.240150 -0.696095 0.676594
vn 0.248257 -0.625104 0.740009
vn 0.300310 -0.635530 0.711277
vn 0.268079 -0.804885 0.529428
vn 0.271020 -0.740686 0.614762
vn 0.282487 -0.804798 0.522017
vn 0.313094 -0.720048 0.619276
vn 0.277943 -0.797220 0.535900
vn 0.258850 -0.804007 0.535323
vn 0.268055 -0.740662 0.616089
vn 0.266111 -0.762670 0.589508
vn 0.242010 -0.745334 0.621215
vn 0.248982 -0.745289 0.618508
vn 0.264135 -0.672512 0.691347
vn 0.260447 -0.672628 0.692632
vn -0.132641 0.986520 0.095833
vn -0.125472 0.988089 0.089085
vn -0.132683 0.986828 0.092546
vn -0.140714 0.984997 0.099907
vn -0.132683 -0.986828 0.092546
vn -0.125472 -0.988089 0.089085
vn -0.132641 -0.986520 0.095833
vn -0.140714 -0.984997 0.099907
vn 0.000000 -1.000000 0.000000
vn 0.000000 -1.000000 0.000000
vn 0.000000 -1.000000 0.000000
vn 0.000000 -1.000000 -0.000000
vn -0.000000 -1.000000 0.000000
vn -0.000000 -1.000000 0.000000
vn 0.000000 -1.000000 0.000000
vn 0.000000 -1.000000 0.000000
vn 0.000000 -1.000000 0.000000
vn 0.000000 -1.000000 0.000000
vn 0.000000 -1.000000 0.000000
vn 0.000000 -1.000000 -0.000000
vn 0.132834 -0.987955 -0.079368
vn 0.125602 -0.989118 -0.076617
vn 0.132799 -0.987690 -0.082667
vn 0.140898 -0.986286 -0.085948
vn 0.132799 0.987690 -0.082667
vn 0.125602 0.989118 -0.076617
vn 0.132834 0.987955 -0.079368
vn 0.140898 0.986286 -0.085948
vn 0.000000 1.000000 0.000000
vn 0.000000 1.000000 0.000000
vn 0.000000 1.000000 0.000000
vn 0.000000 1.000000 0.000000
vn 0.000000 1.000000 0.000000
vn -0.000000 1.000000 0.000000
vn 0.000000 1.000000 0.000000
vn 0.000000 1.000000 0.000000
vn 0.000000 1.000000 0.000000
vn -0.000000 1.000000 0.000000
vn 0.000000 1.000000 0.000000
vn 0.000000 1.000000 0.000000
vn 0.123694 -0.989551 -0.074081
vn 0.000000 0.000000 1.000000
vn 0.000000 0.000000 1.000000
vn 0.000000 0.000000 1.000000
vn 0.000000 0.000000 1.000000
f 1//1 2//1 3//1
f 4//2 1//2 3//2
f 5//3 6//3 7//3
f 6//4 8//4 7//4
f 8//5 9//5 7//5
f 9//6 1//6 7//6
f 9//7 2//7 1//7
f 2//8 9//8 3//8
f 1//9 10//9 7//9
f 10//10 11//10 7//10
f 11//11 12//11 7//11
f 12//12 13//12 7//12
f 1//13 4//13 10//13
f 4//14 3//14 10//14
f 14//15 5//15 15//15
f 5//16 16//16 15//16
f 14//17 6//17 5//17
f 14//18 8//18 6//18
f 14//19 9//19 8//19
f 17//20 3//20 14//20
f 14//21 3//21 9//21
f 17//22 10//22 3//22
f 17//23 11//23 10//23
f 17//24 12//24 11//24
f 17//25 13//25 12//25
f 13//26 18//26 19//26
f 17//27 18//27 13//27
f 20//28 21//28 22//28
f 23//29 24//29 25//29
f 26//30 27//30 24//30
f 26//31 24//31 23//31
f 28//32 27//32 26//32
f 29//33 28//33 26//33
f 30//34 31//34 32//34
f 30//35 33//35 31//35
f 34//36 35//36 36//36
f 34//37 32//37 35//37
f 34//38 30//38 32//38
f 37//39 38//39 39//39
f 37//40 40//40 38//40
f 37//41 41//41 40//41
f 37//42 42//42 41//42
f 37//43 39//43 43//43
f 44//44 45//44 33//44
f 44//45 33//45 30//45
f 46//46 42//46 37//46
f 47//47 30//47 34//47
f 47//48 44//48 30//48
f 48//49 36//49 42//49
f 48//50 34//50 36//50
f 48//51 42//51 46//51
f 49//52 44//52 47//52
f 50//53 47//53 34//53
f 51//54 45//54 44//54
f 51//55 44//55 49//55
f 52//56 34//56 48//56
f 53//57 51//57 49//57
f 54//58 47//58 50//58
f 54//59 49//59 47//59
f 54//60 53//60 49//60
f 55//61 56//61 45//61
f 55//62 45//62 51//62
f 55//63 51//63 53//63
f 57//64 56//64 55//64
f 57//65 58//65 56//65
f 59//66 58//66 57//66
f 60//67 7//67 58//67
f 60//68 16//68 5//68
f 60//69 5//69 7//69
f 60//70 58//70 59//70
f 60//71 59//71 16//71
f 61//72 55//72 53//72
f 61//73 57//73 55//73
f 61//74 53//74 54//74
f 62//75 34//75 52//75
f 62//76 50//76 34//76
f 63//77 64//77 65//77
f 63//78 66//78 64//78
f 67//79 66//79 63//79
f 68//80 66//80 67//80
f 69//81 67//81 63//81
f 69//82 70//82 71//82
f 69//83 71//83 72//83
f 69//84 63//84 70//84
f 69//85 68//85 67//85
f 73//86 72//86 74//86
f 73//87 69//87 72//87
f 73//88 68//88 69//88
f 75//89 59//89 57//89
f 75//90 22//90 16//90
f 75//91 57//91 61//91
f 75//92 16//92 59//92
f 76//93 22//93 75//93
f 76//94 75//94 61//94
f 76//95 20//95 22//95
f 77//96 62//96 78//96
f 79//97 65//97 64//97
f 79//98 80//98 62//98
f 79//99 77//99 65//99
f 79//100 62//100 77//100
f 81//101 82//101 83//101
f 81//102 83//102 84//102
f 85//103 86//103 87//103
f 88//104 89//104 86//104
f 88//105 86//105 85//105
f 88//106 66//106 68//106
f 88//107 68//107 73//107
f 88//108 85//108 66//108
f 90//109 74//109 91//109
f 90//110 91//110 23//110
f 90//111 23//111 25//111
f 90//112 25//112 92//112
f 90//113 92//113 93//113
f 90//114 93//114 94//114
f 90//115 94//115 89//115
f 90//116 73//116 74//116
f 90//117 89//117 88//117
f 90//118 88//118 73//118
f 95//119 62//119 52//119
f 95//120 78//120 62//120
f 95//121 48//121 46//121
f 95//122 52//122 48//122
f 96//123 61//123 54//123
f 96//124 50//124 62//124
f 96//125 62//125 80//125
f 96//126 54//126 50//126
f 96//127 76//127 61//127
f 96//128 80//128 76//128
f 97//129 78//129 95//129
f 97//130 95//130 46//130
f 97//131 46//131 37//131
f 98//132 20//132 76//132
f 98//133 76//133 80//133
f 99//134 81//134 97//134
f 99//135 82//135 81//135
f 99//136 100//136 101//136
f 99//137 101//137 82//137
f 102//138 64//138 66//138
f 102//139 80//139 79//139
f 102//140 79//140 64//140
f 102//141 66//141 85//141
f 103//142 20//142 98//142
f 103//143 98//143 80//143
f 103//144 85//144 87//144
f 103//145 87//145 20//145
f 103//146 80//146 102//146
f 103//147 102//147 85//147
f 104//148 84//148 105//148
f 104//149 105//149 70//149
f 104//150 70//150 63//150
f 104//151 63//151 65//151
f 104//152 81//152 84//152
f 106//153 99//153 97//153
f 106//154 97//154 37//154
f 106//155 100//155 99//155
f 106//156 107//156 100//156
f 108//157 97//157 81//157
f 108//158 104//158 65//158
f 108//159 81//159 104//159
f 108//160 77//160 78//160
f 108//161 65//161 77//161
f 108//162 78//162 97//162
f 109//163 106//163 37//163
f 109//164 43//164 110//164
f 109//165 110//165 111//165
f 109//166 111//166 112//166
f 109//167 112//167 107//167
f 109//168 37//168 43//168
f 109//169 107//169 106//169
f 113//170 114//170 115//170
f 116//171 113//171 115//171
f 117//172 115//172 118//172
f 117//173 116//173 115//173
f 119//174 117//174 118//174
f 120//175 121//175 39//175
f 120//176 39//176 38//176
f 120//177 38//177 40//177
f 120//178 40//178 41//178
f 122//179 123//179 124//179
f 122//180 125//180 123//180
f 122//181 126//181 127//181
f 122//182 124//182 126//182
f 128//183 129//183 125//183
f 128//184 130//184 129//184
f 128//185 125//185 122//185
f 131//186 122//186 127//186
f 132//187 128//187 122//187
f 133//188 122//188 131//188
f 133//189 132//189 122//189
f 134//190 135//190 136//190
f 137//191 134//191 136//191
f 138//192 134//192 137//192
f 138//193 139//193 134//193
f 140//194 138//194 137//194
f 140//195 32//195 31//195
f 140//196 31//196 33//196
f 141//197 139//197 138//197
f 142//198 33//198 45//198
f 142//199 141//199 138//199
f 142//200 138//200 140//200
f 142//201 140//201 33//201
f 143//202 139//202 141//202
f 143//203 144//203 139//203
f 145//204 142//204 45//204
f 145//205 143//205 141//205
f 145//206 141//206 142//206
f 146//207 45//207 56//207
f 146//208 145//208 45//208
f 146//209 143//209 145//209
f 147//210 56//210 58//210
f 147//211 144//211 143//211
f 147//212 146//212 56//212
f 147//213 143//213 146//213
f 148//214 147//214 58//214
f 148//215 19//215 147//215
f 149//216 58//216 7//216
f 149//217 7//217 13//217
f 149//218 13//218 19//218
f 149//219 148//219 58//219
f 149//220 19//220 148//220
f 150//221 151//221 152//221
f 150//222 153//222 151//222
f 150//223 124//223 153//223
f 150//224 126//224 124//224
f 154//225 155//225 135//225
f 156//226 126//226 154//226
f 157//227 158//227 130//227
f 157//228 118//228 158//228
f 157//229 159//229 160//229
f 157//230 160//230 161//230
f 157//231 161//231 119//231
f 157//232 130//232 128//232
f 157//233 119//233 118//233
f 162//234 127//234 126//234
f 162//235 126//235 156//235
f 163//236 128//236 132//236
f 163//237 164//237 159//237
f 163//238 159//238 157//238
f 163//239 157//239 128//239
f 165//240 166//240 164//240
f 165//241 164//241 163//241
f 165//242 132//242 133//242
f 165//243 163//243 132//243
f 167//244 41//244 42//244
f 167//245 42//245 36//245
f 167//246 36//246 35//246
f 167//247 168//247 169//247
f 167//248 137//248 136//248
f 167//249 120//249 41//249
f 167//250 136//250 168//250
f 167//251 169//251 120//251
f 170//252 32//252 140//252
f 170//253 35//253 32//253
f 170//254 167//254 35//254
f 170//255 140//255 137//255
f 170//256 137//256 167//256
f 171//257 172//257 173//257
f 171//258 173//258 174//258
f 175//259 172//259 171//259
f 175//260 171//260 144//260
f 175//261 19//261 172//261
f 175//262 144//262 147//262
f 175//263 147//263 19//263
f 176//264 136//264 135//264
f 176//265 135//265 155//265
f 176//266 168//266 136//266
f 177//267 165//267 133//267
f 177//268 133//268 131//268
f 177//269 127//269 162//269
f 177//270 131//270 127//270
f 178//271 179//271 162//271
f 178//272 154//272 135//272
f 178//273 156//273 154//273
f 178//274 162//274 156//274
f 180//275 162//275 179//275
f 180//276 177//276 162//276
f 180//277 166//277 165//277
f 180//278 165//278 177//278
f 181//279 166//279 180//279
f 181//280 174//280 166//280
f 181//281 180//281 179//281
f 182//282 144//282 171//282
f 182//283 178//283 135//283
f 182//284 135//284 134//284
f 182//285 171//285 179//285
f 182//286 134//286 139//286
f 182//287 139//287 144//287
f 182//288 179//288 178//288
f 183//289 181//289 179//289
f 183//290 174//290 181//290
f 183//291 179//291 171//291
f 183//292 171//292 174//292
f 184//293 176//293 155//293
f 185//294 186//294 187//294
f 185//295 188//295 186//295
f 189//296 169//296 168//296
f 189//297 184//297 185//297
f 189//298 176//298 184//298
f 189//299 168//299 176//299
f 189//300 120//300 169//300
f 190//301 184//301 155//301
f 190//302 126//302 150//302
f 190//303 150//303 184//303
f 190//304 154//304 126//304
f 190//305 155//305 154//305
f 191//306 192//306 121//306
f 191//307 193//307 192//307
f 191//308 185//308 187//308
f 191//309 194//309 193//309
f 191//310 187//310 194//310
f 191//311 189//311 185//311
f 191//312 120//312 189//312
f 191//313 121//313 120//313
f 195//314 188//314 185//314
f 195//315 152//315 188//315
f 195//316 185//316 184//316
f 195//317 184//317 150//317
f 195//318 150//318 152//318
f 172//319 19//319 18//319
f 22//320 15//320 16//320
f 21//321 14//321 15//321
f 22//322 21//322 15//322
f 21//323 196//323 197//323
f 21//324 197//324 14//324
f 14//325 197//325 17//325
f 17//326 197//326 198//326
f 17//327 173//327 18//327
f 173//328 172//328 18//328
f 199//329 173//329 198//329
f 198//330 173//330 17//330
f 200//331 201//331 29//331
f 29//332 201//332 28//332
f 28//333 202//333 27//333
f 27//334 202//334 24//334
f 201//335 202//335 28//335
f 24//336 203//336 25//336
f 25//337 203//337 92//337
f 202//338 203//338 24//338
f 92//339 204//339 93//339
f 93//340 204//340 94//340
f 203//341 204//341 92//341
f 94//342 205//342 89//342
f 89//343 205//343 86//343
f 204//344 205//344 94//344
f 86//345 206//345 87//345
f 205//346 206//346 86//346
f 87//347 207//347 20//347
f 206//348 207//348 87//348
f 20//349 196//349 21//349
f 207//350 196//350 20//350
f 207//351 208//351 196//351
f 208//352 209//352 210//352
f 210//353 209//353 211//353
f 207//354 209//354 208//354
f 209//355 212//355 213//355
f 207//356 212//356 209//356
f 214//357 110//357 43//357
f 214//358 43//358 215//358
f 216//359 111//359 110//359
f 216//360 110//360 214//360
f 217//361 112//361 111//361
f 217//362 111//362 216//362
f 218//363 107//363 112//363
f 218//364 112//364 217//364
f 219//365 107//365 218//365
f 220//366 100//366 107//366
f 220//367 107//367 219//367
f 221//368 100//368 220//368
f 221//369 101//369 100//369
f 222//370 101//370 221//370
f 223//371 82//371 101//371
f 223//372 101//372 222//372
f 224//373 82//373 223//373
f 225//374 83//374 82//374
f 225//375 82//375 224//375
f 226//376 84//376 83//376
f 226//377 83//377 225//377
f 227//378 84//378 226//378
f 228//379 105//379 84//379
f 228//380 84//380 227//380
f 229//381 105//381 228//381
f 230//382 70//382 105//382
f 230//383 105//383 229//383
f 231//384 71//384 70//384
f 231//385 70//385 230//385
f 232//386 71//386 231//386
f 233//387 72//387 71//387
f 233//388 71//388 232//388
f 234//389 72//389 233//389
f 235//390 74//390 72//390
f 235//391 72//391 234//391
f 236//392 74//392 235//392
f 237//393 91//393 74//393
f 237//394 74//394 236//394
f 238//395 91//395 237//395
f 239//396 23//396 91//396
f 239//397 91//397 238//397
f 240//398 23//398 239//398
f 241//399 26//399 23//399
f 241//400 23//400 240//400
f 242//401 26//401 241//401
f 243//402 29//402 26//402
f 243//403 26//403 242//403
f 200//404 29//404 243//404
f 121//405 244//405 39//405
f 245//406 121//406 246//406
f 245//407 247//407 121//407
f 248//408 43//408 249//408
f 215//409 43//409 248//409
f 250//410 251//410 246//410
f 43//411 39//411 244//411
f 250//412 215//412 251//412
f 244//413 249//413 43//413
f 248//414 251//414 215//414
f 251//415 245//415 246//415
f 247//416 244//416 121//416
f 121//417 252//417 246//417
f 192//418 253//418 252//418
f 192//419 252//419 121//419
f 193//420 254//420 253//420
f 193//421 253//421 192//421
f 194//422 255//422 254//422
f 194//423 254//423 193//423
f 187//424 256//424 255//424
f 187//425 257//425 256//425
f 187//426 255//426 194//426
f 186//427 258//427 257//427
f 186//428 257//428 187//428
f 188//429 259//429 258//429
f 188//430 260//430 259//430
f 188//431 258//431 186//431
f 152//432 261//432 260//432
f 152//433 262//433 261//433
f 152//434 260//434 188//434
f 151//435 263//435 262//435
f 151//436 262//436 152//436
f 153//437 264//437 263//437
f 153//438 265//438 264//438
f 153//439 263//439 151//439
f 124//440 266//440 265//440
f 124//441 267//441 266//441
f 124//442 265//442 153//442
f 123//443 268//443 267//443
f 123//444 267//444 124//444
f 125//445 269//445 268//445
f 125//446 270//446 269//446
f 125//447 268//447 123//447
f 129//448 270//448 125//448
f 129//449 271//449 270//449
f 129//450 272//450 271//450
f 130//451 273//451 272//451
f 130//452 274//452 273//452
f 130//453 272//453 129//453
f 158//454 274//454 130//454
f 158//455 275//455 274//455
f 158//456 276//456 275//456
f 118//457 277//457 276//457
f 118//458 278//458 277//458
f 118//459 276//459 158//459
f 115//460 279//460 278//460
f 115//461 280//461 279//461
f 115//462 278//462 118//462
f 114//463 281//463 280//463
f 114//464 280//464 115//464
f 212//465 282//465 213//465
f 282//466 283//466 284//466
f 173//467 199//467 174//467
f 283//468 285//468 286//468
f 286//469 285//469 199//469
f 212//470 285//470 282//470
f 282//471 285//471 283//471
f 199//472 287//472 174//472
f 285//473 287//473 199//473
f 174//474 288//474 166//474
f 166//475 288//475 164//475
f 287//476 288//476 174//476
f 288//477 289//477 164//477
f 164//478 290//478 159//478
f 289//479 290//479 164//479
f 159//480 291//480 160//480
f 160//481 291//481 161//481
f 290//482 291//482 159//482
f 161//483 292//483 119//483
f 291//484 292//484 161//484
f 119//485 293//485 117//485
f 292//486 293//486 119//486
f 117//487 294//487 116//487
f 116//488 294//488 113//488
f 293//489 294//489 117//489
f 113//490 281//490 114//490
f 294//491 281//491 113//491
f 208//492 197//492 196//492
f 210//493 197//493 208//493
f 211//494 197//494 210//494
f 284//495 198//495 197//495
f 284//496 197//496 211//496
f 283//497 198//497 284//497
f 286//498 198//498 283//498
f 199//499 198//499 286//499
f 201//500 243//500 242//500
f 201//501 200//501 243//501
f 202//502 201//502 242//502
f 202//503 241//503 240//503
f 202//504 242//504 241//504
f 203//505 202//505 240//505
f 295//506 229//506 228//506
f 295//507 230//507 229//507
f 296//508 231//508 230//508
f 296//509 232//509 231//509
f 296//510 233//510 232//510
f 296//511 234//511 233//511
f 296//512 295//512 297//512
f 296//513 297//513 298//513
f 296//514 230//514 295//514
f 299//515 296//515 298//515
f 300//516 296//516 301//516
f 300//517 235//517 234//517
f 300//518 236//518 235//518
f 300//519 237//519 236//519
f 300//520 234//520 296//520
f 302//521 300//521 301//521
f 303//522 296//522 299//522
f 304//523 238//523 237//523
f 304//524 239//524 238//524
f 304//525 240//525 239//525
f 304//526 204//526 203//526
f 304//527 237//527 300//527
f 304//528 203//528 240//528
f 305//529 300//529 302//529
f 306//530 296//530 303//530
f 307//531 295//531 308//531
f 309//532 300//532 305//532
f 310//533 301//533 296//533
f 310//534 305//534 302//534
f 310//535 309//535 305//535
f 310//536 296//536 306//536
f 310//537 302//537 301//537
f 311//538 300//538 309//538
f 311//539 304//539 300//539
f 311//540 204//540 304//540
f 312//541 295//541 307//541
f 313//542 299//542 298//542
f 313//543 297//543 295//543
f 313//544 295//544 312//544
f 313//545 298//545 297//545
f 314//546 306//546 303//546
f 314//547 310//547 306//547
f 314//548 303//548 299//548
f 314//549 299//549 313//549
f 315//550 316//550 317//550
f 315//551 317//551 318//551
f 315//552 318//552 319//552
f 315//553 319//553 320//553
f 321//554 322//554 315//554
f 321//555 320//555 323//555
f 321//556 315//556 320//556
f 324//557 321//557 323//557
f 324//558 323//558 325//558
f 324//559 322//559 321//559
f 326//560 324//560 325//560
f 326//561 322//561 324//561
f 326//562 325//562 327//562
f 326//563 328//563 322//563
f 329//564 328//564 326//564
f 329//565 326//565 327//565
f 329//566 330//566 328//566
f 331//567 332//567 330//567
f 331//568 330//568 329//568
f 331//569 327//569 333//569
f 331//570 329//570 327//570
f 334//571 331//571 333//571
f 334//572 335//572 332//572
f 334//573 333//573 336//573
f 334//574 332//574 331//574
f 337//575 338//575 335//575
f 337//576 334//576 336//576
f 337//577 335//577 334//577
f 337//578 336//578 339//578
f 340//579 337//579 339//579
f 340//580 341//580 338//580
f 340//581 338//581 337//581
f 340//582 339//582 342//582
f 343//583 340//583 342//583
f 343//584 344//584 341//584
f 343//585 341//585 340//585
f 343//586 342//586 345//586
f 346//587 347//587 344//587
f 346//588 343//588 345//588
f 346//589 345//589 348//589
f 346//590 344//590 343//590
f 349//591 346//591 348//591
f 349//592 347//592 346//592
f 349//593 350//593 347//593
f 351//594 352//594 350//594
f 351//595 350//595 349//595
f 353//596 218//596 217//596
f 353//597 219//597 218//597
f 353//598 220//598 219//598
f 353//599 221//599 220//599
f 354//600 222//600 221//600
f 354//601 221//601 353//601
f 355//602 222//602 354//602
f 356//603 214//603 215//603
f 356//604 216//604 214//604
f 356//605 217//605 216//605
f 356//606 353//606 217//606
f 356//607 215//607 250//607
f 357//608 223//608 222//608
f 357//609 224//609 223//609
f 357//610 225//610 224//610
f 357//611 222//611 355//611
f 358//612 356//612 359//612
f 360//613 361//613 358//613
f 360//614 358//614 359//614
f 362//615 361//615 360//615
f 362//616 360//616 359//616
f 363//617 362//617 359//617
f 363//618 361//618 362//618
f 364//619 361//619 363//619
f 364//620 363//620 359//620
f 364//621 308//621 361//621
f 365//622 311//622 309//622
f 365//623 309//623 310//623
f 366//624 364//624 359//624
f 367//625 310//625 314//625
f 367//626 205//626 365//626
f 367//627 206//627 205//627
f 367//628 365//628 310//628
f 368//629 367//629 314//629
f 368//630 206//630 367//630
f 369//631 356//631 250//631
f 369//632 359//632 356//632
f 369//633 250//633 370//633
f 369//634 370//634 371//634
f 369//635 371//635 372//635
f 369//636 372//636 373//636
f 374//637 315//637 322//637
f 374//638 373//638 316//638
f 374//639 369//639 373//639
f 374//640 322//640 359//640
f 374//641 316//641 315//641
f 374//642 359//642 369//642
f 375//643 376//643 366//643
f 375//644 366//644 359//644
f 377//645 330//645 332//645
f 377//646 332//646 335//646
f 377//647 335//647 338//647
f 377//648 359//648 322//648
f 377//649 375//649 359//649
f 377//650 322//650 328//650
f 377//651 328//651 330//651
f 378//652 338//652 341//652
f 378//653 341//653 344//653
f 378//654 344//654 347//654
f 378//655 350//655 352//655
f 378//656 352//656 379//656
f 378//657 379//657 380//657
f 378//658 377//658 338//658
f 378//659 347//659 350//659
f 381//660 378//660 380//660
f 381//661 380//661 382//661
f 383//662 382//662 384//662
f 383//663 381//663 382//663
f 385//664 383//664 384//664
f 386//665 385//665 384//665
f 386//666 384//666 387//666
f 388//667 379//667 352//667
f 388//668 380//668 379//668
f 388//669 382//669 380//669
f 388//670 384//670 382//670
f 388//671 352//671 351//671
f 389//672 384//672 388//672
f 389//673 388//673 351//673
f 390//674 389//674 351//674
f 390//675 387//675 384//675
f 390//676 384//676 389//676
f 391//677 390//677 351//677
f 391//678 387//678 390//678
f 391//679 392//679 387//679
f 391//680 393//680 392//680
f 391//681 394//681 393//681
f 391//682 395//682 394//682
f 391//683 396//683 395//683
f 397//684 225//684 357//684
f 397//685 226//685 225//685
f 397//686 227//686 226//686
f 397//687 228//687 227//687
f 397//688 308//688 295//688
f 397//689 361//689 308//689
f 397//690 295//690 228//690
f 398//691 354//691 353//691
f 398//692 357//692 355//692
f 398//693 361//693 397//693
f 398//694 353//694 356//694
f 398//695 397//695 357//695
f 398//696 358//696 361//696
f 398//697 356//697 358//697
f 398//698 355//698 354//698
f 399//699 311//699 365//699
f 399//700 365//700 205//700
f 399//701 205//701 204//701
f 399//702 204//702 311//702
f 400//703 366//703 376//703
f 400//704 364//704 366//704
f 400//705 308//705 364//705
f 400//706 314//706 313//706
f 400//707 312//707 307//707
f 400//708 307//708 308//708
f 400//709 313//709 312//709
f 401//710 400//710 376//710
f 401//711 314//711 400//711
f 401//712 368//712 314//712
f 402//713 401//713 376//713
f 402//714 368//714 401//714
f 403//715 402//715 376//715
f 403//716 207//716 402//716
f 403//717 376//717 375//717
f 404//718 403//718 375//718
f 404//719 207//719 403//719
f 405//720 383//720 385//720
f 405//721 385//721 386//721
f 405//722 386//722 406//722
f 405//723 406//723 407//723
f 405//724 407//724 408//724
f 405//725 408//725 409//725
f 405//726 207//726 404//726
f 410//727 207//727 405//727
f 410//728 409//728 411//728
f 410//729 405//729 409//729
f 412//730 410//730 411//730
f 412//731 207//731 410//731
f 412//732 411//732 413//732
f 414//733 207//733 412//733
f 414//734 412//734 413//734
f 415//735 414//735 413//735
f 415//736 207//736 414//736
f 415//737 413//737 416//737
f 417//738 207//738 415//738
f 417//739 415//739 416//739
f 417//740 416//740 418//740
f 419//741 420//741 421//741
f 419//742 421//742 422//742
f 419//743 422//743 423//743
f 419//744 423//744 207//744
f 419//745 207//745 417//745
f 419//746 417//746 418//746
f 419//747 418//747 424//747
f 419//748 424//748 420//748
f 425//749 386//749 387//749
f 425//750 406//750 386//750
f 425//751 407//751 406//751
f 425//752 387//752 392//752
f 425//753 408//753 407//753
f 425//754 392//754 393//754
f 425//755 393//755 394//755
f 425//756 394//756 395//756
f 425//757 395//757 396//757
f 425//758 396//758 426//758
f 425//759 426//759 427//759
f 428//760 429//760 351//760
f 428//761 348//761 430//761
f 428//762 430//762 431//762
f 428//763 431//763 432//763
f 428//764 432//764 433//764
f 428//765 433//765 434//765
f 428//766 349//766 348//766
f 428//767 351//767 349//767
f 435//768 429//768 428//768
f 435//769 212//769 429//769
f 435//770 434//770 436//770
f 435//771 436//771 437//771
f 435//772 437//772 212//772
f 435//773 428//773 434//773
f 438//774 368//774 402//774
f 438//775 206//775 368//775
f 438//776 402//776 207//776
f 438//777 207//777 206//777
f 439//778 377//778 378//778
f 439//779 404//779 375//779
f 439//780 375//780 377//780
f 439//781 378//781 381//781
f 439//782 383//782 405//782
f 439//783 381//783 383//783
f 439//784 405//784 404//784
f 440//785 351//785 429//785
f 440//786 391//786 351//786
f 440//787 429//787 212//787
f 441//788 409//788 408//788
f 441//789 411//789 409//789
f 441//790 408//790 425//790
f 442//791 391//791 440//791
f 442//792 440//792 212//792
f 443//793 411//793 441//793
f 444//794 442//794 212//794
f 444//795 391//795 442//795
f 445//796 411//796 443//796
f 446//797 425//797 427//797
f 446//798 443//798 441//798
f 446//799 396//799 391//799
f 446//800 445//800 443//800
f 446//801 441//801 425//801
f 446//802 426//802 396//802
f 446//803 444//803 212//803
f 446//804 391//804 444//804
f 446//805 427//805 426//805
f 447//806 421//806 420//806
f 447//807 422//807 421//807
f 447//808 423//808 422//808
f 447//809 207//809 423//809
f 447//810 212//810 207//810
f 447//811 411//811 445//811
f 447//812 413//812 411//812
f 447//813 416//813 413//813
f 447//814 418//814 416//814
f 447//815 446//815 212//815
f 447//816 424//816 418//816
f 447//817 420//817 424//817
f 447//818 445//818 446//818
f 209//819 213//819 448//819
f 211//820 209//820 284//820
f 284//821 209//821 282//821
f 209//822 448//822 282//822
f 278//823 293//823 277//823
f 294//824 293//824 278//824
f 279//825 294//825 278//825
f 280//826 294//826 279//826
f 281//827 294//827 280//827
f 449//828 320//828 319//828
f 449//829 323//829 320//829
f 449//830 325//830 323//830
f 450//831 317//831 316//831
f 450//832 318//832 317//832
f 450//833 319//833 318//833
f 450//834 449//834 319//834
f 451//835 327//835 325//835
f 451//836 325//836 449//836
f 452//837 333//837 327//837
f 452//838 327//838 451//838
f 453//839 449//839 450//839
f 454//840 336//840 333//840
f 454//841 333//841 452//841
f 455//842 449//842 453//842
f 456//843 339//843 336//843
f 456//844 336//844 454//844
f 457//845 339//845 456//845
f 457//846 342//846 339//846
f 457//847 345//847 342//847
f 457//848 348//848 345//848
f 457//849 430//849 348//849
f 458//850 452//850 451//850
f 458//851 454//851 452//851
f 458//852 449//852 455//852
f 458//853 451//853 449//853
f 459//854 454//854 458//854
f 459//855 456//855 454//855
f 460//856 457//856 456//856
f 460//857 456//857 459//857
f 461//858 457//858 460//858
f 462//859 457//859 461//859
f 463//860 457//860 462//860
f 464//861 453//861 450//861
f 464//862 455//862 453//862
f 465//863 457//863 463//863
f 466//864 457//864 465//864
f 467//865 455//865 464//865
f 468//866 430//866 457//866
f 468//867 431//867 430//867
f 468//868 457//868 466//868
f 469//869 431//869 468//869
f 470//870 455//870 467//870
f 470//871 458//871 455//871
f 471//872 431//872 469//872
f 471//873 432//873 431//873
f 472//874 432//874 471//874
f 473//875 460//875 459//875
f 473//876 458//876 470//876
f 473//877 459//877 458//877
f 474//878 433//878 432//878
f 474//879 432//879 472//879
f 475//880 433//880 474//880
f 475//881 434//881 433//881
f 476//882 434//882 475//882
f 477//883 434//883 476//883
f 477//884 436//884 434//884
f 478//885 436//885 477//885
f 479//886 436//886 478//886
f 479//887 437//887 436//887
f 480//888 437//888 479//888
f 481//889 437//889 480//889
f 481//890 212//890 437//890
f 481//891 285//891 212//891
f 482//892 462//892 461//892
f 482//893 466//893 465//893
f 482//894 460//894 473//894
f 482//895 461//895 460//895
f 482//896 463//896 462//896
f 482//897 465//897 463//897
f 483//898 484//898 485//898
f 483//899 486//899 484//899
f 483//900 266//900 267//900
f 483//901 487//901 486//901
f 488//902 487//902 483//902
f 489//903 487//903 488//903
f 490//904 491//904 487//904
f 490//905 487//905 489//905
f 492//906 491//906 490//906
f 493//907 491//907 492//907
f 494//908 267//908 268//908
f 494//909 268//909 269//909
f 494//910 269//910 270//910
f 494//911 488//911 483//911
f 494//912 489//912 488//912
f 494//913 490//913 489//913
f 494//914 493//914 492//914
f 494//915 492//915 490//915
f 494//916 483//916 267//916
f 495//917 493//917 494//917
f 496//918 493//918 495//918
f 497//919 493//919 496//919
f 498//920 270//920 271//920
f 498//921 271//921 272//921
f 498//922 494//922 270//922
f 498//923 495//923 494//923
f 498//924 496//924 495//924
f 498//925 497//925 496//925
f 498//926 499//926 497//926
f 500//927 499//927 498//927
f 501//928 499//928 500//928
f 502//929 272//929 273//929
f 502//930 273//930 274//930
f 502//931 274//931 275//931
f 502//932 498//932 272//932
f 502//933 500//933 498//933
f 502//934 501//934 500//934
f 503//935 275//935 276//935
f 503//936 276//936 277//936
f 503//937 293//937 292//937
f 503//938 502//938 275//938
f 503//939 277//939 293//939
f 503//940 501//940 502//940
f 504//941 370//941 250//941
f 504//942 371//942 370//942
f 504//943 372//943 371//943
f 504//944 373//944 372//944
f 504//945 250//945 246//945
f 505//946 504//946 506//946
f 505//947 464//947 450//947
f 505//948 316//948 373//948
f 505//949 373//949 504//949
f 505//950 450//950 316//950
f 505//951 506//951 464//951
f 507//952 469//952 468//952
f 507//953 475//953 474//953
f 507//954 476//954 475//954
f 507//955 477//955 476//955
f 507//956 471//956 469//956
f 507//957 472//957 471//957
f 507//958 466//958 482//958
f 507//959 474//959 472//959
f 507//960 468//960 466//960
f 508//961 478//961 477//961
f 508//962 507//962 285//962
f 508//963 477//963 507//963
f 509//964 508//964 285//964
f 509//965 478//965 508//965
f 509//966 479//966 478//966
f 510//967 509//967 285//967
f 510//968 479//968 509//968
f 510//969 480//969 479//969
f 510//970 481//970 480//970
f 510//971 285//971 481//971
f 511//972 507//972 482//972
f 511//973 285//973 507//973
f 512//974 504//974 246//974
f 512//975 506//975 504//975
f 512//976 246//976 252//976
f 512//977 252//977 253//977
f 512//978 253//978 254//978
f 512//979 254//979 255//979
f 513//980 506//980 512//980
f 514//981 506//981 513//981
f 515//982 514//982 516//982
f 517//983 515//983 516//983
f 517//984 516//984 485//984
f 518//985 519//985 520//985
f 521//986 513//986 512//986
f 521//987 255//987 256//987
f 521//988 256//988 257//988
f 521//989 257//989 258//989
f 521//990 258//990 259//990
f 521//991 512//991 255//991
f 522//992 521//992 259//992
f 523//993 522//993 259//993
f 524//994 525//994 491//994
f 526//995 290//995 289//995
f 526//996 524//996 491//996
f 526//997 289//997 524//997
f 526//998 491//998 493//998
f 527//999 290//999 526//999
f 527//1000 526//1000 493//1000
f 527//1001 493//1001 497//1001
f 527//1002 497//1002 499//1002
f 528//1003 291//1003 290//1003
f 528//1004 527//1004 499//1004
f 528//1005 290//1005 527//1005
f 529//1006 292//1006 291//1006
f 529//1007 291//1007 528//1007
f 529//1008 528//1008 499//1008
f 529//1009 499//1009 501//1009
f 529//1010 503//1010 292//1010
f 529//1011 501//1011 503//1011
f 530//1012 470//1012 467//1012
f 530//1013 464//1013 506//1013
f 530//1014 482//1014 473//1014
f 530//1015 473//1015 470//1015
f 530//1016 467//1016 464//1016
f 531//1017 511//1017 482//1017
f 531//1018 285//1018 511//1018
f 531//1019 532//1019 285//1019
f 531//1020 533//1020 532//1020
f 531//1021 482//1021 530//1021
f 531//1022 530//1022 533//1022
f 534//1023 519//1023 533//1023
f 534//1024 520//1024 519//1024
f 534//1025 506//1025 514//1025
f 534//1026 514//1026 515//1026
f 534//1027 515//1027 517//1027
f 534//1028 517//1028 520//1028
f 534//1029 533//1029 530//1029
f 534//1030 530//1030 506//1030
f 535//1031 533//1031 519//1031
f 535//1032 532//1032 533//1032
f 536//1033 513//1033 521//1033
f 536//1034 514//1034 513//1034
f 536//1035 516//1035 514//1035
f 536//1036 521//1036 522//1036
f 536//1037 522//1037 523//1037
f 537//1038 285//1038 532//1038
f 537//1039 287//1039 285//1039
f 537//1040 532//1040 535//1040
f 538//1041 535//1041 519//1041
f 538//1042 519//1042 518//1042
f 539//1043 538//1043 518//1043
f 540//1044 518//1044 520//1044
f 540//1045 517//1045 485//1045
f 540//1046 485//1046 484//1046
f 540//1047 520//1047 517//1047
f 540//1048 487//1048 491//1048
f 540//1049 484//1049 486//1049
f 540//1050 486//1050 487//1050
f 541//1051 540//1051 491//1051
f 541//1052 518//1052 540//1052
f 541//1053 491//1053 525//1053
f 542//1054 541//1054 525//1054
f 542//1055 539//1055 518//1055
f 542//1056 518//1056 541//1056
f 543//1057 485//1057 516//1057
f 543//1058 265//1058 266//1058
f 543//1059 483//1059 485//1059
f 543//1060 266//1060 483//1060
f 543//1061 516//1061 536//1061
f 543//1062 536//1062 523//1062
f 544//1063 543//1063 523//1063
f 544//1064 259//1064 260//1064
f 544//1065 260//1065 261//1065
f 544//1066 261//1066 262//1066
f 544//1067 265//1067 543//1067
f 544//1068 262//1068 263//1068
f 544//1069 263//1069 264//1069
f 544//1070 264//1070 265//1070
f 544//1071 523//1071 259//1071
f 545//1072 525//1072 524//1072
f 545//1073 288//1073 525//1073
f 545//1074 289//1074 288//1074
f 545//1075 524//1075 289//1075
f 546//1076 535//1076 538//1076
f 546//1077 287//1077 537//1077
f 546//1078 537//1078 535//1078
f 547//1079 539//1079 287//1079
f 547//1080 546//1080 538//1080
f 547//1081 538//1081 539//1081
f 547//1082 287//1082 546//1082
f 548//1083 287//1083 539//1083
f 548//1084 539//1084 542//1084
f 548//1085 542//1085 525//1085
f 548//1086 525//1086 288//1086
f 548//1087 288//1087 287//1087
f 549//1088 550//1088 244//1088
f 244//1089 550//1089 249//1089
f 249//1090 550//1090 551//1090
f 551//1091 550//1091 549//1091
f 552//1092 553//1092 247//1092
f 247//1093 553//1093 244//1093
f 244//1094 553//1094 549//1094
f 549//1095 553//1095 552//1095
f 245//1096 554//1096 247//1096
f 247//1097 554//1097 555//1097
f 247//1098 556//1098 552//1098
f 552//1099 556//1099 557//1099
f 558//1100 556//1100 555//1100
f 555//1101 556//1101 247//1101
f 557//1102 556//1102 558//1102
f 557//1103 559//1103 245//1103
f 555//1104 559//1104 558//1104
f 245//1105 559//1105 554//1105
f 554//1106 559//1106 555//1106
f 558//1107 559//1107 557//1107
f 560//1108 561//1108 251//1108
f 251//1109 561//1109 245//1109
f 245//1110 561//1110 557//1110
f 557//1111 561//1111 560//1111
f 562//1112 563//1112 248//1112
f 248//1113 563//1113 251//1113
f 251//1114 563//1114 560//1114
f 560//1115 563//1115 562//1115
f 249//1116 564//1116 248//1116
f 565//1117 564//1117 249//1117
f 551//1118 566//1118 249//1118
f 249//1119 566//1119 565//1119
f 562//1120 567//1120 551//1120
f 566//1121 567//1121 565//1121
f 551//1122 567//1122 566//1122
f 248//1123 568//1123 562//1123
f 562//1124 568//1124 567//1124
f 564//1125 568//1125 248//1125
f 565//1126 568//1126 564//1126
f 567//1127 568//1127 565//1127
f 213//1128 282//1128 448//1128
f 551//1129 549//1129 552//1129
f 562//1130 552//1130 557//1130
f 562//1131 551//1131 552//1131
f 560//1132 562//1132 557//1132
